<?xml version="1.0" encoding="utf-8"?>
<!-- Generator: Adobe Illustrator 26.0.2, SVG Export Plug-In . SVG Version: 6.00 Build 0)  -->
<svg version="1.1" id="Слой_1" xmlns="http://www.w3.org/2000/svg" xmlns:xlink="http://www.w3.org/1999/xlink" x="0px" y="0px"
	 viewBox="0 0 366.2 292.9" style="enable-background:new 0 0 366.2 292.9;" xml:space="preserve">
<style type="text/css">
	.st0{fill:#B21533;}
	.st1{fill:#343434;}
	.st2{fill:#811619;}
	.st3{fill:#FFFFFF;}
	.st4{fill:#C2C2C2;}
	.st5{fill:none;}
</style>
<desc>Created with Fabric.js 4.6.0</desc>
<g id="vuzfc97BOJPK_KcOhY3K0" transform="matrix(1 0 0 1 -251.32 218.47)">
	<g>
		<g vector-effect="non-scaling-stroke">
			<path class="st0" d="M291.3,41.9c-16.5,0-30-13.5-30-30v-190c0-16.5,13.5-30,30-30H587c16.5,0,30,13.5,30,30v190
				c0,16.5-13.5,30-30,30H291.3z"/>
		</g>
	</g>
</g>
<g id="GRO02Lh2TaFD3z6i2Q4RX" transform="matrix(1 0 0 1 -360.3 192.12)">
	<path vector-effect="non-scaling-stroke" class="st1" d="M481.5-114.4c-1.8-1.5-3.9-2.5-6.2-3c-0.4-0.1-0.8-0.2-1.2-0.2l-1.2-0.2
		c-0.3-0.1-0.8-0.1-1.2-0.1c-5.1-0.4-10.2,0-15.2,1.1c-3.1,0.6-6.2,1.4-9.2,2.2c-2.2,0.6-4.6,1.4-6.8,2.1c-12,4-23.5,9.3-34.4,15.7
		c-2.7,1.6-5.3,3.4-7.8,5.3c-2.6,2.1-7.5,6.3-6.6,10c0.3,0.9,0.8,1.6,1.5,2.2c0.7,0.6,1.5,1.2,2.4,1.6c2.8,1.4,6.1,1.5,8.9,0.3
		c5.8-2.1,10.7-7,14.5-11.8l-0.5,0.7c4-1.8,8-3.3,12.2-4.8c4.6-1.7,9.4-3,14.3-3.8c6-0.6,12-0.5,18,0.1c2.2,0.2,4.3,0.4,6.5,0.8
		c-2.2-0.1-4.4-0.1-6.5-0.2h-2.9c-4.7,4.7-11,10.5-15.8,15.1c-3.9,4.1-7.1,8.8-10.5,13.3c0.6,0.9,1.2,1.7,1.9,2.5
		c0.2,0.2,0.6,0.6,0.8,0.8c0.4,0.3,0.7,0.6,1.1,0.9c1.6,1.1,3.2,2,4.8,2.9c8.8,4.6,17.9,8.5,26.9,12.7l0.7-1.1
		c0.6-1.1,1.2-2.2,1.8-3.3c2.3-4.4,4.4-9,6.4-13.6c3.2-6.8,5.6-14,7.2-21.3c0.8-3.7,1.2-7.4,1.1-11.2c0-1.1-0.1-2.3-0.3-3.4
		c0,0.3,0.1,0.5,0.1,0.8C485.8-105.2,484.4-111.7,481.5-114.4z"/>
</g>
<g id="if-j9ixaTH-4MPApWCo5M" transform="matrix(1 0 0 1 -324.21 92.34)">
	<path vector-effect="non-scaling-stroke" class="st2" d="M430.3-76.2c0.7,0.1,1.4,0.2,2.1,0.4c2.4,0.4,4.9,1,7.3,0.2
		c2.2-1,4.3-2.4,6.2-4c1.6-1.5,3.5-2.7,5.4-3.6c0.7-0.2,1.4-0.4,2.2-0.5c1.2-0.2,2.5-0.2,3.8,0c-0.2-0.8-0.3-1.6-0.5-2.4
		c-0.2-1-0.2-2.1-0.4-3c-0.2-0.9-0.9-1.5-1.8-1.6c-1-0.2-2-0.2-2.9-0.2c-1,0-2,0-3,0.2c-3.1,0.6-4.9,3.1-7.3,5
		c-1.4,1.2-3.1,2-4.9,2.3c-1.3,0.2-2.6,0.3-3.9,0.1c-2-0.2-4-1-6-1.1c-1-0.1-2,0.1-2.9,0.4c-1.6,0.8-2.2,2.6-2.4,4.3
		c1.2,0.7,2.3,1.4,3.3,2.2c0.8,0.6,1.6,1.3,2.4,2c0.6-0.3,1.4-0.8,1.5-0.8C429-76.3,429.7-76.3,430.3-76.2z"/>
</g>
<g id="ROy_hbPCyKRo4Nlm89NA7" transform="matrix(1 0 0 1 -333.9 151.29)">
	<path vector-effect="non-scaling-stroke" class="st1" d="M446.8-82.8c-1.7-2.4-3.7-4.6-5.6-6.9c-3.5,5.1-8.3,9.2-13.9,11.8
		c0.2,0.4,0.3,0.9,0.2,1.3c1.6-0.3,3.2-0.6,4.8-0.9c1.3-0.2,2.8-0.4,4.2-0.5c1-0.1,2-0.1,3-0.2h2.4l2.4,0.1c2.3,0.2,4.5,0.7,6.7,1.4
		C449.5-78.6,448.2-80.7,446.8-82.8z"/>
</g>
<g id="h8cpDc6kuube2kfDq7H08" transform="matrix(1 0 0 1 -317.41 111.99)">
	<path vector-effect="non-scaling-stroke" class="st2" d="M437.3-76.7c4.3,0.3,10-0.5,13.4-3.4c1.5-1.9,1.8-6.5,1.9-9.4
		c-2.1,1.9-4.7,3.1-7.4,3.5c-1.9,0.3-3.8,0.1-5.6-0.5c-3.5-1.1-7-2.5-10.7-2.3c-1.1,0-2.1,0.3-2.9,1c1.6,2.8,2.9,5.7,3.7,8.8
		C431.9-77.7,434.6-76.9,437.3-76.7z"/>
</g>
<g id="AWTmRKEwosRZKIu__cYzc" transform="matrix(1 0 0 1 -365.02 106.56)">
	<path vector-effect="non-scaling-stroke" class="st2" d="M441-77.2c0.5-0.1,1.2-0.4,1.6-0.5c1.3-0.4,2.8-1.1,4-1.6
		c1.8-0.8,3.8-1.7,5.5-2.7c4.4-2.4,8.6-5.2,12.5-8.3c-0.7-0.5-1.5-1-2.2-1.5c-4.1,3.2-8.4,6-13.1,8.3c-3.9,2-8,3.5-12.3,4.6
		c-7.2,1.8-14.7,2.4-22.2,1.6c-0.4,0.8-0.7,1.7-1,2.5c7.7,0.7,15.5,0.3,23.1-1.3C438.1-76.3,439.7-76.7,441-77.2z"/>
</g>
<g id="_x36_VK8GS-X6OTfvVengqowj" transform="matrix(1 0 0 1 -359.18 128.69)">
	<path vector-effect="non-scaling-stroke" class="st1" d="M471.9-81.4c1.3-8.7-1-17.5-6.4-24.5c-1.9-2.5-4.2-4.7-6.7-6.6
		c-4.5,4.4-9.6,8-15.1,10.9c-0.6,0.3-1.8,0.9-2.4,1.2l-2.5,1c-0.6,0.2-1.9,0.7-2.5,0.9l-2.6,0.8c-0.6,0.1-2,0.5-2.6,0.6
		c-2.3,0.5-4.6,0.8-7,1c-5.5,0.4-10.9,0.1-16.3-0.8c-1.8,5.1-2.3,10.5-1.5,15.8c1.5,9.5,7.2,17.8,15.5,22.7
		C441.6-46.8,468.4-58.4,471.9-81.4z M453-77.7c-2.8,2.5-6.1,4.5-9.7,5.8c-7.3,2.3-15.2,2-22.4-0.9c-4.6-1-7.8-5.2-7.4-9.9
		c0.4-4.7,4.2-8.4,8.9-8.6c0.7,0,1.4,0,2.1,0.1c4.4,0,8.8-0.9,13-2.4c2.9-1.2,5.7-2.7,8.3-4.6c3.8-3.8,9.5-4.3,13.6-0.5
		c2,1.9,3,4.5,2.9,7.2c-0.1,2.5-1.2,4.8-2.9,6.6C457.5-82.2,455.4-79.8,453-77.7z"/>
</g>
<g id="kcFnQBBS9b0-7WKtgC_NS" transform="matrix(1 0 0 1 -365.65 102.58)">
	<path vector-effect="non-scaling-stroke" class="st1" d="M452.3-81.9c3.6-1.8,7.2-3.8,10.6-6c-15.5-9.6-35.7-4.9-45.4,10.6
		c-0.8,1.3-1.5,2.6-2.2,4c7.4,0,14.7-0.9,21.9-2.7C442.5-77.5,447.5-79.5,452.3-81.9z"/>
</g>
<g id="BDr2EKBsL-4SwRjjSquu5" transform="matrix(1 0 0 1 -356.27 191.37)">
	<path vector-effect="non-scaling-stroke" class="st1" d="M450.8-95.6c-1.6,0-3.2,0.1-4.8,0.2c-2.3,0.1-4.6,0.3-6.9,0.7
		c-1.3,5.9-3.8,13.2-7.5,17.8c-1.3,1.5-2.6,2.8-4.1,4.1c0.1,0.8,0.4,1.5,0.6,2.2c2.9-5,6.4-9.6,10.3-13.8
		C442.4-88.4,446.5-92.1,450.8-95.6z"/>
</g>
<g id="Wv9udryRMJfCfyoIFoT7B" transform="matrix(1 0 0 1 -350.77 217.29)">
	<path vector-effect="non-scaling-stroke" class="st2" d="M429.8-86.6c-1.4-0.8-2.6-1.8-3.7-2.9c-2.3-2.5-3.8-5.7-4.2-9.1
		c-1.1,1-2.3,1.8-3.6,2.6c0.2,3.9,1.6,7.6,4,10.6c0.2,0.3,0.5,0.6,0.8,0.9c0.6,0.6,1.3,1.2,2.1,1.7c2.7,1.7,5.4,3.2,8.2,4.6
		c3.8,1.9,7.6,3.7,11.4,5.5c3.7,1.7,7.3,3.4,11,5.2c0.8-1.3,1.5-2.6,2.3-3.9l0.7-0.3c-0.1,0-0.2,0-0.3,0l0,0l0.1-0.1
		c0.4-0.4,0.8-0.9,1.1-1.4c-5.6-1.9-11.1-4-16.5-6.4C438.8-81.6,434.2-84,429.8-86.6z"/>
</g>
<g id="RGcS3ppOaodGD4xB1tEnJ" transform="matrix(1 0 0 1 -360.37 125.9)">
	<path vector-effect="non-scaling-stroke" class="st3" d="M435.9-89c-3.2,0.8-6.4,1.1-9.7,0.8c-0.1,0-0.3,0-0.4,0
		c-0.7-0.1-1.5-0.1-2.2,0c-3.9,0.5-7.1,3.4-7.9,7.2c-0.8,3.8,0.9,7.8,4.3,9.8c0.8,0.5,1.8,0.9,2.7,1.1c0.2,0,0.3,0.1,0.4,0.2
		c7.2,2,15,2.2,22-0.5c4-1.6,7.7-4,10.8-7c2.1-1.9,4-4.1,5.6-6.4c0.7-1.5,1.1-3.1,1.2-4.8c0-2.5-1-4.9-2.8-6.6s-4.2-2.6-6.7-2.5
		c-1.9,0.1-3.7,0.8-5.3,1.8C444.6-92.7,440.4-90.3,435.9-89z M431.6-73.1c-0.1,0-0.1,0-0.2,0c-0.7-0.1-1.7-1.9-2.3-3.8
		c-0.3-1-0.6-2-0.7-3c-0.1-0.4,0-0.8,0.1-1.2h-0.3c-1.6-0.2-3.1-0.6-4.7-1.2c1.6-0.1,3.2,0,4.8,0.3c1.6,0.2,3.1,0.6,4.7,1.2
		c-1.1,0.1-2.3,0-3.4-0.1c0.2,0.2,0.3,0.3,0.4,0.5c0.5,0.9,1,1.8,1.3,2.8C432-75.6,432.3-73.3,431.6-73.1z M446.9-87.9
		c1.1-1.1,2.4-2.2,3.7-3c-0.8,1.2-1.8,2.4-2.8,3.4c0.3,0.2,0.6,0.5,0.8,0.9c0.5,0.9,1,1.8,1.3,2.8c0.7,2,1,4.3,0.3,4.5
		c-0.1,0-0.1,0-0.2,0c-0.7-0.1-1.7-1.9-2.3-3.8c-0.3-1-0.6-2-0.7-3c0-0.2,0-0.4,0-0.5c-0.9,0.9-1.9,1.7-3,2.4
		C444.7-85.6,445.8-86.8,446.9-87.9z"/>
</g>
<g id="hYdykFczj85R5QSom2vjb" transform="matrix(1 0 0 1 -353.3 193.07)">
	<path vector-effect="non-scaling-stroke" class="st2" d="M453.1-97.3c-1.7,0-3.4,0-5.2,0c-1.8,1.9-3.7,3.8-5.6,5.7
		c-2.7,2.7-5.8,5.7-8.4,8.5c-3.1,3.5-5.8,7.2-8.7,10.8c0.4,1.2,1,2.3,1.7,3.3c2.8-5,6.1-9.6,9.9-13.9
		C442-87.9,447.5-92.7,453.1-97.3z"/>
</g>
<g id="WeplfJ6YxC4GLdPUcoVmf" transform="matrix(1 0 0 1 -315.99 197.51)">
	<path vector-effect="non-scaling-stroke" class="st1" d="M431.1-62.2c3.5-1.9,6.9-4.1,10.1-6.5c2.2-1.8,5.2-4.3,5.8-7.2
		c0.3-2.1,0.3-4.2,0.1-6.3c-0.8-7.4-2.7-14.6-4.5-21.8c0.1,1.2,0.1,2.4,0.1,3.7C442.2-86.9,436.7-74.3,431.1-62.2z"/>
</g>
<g id="s7exxYzJZ0OoyzPi5vnnR" transform="matrix(1 0 0 1 -385.77 250.74)">
	<path vector-effect="non-scaling-stroke" class="st1" d="M462.3-113.7c-1.6-0.9-3.2-2.1-4.6-3.3c-3-3.4-4.6-7.9-4.3-12.5l-0.4,0.3
		c-0.4,0.2-0.9,0.5-1.3,0.7c0.8,1.3,1.4,2.8,1.9,4.3c-2.2-4.4-5.4-8.1-9.5-10.9c-1.6-1-3.4-2.1-5-3c-0.6-0.4-1.3-0.7-2-1
		c-0.1,0-0.2-0.1-0.4-0.1c-1.9,1.6-4.1,2.9-6.4,3.8c-3,1.3-6.5,1.3-9.5-0.2l-0.2-0.1c-1.6,2.7-3,5.5-4.4,8.3
		c-2.8,5.9-5.2,11.9-7.2,18.1c-1,3.2-2.1,6.4-3,9.6c-2.4,0.5-4.7,0.9-7.1,1.5c-2,0.5-10.9,2.5-11.5,4.1c0.8,2.4,9.7,5,12.3,5.6
		c3.7,0.9,11.6,2.9,15,1.8c1-0.3,1.6-1.2,1.6-2.1l0.3-1.7v-0.2l0.1-0.1c6.3-5.9,12.5-12.3,16.9-19.9c0.8-1.5,1.5-3.2,2.2-4.8
		c1-2.4,2-4.9,2.8-7.4c0.3-0.8,0.5-1.7,0.7-2.5c-0.2,1.7-0.7,3.5-1.2,5.1c-0.5,1.7-1.1,3.3-1.7,5c-0.3,0.8-0.6,1.6-0.9,2.4
		c5.3,1.2,12.7,3.7,15.7,8.4c0.7,1,3.3,4.6,2.5,5.7c-5.4,5.4-17.2,18.1-18.8,26.2c-0.2,0.8-0.2,1.7,0,2.5c0.3,1.2,0.8,2.3,1.5,3.3
		c2.4,3.6,5.1,7,8.2,10c4.1,4.1,8.4,8,12.9,11.7l0.3,0.2c-0.4,2.3-0.7,4.6-1,6.8s-1.1,9.2,0.2,10.8c0.1,0.1,0.3,0.1,0.4,0.1
		c0.7,0,1.5-0.2,2.2-0.5c1.5-0.6,2.9-1.4,4.3-2.3c1.8-1.2,3.6-2.4,5.3-3.8c1.3-1,2.4-2.1,3.5-3.4c1.4-1.6,2.7-3.4,3.8-5.3
		c0.7-1.4,0.9-2.9-0.6-3.9l-2.6-2.1l-0.1-0.1v-0.2c-0.9-4.3-2.4-8.4-4.4-12.2c-3-5.8-6.9-11.3-12.2-15.3c-0.6-0.4-1.2-0.8-1.8-1.2
		c0.7,0.3,1.3,0.7,1.9,1.1c1.6,1.1,3.1,2.4,4.4,3.8c6.1-4.8,12.2-9.6,18.1-14.7c2.9-2.5,5.9-5,8.1-8.3c1.3-1.9,2.6-3.9,3.8-5.9
		c-4.8-1.7-9.6-3.6-14.3-5.6C471.7-108.7,466.9-111,462.3-113.7z"/>
</g>
<g id="Hs_lwu64F8SP7iwXCLI6N" transform="matrix(1 0 0 1 -359.41 125.35)">
	<path vector-effect="non-scaling-stroke" d="M452.4-52.5c0.2,0.2,0.3,0.3,0.4,0.5c5.6-2.6,10.4-6.7,13.9-11.8
		c0-0.1-0.1-0.1-0.2-0.2l0.2,0.1c2.9-4.3,4.8-9.1,5.6-14.2c0.8-4.8,0.5-9.7-0.8-14.4l-0.3-0.2l0.3,0.2c-0.8-3.1-2.1-6.1-3.7-8.8
		c-0.1,0.1-0.2,0.2-0.3,0.4c0.1-0.2,0.2-0.3,0.3-0.4c-1.6-2.6-3.5-4.9-5.6-7l-0.7,0.3l0.6-0.3c-0.8-0.7-1.6-1.4-2.4-2
		c-1.1-0.8-2.2-1.6-3.3-2.2c0,0.3,0,0.6,0,0.8c0-0.3,0-0.6,0-0.9c-23-13.6-52.8,4-50.7,31.8c1.7,21.3,22.5,36.7,43.3,30.4
		c1.1-0.3,2.2-0.7,3.2-1.2C452.2-51.9,452.3-52.2,452.4-52.5z M422.1-55c-8.3-4.8-14-13.2-15.5-22.7c-0.8-5.3-0.3-10.7,1.5-15.8
		l-0.4-0.1h0.4c0.3-0.9,0.6-1.7,1-2.5l-0.6-0.1h0.6c0.6-1.4,1.3-2.7,2.2-4c9.6-15.4,29.9-20.1,45.4-10.6l0.7-0.4l-0.6,0.5
		c0.8,0.5,1.5,1,2.2,1.5l0.6-0.4c-0.2,0.2-0.3,0.3-0.5,0.5c2.5,1.9,4.8,4.1,6.7,6.6c5.4,6.9,7.7,15.8,6.4,24.5
		C468.6-55.1,441.8-43.4,422.1-55z"/>
</g>
<g id="ooHAAzphfHteq_m4WdpUB" transform="matrix(1 0 0 1 -365.59 105.29)">
	<path vector-effect="non-scaling-stroke" d="M449.8-82.2c4.7-2.3,9.1-5.1,13.2-8.3l-0.1,0c-3.4,2.2-7,4.2-10.6,6
		c-4.8,2.4-9.9,4.4-15.1,5.8c-7.1,1.8-14.5,2.7-21.9,2.7v0.1c7.4,0.7,14.9,0.2,22.2-1.6C441.8-78.7,445.9-80.3,449.8-82.2z"/>
</g>
<g id="nnnABSkk5v0pECsRwTDqP" transform="matrix(1 0 0 1 -389.74 112.38)">
	<path vector-effect="non-scaling-stroke" d="M438.9-83.1l0.6,0.1v-0.1L438.9-83.1z"/>
</g>
<g id="Fsj_y-OhZlhIeNdZdhxg5" transform="matrix(1 0 0 1 -341.53 97.59)">
	<path vector-effect="non-scaling-stroke" d="M439.5-83.4l-0.7,0.4l0.1,0L439.5-83.4z"/>
</g>
<g id="_x32_jRGyg9jWZY6bhYJciELY" transform="matrix(1 0 0 1 -364.98 107.71)">
	<path vector-effect="non-scaling-stroke" d="M430-75c2.4-0.2,4.7-0.5,7-1c0.6-0.1,2-0.5,2.6-0.6l2.6-0.8c0.6-0.2,1.9-0.7,2.5-0.9
		l2.5-1c0.6-0.3,1.8-0.9,2.4-1.2c5.6-2.8,10.7-6.5,15.1-10.9h-0.1c-3.9,3.2-8.1,5.9-12.5,8.3c-1.7,1-3.7,1.9-5.5,2.7
		c-1.2,0.5-2.8,1.2-4,1.6c-0.5,0.2-1.2,0.4-1.6,0.5c-1.3,0.4-2.9,0.8-4.2,1.1c-7.6,1.5-15.4,2-23.1,1.3l0,0
		C419.1-74.9,424.6-74.6,430-75z"/>
</g>
<g id="uCjPINFNCMzGI8r2V1vUk" transform="matrix(1 0 0 1 -390.64 114.94)">
	<path vector-effect="non-scaling-stroke" d="M439-83.1l0.4,0.1l0,0L439-83.1z"/>
</g>
<g id="Q-kNrd_VR6lft2FtXI2_5" transform="matrix(1 0 0 1 -339.28 99.13)">
	<path vector-effect="non-scaling-stroke" d="M439.5-83.3l-0.6,0.5h0.1C439.1-83,439.3-83.2,439.5-83.3z"/>
</g>
<g id="nZ3KBFidDrI2tluRuz-wO" transform="matrix(1 0 0 1 -305.87 92.02)">
	<path vector-effect="non-scaling-stroke" d="M439.5-83.3l-0.7-0.1c0,0.2,0.1,0.4,0.2,0.6L439.5-83.3z"/>
</g>
<g id="_x32_i5pHbM9SXA90PjYOIQMW" transform="matrix(1 0 0 1 -323.65 92.11)">
	<path vector-effect="non-scaling-stroke" d="M423-83.7c0.9-0.4,1.9-0.6,2.9-0.4c2,0.1,4,0.8,6,1.1c1.3,0.2,2.6,0.1,3.9-0.1
		c1.8-0.3,3.5-1.1,4.9-2.3c2.3-1.9,4.2-4.4,7.3-5c1-0.1,2-0.2,3-0.2c1,0,2,0,2.9,0.2c0.9,0.1,1.6,0.7,1.8,1.6c0.2,0.9,0.2,2,0.4,3
		c0.1,0.8,0.3,1.6,0.5,2.4l0.7,0.1l-0.5,0.5c-0.1-0.2-0.1-0.4-0.2-0.6c-1.2-0.2-2.5-0.2-3.8,0c-0.7,0.1-1.5,0.3-2.2,0.5
		c-2,0.9-3.8,2.1-5.4,3.6c-1.8,1.6-3.9,3-6.2,4c-2.3,0.8-4.9,0.3-7.3-0.2c-0.7-0.1-1.4-0.3-2.1-0.4c-0.6-0.1-1.3-0.1-1.9,0.1
		c-0.1,0-0.9,0.5-1.5,0.8l0,0l1.3-0.6c0.7-0.2,1.4-0.3,2.1-0.1c0.7,0.1,1.4,0.3,2.1,0.4c2.1,0.6,4.3,0.9,6.4,0.7
		c3.9-0.8,7.6-4.7,10.9-6.7c2.1-1.2,4.5-1.7,6.9-1.4c0.6,0.1,1.1,0.2,1.7,0.3c-0.4-1.7-0.8-3.4-0.9-5.1c0-0.8-0.2-1.6-0.5-2.4
		c-1-1.9-3.5-1.6-5.3-1.6c-1,0-2.1,0.1-3.1,0.2c-3.2,0.6-5.3,3.3-7.6,5.2c-1.3,1.2-2.9,2-4.6,2.3c-1.2,0.2-2.5,0.3-3.7,0.2
		c-2.3-0.2-4.5-1.1-6.8-0.9c-3.1,0.1-4.5,2.4-4.6,5.1l0,0C420.8-81,421.5-82.9,423-83.7z"/>
</g>
<g id="Ay9IXLtehlGjtApBbVHk4" transform="matrix(1 0 0 1 -336.74 100.34)">
	<path vector-effect="non-scaling-stroke" d="M438.8-83l0.7-0.3l0,0L438.8-83z"/>
</g>
<g id="_x30_zUoUOaSkrwqqlE4BfmiN" transform="matrix(1 0 0 1 -342.19 96.3)">
	<path vector-effect="non-scaling-stroke" d="M439.2-83.6L439.2-83.6c0,0.3,0,0.6,0,0.9C439.2-83,439.2-83.3,439.2-83.6z"/>
</g>
<g id="psBFZ7V6K5OwvMZTlDgJR" transform="matrix(1 0 0 1 -303.63 104.97)">
	<path vector-effect="non-scaling-stroke" d="M438.8-83.7c0,0.3,0,0.7,0,1.2c0.3-0.3,0.6-0.6,0.8-0.9L438.8-83.7z"/>
</g>
<g id="_x32_blgM5BNhrkwwrB23zlxv" transform="matrix(1 0 0 1 -316.99 110.93)">
	<path vector-effect="non-scaling-stroke" d="M428.3-87.8c3.7-0.2,7.2,1.1,10.7,2.3c1.8,0.6,3.7,0.8,5.6,0.5
		c2.8-0.4,5.4-1.6,7.4-3.5c0-0.4,0-0.8,0-1.2l0.8,0.2c-0.2,0.3-0.5,0.7-0.8,0.9c-0.1,3-0.3,7.6-1.9,9.4c-3.3,2.9-9.1,3.7-13.4,3.4
		c-2.7-0.2-5.4-1-7.8-2.3l0,0c1.1,0.7,2.3,1.3,3.5,1.8c5.4,1.9,13.3,1.4,18-2.1c2.4-2.1,2.4-9.7,2.4-12.8c-0.1,0.2-0.8,1.2-0.9,1.3
		c-1.6,1.7-3.6,2.9-5.8,3.5c-1.1,0.4-2.3,0.6-3.5,0.6c-2.4,0-4.7-1-7.1-1.6c-1.5-0.4-3-0.7-4.6-0.8c-1.6-0.2-3.3,0-4.8,0.6
		c-0.3,0.2-0.6,0.4-0.9,0.7l0,0C426.2-87.5,427.3-87.9,428.3-87.8z"/>
</g>
<g id="iT0xCtA05Wqgsh1uW6JLK" transform="matrix(1 0 0 1 -330.9 107.47)">
	<path vector-effect="non-scaling-stroke" d="M439.3-83.3L439.3-83.3c-0.1,0.1-0.2,0.3-0.3,0.4C439.1-83.1,439.2-83.2,439.3-83.3z"
		/>
</g>
<g id="uYITrBOkLMHe0aAYzu9Ux" transform="matrix(1 0 0 1 -327.18 115.99)">
	<path vector-effect="non-scaling-stroke" d="M439-83.2l0.3,0.2l0,0L439-83.2z"/>
</g>
<g id="dNKj9ot_K2EL_tQGemFkM" transform="matrix(1 0 0 1 -344.33 118.73)">
	<path vector-effect="non-scaling-stroke" d="M447.4-81.5c0.1-2.7-0.9-5.4-2.9-7.2c-4.1-3.8-9.8-3.3-13.6,0.5c0.5-0.3,1-0.7,1.4-1
		l-0.5,0.5c1.6-1.1,3.4-1.7,5.3-1.8c2.5-0.1,4.9,0.8,6.7,2.5s2.8,4.1,2.8,6.6c0,1.7-0.4,3.3-1.1,4.8l0.2-0.3
		c-0.4,0.7-0.8,1.4-1.3,2.1C446.2-76.7,447.3-79,447.4-81.5z"/>
</g>
<g id="az0_kikeDfGmFLLd1XUq0" transform="matrix(1 0 0 1 -379.09 129.81)">
	<path vector-effect="non-scaling-stroke" d="M441.9-73.8c-0.1-0.1-0.3-0.1-0.4-0.2c-1-0.2-1.9-0.6-2.7-1.1c-3.4-2-5.1-5.9-4.3-9.8
		c0.8-3.8,4-6.8,7.9-7.2c0.7-0.1,1.5-0.1,2.2,0c0.1,0,0.3,0,0.4,0c-0.6-0.1-1.1-0.1-1.7-0.2h1.1c-5-0.9-9.8,2.3-10.8,7.3
		c-0.5,2.4,0,5,1.3,7.1c1.4,2.1,3.5,3.5,5.9,4c-0.7-0.3-1.3-0.5-1.9-0.8C439.9-74.4,440.9-74.1,441.9-73.8z"/>
</g>
<g id="sN0lPVnnAm2vPysdO7C68" transform="matrix(1 0 0 1 -362.7 116.98)">
	<path vector-effect="non-scaling-stroke" d="M429.9-79.4c-0.4,0-0.9,0-1.3,0.1c3.2,0.3,6.5,0,9.7-0.8c4.5-1.3,8.7-3.7,12.1-6.9
		c-0.5,0.3-1,0.7-1.5,1.1c0.2-0.2,0.4-0.4,0.6-0.6c-2.6,1.8-5.4,3.3-8.3,4.6c-4.2,1.5-8.6,2.4-13,2.4h0.2
		C428.7-79.4,429.3-79.6,429.9-79.4z"/>
</g>
<g id="BM1Jk890PYDumw8c_RrpQ" transform="matrix(1 0 0 1 -352.12 113.41)">
	<path vector-effect="non-scaling-stroke" d="M439.7-83.4l0.5-0.5c-0.5,0.3-1,0.7-1.4,1c-0.2,0.2-0.4,0.4-0.6,0.6
		C438.6-82.7,439.1-83.1,439.7-83.4z"/>
</g>
<g id="_4O79Q9fF8GxQr5nfKnXB" transform="matrix(1 0 0 1 -373.49 120.69)">
	<path vector-effect="non-scaling-stroke" d="M439.3-83c0.4-0.1,0.9-0.2,1.3-0.1c-0.5-0.2-1.1,0-1.7-0.1h-0.2h-1.1
		C438.2-83.1,438.8-83.1,439.3-83z"/>
</g>
<g id="_x37_zCTLvAm5afS2R9dzZBEq" transform="matrix(1 0 0 1 -357.66 133.22)">
	<path vector-effect="non-scaling-stroke" d="M458.9-91.2c-1.6,2.3-3.5,4.5-5.6,6.4c-3.1,3-6.7,5.4-10.8,7c-7,2.6-14.8,2.5-22,0.5
		l0,0c0.1,0.1,0.3,0.2,0.4,0.3c-0.2,0-0.4-0.2-0.7-0.3c-0.2-0.1-0.6-0.1-0.9-0.1c7.1,2.8,15,3.2,22.4,0.9c3.6-1.3,6.9-3.2,9.7-5.8
		c2.4-2.1,4.5-4.5,6.3-7.1c-0.1,0.1-0.2,0.2-0.4,0.3C458-89.8,458.5-90.4,458.9-91.2z"/>
</g>
<g id="OmY-WfZhudC1gnLo3Tbhi" transform="matrix(1 0 0 1 -338.53 126.05)">
	<path vector-effect="non-scaling-stroke" d="M439.8-84c-0.4,0.8-0.9,1.5-1.4,2.1c0.1-0.1,0.2-0.2,0.4-0.3c0.5-0.7,0.9-1.4,1.3-2.1
		L439.8-84z"/>
</g>
<g id="ct9lk5HkTGHS_aO1rkxH8" transform="matrix(1 0 0 1 -377.57 138.8)">
	<path vector-effect="non-scaling-stroke" d="M440.2-82.8c0.2,0.1,0.4,0.3,0.7,0.3c-0.2-0.1-0.3-0.1-0.4-0.3l0,0c-1-0.3-2-0.6-3-0.9
		c0.6,0.3,1.2,0.6,1.9,0.8C439.6-82.9,439.9-82.8,440.2-82.8z"/>
</g>
<g id="znaMhIug9vesHE5Ec7z9p" transform="matrix(1 0 0 1 -350.89 125.54)">
	<path vector-effect="non-scaling-stroke" d="M437.5-86.5c0,0.2,0,0.5,0,0.7c0.1,1,0.3,2,0.7,3c0.8,2.3,1.9,3.8,2.3,3.6
		c0.4-0.1,0.4-2-0.4-4.3c-0.3-1-0.7-1.9-1.3-2.7c-0.2-0.3-0.4-0.6-0.7-0.8L438-87C437.9-86.8,437.7-86.6,437.5-86.5z"/>
</g>
<g id="o8ak9-8MJMElFTInm-qoS" transform="matrix(1 0 0 1 -350.88 125.61)">
	<path vector-effect="non-scaling-stroke" d="M440.2-83.5c0.8,2.2,0.9,4.2,0.3,4.4c-0.6,0.2-1.7-1.5-2.4-3.7
		c-0.4-1.2-0.7-2.4-0.7-3.6l-0.1,0.1c0,0.2,0,0.4,0,0.6c0.1,1,0.3,2,0.7,3c0.6,1.8,1.6,3.7,2.3,3.8c0.1,0,0.1,0,0.2,0
		C441.3-79.3,441-81.5,440.2-83.5c-0.2-1-0.7-1.9-1.2-2.8c-0.2-0.3-0.5-0.6-0.8-0.9l-0.1,0.1C439.2-86.1,439.9-84.9,440.2-83.5z"/>
</g>
<g id="FdSWsu627CBUvKXJVKhND" transform="matrix(1 0 0 1 -350.88 125.56)">
	<path vector-effect="non-scaling-stroke" d="M440.6-79.1c0.6-0.2,0.4-2.2-0.3-4.4c-0.3-1.4-1-2.6-2-3.6l-0.1,0.1
		c0.3,0.2,0.5,0.5,0.7,0.8c0.5,0.9,0.9,1.8,1.2,2.7C440.9-81.2,441-79.4,440.6-79.1c-0.5,0.1-1.6-1.4-2.4-3.7c-0.3-1-0.6-1.9-0.7-3
		c0-0.2,0-0.5,0-0.7l-0.1,0.1c0,1.2,0.2,2.5,0.7,3.6C438.9-80.6,440-78.9,440.6-79.1z"/>
</g>
<g id="SxI-XoJgbcnW2Y5TP4RJ0" transform="matrix(1 0 0 1 -369.32 131.87)">
	<path vector-effect="non-scaling-stroke" d="M437.5-85.8c0.1,1,0.3,2,0.7,3c0.8,2.3,1.9,3.8,2.3,3.6c0.5-0.1,0.4-2-0.4-4.3
		c-0.3-1-0.7-1.9-1.3-2.7c-0.2-0.2-0.3-0.5-0.5-0.7l-0.7-0.1C437.5-86.6,437.5-86.2,437.5-85.8z"/>
</g>
<g id="OVkxbBZooE8Iz106-om0l" transform="matrix(1 0 0 1 -369.35 132)">
	<path vector-effect="non-scaling-stroke" d="M439-86.5c-0.1-0.2-0.3-0.4-0.4-0.5h-0.1c0.8,1,1.4,2.1,1.8,3.4
		c0.8,2.2,0.9,4.2,0.3,4.4c-0.6,0.2-1.7-1.5-2.4-3.7c-0.6-1.9-0.9-3.6-0.6-4.2h-0.1c-0.1,0.4-0.2,0.8-0.1,1.2c0.1,1,0.3,2,0.7,3
		c0.6,1.8,1.6,3.7,2.3,3.8c0.1,0,0.1,0,0.2,0c0.7-0.2,0.4-2.5-0.3-4.5C440-84.6,439.6-85.6,439-86.5z"/>
</g>
<g id="etG-TzRyUyVo8qXDhiQra" transform="matrix(1 0 0 1 -369.34 131.93)">
	<path vector-effect="non-scaling-stroke" d="M438.8-86.3c0.5,0.9,1,1.8,1.3,2.7c0.8,2.4,0.8,4.1,0.4,4.3c-0.5,0.2-1.5-1.3-2.3-3.6
		c-0.3-1-0.6-1.9-0.7-3c-0.1-0.4,0-0.8,0.1-1.2h-0.1c-0.3,0.6-0.1,2.3,0.6,4.2c0.8,2.2,1.8,3.9,2.4,3.7c0.6-0.2,0.4-2.2-0.3-4.4
		c-0.4-1.2-1-2.4-1.8-3.4h-0.1C438.5-86.8,438.7-86.6,438.8-86.3z"/>
</g>
<g id="zAtrG59kMqhSHwUDCdS2-" transform="matrix(1 0 0 1 -352.34 121.38)">
	<path vector-effect="non-scaling-stroke" d="M438.8-82.1c0-0.5,0.1-0.9,0.4-1c0.2,0,0.4,0,0.5,0.1c1.1-1,2-2.2,2.8-3.4
		c-2.6,1.8-4.9,4.1-6.8,6.7C436.9-80.5,437.9-81.3,438.8-82.1z"/>
</g>
<g id="i0tgUtxTAri1EUNyUza3g" transform="matrix(1 0 0 1 -352.22 121.86)">
	<path vector-effect="non-scaling-stroke" d="M439.1-83.4c-0.1,0-0.2,0.3-0.3,0.6c0.2-0.2,0.3-0.3,0.5-0.5l0.1-0.1
		c-0.1,0-0.1-0.1-0.2-0.1C439.2-83.4,439.2-83.4,439.1-83.4z"/>
</g>
<g id="TULGE3W8dKYDYryC9iyno" transform="matrix(1 0 0 1 -352.24 121.87)">
	<path vector-effect="non-scaling-stroke" d="M439.1-83.6c-0.3,0.1-0.4,0.5-0.4,1l0.1-0.1C438.8-83.1,439-83.4,439.1-83.6
		c0.2,0.1,0.3,0.1,0.4,0.2l0.1-0.1C439.5-83.6,439.3-83.6,439.1-83.6z"/>
</g>
<g id="AXe_CxBpSQ8GVQtFwSumL" transform="matrix(1 0 0 1 -352.24 121.85)">
	<path vector-effect="non-scaling-stroke" d="M439.2-83.4c0,0,0.1,0,0.1,0c0.1,0,0.1,0,0.2,0.1l0.1-0.1
		C439.4-83.5,439.3-83.5,439.2-83.4c-0.2,0-0.3,0.3-0.4,0.7l0.1-0.1C438.9-83.2,439-83.4,439.2-83.4z"/>
</g>
<g id="_5D5vfjLzPKKG88aYU2c1" transform="matrix(1 0 0 1 -371.24 127.48)">
	<path vector-effect="non-scaling-stroke" d="M439.7-82.9c0.3-0.1,0.6,0.1,0.8,0.4c1.1,0.1,2.3,0.2,3.4,0.1
		c-1.5-0.6-3.1-0.9-4.7-1.2c-1.6-0.3-3.2-0.4-4.8-0.3c1.5,0.6,3.1,0.9,4.7,1.2h0.3C439.4-82.8,439.5-82.9,439.7-82.9z"/>
</g>
<g id="jd6nznlHAVTgylWkjMQs-" transform="matrix(1 0 0 1 -370.53 127.94)">
	<path vector-effect="non-scaling-stroke" d="M439.1-83.2c0,0-0.1,0-0.1,0c-0.1,0-0.1,0.1-0.2,0.1l0.7,0.1
		C439.4-83.1,439.3-83.2,439.1-83.2z"/>
</g>
<g id="JkGWPVYf7GFQUZlAVdnwC" transform="matrix(1 0 0 1 -370.48 127.86)">
	<path vector-effect="non-scaling-stroke" d="M438.9-83.2c0.2-0.1,0.4,0.1,0.7,0.3h0.1c-0.3-0.3-0.6-0.5-0.8-0.4
		c-0.1,0.1-0.2,0.2-0.3,0.3h0.1C438.7-83.1,438.8-83.2,438.9-83.2z"/>
</g>
<g id="gApBLLcqSitaamxob1zNd" transform="matrix(1 0 0 1 -370.49 127.89)">
	<path vector-effect="non-scaling-stroke" d="M438.9-83.3c-0.1,0-0.2,0.1-0.2,0.2h0.1C438.8-83.1,438.9-83.2,438.9-83.3
		c0.1,0.1,0.1,0.1,0.1,0.1c0.2,0,0.3,0.1,0.4,0.2h0.1C439.4-83.2,439.1-83.3,438.9-83.3z"/>
</g>
<g id="nnuDo3gfW7u2sck74txcu" transform="matrix(1 0 0 1 -326.87 151.26)">
	<path vector-effect="non-scaling-stroke" d="M439.8-82.8c1.4,2.1,2.7,4.2,4.2,6.2l0.2,0.1c-1.1-2.3-2.3-4.6-3.7-6.8
		c-1.8-2.4-3.9-4.6-6.3-6.4v0C436-87.4,438-85.2,439.8-82.8z"/>
</g>
<g id="mSzT5ffQNF0D-NQ6uJ1Q-" transform="matrix(1 0 0 1 -331.95 144.63)">
	<path vector-effect="non-scaling-stroke" d="M439.3-83L439.3-83l-0.2-0.2C439.2-83.1,439.2-83.1,439.3-83z"/>
</g>
<g id="NbDlLU9QO-Bl0QpY--6eJ" transform="matrix(1 0 0 1 -345.96 157.26)">
	<path vector-effect="non-scaling-stroke" d="M439.4-83.9l-0.7,0.3c0,0.4,0,0.8,0.2,1.2l0.7-0.1C439.7-83,439.6-83.4,439.4-83.9z"/>
</g>
<g id="_x30_p5fVNvbb5zYxKYA_x5F_3Ddn" transform="matrix(1 0 0 1 -346.08 156.41)">
	<path vector-effect="non-scaling-stroke" d="M439.1-83.5c-0.1,0.3-0.2,0.5-0.3,0.8l0.7-0.3C439.4-83.2,439.2-83.4,439.1-83.5z"/>
</g>
<g id="xhUg2BT_vFomV8l0B3-bH" transform="matrix(1 0 0 1 -360.8 177.8)">
	<path vector-effect="non-scaling-stroke" d="M395.6-62.8l0.2,0.1c3,1.4,6.5,1.5,9.5,0.1c2.3-1,4.4-2.3,6.4-3.8c-0.1,0-0.2,0-0.3,0
		c0.1-0.1,0.3-0.1,0.4-0.1c2.7-2.3,5.2-4.9,7.3-7.7l0,0l0.5-0.7c-3.8,4.7-8.7,9.6-14.5,11.8c-2.9,1.2-6.1,1.1-8.9-0.3
		c-0.9-0.4-1.6-1-2.4-1.6c-0.7-0.6-1.3-1.3-1.5-2.2c-0.9-3.7,4-7.8,6.6-10c2.5-1.9,5.1-3.7,7.8-5.3c10.9-6.4,22.4-11.7,34.4-15.7
		c2.2-0.8,4.6-1.5,6.8-2.1c3-0.9,6.1-1.6,9.2-2.2c5-1.1,10.1-1.5,15.2-1.1c0.3,0,0.9,0.1,1.2,0.1l1.2,0.2c0.4,0,0.8,0.2,1.2,0.2
		c2.3,0.5,4.4,1.5,6.2,3c2.9,2.7,4.3,9.2,5,13.1c0-0.2-0.1-0.5-0.1-0.8c0-0.1,0-0.2-0.1-0.3c0,0,0,0.1,0,0.1
		c-0.6-4-1.8-9.7-4.5-12.4c-1.3-1.1-2.7-2-4.3-2.6l0.2,0.4l-0.3-0.4c-2.2-0.8-4.4-1.3-6.7-1.4l-2.4-0.1h-2.4c-1,0.1-2,0.1-3,0.2
		c-1.3,0.2-2.8,0.3-4.2,0.5c-1.6,0.3-3.2,0.6-4.8,0.9c0,0.3-0.1,0.6-0.3,0.8c-0.2-0.2-0.3-0.4-0.5-0.7c-10.6,2.5-20.9,6-30.7,10.6
		c-8.7,4-17.2,8.4-24.8,14.4c-3.1,2.6-9,7.8-6.3,12.2c0.4,0.5,0.8,1,1.3,1.4C394-63.8,394.8-63.2,395.6-62.8l0.2-0.4L395.6-62.8z"/>
</g>
<g id="Y57sHNChzGs_O9ZeMFTrf" transform="matrix(1 0 0 1 -321.9 158.01)">
	<path vector-effect="non-scaling-stroke" d="M439.3-82.9l-0.2-0.4l-0.2-0.1L439.3-82.9z"/>
</g>
<g id="S-l5VxnIRt1lz03euyGem" transform="matrix(1 0 0 1 -345.87 158.27)">
	<path vector-effect="non-scaling-stroke" d="M439.3-82.7c0.1-0.2,0.2-0.5,0.3-0.8l-0.7,0.1C438.9-83.1,439.1-82.9,439.3-82.7z"/>
</g>
<g id="dn-6VyrmJnM4dSfDe1YqW" transform="matrix(1 0 0 1 -355.35 182.25)">
	<path vector-effect="non-scaling-stroke" d="M438.1-85.6c0.1-0.2,0.2-0.5,0.3-0.7c0,0.2-0.1,0.4-0.1,0.7c2.3-0.4,4.6-0.7,6.9-0.7
		c1.6-0.1,3.2-0.1,4.8-0.2c0.2-0.2,0.4-0.3,0.6-0.5l-0.5,0.5c1.7,0,3.5,0,5.2,0l0.5-0.4l-0.4,0.4h2.9c2.2,0,4.3,0.1,6.5,0.2
		c-2.2-0.3-4.3-0.6-6.5-0.8c-6-0.6-12-0.7-18-0.1c-4.9,0.8-9.7,2.1-14.3,3.8c-4.1,1.4-8.2,3-12.2,4.8l0,0c6.2-1.9,12.4-4,18.7-5.6
		C434.3-84.8,436.2-85.2,438.1-85.6z"/>
</g>
<g id="Zi4s4LzbYCcXlC_KJHMJx" transform="matrix(1 0 0 1 -380.87 186.77)">
	<path vector-effect="non-scaling-stroke" d="M439.2-83.1L439.2-83.1L439.2-83.1L439.2-83.1z"/>
</g>
<g id="cT18d5VGLz93AgEMdjNw1" transform="matrix(1 0 0 1 -338.3 217.31)">
	<path vector-effect="non-scaling-stroke" d="M453.4-82c5.6-12.1,11.1-24.6,11.6-38.1c0-1.2,0-2.5-0.1-3.7c0-0.2-0.1-0.4-0.1-0.6
		l0.1,0.3c-0.1-1.2-0.3-2.3-0.5-3.5c0,0.1,0,0.1,0,0.2c0.2,1.1,0.3,2.3,0.3,3.4c0,3.8-0.4,7.5-1.1,11.2c-1.6,7.4-4,14.5-7.2,21.3
		c-2,4.6-4.1,9.2-6.4,13.6c-0.6,1.1-1.2,2.2-1.8,3.3l-0.7,1.1l0.5,0.3l-0.6-0.2c-0.3,0.5-0.7,1-1.1,1.4l-0.1,0.1l0,0
		c0.1,0,0.2,0,0.3,0l-0.7,0.3c-0.7,1.3-1.5,2.6-2.3,3.9l0.5,0.2l-0.6-0.2c-1.2,2-2.5,4-3.8,5.9c-2.2,3.2-5.2,5.7-8.1,8.3
		c-5.9,5.1-12,9.9-18.1,14.7l0,0c8-5.5,15.7-11.5,23.1-17.9c1.5-1.3,2.8-2.8,3.9-4.4c2.2-3.1,4.3-6.4,6.2-9.7
		c-0.1,0.1-0.2,0.1-0.3,0.1c-0.1,0-0.2,0-0.3,0l0.7-0.3l-0.1,0.2c1.8-1,5.2-8.2,6-9.8c0.2-0.4,0.4-0.9,0.6-1.3l-0.8,0.3L453.4-82z"
		/>
</g>
<g id="BPa8D0qGbVynAwnUxMjeE" transform="matrix(1 0 0 1 -331.02 229.61)">
	<path vector-effect="non-scaling-stroke" d="M438.8-83c0.1,0,0.2,0,0.3,0c0.1,0,0.2,0,0.3-0.1l0.1-0.2L438.8-83z"/>
</g>
<g id="AJDHo-8n8Gs34LOt86fya" transform="matrix(1 0 0 1 -313.1 172.94)">
	<path vector-effect="non-scaling-stroke" d="M439.2-83c0-0.1,0-0.1,0-0.2c0,0,0-0.1,0-0.1C439.2-83.2,439.2-83.1,439.2-83z"/>
</g>
<g id="I06QZ8ayz5uK84oYkqeR6" transform="matrix(1 0 0 1 -315.43 197.47)">
	<path vector-effect="non-scaling-stroke" d="M442-104c1.8,7.2,3.6,14.4,4.5,21.8c0.3,2.1,0.3,4.2-0.1,6.3c-0.6,2.9-3.6,5.4-5.8,7.2
		c-3.2,2.4-6.6,4.6-10.1,6.5l-0.1,0.2c4.1-1.6,7.9-3.8,11.4-6.4c2.3-1.8,5.1-4.3,5.7-7.2c1.5-7-2.9-21.5-5.6-28.6
		C442-104.1,442-104,442-104z"/>
</g>
<g id="Ynj0M-l-eT6ejNoNpexqZ" transform="matrix(1 0 0 1 -312.63 176.35)">
	<path vector-effect="non-scaling-stroke" d="M439.2-82.8c0-0.1,0-0.2,0-0.2l-0.1-0.3C439.1-83.2,439.2-83,439.2-82.8z"/>
</g>
<g id="_x32_mw9a_x5F_fPUY8RL2q9KIFEw" transform="matrix(1 0 0 1 -324.5 218.63)">
	<path vector-effect="non-scaling-stroke" d="M438.7-82.9l0.8-0.3l0.1-0.2L438.7-82.9z"/>
</g>
<g id="NyK-RaUVd9lmRU8aJcil4" transform="matrix(1 0 0 1 -364.82 192.54)">
	<path vector-effect="non-scaling-stroke" d="M447.7-95.9h-0.1c-1.4,3.6-2.8,7.1-4.5,10.6c-0.9,1.8-1.8,3.6-2.9,5.2
		c-1.6,2.2-3.4,4.2-5.3,6.1c-1.1,1.1-2.2,2.1-3.4,3l-0.8,0.6l0.1,0.1c0.5-0.2,0.9-0.4,1.3-0.7l0.4-0.3c0-0.1,0-0.2,0-0.2
		c0,0.1,0,0.2,0,0.2c1.3-0.8,2.4-1.7,3.6-2.6c0-0.2,0-0.4,0-0.6c0,0.2,0.1,0.3,0.1,0.5c1.5-1.3,2.8-2.7,4.1-4.1
		C443.9-82.7,446.4-90,447.7-95.9z"/>
</g>
<g id="TcK9iK9KYgywd59J-FxHP" transform="matrix(1 0 0 1 -356.29 179.45)">
	<path vector-effect="non-scaling-stroke" d="M439.3-83.5c-0.1,0.2-0.2,0.5-0.3,0.7h0.1C439.2-83,439.3-83.2,439.3-83.5z"/>
</g>
<g id="jLA4TyDdvew8FqIYqEeg1" transform="matrix(1 0 0 1 -379.91 202.03)">
	<path vector-effect="non-scaling-stroke" d="M433.1-89.5c1.7,0.9,3.4,2,5,3c4,2.8,7.3,6.5,9.4,10.9c-0.5-1.5-1.1-2.9-1.9-4.3
		c-0.2,0.1-0.4,0.1-0.5,0.2l0.5-0.3c-1.2-2.1-2.8-3.9-4.6-5.5c-1.1-1-2.4-1.8-3.7-2.5c-1.3-0.7-2.6-1.4-4-1.9
		c-0.7-0.3-1.4-0.5-2.1-0.7l-0.3,0l-0.1,0.1c0.1,0,0.3,0.1,0.4,0.1C431.8-90.2,432.5-89.9,433.1-89.5z"/>
</g>
<g id="S27P5v9MmfFRPc_-T3nUD" transform="matrix(1 0 0 1 -388.4 194.52)">
	<path vector-effect="non-scaling-stroke" d="M439-83.1c0.1,0,0.2,0,0.3,0l0.1-0.1C439.2-83.2,439.1-83.1,439-83.1z"/>
</g>
<g id="YfRY7QR9jouksta2T6JgH" transform="matrix(1 0 0 1 -373.57 205.37)">
	<path vector-effect="non-scaling-stroke" d="M438.9-83c0.2-0.1,0.3-0.1,0.5-0.2l-0.1-0.1L438.9-83z"/>
</g>
<g id="prAqpJkNL1_H1cArmRzJJ" transform="matrix(1 0 0 1 -407.36 243.71)">
	<path vector-effect="non-scaling-stroke" d="M439.1-83l0.1-0.1v-0.2L439.1-83z"/>
</g>
<g id="zQ2flZ-saMP3kxr34MC37" transform="matrix(1 0 0 1 -412.13 223.36)">
	<path vector-effect="non-scaling-stroke" d="M461.8-85.5c0.3-0.8,0.6-1.6,0.9-2.4c0.6-1.6,1.2-3.3,1.7-5c0.6-1.7,1-3.4,1.2-5.1
		c-0.1,0.9-0.4,1.7-0.7,2.5c-0.8,2.5-1.8,4.9-2.8,7.4c-0.7,1.6-1.3,3.2-2.2,4.8c-4.3,7.6-10.5,14-16.9,19.9l-0.1,0.1v0.2l-0.3,1.7
		c0,1-0.6,1.9-1.6,2.1c-3.4,1-11.4-0.9-15-1.8c-2.6-0.7-11.5-3.2-12.3-5.6c0.6-1.6,9.4-3.6,11.5-4.1c2.3-0.6,4.7-1,7.1-1.5
		c0.9-3.2,2-6.4,3-9.6c1.9-6.2,4.3-12.3,7.2-18.1c1.4-2.8,2.8-5.6,4.4-8.3l0,0c-3,4.7-5.7,9.6-8,14.7c-1.6,3.7-3,7.6-4.4,11.4
		c-1,3-2,6-3,9l0.3-0.1l-0.4,0.4c0-0.1,0.1-0.2,0.1-0.3c-4.5,0.8-8.9,1.8-13.3,3c-1.1,0.3-2.2,0.7-3.3,1.2c-1,0.5-2.7,1.3-2.3,2.7
		c0.7,2,4.6,3.5,6.4,4.3c4.7,1.8,17.8,5.3,22.4,3.8c2.3-0.8,2.2-2.6,2.5-4.6l-0.1,0.1l0.2-0.3v0.2c2.6-2.4,5-4.8,7.3-7.4
		C455.4-74.8,459.4-79.8,461.8-85.5l-0.3-0.1L461.8-85.5z"/>
</g>
<g id="_6cs70I6F8gYdpJ2kzhq6" transform="matrix(1 0 0 1 -419.64 233.35)">
	<path vector-effect="non-scaling-stroke" d="M439.4-83.3l-0.3,0.1c0,0.1-0.1,0.2-0.1,0.3L439.4-83.3z"/>
</g>
<g id="avjkZXxkzGvVVl6uba8r8" transform="matrix(1 0 0 1 -404.28 197.96)">
	<path vector-effect="non-scaling-stroke" d="M439.3-83.3l-0.2,0.4l0,0L439.3-83.3z"/>
</g>
<g id="_x38_kprKDbqaiO8o6R2_x5F_gtKl" transform="matrix(1 0 0 1 -371.82 234.78)">
	<path vector-effect="non-scaling-stroke" d="M439.2-83.1"/>
</g>
<g id="_x39_Dw03BDbPn_x5F_iIBDOuDszx" transform="matrix(1 0 0 1 -368.33 289.55)">
	<path vector-effect="non-scaling-stroke" d="M439.1-83.4l-0.1,0.4l0.3,0.2L439.1-83.4z"/>
</g>
<g id="mLONpJljytysLtw5w57Mj" transform="matrix(1 0 0 1 -369.25 264.56)">
	<path vector-effect="non-scaling-stroke" d="M444.4-85.9c-1.4-1.4-2.8-2.6-4.4-3.8c-0.6-0.4-1.2-0.8-1.9-1.1
		c0.6,0.3,1.3,0.7,1.8,1.2c5.3,3.9,9.1,9.5,12.2,15.3c2.1,3.8,3.5,7.9,4.4,12.2v0.2l0.1,0.1l2.6,2.1c1.5,1,1.3,2.4,0.6,3.9
		c-1.1,1.9-2.3,3.6-3.8,5.3c-1,1.2-2.2,2.4-3.5,3.4c-1.7,1.4-3.4,2.7-5.3,3.8c-1.4,0.9-2.8,1.6-4.3,2.3c-0.7,0.3-1.4,0.5-2.2,0.5
		c-0.1,0-0.3,0-0.4-0.1c-1.3-1.6-0.4-8.5-0.2-10.8c0.2-2.3,0.6-4.6,1-6.8l-0.3-0.2c-4.5-3.7-8.8-7.6-12.9-11.7
		c-3.1-3-5.9-6.4-8.2-10c-0.6-1-1.1-2.2-1.5-3.3c-0.2-0.8-0.2-1.7,0-2.5c1.5-8.1,13.3-20.8,18.8-26.2c0.8-1.1-1.9-4.8-2.5-5.7
		c-3.1-4.7-10.4-7.2-15.7-8.4l0,0c5.2,1.4,12.4,4,15.2,8.7c0.6,0.9,1.1,1.7,1.6,2.6c0.2,0.4,0.5,0.9,0.6,1.3
		c0.2,0.3,0.2,0.7,0.2,1.1l0,0l0,0l0,0c-6,5.8-17.7,18.1-19.3,26.5c-0.5,2.4,0.4,4.5,1.6,6.6c2.4,3.7,5.2,7.1,8.3,10.2
		c4,4.1,8.2,7.9,12.7,11.6l0.1-0.4l0.2,0.6l-0.3-0.2c-0.9,4.8-1.4,9.7-1.4,14.6c0.1,1.2,0.1,2.7,1.1,3.5c0.6,0.4,1.4,0.5,2.1,0.3
		c3.7-0.9,8.5-4.4,11.5-6.8c1.3-1.1,2.5-2.3,3.6-3.6c1.1-1.3,2.1-2.6,3-4c0.9-1.5,1.9-3.3,1.2-5c-0.3-0.6-0.7-1-1.2-1.4l-2.5-1.9
		c0,0.1,0,0.1,0,0.2l-0.2-0.3l0.1,0.1c-0.6-2.8-1.5-5.6-2.7-8.2C452-76.3,448.5-81.4,444.4-85.9l-0.2,0.1L444.4-85.9z"/>
</g>
<g id="p4r9-IJciw7sutVvFRRQy" transform="matrix(1 0 0 1 -351.18 285.24)">
	<path vector-effect="non-scaling-stroke" d="M439.2-83c0,0,0-0.1,0-0.2l-0.1-0.1L439.2-83z"/>
</g>
<g id="m4u8ciQzX5V-Vlx1cztj9" transform="matrix(1 0 0 1 -364.1 261.75)">
	<path vector-effect="non-scaling-stroke" d="M439.1-83.1L439.1-83.1L439.1-83.1L439.1-83.1z"/>
</g>
<g id="GszvPPvV7Y3m9apHB1RNv" transform="matrix(1 0 0 1 -389.67 221)">
	<path vector-effect="non-scaling-stroke" d="M439-83.2l0.3,0.1l0,0L439-83.2z"/>
</g>
<g id="NhFqnME5w1MCLGv3UeY_k" transform="matrix(1 0 0 1 -349.01 214.41)">
	<path vector-effect="non-scaling-stroke" d="M426.4-86c-0.4-0.3-0.8-0.6-1.1-0.9c-0.2-0.2-0.6-0.6-0.8-0.8
		c-0.7-0.8-1.3-1.6-1.9-2.4c-0.1,0.1-0.2,0.2-0.2,0.3c0.1-0.1,0.1-0.2,0.2-0.3c-0.7-1-1.3-2.2-1.7-3.3l-0.1,0.1l0.1-0.2
		c-0.3-0.7-0.5-1.5-0.6-2.2l-0.1,0.1c0.4,3.4,1.9,6.6,4.2,9.1c1.1,1.1,2.3,2.1,3.7,2.9c4.4,2.6,8.9,4.9,13.6,6.9
		c5.4,2.3,10.9,4.5,16.4,6.4v-0.1c-9-4.2-18.1-8.1-26.9-12.7C429.6-84,428-85,426.4-86z"/>
</g>
<g id="RJkiQN4AJZceZ8JNtL7uK" transform="matrix(1 0 0 1 -329.76 227.19)">
	<path vector-effect="non-scaling-stroke" d="M439.4-83l-0.5-0.3v0.1L439.4-83z"/>
</g>
<g id="_x32__x5F_6bvUvSCPWUPKshafxkY" transform="matrix(1 0 0 1 -367.92 201.45)">
	<path vector-effect="non-scaling-stroke" d="M439.2-82.8L439.2-82.8c0.1-0.2,0-0.4,0-0.6C439.1-83.2,439.1-83,439.2-82.8z"/>
</g>
<g id="Rl0FmplaQ5nZNhPjOgqoO" transform="matrix(1 0 0 1 -352.79 218.65)">
	<path vector-effect="non-scaling-stroke" d="M435.5-79.6c-2.8-1.4-5.6-2.9-8.2-4.6c-0.8-0.5-1.5-1-2.1-1.7
		c-0.3-0.3-0.5-0.6-0.8-0.9c-2.4-3.1-3.8-6.8-4-10.6l0,0c-0.2,4.6,1.3,9,4.3,12.5c1.4,1.3,3,2.4,4.6,3.3c4.6,2.7,9.4,5,14.3,7.1
		c4.7,2,9.4,4,14.3,5.6v0c-3.7-1.8-7.3-3.5-11-5.2C443.1-75.9,439.3-77.7,435.5-79.6z"/>
</g>
<g id="nupF6Zn6SzSJFvRgXwTcE" transform="matrix(1 0 0 1 -333.74 232.96)">
	<path vector-effect="non-scaling-stroke" d="M439.4-83l-0.5-0.2v0.1L439.4-83z"/>
</g>
<g id="ZjYFrH8IekBn19iTETNiM" transform="matrix(1 0 0 1 -371.54 204.23)">
	<path vector-effect="non-scaling-stroke" d="M439.2-83L439.2-83c0-0.1,0-0.2,0-0.2C439.2-83.2,439.2-83.1,439.2-83z"/>
</g>
<g id="Y--ckPoyc3q9h0OlyIjc-" transform="matrix(1 0 0 1 -355.89 191.38)">
	<path vector-effect="non-scaling-stroke" d="M444.9-89.9c1.9-1.9,3.8-3.8,5.6-5.7h-0.1c-4.3,3.5-8.4,7.3-12.3,11.2
		c-3.9,4.2-7.4,8.8-10.3,13.8l0,0c2.9-3.7,5.7-7.4,8.7-10.9C439-84.3,442.2-87.2,444.9-89.9z"/>
</g>
<g id="exAkJ260gerH-O9H4No3S" transform="matrix(1 0 0 1 -344.34 178.62)">
	<path vector-effect="non-scaling-stroke" d="M439.5-83.4c-0.2,0.2-0.4,0.4-0.6,0.5h0.1L439.5-83.4z"/>
</g>
<g id="_x34_COhIJPKKJaRvLn1Xqci6" transform="matrix(1 0 0 1 -367.31 204)">
	<path vector-effect="non-scaling-stroke" d="M439.1-83l0.1-0.1l0,0L439.1-83z"/>
</g>
<g id="XcJPuBCTyxPu9-l09QnkQ" transform="matrix(1 0 0 1 -352.42 193.06)">
	<path vector-effect="non-scaling-stroke" d="M436-82.8c-3.8,4.3-7.1,8.9-9.9,13.9l0,0c3.4-4.5,6.6-9.2,10.5-13.3
		c4.8-4.6,11-10.3,15.8-15.1h-0.1C446.6-92.7,441.2-87.9,436-82.8z"/>
</g>
<g id="Er5UxOzmj22MpEus-HF4W" transform="matrix(1 0 0 1 -339.12 178.69)">
	<path vector-effect="non-scaling-stroke" d="M438.9-82.9L438.9-82.9l0.5-0.4L438.9-82.9z"/>
</g>
<g id="cffvEJfF4Bylq4GMWhgDw" transform="matrix(1 0 0 1 -365.61 207.43)">
	<path vector-effect="non-scaling-stroke" d="M439.1-83c0.1-0.1,0.2-0.2,0.2-0.3l0,0C439.2-83.2,439.1-83.1,439.1-83z"/>
</g>
<g id="_x30_5lNvSwDY7_x5F_VbiRMHQ8fs" transform="matrix(1 0 0 1 -179.34 248.91)">
	<path vector-effect="non-scaling-stroke" class="st4" d="M451.2-85.8c-4.2,10.4-15.8,17-26.6,15.2c5.4,2.2,11.5,2,16.8-0.5
		s9.3-7,11.2-12.6c1.5-4.3,1.5-9,0.2-13.4C453.2-93.3,452.7-89.4,451.2-85.8z"/>
</g>
<g id="hiPB93QT330Aam-Qi0XQt" transform="matrix(1 0 0 1 -184.27 243.06)">
	<path vector-effect="non-scaling-stroke" class="st5" d="M435.5-84.9c-4.4,5.1-9.7,9.4-15.6,12.6c0.1,0.1,0.1,0.2,0.2,0.4
		c5.6,7.3,15.2,10.2,23.9,7.3c6.8-2.1,12.1-7.6,13.8-14.6c2.3-9.6-3-18.7-11-23.2l-0.7-0.2C444.5-97.3,440.8-90.9,435.5-84.9z"/>
</g>
<g id="RRbsY8lyGylNm2D_ES5dy" transform="matrix(1 0 0 1 -194.62 235.45)">
	<path vector-effect="non-scaling-stroke" class="st4" d="M428.2-79.6c3-10.7,13-17.9,24.1-17.3c-2.8-0.8-5.6-1-8.5-0.7
		c-8.6,1-15.6,7.5-17.3,16c-0.9,4.4-0.4,9,1.5,13.1C427.1-72.1,427.1-76,428.2-79.6z"/>
</g>
<g id="nkG0shMCxzjOd3yW6DZLY" transform="matrix(1 0 0 1 -176.84 223.55)">
	<path vector-effect="non-scaling-stroke" class="st1" d="M439.5-82.9l-0.7-0.4v0.1L439.5-82.9z"/>
</g>
<g id="_x35_Hzs46fEgHExX-qowPr95" transform="matrix(1 0 0 1 -203.45 254.04)">
	<path vector-effect="non-scaling-stroke" class="st1" d="M439-83.3l0.3,0.3C439.2-83,439.1-83.2,439-83.3L439-83.3z"/>
</g>
<g id="_x39_cN-STWAix_x5F_gZ41loCq_x5F_2" transform="matrix(1 0 0 1 -191.83 237.75)">
	<path vector-effect="non-scaling-stroke" class="st1" d="M427.5-67c-2.7-4.4-3.1-9.9-0.9-14.6c3.4-7.8,10.1-15.7,18.6-16.6
		c2.9-0.4,5.9-0.1,8.7,0.8v-0.1c-1.4-0.7-2.9-1.3-4.4-1.8c-11.1-0.5-21.1,6.7-24.1,17.3c-1,3.6-1.1,7.5-0.2,11.2
		C425.8-69.4,426.5-68.1,427.5-67L427.5-67z"/>
</g>
<g id="BoLTSlOSfef7Hrm9yf-kT" transform="matrix(1 0 0 1 -186.8 241.98)">
	<path vector-effect="non-scaling-stroke" class="st4" d="M448.6-122.4l-65.9-52.4l17.1,82.4l-0.3,0.4l-52,65.3l82.4-16.9l0.4,0.3
		l65.3,51.8l-16.9-82.1l52.1-65.9L448.6-122.4z M449.4-103.7c1.9,0.9,3.7,2.1,5.2,3.6c7.6,5,11.2,14.8,8.9,24.2
		c-1.6,7.2-6.6,13.3-13.4,16.2c-8,3.3-17.2,1.5-23.4-4.4c-2.5-1.7-4.6-3.8-6.2-6.3c-4.6,1.9-8.5,2-10.8-0.1
		c-5.2-4.6-0.8-18,9.7-29.9c10.5-12,23.2-18,28.4-13.4C450-111.8,450.4-108.2,449.4-103.7z"/>
</g>
<g id="PbShchmEvyEj_dqFwAqDn" transform="matrix(1 0 0 1 -173.28 247.3)">
	<path vector-effect="non-scaling-stroke" class="st4" d="M447.1-83.4c-1.6,7.2-6.6,13.3-13.4,16.2c-1.8,0.7-3.7,1.2-5.7,1.5
		c2.7,0.1,5.3-0.2,7.9-1c6.9-2.1,12.1-7.6,13.8-14.6c1.6-6.9-0.2-14.1-4.9-19.3C447.7-95.3,448.6-89.2,447.1-83.4z"/>
</g>
<g id="hbVaKg2vA496Btj9_JPS-" transform="matrix(1 0 0 1 -197.31 233)">
	<path vector-effect="non-scaling-stroke" class="st4" d="M429.8-91.4c-10.5,12-14.8,25.4-9.7,29.9c2.4,2.1,6.3,2,10.8,0.1
		c-3.6-5.3-4.6-11.9-2.9-18.1c3-11.5,15.3-19.5,27.1-16.9c1.7,0.3,3.3,0.9,4.8,1.6c1.1-4.5,0.6-8.1-1.6-10.1
		C453-109.3,440.3-103.3,429.8-91.4z"/>
</g>
<g id="_x30_pCVdCJsv1u6zr-DD5WTO" transform="matrix(1 0 0 1 -180.55 246.09)">
	<path vector-effect="non-scaling-stroke" class="st4" d="M457-80c-1.7,7-7,12.5-13.8,14.6c-2.6,0.8-5.2,1.1-7.9,1
		c-5.2,0.6-10.5-0.7-14.8-3.7c6.2,6,15.4,7.7,23.4,4.4c6.8-3,11.8-9,13.4-16.2c2.3-9.4-1.3-19.2-8.9-24.2c1.5,1.4,2.8,3.1,3.8,4.9
		C456.8-94.1,458.6-86.9,457-80z"/>
</g>
<g id="G0HnRwyERjKLUzZbhu7AV" transform="matrix(1 0 0 1 -183.99 244.22)">
	<path vector-effect="non-scaling-stroke" class="st1" d="M457.6-80.4c-1.8,6.9-7,12.5-13.8,14.6c-8.7,2.9-18.3,0-23.9-7.3
		c3.7,5.9,11,10.1,18.9,10.5c2-0.2,3.9-0.7,5.7-1.5c6.1-2.7,10.7-7.9,12.8-14.2s1.5-13.3-1.7-19.1c-2.4-2.8-5.5-4.9-8.9-6.1
		C454.6-99.1,460-90,457.6-80.4z"/>
</g>
<g id="T_BkBG7nEmb00bLhgfD-M" transform="matrix(1 0 0 1 -202.42 257.64)">
	<path vector-effect="non-scaling-stroke" class="st1" d="M436-86c1.7,2.5,3.8,4.6,6.2,6.3c-2.1-1.9-3.8-4.3-5-6.8L436-86z"/>
</g>
<g id="n-fEYG3ID-PhjYSyr_v7x" transform="matrix(1 0 0 1 -174.15 223.21)">
	<path vector-effect="non-scaling-stroke" class="st1" d="M441.9-81.3c-1.5-1.5-3.3-2.7-5.2-3.6c-0.1,0.4-0.2,0.7-0.3,1.1
		C438.4-83.3,440.2-82.4,441.9-81.3z"/>
</g>
<g id="OT-vv4z6dbdw8HBqk_h3E" transform="matrix(1 0 0 1 -192.93 237.06)">
	<path vector-effect="non-scaling-stroke" class="st1" d="M423.6-83.5c-1.7,6.2-0.7,12.8,2.9,18.1l1.2-0.5c-0.6-1.3-1.1-2.7-1.5-4.1
		c-1.9-4.1-2.4-8.7-1.5-13.1c1.7-8.5,8.7-15,17.3-16c2.8-0.3,5.7-0.1,8.5,0.7c1,0.1,2,0.2,3,0.4c0.6,0.1,1.1,0.3,1.7,0.4
		c0.1-0.4,0.2-0.7,0.3-1.1c-1.5-0.7-3.1-1.3-4.8-1.6C439-102.9,426.7-95,423.6-83.5z"/>
</g>
<g id="_x34_mIcbEzxWG3aK9SCcXap_x5F_" transform="matrix(1 0 0 1 -194.38 259.36)">
	<path vector-effect="non-scaling-stroke" class="st1" d="M449.1-77.8c-7.9-0.4-15.2-4.6-18.9-10.5l-0.3-0.3l-0.7,0.4
		c1.2,2.6,2.9,4.9,5,6.8C438.6-78.5,443.9-77.2,449.1-77.8z"/>
</g>
<g id="LGw38Bl5VhWwAGx-tgP7C" transform="matrix(1 0 0 1 -172.4 226.16)">
	<path vector-effect="non-scaling-stroke" class="st1" d="M434.4-85.9l0.7,0.4c3.4,1.3,6.5,3.4,8.9,6.1c-1-1.8-2.3-3.4-3.8-4.9
		c-1.7-1.1-3.5-2-5.5-2.5C434.6-86.5,434.5-86.2,434.4-85.9z"/>
</g>
<g id="Ni-4j-Ih0WxJEPKXMnDF0" transform="matrix(1 0 0 1 -179.21 222.5)">
	<path vector-effect="non-scaling-stroke" class="st1" d="M441.5-83.2c-0.6-0.2-1.1-0.3-1.7-0.4c-1-0.2-2-0.3-3-0.4
		c1.5,0.4,3,1,4.4,1.8C441.3-82.6,441.5-82.9,441.5-83.2z"/>
</g>
<g id="IetWOG9OcJHS5I7MpA42A" transform="matrix(1 0 0 1 -204.68 252.22)">
	<path vector-effect="non-scaling-stroke" class="st1" d="M438.1-85.2c0.4,1.4,0.9,2.8,1.5,4.1l0.7-0.4
		C439.4-82.6,438.7-83.8,438.1-85.2z"/>
</g>
<g id="PPnzGyWWm2DMxn_rBnJYF" transform="matrix(1 0 0 1 -186.79 242)">
	<path vector-effect="non-scaling-stroke" class="st1" d="M449.2-124.8l-69.8-55.5l18.1,87.4L342-23.3l87.3-17.9L499,14l-18-87.1
		l55.3-69.9L449.2-124.8z M478.7-73.6l16.9,82.1l-65.3-51.8l-0.4-0.3l-82.4,16.9l52-65.3l0.3-0.4l-17.1-82.4l65.9,52.4l82.2-17.1
		L478.7-73.6z"/>
</g>
<g id="pQM58LAEvFTiiG7v2gcUb" transform="matrix(1 0 0 1 -194.74 273.65)">
	<path vector-effect="non-scaling-stroke" d="M436.8-73.3c-0.1-6.9,1.5-13.6,4.7-19.7C441.6-86.1,440-79.3,436.8-73.3z"/>
</g>
<g id="PpV_Ra22KCKqAdvU_ynvR" transform="matrix(1 0 0 1 -179.63 210.12)">
	<path vector-effect="non-scaling-stroke" d="M441.6-93.3c0,7.1-1.6,14-4.8,20.3C436.7-80,438.4-87,441.6-93.3z"/>
</g>
<g id="QTqR0rNJeR16vj-sq_SNE" transform="matrix(1 0 0 1 -155.65 249.22)">
	<path vector-effect="non-scaling-stroke" d="M449.4-80.7c-7.1,0-14.2-1.6-20.6-4.9C436-85.6,443.1-83.9,449.4-80.7z"/>
</g>
<g id="HKBBj8OezBkLCWYo1A1R7" transform="matrix(1 0 0 1 -218.94 234.18)">
	<path vector-effect="non-scaling-stroke" d="M429.2-85.5c7-0.1,13.8,1.5,20,4.8C442.2-80.7,435.3-82.3,429.2-85.5z"/>
</g>
<g id="fzr4sQG55UpeJ8otkPvUE" transform="matrix(1 0 0 1 -146.35 307.99)">
	<path vector-effect="non-scaling-stroke" d="M458.1-52.4c-14.7-19.1-27.4-39.7-37.8-61.5C434.9-94.7,447.6-74.1,458.1-52.4z"/>
</g>
<g id="NpkIkmd8oXviz_U0AXBSH" transform="matrix(1 0 0 1 -253.58 282.44)">
	<path vector-effect="non-scaling-stroke" d="M408.4-64.1c19.6-14.1,40.2-26.8,61.6-37.9C450.4-88,429.8-75.3,408.4-64.1z"/>
</g>
<g id="_Nx-USks2Q5Ja5KG_dytb" transform="matrix(1 0 0 1 -227.86 175.51)">
	<path vector-effect="non-scaling-stroke" d="M420-114.2c14.2,19.8,27.1,40.5,38.4,62.1C444.1-71.8,431.3-92.6,420-114.2z"/>
</g>
<g id="PGnpMpHyboC-eSzApu3BE" transform="matrix(1 0 0 1 -181.92 247.39)">
	<path vector-effect="non-scaling-stroke" class="st1" d="M453.9-97.7c2,4.8,1.5,10.3-1.4,14.7c-4.6,7.2-12.5,14.1-21.1,13.8
		c-3-0.1-5.9-0.8-8.5-2.1l-0.1,0.1c1.3,0.9,2.6,1.7,4.1,2.4c10.6,2.3,22.3-3.6,26.7-13.7c1.6-3.5,2.3-7.3,1.9-11.1
		C455.1-95.1,454.6-96.5,453.9-97.7L453.9-97.7z"/>
</g>
<g id="TbGoa-D9kCFkU1zoxXAso" transform="matrix(1 0 0 1 -254.94 144.43)">
	<path vector-effect="non-scaling-stroke" d="M412.6-56.6c-6.5-8.4-5.2-20.7,0.2-29.4c7.3-11.9,21-22.2,35.1-23.5
		c8.2-0.6,17,2.2,22.3,8.7c-6.5-3.6-14.2-4.8-21.5-3.2c-7.1,1.6-13.5,5.3-19.2,9.8C417.8-85.5,408-71.7,412.6-56.6z"/>
</g>
<g id="g3ZjXVf3HJIR3dSYBJzzu" transform="matrix(1 0 0 1 -259.89 137.89)">
	<path vector-effect="non-scaling-stroke" d="M408.9-51.3c-13.4-18.3-4.9-40.6,12.2-53.3c8-6.3,18.1-10.7,28.5-10.3
		c10.2,0.3,19.8,4.9,26.4,12.7c-4-2.6-8.3-4.6-12.9-5.8c-13.5-4-27,0.4-37.7,9C410-87.7,401.8-70.2,408.9-51.3L408.9-51.3z"/>
</g>
<g id="lw436q4oZO26-LfWHrc96" transform="matrix(1 0 0 1 -127.4 343)">
	<path vector-effect="non-scaling-stroke" d="M466.3-106.5c13.1,21.9-16.3,47.2-37.4,46.7c-7.8-0.1-15.8-3.6-20.1-10.2
		c7.3,4.8,16.4,6.2,24.8,3.6c4.9-1.5,9.5-3.7,13.8-6.5C458.9-80.1,469.2-92,466.3-106.5z"/>
</g>
<g id="P_xV8SwUwlszZwzB5LRym" transform="matrix(1 0 0 1 -123.78 347.68)">
	<path vector-effect="non-scaling-stroke" d="M470.8-110.9c5.1,7.9,5.2,18.3,1.6,26.9c-5.4,12.5-17.1,21.4-29.5,26.3
		c-13.9,5.4-31.1,1.8-39.5-10.6c6.8,5.2,15.2,7.8,23.8,7.4c8.2-0.4,15.9-3.7,22.9-8.3C464.6-78.1,475.3-93.1,470.8-110.9z"/>
</g>
</svg>
