<?xml version="1.0" encoding="utf-8"?>
<!-- Generator: Adobe Illustrator 26.0.2, SVG Export Plug-In . SVG Version: 6.00 Build 0)  -->
<svg version="1.1" id="Слой_1" xmlns="http://www.w3.org/2000/svg" xmlns:xlink="http://www.w3.org/1999/xlink" x="0px" y="0px"
	 viewBox="0 0 354.5 258.8" style="enable-background:new 0 0 354.5 258.8;" xml:space="preserve">
<style type="text/css">
	.st0{fill:#B21533;}
	.st1{fill:#811619;}
	.st2{fill:#343434;}
	.st3{fill:#FFFFFF;}
	.st4{fill:#6D6D6D;}
</style>
<desc>Created with Fabric.js 4.6.0</desc>
<g id="WZKAtpNnxdOz7b70mdM6J" transform="matrix(1 0 0 1 -815.16 1326.73)">
	<g>
		<g vector-effect="non-scaling-stroke">
			<path class="st0" d="M845.7-1077.8c-16.5,0-30-13.5-30-30v-188.5c0-16.5,13.5-30,30-30h293.5c16.5,0,30,13.5,30,30v188.5
				c0,16.5-13.5,30-30,30H845.7z"/>
		</g>
	</g>
</g>
<g id="ntlP020NLpt1Houo2A1kf" transform="matrix(1 0 0 1 -818.75 1293.67)">
	<path vector-effect="non-scaling-stroke" class="st1" d="M974.5-1196.3l2.4,0.5l2.4,0.4c1.9,0.3,4.2,0.5,6.1,0.7l1.8,0.1
		c0.4,0,2.6,0.1,3,0.1c9,0.1,17.9-1.5,26.3-4.5c4.5-1.5,8.9-3.4,13.1-5.6c-1.5-1.7-3.1-3.2-4.9-4.7c-1.1,0.6-2.2,1.3-3.3,1.8
		c-9,4.8-19,7.4-29.1,7.8c-11.4,0.2-22.6-2.5-32.7-7.7c-1.6,1.5-3.1,3.1-4.5,4.8c3.2,1.5,6.5,2.8,9.8,3.8
		C968.1-1197.8,971.3-1197,974.5-1196.3z"/>
</g>
<g id="ZLl7eHtlLmR7XUl9eFNrS" transform="matrix(1 0 0 1 -832.29 1412.67)">
	<path vector-effect="non-scaling-stroke" class="st2" d="M975.8-1232.5c-0.5,0.1-1,0.3-1.5,0.4c-0.2,0-0.5,0.1-0.7,0.1
		c-5.1,0.7-10.3,1-15.2,2.5c-12.1,3.5-16.8,13.7-18.9,25.3c-1.5,7.7-3.2,15.4-3.7,23.3c-0.3,5.7,0,11.9,3.1,16.9
		c5.2,8.1,16.1,8.7,24.8,8.2c12.3-0.6,24.5-1.9,36.6-3.8c2.4-0.4,4.9-0.9,7.2-1.5c1.4-0.3,2.7-0.7,4-1.2l-1.4-0.3l1.6,0.2h0.1l0,0
		c3.2,0.4,7.4,0.8,10.3,1.1c6.3,0.6,20.8,2.7,25.6-1.5c0.7-0.7,1.2-1.6,1.3-2.6c0.2-3.9-3.4-6.8-6.5-8.7c-5-2.8-10.3-4.9-15.8-6.4
		c-0.8-0.2-2.1-0.6-2.9-0.7l-2.2-0.4c-0.9-0.2-2-0.3-2.9-0.5c-0.9-0.1-2.1-0.2-3-0.3c-2.7-0.2-5.5-0.1-8.2,0.3
		c-1.7,0.2-3.4,0.6-5.1,1.2c0.7-0.3,1.3-0.5,2-0.7c-5.7-0.9-11.4-1.5-17.1-1.9c-2.2-0.1-4.8-0.2-7-0.3c-10.5-0.2-21,1.5-30.9,4.8
		c5.4-2.2,11.1-3.8,16.9-4.7c1.2-0.2,2.4-0.4,3.6-0.5c-0.3-3.6-0.5-7.2-0.3-10.8c0.6-6.2,2-12.3,4-18.1c-0.8,5.5-1.9,10.9-2.6,16.4
		c-0.3,1.8-0.3,3.6-0.5,5.5c-0.1,2.3-0.3,4.6-0.5,7c2.5-0.3,5-0.4,7.5-0.4c4-2.1,8-4.3,11.9-6.7c7.6-4.6,15-9.6,21.3-15.8
		c8.6-8.5,15.9-18.1,23-27.8c-4-3.3-4.6-8.8-3-13.6c-13.2,7.5-29.2,8.3-43.1,2.3l-1.2-0.5c0,3.9-1.5,7.6-4.2,10.4
		C980.6-1234.4,978.3-1233.1,975.8-1232.5z"/>
</g>
<g id="_x2D_SwL-vBeYp19FeFJANFwA" transform="matrix(1 0 0 1 -818.95 1284.99)">
	<path vector-effect="non-scaling-stroke" class="st2" d="M978.6-1193c1,0.1,2.2,0.4,3.2,0.5c1.7,0.2,3.7,0.4,5.4,0.5
		c11.8,0.8,23.7-2.1,34.4-7.1c1.1-0.5,2.2-1.1,3.3-1.7c-19.1-15.9-47-15.1-65.1,2c5,2.3,10.2,4,15.6,5.1
		C976.4-1193.4,977.6-1193.2,978.6-1193z"/>
</g>
<g id="afHoOpXS-QAmS8aQI1kcx" transform="matrix(1 0 0 1 -818.44 1322.04)">
	<path vector-effect="non-scaling-stroke" class="st3" d="M995-1216c-1,0.1-1.9,0.2-2.9,0.2c-1.9-0.1-3.8-0.3-5.7-0.7
		c-5.3-1-10.6-2.2-15.8-3.7l-0.6-0.1c-5.3-0.9-10.2,2.8-12.7,7.2c-5,8.8-1.9,17.6,5.8,23.1c1.4,0.8,2.9,1.6,4.4,2.3
		c7.2,2.9,14.9,4.4,22.7,4.3c10.7-0.1,21.9-1.8,31.5-6.8c0.6-0.4,1.2-0.9,1.8-1.4c3.1-2.4,5.3-5.7,6.1-9.6c0.7-3.8,0.1-7.8-1.9-11.1
		c-2.6-4.8-7.9-9.5-13.6-8.1l0.3-0.1C1008.1-1218.5,1001.6-1217,995-1216z M974.7-1198.9c-1.2,0-2.1-2.5-2.1-5.6s0.9-5.7,2.1-5.7
		s2.1,2.5,2.1,5.7S975.8-1198.9,974.7-1198.9z M1010.5-1199c-1.2,0-2.1-2.5-2.1-5.6c0-3.2,0.9-5.6,2.1-5.6c1.2,0,2.1,2.5,2.1,5.6
		C1012.6-1201.5,1011.7-1199,1010.5-1199z"/>
</g>
<g id="Z0Gcm1zqXjEQr6I3ZDQoL" transform="matrix(1 0 0 1 -818.02 1286.74)">
	<path vector-effect="non-scaling-stroke" class="st4" d="M1017.2-1219.7c-15.1-4.9-36.9-5-51.9,0.5c-9.7,3.5-18.3,10.4-23.1,19.7
		c-2.9,5.6-4.6,11.8-4.9,18.1c0.5,0,1.1,0,1.6,0c0.7,0.1,1.4,0.2,2.1,0.4c0.2,0.1,0.4,0.2,0.7,0.2v-0.2c0-0.5,0.1-1,0.1-1.4
		c0.7-8.4,4-16.4,9.4-22.9c4-4.5,8.9-8,14.4-10.4c0.4-0.1,1.2-0.5,1.5-0.6l1.6-0.6c0.6-0.2,1.5-0.5,2.1-0.7
		c12.4-3.7,25.8-3.8,38.5-1.3c15,3.1,28,12,32.5,27.2c0.8,2.7,1.3,5.5,1.4,8.3c0.9-0.4,1.9-0.7,2.9-0.8c0.3,0,0.8,0,1.2-0.1
		c-0.1-1.3-0.3-2.6-0.6-3.9C1043.5-1203.9,1032.2-1214.8,1017.2-1219.7z"/>
</g>
<g id="_x32_JMqIB8pQtCh9uJ4P4Yuk" transform="matrix(1 0 0 1 -791.64 1418.46)">
	<path vector-effect="non-scaling-stroke" class="st2" d="M981.5-1209.6c-4.2,4.2-8.6,8-13.4,11.5c-4.5,3.4-9.2,6.4-14.1,9.1
		l1.4,0.2c2.8,0.4,5.6,0.9,8.3,1.6c2.2-0.7,4.5-1.1,6.8-1.2c1.4-0.1,2.7-0.2,4.1-0.1c4.8-1,9.7-1.8,14.6-2.5
		c3.6-0.6,7.2-0.9,10.8-1.1h0.6c-0.2-3.8,0.1-7.5,0.1-11.3c0-5.1-0.5-10.1-0.7-15.2c1.3,5,1.9,10.1,1.9,15.2
		c-0.1,3.8-0.5,7.5-1.2,11.3c2.5,0.1,5,0.4,7.4,0.8c2.7,0.5,5.3,1.1,7.9,1.9c-5.3-0.7-10.6-1.6-15.9-1.6c-2.7,0.1-5.3,0.4-8,0.7
		c-5.3,0.6-10.9,1.3-16.3,1.8c3.3,0.2,6.6,0.6,9.8,1.4c7.1,1.8,20.4,5.8,23.4,13c0.6,1.4,0.7,3,0.3,4.4c-0.3,1-1,1.8-1.8,2.4
		c2.4,0.1,4.8,0.1,7.2-0.1c3.7-0.3,7.3-1.1,10.8-2.5c2.2-1.2,3.3-5.4,3.8-7.7c3.3-15.2,1.7-47.1-12.4-56.5c-2.2-1.4-4.8-2.2-7.4-2.3
		c-1.4,0-2.8,0-4.1-0.1c-1-0.1-2-0.2-2.9-0.3c-1.4,2.2-2.8,4.4-4.3,6.6C993.2-1222.9,987.6-1216,981.5-1209.6z"/>
</g>
<g id="G55KvESPgPAQXBLVWwpKL" transform="matrix(1 0 0 1 -817.87 1331.19)">
	<path vector-effect="non-scaling-stroke" class="st2" d="M1039-1224.2c-2.1-6.7-5.6-12.8-10.3-18c-1.3,0.8-2.6,1.5-3.9,2.2
		c-10.2,5.3-21.5,8.3-33.1,8.8c-12,0.1-23.8-2.4-34.7-7.3c-1-0.4-1.9-0.9-2.9-1.4c-6.8,8.5-10.5,19-10.6,29.9
		c-0.1,10.9,3.5,21.6,10.3,30.2c0.7,0.1,1.5,0.1,2.2,0.1s2.5,0.1,3.4,0.1c5.6,0.3,11.2,0.3,16.8-0.1l0,0c-0.1-0.3-0.1-0.7-0.1-1
		c0-1,0.4-1.9,1.1-2.6c0.6-0.7,1.5-1.1,2.5-1.1c2,0,3.6,1.6,3.6,3.6c0,0.9-0.4,1.9-1.1,2.5c-0.7,0.7-1.6,1.1-2.6,1.1
		c-0.9,0-1.9-0.4-2.5-1.1c-0.3-0.3-0.6-0.6-0.8-1c-1.1,0.2-2.3,0.4-3.5,0.6c-5.1,0.6-10.2,0.8-15.2,0.6c-0.7,0-1.5,0-2.3-0.1
		c15,16.9,39.7,21.4,59.7,10.7c15.8-8.2,26.2-24.8,26.1-42.6c0-4.7-0.7-9.4-2.1-13.9l-0.1-0.1L1039-1224.2z M1028.9-1207.2
		c-1.3,2.7-3.2,5.1-5.7,6.9c-1.3,0.9-2.6,1.7-4,2.3c-15.4,7.9-41.6,9.3-56.6-0.7c-6.4-3.7-10.6-10.8-8.9-18.3c0.8-3.9,2.9-7.4,6-9.9
		c2.3-1.9,5.2-2.9,8.2-2.7c0.7,0.1,1.3,0.2,1.9,0.4c3.1,0.6,11.6,2.2,13.3,2.5c2.8,0.6,5.6,0.9,8.4,1.1c1.9-0.1,3.7-0.3,5.6-0.6
		c5.4-0.9,10.8-2,16.3-3.1c5.9-2.1,11.8,2.7,14.5,7.7C1030.6-1217.4,1031-1211.9,1028.9-1207.2L1028.9-1207.2z"/>
</g>
<g id="_x32_Ln7jgjdIAOU_x5F_5e0Tp-u6" transform="matrix(1 0 0 1 -814.33 1405.74)">
	<path vector-effect="non-scaling-stroke" class="st1" d="M991.9-1197.4c-1.4,1.3-3.2,2.8-4.7,4c-0.9,0.7-2,1.5-2.9,2.2
		c-7.7,5.4-15.9,10-24.6,13.8c5.7,0,11.3,0.4,16.9,1.2c9.6-6.2,18.6-13.4,26.7-21.4c7.9-8.2,15.1-17.1,21.7-26.4
		c-3.1-0.4-6.1-1.5-8.7-3.3c-0.2-0.1-0.3-0.3-0.5-0.4C1009.1-1216.8,1001.3-1206.4,991.9-1197.4z"/>
</g>
<g id="c6VFccj460K8UxHLTtQEP" transform="matrix(1 0 0 1 -761.6 1319.44)">
	<path vector-effect="non-scaling-stroke" class="st4" d="M984.4-1190.1c1.7,1.3,3.7,1.9,5.8,1.9h0.9h0.9c0.4,0,0.9,0,1.4-0.1
		c3.6-0.3,6.7-2.7,7.9-6.1c0.4-1.6,0.5-3.3,0.4-5c-0.1-2.8-0.2-5.6-0.3-8.3c0-0.3-0.1-0.6-0.1-0.9c0-0.1,0-0.3-0.1-0.4
		c-0.8-3.3-3.5-5.8-6.8-6.5c-0.3-0.1-0.6-0.1-0.9-0.1c-0.8-0.1-2.4-0.1-3.2-0.1c-2.8-0.1-5.4,1.1-7.2,3.2
		C985.2-1205.2,985.6-1197.5,984.4-1190.1L984.4-1190.1z"/>
</g>
<g id="I-3RUy0tlwURCzSz7bvf9" transform="matrix(1 0 0 1 -703.78 1277.12)">
	<path vector-effect="non-scaling-stroke" class="st3" d="M965-1175.5c-0.5,0.3-1.1,0.6-1.6,0.9l-1.6,0.8c2.8,0.4,5.8,0.2,8.2-1.4
		c0.5-0.4,1-0.9,1.5-1.4c0.8-0.8,1.5-1.5,2.2-2.3c0.2-0.2,0.4-0.5,0.6-0.7v-0.1l0,0l0.1-0.1c3.5,1.7,7.2,2.9,11,3.5
		c13,2.1,27.9-2.2,35.8-13.3c8.5-12.1,4-26.8-7.8-34.6c-15.8-10.8-40.8-7.1-50.9,9.8c-4.9,8.5-4,19.2,2.3,26.7
		c1.2,1.5,2.5,2.9,4,4.2l-0.1,0.1l-0.1-0.1C968.5-1180.5,967.5-1177.3,965-1175.5z M1000.1-1205.5c0.6-0.7,1.6-1.1,2.5-1.1
		c2,0,3.6,1.6,3.6,3.6c0,0.9-0.4,1.9-1.1,2.5c-0.7,0.7-1.6,1.1-2.5,1.1c-2,0-3.5-1.6-3.6-3.6C999-1203.9,999.4-1204.9,1000.1-1205.5
		L1000.1-1205.5z M989.9-1205.5c0.6-0.7,1.5-1.1,2.5-1.1c1,0,1.9,0.4,2.5,1.1c0.7,0.7,1.1,1.6,1.1,2.6c0,1-0.4,1.9-1.1,2.5
		c-0.7,0.7-1.6,1.1-2.5,1.1c-1.9-0.1-3.5-1.6-3.6-3.6C988.8-1203.9,989.2-1204.9,989.9-1205.5L989.9-1205.5z M979.8-1205.5
		c0.6-0.7,1.5-1.1,2.5-1.1c1,0,1.9,0.4,2.6,1.1c0.7,0.7,1.1,1.6,1.1,2.6c0,0.9-0.4,1.9-1.1,2.5c-0.7,0.7-1.6,1.1-2.5,1.1
		c-0.9,0-1.9-0.4-2.5-1.1c-0.7-0.6-1.1-1.6-1.1-2.5C978.7-1203.9,979.1-1204.9,979.8-1205.5L979.8-1205.5z"/>
</g>
<g id="_x30_gZBEKEOqwKYepFuxtM5P" transform="matrix(1 0 0 1 -914.88 1244.99)">
	<path vector-effect="non-scaling-stroke" class="st3" d="M1016.1-1183.6c9.2-7.8,12.5-20.2,6.3-30.9c-10.1-16.9-35.1-20.6-50.9-9.8
		c-11.8,7.9-16.4,22.6-7.8,34.6c7.9,11,22.7,15.4,35.8,13.3c3.8-0.6,7.5-1.8,11-3.5l0.1,0.1l0,0c0,0,0,0,0,0.1
		c0.2,0.3,0.4,0.5,0.6,0.7c0.7,0.8,1.5,1.5,2.2,2.3c0.5,0.5,1,1,1.5,1.4c2.3,1.7,5.4,1.8,8.2,1.4l-1.6-0.9c-0.5-0.3-1.1-0.6-1.6-0.9
		c-2.5-1.8-3.5-5-3.5-8L1016.1-1183.6L1016.1-1183.6z M984.7-1200.5c-0.7,0.7-1.6,1.1-2.5,1.1c-2,0-3.5-1.6-3.6-3.6
		c0-1,0.4-1.9,1.1-2.6c0.6-0.7,1.6-1.1,2.5-1.1c2,0,3.6,1.6,3.6,3.6C985.8-1202,985.4-1201.1,984.7-1200.5z M994.9-1200.5
		c-0.7,0.7-1.6,1.1-2.6,1.1c-1.9-0.1-3.5-1.6-3.6-3.6c0-1,0.4-1.9,1.1-2.6c0.6-0.7,1.5-1.1,2.5-1.1c1,0,1.9,0.4,2.6,1.1
		c0.7,0.7,1.1,1.6,1.1,2.6C995.9-1202,995.6-1201.1,994.9-1200.5z M1005-1200.5c-0.7,0.7-1.6,1.1-2.5,1.1c-2,0-3.5-1.6-3.6-3.6
		c0-1,0.4-1.9,1.1-2.6c0.6-0.7,1.6-1.1,2.5-1.1c2,0,3.6,1.6,3.6,3.6C1006.1-1202,1005.7-1201.1,1005-1200.5z"/>
</g>
<g id="fe7SpLXq1Loj15vElBVne" transform="matrix(1 0 0 1 -930.42 1341.98)">
	<path vector-effect="non-scaling-stroke" class="st3" d="M1011.1-1178.9c0.7,0.8,1.5,1.5,2.2,2.3c0.5,0.5,1,1,1.5,1.4
		c2.3,1.7,5.4,1.8,8.2,1.4l-1.6-0.8c-0.5-0.3-1.1-0.6-1.6-0.9c-2.5-1.8-3.5-5-3.6-8h-0.1l-0.1-0.1c9.2-7.8,12.5-20.2,6.3-30.9
		c-10.1-16.9-35.1-20.6-50.9-9.8c-11.8,7.9-16.3,22.6-7.8,34.6c7.9,11,22.7,15.4,35.8,13.3c3.8-0.6,7.5-1.8,11-3.5l0.1,0.1l0,0v0.1
		C1010.6-1179.4,1010.8-1179.1,1011.1-1178.9z M984.7-1200.5c-0.7,0.7-1.6,1.1-2.6,1.1c-0.9,0-1.9-0.4-2.5-1.1
		c-0.7-0.6-1.1-1.6-1.1-2.5c0-1,0.4-1.9,1.1-2.6c0.6-0.7,1.5-1.1,2.5-1.1c1,0,1.9,0.4,2.6,1.1c0.7,0.7,1.1,1.6,1.1,2.6
		C985.8-1202,985.4-1201.1,984.7-1200.5z M994.9-1200.5c-0.7,0.7-1.6,1.1-2.5,1.1c-2,0-3.5-1.6-3.6-3.6c0-1,0.4-1.9,1.1-2.6
		c0.6-0.7,1.6-1.1,2.5-1.1c1,0,1.9,0.4,2.5,1.1c0.7,0.7,1.1,1.6,1.1,2.6C996-1202,995.6-1201.1,994.9-1200.5z M1005-1200.5
		c-0.7,0.7-1.6,1.1-2.6,1.1c-0.9,0-1.9-0.4-2.5-1.1c-0.7-0.6-1.1-1.6-1.1-2.5c0-1,0.4-1.9,1.1-2.6c0.6-0.7,1.5-1.1,2.5-1.1
		c1,0,1.9,0.4,2.6,1.1c0.7,0.7,1.1,1.6,1.1,2.6C1006.1-1202,1005.7-1201.1,1005-1200.5z"/>
</g>
<g id="_x30_GrH2Wbe9BY7pSRgTftE2" transform="matrix(1 0 0 1 -874.66 1322.14)">
	<path vector-effect="non-scaling-stroke" class="st4" d="M1001.1-1213.7c-1.6-1.3-3.5-2-5.6-2.1c-0.5,0-1.3,0-1.8,0h-1.2
		c-2.6,0-5,1.1-6.8,3c-1.2,1.3-2,3-2.1,4.9c-0.1,1.8,0.1,3.7,0.1,5.5c0,1.2,0.1,2.4,0.1,3.7c0,1.2,0.1,2.4,0.2,3.6
		c0.8,3.4,3.5,6.1,7,6.7c1.2,0.1,2.4,0.2,3.6,0.2c2.2,0.1,4.4-0.5,6.2-1.9l-0.2-0.9C999.1-1198.5,999.2-1206.3,1001.1-1213.7z"/>
</g>
<g id="pgplIadI3i5dQ9xV433EI" transform="matrix(1 0 0 1 -819.26 1313.13)">
	<path vector-effect="non-scaling-stroke" d="M974.6-1238.2c-14.2,6-24.9,18.2-28.8,33.1c0.3,0.3,0.5,0.6,0.8,1l-0.1,0.1
		c-0.2-0.2-0.5-0.5-0.8-0.7c-1.9,7.4-2,15.2-0.3,22.8l0.2,0.9l0.4-0.3l0.1,0.1c-0.1,0.2-0.3,0.3-0.5,0.5c1.7,6.8,4.8,13.2,9.1,18.7
		h0.6c-6.8-8.6-10.4-19.2-10.3-30.2c0.1-10.9,3.8-21.4,10.6-29.9l-0.4-0.2l0.4,0.2c1.4-1.7,2.9-3.3,4.5-4.9l-0.7-0.4l0.7,0.3
		c18.1-17.1,46-17.9,65.1-2l0.5-0.3l-0.5,0.3c1.7,1.4,3.4,3,4.9,4.7l0.4-0.2l-0.4,0.2c4.7,5.2,8.2,11.3,10.3,18
		c0.1-0.1,0.1-0.2,0.2-0.3c-1.4-4.6-3.4-9-6-13.1C1021.7-1239.5,996.4-1247.4,974.6-1238.2z"/>
</g>
<g id="jUBrGlFI8n66wHAreMxrj" transform="matrix(1 0 0 1 -812.22 1340.73)">
	<path vector-effect="non-scaling-stroke" d="M1034.9-1211.4L1034.9-1211.4c1.3-7.5,0.9-15.2-1.2-22.5l-0.2,0.3l0,0
		c1.4,4.5,2.1,9.2,2.1,13.9c0.1,17.9-10.4,34.5-26.1,42.6c-20,10.7-44.6,6.3-59.7-10.7h-0.6c4.7,5.6,10.6,10.1,17.2,13.2
		c0-0.1,0-0.3,0-0.4h0.1c0,0.1,0,0.3,0,0.5l1.2,0.5c13.9,6,29.9,5.2,43.1-2.3c0.1-0.3,0.2-0.6,0.4-0.9c-0.1,0.3-0.2,0.6-0.3,0.9
		c4-2.3,7.6-5.1,10.8-8.3c7-7.3,11.7-16.5,13.4-26.5c0,0-0.1-0.1-0.1-0.1L1034.9-1211.4z"/>
</g>
<g id="dK4A-G069ltpY6wdC-rKc" transform="matrix(1 0 0 1 -818.93 1291.11)">
	<path vector-effect="non-scaling-stroke" d="M992.5-1197.2c10.2-0.4,20.1-3,29.1-7.8c1.1-0.6,2.2-1.2,3.3-1.8l0,0
		c-1.1,0.6-2.2,1.1-3.4,1.7c-10.7,4.9-22.6,7.9-34.4,7.1c-1.7-0.1-3.7-0.3-5.4-0.5c-1-0.1-2.1-0.3-3.2-0.5c-1-0.2-2.2-0.4-3.2-0.6
		c-5.4-1.1-10.6-2.9-15.6-5.1l0,0C969.9-1199.6,981.2-1197,992.5-1197.2z"/>
</g>
<g id="AjBkfhMyLhWcxqXb1ONUe" transform="matrix(1 0 0 1 -851.88 1288.06)">
	<path vector-effect="non-scaling-stroke" d="M992-1202.2l0.7,0.4l0,0L992-1202.2z"/>
</g>
<g id="yXTe-xhIQhTrMMEBadTzZ" transform="matrix(1 0 0 1 -786.14 1286.11)">
	<path vector-effect="non-scaling-stroke" d="M992.7-1202.1l-0.5,0.3l0,0L992.7-1202.1z"/>
</g>
<g id="_x35_kMjPCC6wqZPN1pOiKTsa" transform="matrix(1 0 0 1 -818.73 1296.45)">
	<path vector-effect="non-scaling-stroke" d="M992.7-1196.5c11.5-0.4,22.8-3.4,33.1-8.8c1.3-0.7,2.6-1.4,3.9-2.2l0,0
		c-4.2,2.2-8.6,4.1-13.1,5.6c-8.5,3-17.4,4.5-26.4,4.5c-0.5,0-2.6,0-3-0.1l-1.8-0.1c-1.9-0.1-4.2-0.4-6.1-0.7l-2.4-0.4l-2.4-0.5
		c-3.2-0.6-6.4-1.5-9.5-2.4c-3.4-1-6.6-2.3-9.8-3.8l0,0c0.9,0.5,1.9,1,2.9,1.4C968.9-1198.9,980.7-1196.4,992.7-1196.5z"/>
</g>
<g id="kyAdyVojuXkeLjO5eAYKx" transform="matrix(1 0 0 1 -856.22 1293)">
	<path vector-effect="non-scaling-stroke" d="M992.2-1202.1l0.4,0.2l0,0L992.2-1202.1z"/>
</g>
<g id="NN-QoVbap9dBpx7ohg7pm" transform="matrix(1 0 0 1 -781.31 1290.82)">
	<path vector-effect="non-scaling-stroke" d="M992.6-1202.1l-0.4,0.2l0,0L992.6-1202.1z"/>
</g>
<g id="SuudC6n11mTizHxF2rA7R" transform="matrix(1 0 0 1 -848.57 1318.91)">
	<path vector-effect="non-scaling-stroke" d="M993.2-1186.8c-7.7-5.5-10.8-14.2-5.8-23.1c2.5-4.5,7.4-8.1,12.7-7.2l0.6,0.1l-0.8-0.2
		l0.7,0.1c-0.6-0.2-1.3-0.3-2-0.4c-3-0.2-5.9,0.8-8.2,2.7c-3.1,2.5-5.2,6-6,9.9c-1.8,7.6,2.4,14.6,8.8,18.3c-1-0.7-2.1-1.5-3-2.3
		C991.2-1188.1,992.2-1187.4,993.2-1186.8z"/>
</g>
<g id="vX2cb38IsCkOk0Eo26rDj" transform="matrix(1 0 0 1 -788.45 1319.19)">
	<path vector-effect="non-scaling-stroke" d="M984-1217.4h0.2c5.7-1.4,11,3.3,13.6,8.1c1.9,3.4,2.6,7.3,1.9,11.1
		c-0.9,3.8-3,7.2-6.2,9.6c-0.6,0.5-1.2,0.9-1.8,1.3l1.1-0.6c0.6-0.4,1.2-0.7,1.8-1.1c-1.1,0.9-2.3,1.7-3.5,2.4l-1.2,0.7
		c1.4-0.6,2.7-1.4,4-2.3c2.5-1.7,4.4-4.1,5.7-6.8c2-4.7,1.7-10.1-1-14.6C995.8-1214.7,989.9-1219.6,984-1217.4z"/>
</g>
<g id="_x32_-quTMOhV0aIEqOrmmHM_x5F_" transform="matrix(1 0 0 1 -818.34 1305.98)">
	<path vector-effect="non-scaling-stroke" d="M971.3-1203.9c-0.1,0-0.2,0-0.4-0.1l-0.4-0.1c5.2,1.5,10.5,2.8,15.8,3.7
		c1.9,0.4,3.8,0.6,5.7,0.7c1,0,1.9-0.1,2.9-0.2c6.6-1.1,13.1-2.5,19.5-4.4l-0.3,0.1l-0.4,0.1l0.2-0.1c-5.4,1-10.8,2.2-16.3,3.1
		c-1.8,0.3-3.7,0.5-5.6,0.6c-2.8-0.2-5.6-0.5-8.4-1.1c-1.7-0.3-10.2-2-13.3-2.5h0.2C970.8-1204.1,971-1204,971.3-1203.9z"/>
</g>
<g id="pifYFur-51Rzutl3AUnu8" transform="matrix(1 0 0 1 -840.25 1303.88)">
	<path vector-effect="non-scaling-stroke" d="M992.4-1202l0.4,0.1c0.1,0,0.2,0.1,0.4,0.1C992.9-1201.9,992.7-1202,992.4-1202
		L992.4-1202l-0.8-0.2L992.4-1202z"/>
</g>
<g id="iBk6af4k1Sf8OqN57Qbid" transform="matrix(1 0 0 1 -796.82 1303.74)">
	<path vector-effect="non-scaling-stroke" d="M992.6-1202h-0.2l-0.2,0.1L992.6-1202z"/>
</g>
<g id="Yaq4GQt8ItM-GXVGDQN-_" transform="matrix(1 0 0 1 -818.45 1337.65)">
	<path vector-effect="non-scaling-stroke" d="M1021.7-1205.8c-9.6,5-20.8,6.7-31.5,6.8c-7.8,0.1-15.5-1.3-22.7-4.3
		c-1.5-0.7-3-1.4-4.4-2.3c0.5,0.4,1.1,0.8,1.7,1.1c-0.5-0.2-1-0.5-1.5-0.8c15,10,41.2,8.6,56.6,0.7c-0.4,0.2-0.8,0.4-1.2,0.5
		C1019.7-1204.6,1020.7-1205.2,1021.7-1205.8z"/>
</g>
<g id="bkaRFDDoscxfMEHfT02fY" transform="matrix(1 0 0 1 -848.38 1333.64)">
	<path vector-effect="non-scaling-stroke" d="M993-1201.6c-1-0.6-2-1.3-2.9-2c0.9,0.8,2,1.6,3,2.3c0.5,0.3,1,0.6,1.5,0.8
		C994.1-1200.8,993.5-1201.2,993-1201.6z"/>
</g>
<g id="F9_78qc3SisCg_ToLsF2Y" transform="matrix(1 0 0 1 -789.23 1333.85)">
	<path vector-effect="non-scaling-stroke" d="M995.4-1203.8c-0.6,0.4-1.2,0.8-1.8,1.1l-1.1,0.6c-1,0.7-2,1.3-3.1,1.8
		c0.4-0.1,0.8-0.3,1.2-0.5l1.2-0.7C993.1-1202.1,994.3-1202.9,995.4-1203.8z"/>
</g>
<g id="FDrdXQaHxXfGBuQ8K2cNo" transform="matrix(1 0 0 1 -836.18 1319.49)">
	<path vector-effect="non-scaling-stroke" d="M990.5-1202c0-3,0.9-5.5,1.9-5.5s1.9,2.5,1.9,5.5s-0.9,5.5-1.9,5.5
		S990.5-1199,990.5-1202z"/>
</g>
<g id="PCKXqq3Ffm3cg0ZSumu3V" transform="matrix(1 0 0 1 -836.18 1319.49)">
	<path vector-effect="non-scaling-stroke" d="M992.4-1207.6c-1.2,0-2.1,2.5-2.1,5.7s0.9,5.6,2.1,5.6s2.1-2.5,2.1-5.6
		S993.6-1207.6,992.4-1207.6z M992.4-1196.4c-1.1,0-2-2.5-2-5.6s0.9-5.6,2-5.6c1.1,0,2,2.5,2,5.6S993.5-1196.4,992.4-1196.4z"/>
</g>
<g id="z8mPWxuH7cVuzHmEVYk0q" transform="matrix(1 0 0 1 -836.18 1319.48)">
	<path vector-effect="non-scaling-stroke" d="M992.4-1207.6c-1.1,0-2,2.5-2,5.6s0.9,5.6,2,5.6c1.1,0,2-2.5,2-5.6
		S993.5-1207.6,992.4-1207.6z M992.4-1196.5c-1,0-1.9-2.5-1.9-5.5s0.9-5.5,1.9-5.5c1,0,1.9,2.5,1.9,5.5S993.4-1196.5,992.4-1196.5z"
		/>
</g>
<g id="AkbbDpYz3v-kyrbiKkUg4" transform="matrix(1 0 0 1 -800.29 1319.37)">
	<path vector-effect="non-scaling-stroke" d="M992.4-1207.5c-1.1,0-1.9,2.5-1.9,5.5s0.9,5.5,1.9,5.5c1,0,1.9-2.5,1.9-5.5
		S993.4-1207.5,992.4-1207.5z"/>
</g>
<g id="_x32_n7-XLLpw8txHhGVrhxhc" transform="matrix(1 0 0 1 -800.29 1319.35)">
	<path vector-effect="non-scaling-stroke" d="M992.4-1207.6c-1.2,0-2.1,2.5-2.1,5.6c0,3.2,0.9,5.6,2.1,5.6c1.2,0,2.1-2.5,2.1-5.6
		C994.5-1205.1,993.6-1207.6,992.4-1207.6z M992.4-1196.4c-1.1,0-2-2.5-2-5.6c0-3.1,0.9-5.6,2-5.6c1.1,0,2,2.5,2,5.6
		C994.4-1198.9,993.5-1196.4,992.4-1196.4L992.4-1196.4z"/>
</g>
<g id="g1AfABwQJD59RlG3rJt9c" transform="matrix(1 0 0 1 -800.29 1319.37)">
	<path vector-effect="non-scaling-stroke" d="M992.4-1207.6c-1.1,0-2,2.5-2,5.6c0,3.1,0.9,5.6,2,5.6c1.1,0,2-2.5,2-5.6
		C994.4-1205.1,993.5-1207.6,992.4-1207.6z M992.4-1196.6c-1.1,0-1.9-2.5-1.9-5.5c0-3,0.9-5.5,1.9-5.5c1,0,1.9,2.5,1.9,5.5
		C994.3-1199.1,993.4-1196.5,992.4-1196.6L992.4-1196.6z"/>
</g>
<g id="UMyE8cp1z2SU3hMMEpUn1" transform="matrix(1 0 0 1 -812.88 1452.4)">
	<path vector-effect="non-scaling-stroke" d="M992.4-1202L992.4-1202L992.4-1202z"/>
</g>
<g id="o6tFzfdhgUa5S9Tkdh5uB" transform="matrix(1 0 0 1 -851.32 1414.16)">
	<path vector-effect="non-scaling-stroke" d="M1026.6-1162.5c-2.3,0.6-4.9,1.1-7.2,1.5c-12.1,1.9-24.4,3.2-36.6,3.8
		c-8.7,0.5-19.6-0.1-24.8-8.2c-3.1-5-3.4-11.1-3.1-16.9c0.5-7.9,2.2-15.6,3.7-23.3c2.1-11.6,6.8-21.8,18.9-25.3
		c4.9-1.5,10.1-1.9,15.2-2.5c0.2,0,0.5-0.1,0.7-0.1c0.4-0.1,1-0.2,1.5-0.4c2.5-0.6,4.7-1.9,6.5-3.7c2.7-2.8,4.2-6.5,4.2-10.4
		c0,0-0.1,0-0.1-0.1c-0.1,0.8-0.2,1.7-0.4,2.5c-1.1,5.6-5.5,10-11.1,11c-1.2,0.2-2.4,0.4-3.6,0.5c-4.2,0.3-8.4,0.9-12.5,1.9
		c-11.6,3.1-16.6,11.7-19,22.8c-0.1,0.4-0.3,1.7-0.4,2.2c-1.5,8.2-3.5,16.4-4.3,24.8c-0.4,4-0.2,8,0.6,11.9
		c3,12.7,15.2,15.1,26.5,14.6c12.3-0.6,24.6-2,36.7-4.2c2.9-0.6,5.8-1.2,8.6-2.1c0.9-0.3,1.9-0.6,2.8-0.9c0.4-0.2,0.9-0.3,1.3-0.5
		l-0.2-0.1C1029.3-1163.2,1028-1162.9,1026.6-1162.5z"/>
</g>
<g id="TRGt1K5GVEqGcKefc-UuT" transform="matrix(1 0 0 1 -838.18 1367.94)">
	<path vector-effect="non-scaling-stroke" d="M992.5-1202.2h-0.1c0,0.1,0,0.3,0,0.4c0,0,0.1,0,0.1,0.1
		C992.5-1202,992.5-1202.1,992.5-1202.2z"/>
</g>
<g id="BztmTxSU6pS1ghKXBLtaG" transform="matrix(1 0 0 1 -847.69 1433.08)">
	<path vector-effect="non-scaling-stroke" d="M1010.1-1203.6c-0.3,0.1-0.5,0.3-0.8,0.4l0.7-0.4c-5.6-0.8-11.2-1.2-16.9-1.2l-1,0.4
		l0.8-0.4c-2.5,0-5,0.2-7.5,0.4c0,0.1,0,0.3,0,0.4v-0.4c-1.2,0.1-2.4,0.3-3.6,0.5c-5.8,0.9-11.5,2.5-16.9,4.7
		c10-3.4,20.4-5,30.9-4.8c2.2,0,4.8,0.1,7,0.3c5.7,0.4,11.4,1,17.1,1.9l0,0c-2.7-0.7-5.6-1.2-8.3-1.6L1010.1-1203.6z"/>
</g>
<g id="_x34_Z3jvn0fLCLByJy9PdB2r" transform="matrix(1 0 0 1 -853.09 1416.27)">
	<path vector-effect="non-scaling-stroke" d="M991.3-1194.6c0.1-1.9,0.2-3.6,0.5-5.5c0.8-5.5,1.9-10.9,2.6-16.4
		c-2,5.9-3.4,11.9-4,18.1c-0.1,3.6,0,7.2,0.3,10.8h0.1C991.1-1189.9,991.2-1192.2,991.3-1194.6z"/>
</g>
<g id="ejtbrqaiQ0rkFLAPcmF0j" transform="matrix(1 0 0 1 -854.67 1430.9)">
	<path vector-effect="non-scaling-stroke" d="M992.4-1202.2L992.4-1202.2l-0.1,0.4C992.4-1201.9,992.4-1202.1,992.4-1202.2z"/>
</g>
<g id="_x35_CIxInJAVaqaTwrSpQYCi" transform="matrix(1 0 0 1 -798.39 1443.72)">
	<path vector-effect="non-scaling-stroke" d="M1014.2-1192.5c0.8-0.6,1.5-1.4,1.8-2.4c0.4-1.5,0.4-3-0.3-4.4
		c-3-7.2-16.3-11.2-23.4-13c-3.2-0.8-6.5-1.3-9.8-1.4l-2.4,0.2l1.3-0.3c-1.4,0-2.7,0-4.1,0.1c-2.3,0.2-4.6,0.6-6.8,1.2l0.3,0.1h-0.3
		c-0.7,0.2-1.3,0.4-2,0.7c1.7-0.6,3.4-1,5.1-1.2c2.7-0.4,5.5-0.4,8.2-0.3c0.8,0,2.1,0.2,3,0.3c0.8,0.1,2,0.3,2.9,0.5l2.2,0.4
		c0.8,0.2,2.1,0.5,2.9,0.7c5.5,1.4,10.9,3.6,15.8,6.4c3,1.9,6.7,4.8,6.5,8.7c-0.1,1-0.5,1.9-1.3,2.6c-4.9,4.2-19.4,2.1-25.6,1.5
		c-2.9-0.3-7-0.7-10.3-1.1v0.1h-0.1c0.5,0.1,0.9,0.2,1.3,0.2c1.9,0.3,7,1,8.9,1.3C993.5-1190.9,1008.5-1188.3,1014.2-1192.5
		l-0.9-0.1L1014.2-1192.5z"/>
</g>
<g id="mbrENLUsLxnuBtoLwpGu8" transform="matrix(1 0 0 1 -813.72 1452.34)">
	<path vector-effect="non-scaling-stroke" d="M993-1201.9l0.2-0.1l-1.6-0.2L993-1201.9z"/>
</g>
<g id="DdtxTrffQaG2puyLs_DFS" transform="matrix(1 0 0 1 -812.91 1452.48)">
	<path vector-effect="non-scaling-stroke" d="M992.4-1202.1L992.4-1202.1l-0.2,0.1l0.2,0.1h0.1L992.4-1202.1z"/>
</g>
<g id="Q6G_UGrY3Ek0VFw7pl8my" transform="matrix(1 0 0 1 -820.07 1433.27)">
	<path vector-effect="non-scaling-stroke" d="M992.5-1202l-0.3-0.1l0,0L992.5-1202z"/>
</g>
<g id="_x30_RwowqvfTyt3_x5F_Ft-G-ITc" transform="matrix(1 0 0 1 -787.92 1374.98)">
	<path vector-effect="non-scaling-stroke" d="M989.4-1197l0.2-0.2L989.4-1197c0.2,0.1,0.4,0.3,0.5,0.4c2.6,1.8,5.5,2.9,8.7,3.3
		l0.5-0.7c-4.4-0.6-9-2-11.6-5.8c-2-3.2-2-7.2-1-10.8h-0.1C984.9-1205.9,985.4-1200.4,989.4-1197z"/>
</g>
<g id="jMoNBDyrTAqyMxg-n1CIl" transform="matrix(1 0 0 1 -766.89 1418.16)">
	<path vector-effect="non-scaling-stroke" d="M980.6-1236.2c1.3,0.1,2.7,0.1,4.1,0.1c2.6,0.1,5.2,0.9,7.4,2.3
		c14.1,9.4,15.7,41.3,12.4,56.5c-0.6,2.3-1.6,6.6-3.8,7.7c-3.5,1.3-7.1,2.2-10.8,2.5c-2.4,0.2-4.8,0.3-7.2,0.1l0,0
		c2.4,0.3,4.9,0.3,7.3,0.2c3.4-0.2,6.8-0.8,10-1.8c0.3-0.1,0.7-0.2,1-0.4c0.3-0.2,0.7-0.4,0.9-0.6c2.6-2.5,3.7-8,4.3-11.5
		c2.4-15.2,0.6-44.4-13.5-53.5c-2.4-1.5-5.1-2.3-8-2.3c-1.3,0-2.7,0-4-0.1c-0.8-0.1-1.7-0.1-2.5-0.2l-0.5,0.7
		C978.7-1236.3,979.7-1236.2,980.6-1236.2z"/>
</g>
<g id="_x31_80zA3VoIJ6ouo4fbAFH8" transform="matrix(1 0 0 1 -793.7 1365.9)">
	<path vector-effect="non-scaling-stroke" d="M992.2-1201.5L992.2-1201.5c0.2-0.3,0.2-0.6,0.3-0.9
		C992.5-1202.2,992.4-1201.9,992.2-1201.5z"/>
</g>
<g id="_x33_Jx70mFAjydogyBiPLkbs" transform="matrix(1 0 0 1 -777.05 1453.18)">
	<path vector-effect="non-scaling-stroke" d="M992-1202l0.8,0.1l0,0L992-1202z"/>
</g>
<g id="_x30_0g7NnpeuaeLKUPgRw3lo" transform="matrix(1 0 0 1 -788.67 1430.09)">
	<path vector-effect="non-scaling-stroke" d="M997.1-1202.6c5.4,0,10.6,0.9,15.9,1.6c-2.6-0.8-5.2-1.5-7.9-1.9
		c-2.4-0.5-4.9-0.8-7.4-0.8l-0.1,0.6c0-0.2,0-0.4,0-0.6h-0.6c-3.6,0.2-7.2,0.5-10.8,1.1c-4.9,0.7-9.8,1.5-14.6,2.5h1.1
		c5.4-0.5,11-1.2,16.3-1.8C991.8-1202.2,994.4-1202.6,997.1-1202.6z"/>
</g>
<g id="_x31_sb671Cd2XeROVQrf4nDh" transform="matrix(1 0 0 1 -809.44 1432.03)">
	<path vector-effect="non-scaling-stroke" d="M991.2-1201.9l2.4-0.2h-1.1L991.2-1201.9z"/>
</g>
<g id="O6hSFnlbW_N7NEdAAKExK" transform="matrix(1 0 0 1 -783.1 1415.05)">
	<path vector-effect="non-scaling-stroke" d="M993.3-1200c0-5.1-0.6-10.2-1.9-15.2c0.2,5.1,0.6,10.1,0.7,15.2
		c0,3.8-0.2,7.5-0.1,11.3h0.1C992.8-1192.5,993.2-1196.3,993.3-1200z"/>
</g>
<g id="OWpJzmObY0JHvmTyNlICY" transform="matrix(1 0 0 1 -783.36 1428.57)">
	<path vector-effect="non-scaling-stroke" d="M992.4-1202.3h-0.1c0,0.2,0,0.4,0,0.6L992.4-1202.3z"/>
</g>
<g id="lTY1HZlns8IFTW6KPCmtd" transform="matrix(1 0 0 1 -818.99 1405.09)">
	<path vector-effect="non-scaling-stroke" d="M976.2-1183.5c-3.9,2.3-7.9,4.6-11.9,6.7h0.2c8.6-3.7,16.9-8.3,24.6-13.8
		c0.9-0.7,2-1.5,2.9-2.2c1.5-1.2,3.2-2.7,4.7-4c9.4-8.9,17.1-19.4,23.9-30.4l0,0c-7,9.8-14.4,19.3-23,27.8
		C991.2-1193.1,983.8-1188.1,976.2-1183.5z"/>
</g>
<g id="LjWiYUBFqICTcS6LQOUui" transform="matrix(1 0 0 1 -847.45 1430.45)">
	<path vector-effect="non-scaling-stroke" d="M992.9-1202.2h-0.2l-0.8,0.4L992.9-1202.2z"/>
</g>
<g id="CcfcHbVe4zDZGzIUttjw8" transform="matrix(1 0 0 1 -790.79 1379.82)">
	<path vector-effect="non-scaling-stroke" d="M992.5-1202.1l-0.2,0.2l0,0L992.5-1202.1z"/>
</g>
<g id="qH5LN0hTDiFkaDXOteHTs" transform="matrix(1 0 0 1 -781.13 1382.88)">
	<path vector-effect="non-scaling-stroke" d="M992.4-1202L992.4-1202L992.4-1202z"/>
</g>
<g id="ZBF3fQg0kzknrmrgV-Kh1" transform="matrix(1 0 0 1 -805.84 1407.55)">
	<path vector-effect="non-scaling-stroke" d="M968.2-1178.1h0.1c4.9-2.7,9.6-5.7,14.1-9c4.7-3.5,9.2-7.4,13.4-11.5
		c6.1-6.4,11.7-13.2,16.6-20.6c1.5-2.2,2.9-4.4,4.3-6.6h-0.1c-6.5,9.3-13.8,18.1-21.6,26.4C986.7-1191.5,977.8-1184.3,968.2-1178.1z
		"/>
</g>
<g id="kssnSBrvaFkI1LyOmz3QE" transform="matrix(1 0 0 1 -830.34 1431.68)">
	<path vector-effect="non-scaling-stroke" d="M992.8-1202.2h-0.1l-0.7,0.4C992.3-1202,992.5-1202.1,992.8-1202.2z"/>
</g>
<g id="hXnuN_u1MFXqm-nC3uIg_" transform="matrix(1 0 0 1 -781.41 1383.34)">
	<path vector-effect="non-scaling-stroke" d="M992.2-1201.6l0.4-0.7l0,0L992.2-1201.6L992.2-1201.6z"/>
</g>
<g id="tePMgztDKyKs4S0mZGAFx" transform="matrix(1 0 0 1 -761.38 1319.27)">
	<path vector-effect="non-scaling-stroke" d="M1002-1208.7c0-0.2,0-0.3-0.1-0.5c-0.1-0.5-0.2-1-0.4-1.4c-1.4-3.8-5.1-6.3-9.2-6.2
		h-1.5c0,0.3,0,0.6,0,0.9c0-0.3,0-0.6-0.1-0.9c-0.5,0-1,0-1.2,0.1c-1,0.1-2,0.3-2.9,0.8v0.8l-0.1-0.8c-1.5,0.7-2.9,1.8-3.8,3.2
		l0.1,0.2c1.8-2.1,4.4-3.3,7.2-3.2c0.8,0,2.4,0,3.2,0.1c0.3,0,0.6,0.1,0.9,0.1c3.3,0.7,6,3.2,6.8,6.5c0,0.1,0.1,0.3,0.1,0.4
		c0.1,0.3,0.1,0.6,0.1,0.9c0.1,2.8,0.3,5.5,0.3,8.3c0.2,1.7,0,3.4-0.4,5c-1.2,3.4-4.3,5.8-7.9,6.2c-0.4,0-0.9,0-1.4,0.1h-0.9h-0.9
		c-2.1,0-4.1-0.6-5.8-1.9v0.2c0.8,0.9,1.9,1.6,3,2c0.9,0.4,1.9,0.6,2.8,0.6c0.5,0,1.3,0,1.9,0c2.3,0.2,4.6-0.5,6.4-1.9
		c1.9-1.5,3.1-3.7,3.5-6.1c0.2-1.4,0.1-2.8,0.1-4.2c0-2.6,0.2-5.3,0.3-7.9c0-0.3,0-0.7,0-1L1002-1208.7z"/>
</g>
<g id="yd-5TsiplmRK5QTVXzRTU" transform="matrix(1 0 0 1 -771.21 1309.05)">
	<path vector-effect="non-scaling-stroke" d="M992.4-1202L992.4-1202C992.4-1202,992.4-1202,992.4-1202L992.4-1202z"/>
</g>
<g id="A8Q_RSJYjwmOQru1zIh0l" transform="matrix(1 0 0 1 -769.71 1331.4)">
	<path vector-effect="non-scaling-stroke" d="M992.4-1202.1L992.4-1202.1c0,0.1,0,0.2,0,0.2L992.4-1202.1L992.4-1202.1z"/>
</g>
<g id="XrUagEJCg08_9WTmUOpmi" transform="matrix(1 0 0 1 -771.07 1308.88)">
	<path vector-effect="non-scaling-stroke" d="M992.3-1201.7L992.3-1201.7l0.2-0.3l-0.1-0.2c-0.1,0.1-0.1,0.2-0.2,0.4
		C992.3-1201.8,992.3-1201.8,992.3-1201.7z"/>
</g>
<g id="o9IPFcCxcZNLylUIbvZat" transform="matrix(1 0 0 1 -874.97 1322.31)">
	<path vector-effect="non-scaling-stroke" d="M992.9-1187.3c0.8,0,1.5-0.1,2.2-0.1c2.3,0,4.6-0.9,6.2-2.6l-0.1-0.2
		c-1.8,1.3-4,2-6.2,1.9c-1.2,0-2.4-0.1-3.6-0.2c-3.5-0.7-6.2-3.3-7-6.7c-0.2-1.2-0.3-2.4-0.2-3.6c0-1.2-0.1-2.4-0.2-3.7
		c-0.1-1.8-0.2-3.7-0.1-5.5c0.1-1.8,0.9-3.5,2.1-4.9c1.8-1.9,4.2-3,6.8-3h1.1c0.5,0,1.3,0,1.8,0c2,0,4,0.8,5.6,2.1l0.1-0.4
		c-0.8-0.9-1.7-1.5-2.8-2c0,0.2,0,0.4,0,0.5v-0.6c-0.2-0.1-0.4-0.2-0.7-0.2c-0.7-0.2-1.4-0.4-2.1-0.4c-0.4,0-1.1,0-1.6,0
		c0,0.1,0,0.2,0,0.2c0,0.2,0,0.4,0,0.7v-0.9H994c-0.2,0-1,0-1.2,0c-2.9,0-5.6,1.3-7.3,3.7c-1.1,1.5-1.8,3.3-1.9,5.2
		c-0.1,0.6,0,1.2-0.1,1.9c0,2.4-0.2,4.9-0.3,7.3c-0.1,1.3-0.1,2.5,0.1,3.8c0.7,4,3.9,7.1,7.9,7.7c0.5,0.1,1,0.1,1.5,0.1
		c0-0.2,0-0.4,0-0.5C992.9-1187.7,992.9-1187.5,992.9-1187.3z"/>
</g>
<g id="NiorfCkDnflYodaSxnLDN" transform="matrix(1 0 0 1 -865.52 1310.6)">
	<path vector-effect="non-scaling-stroke" d="M992.8-1201.5c-0.2-0.4-0.5-0.7-0.8-1l-0.1,0.3C992.2-1202,992.5-1201.7,992.8-1201.5
		L992.8-1201.5z"/>
</g>
<g id="ljZM1e8WzWjgjYaGry4sy" transform="matrix(1 0 0 1 -865.81 1334.07)">
	<path vector-effect="non-scaling-stroke" d="M992.7-1202.2L992.7-1202.2l-0.5,0.3l0.1,0.2C992.3-1201.9,992.5-1202,992.7-1202.2z"
		/>
</g>
<g id="L0HKKFe4gUxXf0qO_tqjI" transform="matrix(1 0 0 1 -868.65 1307.27)">
	<path vector-effect="non-scaling-stroke" d="M992.3-1201.4v0.2l0,0c0-0.5,0.1-1.1,0.1-1.6C992.4-1202.3,992.4-1201.9,992.3-1201.4z
		"/>
</g>
<g id="y3Yz9NJQe4rdnsEvJIgMj" transform="matrix(1 0 0 1 -817.89 1287.34)">
	<path vector-effect="non-scaling-stroke" d="M1009.2-1219.4c-12.7-2.4-26.1-2.4-38.5,1.3c-0.6,0.2-1.5,0.5-2.1,0.7l-1.6,0.6
		c-0.4,0.1-1.2,0.5-1.5,0.6c-5.5,2.4-10.4,5.9-14.4,10.4c-5.4,6.5-8.7,14.5-9.4,22.9c1.2-11.3,7.2-21.6,16.5-28.1
		c3.6-2.5,7.6-4.4,11.7-5.7c12.2-3.9,26.4-4,39-1.6c14.8,2.9,27.5,11.4,32.4,26.2c0.9,2.7,1.4,5.4,1.7,8.2l0,0
		c-0.2-2.8-0.6-5.6-1.4-8.3C1037.2-1207.4,1024.2-1216.4,1009.2-1219.4z"/>
</g>
<g id="HZ8_ui-_9o5AeWJUn6n2G" transform="matrix(1 0 0 1 -767.14 1305.77)">
	<path vector-effect="non-scaling-stroke" d="M992.4-1201.6v-0.8l0,0V-1201.6z"/>
</g>
<g id="iCPXLIeR1KptUgWz8Ggkt" transform="matrix(1 0 0 1 -868.7 1308.38)">
	<path vector-effect="non-scaling-stroke" d="M992.4-1201.7c0-0.2,0-0.4,0-0.5l0,0V-1201.7z"/>
</g>
<g id="qxxKE1yFu6YK9jCIuVreX" transform="matrix(1 0 0 1 -818.03 1285.79)">
	<path vector-effect="non-scaling-stroke" d="M942.3-1198.5c4.8-9.3,13.3-16.2,23.1-19.7c14.9-5.6,36.7-5.4,51.9-0.5
		c15.1,4.9,26.3,15.8,29.6,31.6c0.3,1.3,0.5,2.6,0.6,3.9l0,0c-0.4-6.2-2.3-12.2-5.4-17.5c-7.7-13.1-21.7-19.6-36.3-21.8
		c-1.3-0.2-2.9-0.4-4.2-0.5c-9.9-1-19.9-0.5-29.5,1.7c-6.4,1.5-12.4,4.1-17.7,7.9c-10.4,7.3-16.7,20.4-16.9,33l0,0
		C937.6-1186.8,939.3-1192.9,942.3-1198.5z"/>
</g>
<g id="N1VSxK3Rjm9-IwNwfnIXp" transform="matrix(1 0 0 1 -762.95 1304.97)">
	<path vector-effect="non-scaling-stroke" d="M992.4-1201.6c0-0.3,0-0.6,0-0.9l0,0C992.4-1202.1,992.4-1201.9,992.4-1201.6z"/>
</g>
<g id="_x36_fCyMWAEEaZu-ol4_x5F_Ic1U" transform="matrix(1 0 0 1 -873.05 1307.95)">
	<path vector-effect="non-scaling-stroke" d="M992.4-1201.7c0-0.2,0-0.5,0-0.7V-1201.7z"/>
</g>
<g id="wJPfdebUCNTGHTyNkIPxe" transform="matrix(1 0 0 1 -873.04 1307.49)">
	<path vector-effect="non-scaling-stroke" d="M992.4-1202.1L992.4-1202.1v0.2C992.4-1202,992.4-1202,992.4-1202.1z"/>
</g>
<g id="DvXdzbAO_Qq69JmU_56KX" transform="matrix(1 0 0 1 -703.67 1276.2)">
	<path vector-effect="non-scaling-stroke" d="M1003.5-1228.3c-11.5-3.1-24.5-1.6-34.3,5.5c-14.2,10.4-14.9,29.4-0.8,40.2v-0.1
		c0,0,0,0,0,0.1l0.1,0.1l0.1-0.1c-1.5-1.3-2.8-2.7-4-4.2c-6.3-7.6-7.2-18.2-2.3-26.7c10.1-16.9,35.1-20.6,50.9-9.8
		c11.8,7.9,16.4,22.6,7.8,34.6c-7.9,11-22.7,15.4-35.8,13.3c-3.8-0.6-7.5-1.8-11-3.5l-0.1,0.1l0,0c0,0,0,0,0-0.1c0,0,0,0,0,0.1
		c10.5,5.6,23,6.2,34,1.6c9.1-3.7,16.9-11.8,18.2-21.8C1028.2-1213.5,1016.7-1224.8,1003.5-1228.3z"/>
</g>
<g id="baP5yoqcUU6R08zrEYPL8" transform="matrix(1 0 0 1 -729.79 1301.15)">
	<path vector-effect="non-scaling-stroke" d="M1000.3-1203.7c-0.2,0.3-0.4,0.5-0.6,0.7c-0.7,0.8-1.5,1.6-2.2,2.3
		c-0.5,0.5-1,1-1.5,1.4c-2.3,1.7-5.4,1.8-8.2,1.4l-1.5,0.8l-0.1-1.1c0.3,0.1,0.7,0.1,1,0.2s0.4,0.1,0.7,0.1l1.6-0.8
		c0.5-0.3,1.1-0.6,1.6-0.9c2.5-1.8,3.5-5,3.6-8l0,0c-0.6,2.7-1.7,5.7-4.1,7.2c-0.4,0.2-1.1,0.5-1.5,0.8c-0.9,0.4-2.3,1.1-3.2,1.6
		l-1.4,0.7l1.5,0.4c3.8,0.9,8.7,0.8,11.4-2.4c0.7-0.8,1.4-1.7,2-2.5c0.4-0.5,0.7-1,1-1.6C1000.4-1203.6,1000.4-1203.7,1000.3-1203.7
		L1000.3-1203.7L1000.3-1203.7z"/>
</g>
<g id="IJVORwUVRFretxhWNdxtE" transform="matrix(1 0 0 1 -735.18 1305.59)">
	<path vector-effect="non-scaling-stroke" d="M991.6-1202.5l0.1,1.1l1.5-0.8c-0.2,0-0.4,0-0.7-0.1S991.9-1202.5,991.6-1202.5z"/>
</g>
<g id="y8HgCOcGanIO25AQx1mpX" transform="matrix(1 0 0 1 -727.61 1295.56)">
	<path vector-effect="non-scaling-stroke" d="M992.4-1202L992.4-1202L992.4-1202C992.4-1202,992.4-1202,992.4-1202z"/>
</g>
<g id="_x30_nr1vjNzdmc5YqflLvsVE" transform="matrix(1 0 0 1 -721.88 1299.36)">
	<path vector-effect="non-scaling-stroke" d="M992.4-1202C992.4-1202,992.4-1202,992.4-1202L992.4-1202
		C992.4-1202,992.4-1202,992.4-1202z"/>
</g>
<g id="SLI5LMSIGmJ1fBt0bu0GM" transform="matrix(1 0 0 1 -930.55 1341.1)">
	<path vector-effect="non-scaling-stroke" d="M1020.5-1186.6c6.8-7.6,8-18.7,2.9-27.5c-8.2-14.2-27.1-18.4-42.2-14.2
		c-13.2,3.6-24.7,14.8-22.8,29.3c1.2,10,9.1,18.1,18.1,21.8c11,4.6,23.5,4,34-1.6c0,0,0,0,0-0.1c0,0,0,0,0,0.1l0,0l-0.1-0.1
		c-3.5,1.7-7.2,2.9-11,3.5c-13.1,2.1-27.9-2.2-35.8-13.3c-8.6-12.1-4-26.8,7.8-34.6c15.8-10.8,40.8-7.1,50.9,9.8
		c6.2,10.7,2.9,23.1-6.3,30.9l0.1,0.1h0.1v-0.1v0.1C1017.9-1183.7,1019.3-1185.1,1020.5-1186.6z"/>
</g>
<g id="yoxjo1T7Oj5pCHBvl0mAD" transform="matrix(1 0 0 1 -899.02 1370.48)">
	<path vector-effect="non-scaling-stroke" d="M993.2-1202.5c-0.3,0.1-0.7,0.1-1,0.2c-0.3,0.1-0.4,0.1-0.6,0.1l1.5,0.8L993.2-1202.5z
		"/>
</g>
<g id="Lm-okHagLAYR9JHYzNSA5" transform="matrix(1 0 0 1 -904.31 1366.01)">
	<path vector-effect="non-scaling-stroke" d="M993.7-1199.5c0.5,0.3,1.1,0.6,1.6,0.9l1.6,0.8c0.2,0,0.4-0.1,0.6-0.1
		c0.2,0,0.7-0.1,1-0.2l-0.1,1.1l-1.5-0.8c-2.8,0.4-5.9,0.2-8.2-1.4c-0.5-0.4-1-0.9-1.5-1.4c-0.7-0.8-1.5-1.5-2.2-2.3
		c-0.2-0.2-0.4-0.5-0.6-0.7v-0.1l0,0c0,0.1,0,0.1,0.1,0.2c0.3,0.6,0.6,1.1,1,1.6c0.6,0.8,1.3,1.7,2,2.5c2.7,3.2,7.6,3.3,11.4,2.5
		l1.5-0.4l-1.4-0.7c-0.9-0.5-2.3-1.1-3.2-1.6c-0.4-0.2-1.1-0.5-1.5-0.8c-2.4-1.5-3.5-4.5-4.1-7.2l0,0
		C990.2-1204.5,991.2-1201.3,993.7-1199.5z"/>
</g>
<g id="qn-5CCofPYf3nLaDs4zlC" transform="matrix(1 0 0 1 -906.59 1360.45)">
	<path vector-effect="non-scaling-stroke" d="M992.4-1202L992.4-1202L992.4-1202L992.4-1202z"/>
</g>
<g id="lhkgEzgYYPPR2F_teh7ya" transform="matrix(1 0 0 1 -912.36 1364.26)">
	<path vector-effect="non-scaling-stroke" d="M992.4-1202C992.4-1202,992.4-1202,992.4-1202L992.4-1202
		C992.4-1202,992.4-1202,992.4-1202z"/>
</g>
<g id="_x36_OzkXrBmhMTyAU8i0xvL7" transform="matrix(1 0 0 1 -915.06 1244.15)">
	<path vector-effect="non-scaling-stroke" d="M1010.6-1178.9C1010.6-1178.9,1010.6-1178.9,1010.6-1178.9L1010.6-1178.9
		L1010.6-1178.9c-3.5,1.6-7.2,2.8-11.1,3.4c-13,2.1-27.9-2.2-35.8-13.3c-8.6-12.1-4-26.8,7.8-34.6c15.8-10.8,40.8-7.1,50.9,9.8
		c6.2,10.7,2.9,23.1-6.3,30.9l0.1,0.1h0.1c0,0,0-0.1,0-0.1v0.1c1.5-1.2,2.9-2.5,4.2-4c6.8-7.6,8-18.7,2.9-27.5
		c-8.2-14.2-27.1-18.4-42.2-14.2c-13.2,3.5-24.7,14.8-22.8,29.3c1.2,10,9.1,18.1,18.2,21.8c11,4.6,23.5,4,34-1.6
		C1010.6-1178.9,1010.6-1178.9,1010.6-1178.9z"/>
</g>
<g id="J7KhCOD_09o3SXLoyvYON" transform="matrix(1 0 0 1 -888.82 1269.01)">
	<path vector-effect="non-scaling-stroke" d="M998.8-1196.9l1.5-0.4l-1.4-0.7c-0.9-0.5-2.3-1.1-3.2-1.6c-0.4-0.2-1.1-0.5-1.5-0.8
		c-2.4-1.5-3.5-4.5-4.1-7.2l0,0c0.1,3,1,6.2,3.6,8c0.5,0.3,1.1,0.6,1.6,0.9l1.6,0.9l0.7-0.1l1-0.2l-0.1,1.1l-1.5-0.8
		c-2.8,0.4-5.8,0.2-8.2-1.4c-0.5-0.4-1-0.9-1.5-1.4c-0.8-0.8-1.5-1.5-2.2-2.3c-0.2-0.2-0.4-0.5-0.6-0.7c0,0,0,0,0-0.1l0,0
		c0,0.1,0,0.1,0.1,0.2c0.3,0.6,0.6,1.1,1,1.6c0.6,0.8,1.3,1.7,2,2.5C990.2-1196.1,995-1196.1,998.8-1196.9z"/>
</g>
<g id="mbQjMJNNx3zWDoKMroEyM" transform="matrix(1 0 0 1 -883.49 1273.47)">
	<path vector-effect="non-scaling-stroke" d="M993.2-1202.5l-1,0.2l-0.6,0.1l1.5,0.8L993.2-1202.5z"/>
</g>
<g id="C6t6I3GFvQKFGLRMb66Bv" transform="matrix(1 0 0 1 -891.05 1263.45)">
	<path vector-effect="non-scaling-stroke" d="M992.4-1202L992.4-1202L992.4-1202C992.4-1202,992.4-1202,992.4-1202z"/>
</g>
<g id="bZFEfbdlvbttOtPkQBEKk" transform="matrix(1 0 0 1 -896.82 1267.25)">
	<path vector-effect="non-scaling-stroke" d="M992.4-1202C992.4-1202,992.4-1202,992.4-1202L992.4-1202
		C992.4-1202,992.4-1202,992.4-1202z"/>
</g>
<g id="c9LXG9cBGdBTkqVG-rjUw" transform="matrix(1 0 0 1 -693.57 1276.11)">
	<path vector-effect="non-scaling-stroke" d="M992.4-1198.4c1,0,1.9-0.4,2.5-1.1c0.7-0.6,1.1-1.6,1.1-2.5c0-2-1.6-3.6-3.6-3.6
		c-0.9,0-1.9,0.4-2.5,1.1c-0.7,0.7-1.1,1.6-1.1,2.6C988.8-1200,990.4-1198.4,992.4-1198.4z"/>
</g>
<g id="_x32_RZXWaV5OLRuz8KE_x5F_RZxO" transform="matrix(1 0 0 1 -703.73 1276.11)">
	<path vector-effect="non-scaling-stroke" d="M992.4-1198.4c1,0,1.9-0.4,2.5-1.1c0.7-0.6,1.1-1.5,1.1-2.5c0-1-0.4-1.9-1.1-2.6
		c-0.7-0.7-1.6-1.1-2.5-1.1c-0.9,0-1.9,0.4-2.5,1.1c-0.7,0.7-1.1,1.6-1.1,2.6C988.8-1200,990.4-1198.4,992.4-1198.4z"/>
</g>
<g id="TunKBUR9td4YzfLRjEsDU" transform="matrix(1 0 0 1 -713.84 1276.11)">
	<path vector-effect="non-scaling-stroke" d="M992.4-1198.4c1,0,1.9-0.4,2.6-1.1c0.7-0.6,1.1-1.6,1.1-2.5c0-1-0.4-1.9-1.1-2.6
		c-0.7-0.7-1.6-1.1-2.6-1.1c-0.9,0-1.9,0.4-2.5,1.1c-0.7,0.7-1.1,1.6-1.1,2.6c0,0.9,0.4,1.9,1.1,2.5
		C990.5-1198.8,991.4-1198.4,992.4-1198.4z"/>
</g>
<g id="U1JfnqffxZjz4nec6Vv60" transform="matrix(1 0 0 1 -920.31 1340.98)">
	<path vector-effect="non-scaling-stroke" d="M992.4-1205.6c-0.9,0-1.9,0.4-2.5,1.1c-0.7,0.7-1.1,1.6-1.1,2.6c0,0.9,0.4,1.9,1.1,2.5
		c0.6,0.7,1.5,1.1,2.5,1.1c1,0,1.9-0.4,2.6-1.1c0.7-0.6,1.1-1.6,1.1-2.5c0-1-0.4-1.9-1.1-2.6
		C994.2-1205.2,993.3-1205.6,992.4-1205.6z"/>
</g>
<g id="vOaueIME5i_JUdj_-FmEf" transform="matrix(1 0 0 1 -940.62 1340.98)">
	<path vector-effect="non-scaling-stroke" d="M992.3-1205.6c-0.9,0-1.9,0.4-2.5,1.1c-0.7,0.7-1.1,1.6-1.1,2.6c0,0.9,0.4,1.9,1.1,2.5
		c0.6,0.7,1.5,1.1,2.5,1.1c1,0,1.9-0.4,2.6-1.1c0.7-0.6,1.1-1.6,1.1-2.5c0-1-0.4-1.9-1.1-2.6
		C994.2-1205.2,993.3-1205.6,992.3-1205.6z"/>
</g>
<g id="l3Cr8ULKHYI3Q8NkGydN7" transform="matrix(1 0 0 1 -930.47 1340.98)">
	<path vector-effect="non-scaling-stroke" d="M992.4-1205.6c-0.9,0-1.9,0.4-2.5,1.1c-0.7,0.7-1.1,1.6-1.1,2.6c0,2,1.6,3.5,3.6,3.6
		c1,0,1.9-0.4,2.5-1.1c0.7-0.6,1.1-1.5,1.1-2.5c0-1-0.4-1.9-1.1-2.6C994.3-1205.2,993.3-1205.6,992.4-1205.6z"/>
</g>
<g id="jdplT9awMpxbCJB_Hx4QD" transform="matrix(1 0 0 1 -914.94 1243.97)">
	<path vector-effect="non-scaling-stroke" d="M992.4-1205.6c-0.9,0-1.9,0.4-2.5,1.1c-0.7,0.7-1.1,1.6-1.1,2.6c0,1.9,1.6,3.5,3.6,3.6
		c1,0,1.9-0.4,2.6-1.1c0.7-0.6,1.1-1.6,1.1-2.5c0-1-0.4-1.9-1.1-2.6C994.3-1205.2,993.3-1205.6,992.4-1205.6z"/>
</g>
<g id="Lyjh5aAZP6smL00JvndW8" transform="matrix(1 0 0 1 -904.78 1243.97)">
	<path vector-effect="non-scaling-stroke" d="M992.4-1205.6c-0.9,0-1.9,0.4-2.5,1.1c-0.7,0.7-1.1,1.6-1.1,2.6c0,2,1.6,3.5,3.6,3.6
		c1,0,1.9-0.4,2.5-1.1c0.7-0.6,1.1-1.6,1.1-2.5C996-1204,994.4-1205.6,992.4-1205.6z"/>
</g>
<g id="_x36_pkaLcU0S108FriC297FY" transform="matrix(1 0 0 1 -925.09 1243.97)">
	<path vector-effect="non-scaling-stroke" d="M992.4-1205.6c-0.9,0-1.9,0.4-2.5,1.1c-0.7,0.7-1.1,1.6-1.1,2.6c0,2,1.6,3.5,3.6,3.6
		c1,0,1.9-0.4,2.5-1.1c0.7-0.6,1.1-1.6,1.1-2.5C996-1204,994.4-1205.6,992.4-1205.6z"/>
</g>
<g id="rGTWsuqTDD2iywh1EQXFK" transform="matrix(1 0 0 1 -865.05 1345.93)">
	<path vector-effect="non-scaling-stroke" d="M993.6-1196.3c-6.4-2.4-10-8-10.6-14.6h-0.1c-0.3,4.5,1.3,8.9,4.3,12.2
		c1.2,1.3,2.6,2.4,4.2,3.2l0.8,0.4l0.8,0.3c0.3,0.1,0.5,0.2,0.8,0.3l1,0.4l0.6,0.2c1.4,0.4,2.8,0.6,4.3,0.8c0.6,0.1,1.4,0.1,2.2,0.1
		c-0.5-0.6-1-1.2-1.4-1.8C998.1-1195,995.8-1195.5,993.6-1196.3z"/>
</g>
<g id="uBgMPYa4XdSpaakQEdqj3" transform="matrix(1 0 0 1 -845.09 1354.1)">
	<path vector-effect="non-scaling-stroke" d="M1000.2-1201.7c1.2-0.2,2.3-0.3,3.5-0.6c-0.1-0.1-0.1-0.3-0.2-0.4l0,0
		c-5.6,0.4-11.2,0.4-16.8,0.1c-0.8,0-2.5-0.1-3.4-0.1c-0.8-0.1-1.4-0.1-2.2-0.1c0.5,0.6,1,1.2,1.5,1.8c0.8,0,1.6,0.1,2.3,0.1
		C990-1200.9,995.1-1201.1,1000.2-1201.7z"/>
</g>
<g id="xEgYvm_9W3we7hK8BwSNP" transform="matrix(1 0 0 1 -855.92 1354.05)">
	<path vector-effect="non-scaling-stroke" d="M992-1202.9h-0.6c0.5,0.6,0.9,1.2,1.4,1.8h0.6C992.9-1201.7,992.4-1202.3,992-1202.9z"
		/>
</g>
<g id="_x39_3L_x5F_wjPv0NEfQQxJzaqgN" transform="matrix(1 0 0 1 -874.43 1336.71)">
	<path vector-effect="non-scaling-stroke" d="M992.4-1202.3c0,0.2,0,0.4,0,0.5h0.1C992.4-1201.9,992.4-1202.1,992.4-1202.3z"/>
</g>
<g id="uBSuTHqqcQXXT1P5zxoRV" transform="matrix(1 0 0 1 -832.38 1350.5)">
	<path vector-effect="non-scaling-stroke" d="M991.7-1202.7c-0.7,0.7-1.1,1.6-1.1,2.6l3.6-3.6
		C993.2-1203.8,992.3-1203.4,991.7-1202.7z"/>
</g>
<g id="ovFM1YJcRIaMtRNls6tvF" transform="matrix(1 0 0 1 -830.58 1352.25)">
	<path vector-effect="non-scaling-stroke" d="M989.1-1200.5c0.2,0.4,0.4,0.7,0.8,1c0.6,0.7,1.5,1.1,2.5,1.1c1,0,1.9-0.4,2.6-1.1
		c0.7-0.6,1.1-1.5,1.1-2.5c0-2-1.6-3.6-3.6-3.6l-3.6,3.6c0,0.3,0,0.7,0.1,1c1.1-0.1,2.2-0.2,3.3-0.5
		C991.2-1201,990.2-1200.7,989.1-1200.5z"/>
</g>
<g id="_x35_RENTJZHcehIxaJVQyN4X" transform="matrix(1 0 0 1 -832.38 1353.3)">
	<path vector-effect="non-scaling-stroke" d="M994-1202.5c-1.1,0.2-2.2,0.4-3.3,0.5c0,0.2,0.1,0.3,0.2,0.4
		C992-1201.8,993-1202.1,994-1202.5z"/>
</g>
</svg>
