<?xml version="1.0" encoding="utf-8"?>
<!-- Generator: Adobe Illustrator 26.0.2, SVG Export Plug-In . SVG Version: 6.00 Build 0)  -->
<svg version="1.1" id="Слой_1" xmlns="http://www.w3.org/2000/svg" xmlns:xlink="http://www.w3.org/1999/xlink" x="0px" y="0px"
	 viewBox="0 0 354.5 257.2" style="enable-background:new 0 0 354.5 257.2;" xml:space="preserve">
<style type="text/css">
	.st0{fill:#B21533;}
	.st1{fill:#811619;}
	.st2{fill:#343434;}
	.st3{fill:#FFFFFF;}
	.st4{fill:#C2C2C2;}
	.st5{fill:#42210B;}
</style>
<desc>Created with Fabric.js 4.6.0</desc>
<g id="U4ZqeuflPlV3AnIjmJlo9" transform="matrix(1 0 0 1 -423.06 1326.73)">
	<g>
		<g vector-effect="non-scaling-stroke">
			<path class="st0" d="M453.6-1077.8c-16.5,0-30-13.5-30-30v-188.5c0-16.5,13.5-30,30-30H747c16.5,0,30,13.5,30,30v188.5
				c0,16.5-13.5,30-30,30H453.6z"/>
		</g>
	</g>
</g>
<g id="SQupLyanUZONFA8TZRbFg" transform="matrix(1 0 0 1 -476.05 1276.28)">
	<path vector-effect="non-scaling-stroke" class="st1" d="M594.5-1205.3c-1.6-0.3-3.8-0.7-5.6-1c0.1,0.9,0.2,1.8,0.4,2.6
		c0.7,3.4,2.2,8.3,5.7,9.8c1,0.4,2.1,0.6,3.3,0.5c1.7,0,3.4-0.4,4.9-1.2c0.6-0.4,1.1-0.8,1.6-1.3c1.5-5.2,3.9-10.2,7-14.7
		c-4.5,2.7-10.4,5.6-15.6,5.5C595.6-1205.1,595-1205.2,594.5-1205.3z"/>
</g>
<g id="hqFB2ORiONH1SyELR5QUg" transform="matrix(1 0 0 1 -382.24 1399.61)">
	<path vector-effect="non-scaling-stroke" class="st2" d="M632-1210.4c-2.3,1.8-4.6,3.8-6.7,5.8c2.1-2.1,4.3-4.2,6.5-6.1
		c-8.5-10.7-17-22-25.4-32.7c-1.3-1.7-2.9-3.2-4.7-4.4c-2.1-1.1-4.4-1.7-6.7-1.6c-2.1,0-4.2,0-6.4-0.1c0.4,21.1-4.5,48.1-20.8,62.9
		c-1.3,1.1-2.6,2.2-4,3.2c-2.7,2-5.6,3.9-8.5,5.7c-11.1,6.7-23.1,11.8-35.6,15c-2.3,0.6-4.7,1.1-7,1.5c0.1,0.9,0.1,1.9,0.1,2.8
		c2.4,1,4.9,1.9,7.4,2.5c3.6,1,7.3,1.8,11,2.4c1.6,0.2,3.9,0.6,5.5,0.8c1.4,0.2,4.2,0.5,5.6,0.6c2.1,0.2,4.9,0.3,7,0.4
		c1.6,0,4,0.1,5.6,0.1h6.3c10.3-0.3,24.3-1.2,33.5-5.9c0.8-0.4,1.6-0.9,2.4-1.5c0.6-0.4,1.1-0.9,1.6-1.4c-0.1-3.5-0.2-7-0.3-10.5
		c-0.5-16.7-1.5-33.4-5.6-49.6c-0.8-3.2-1.6-6.5-2.6-9.7c3.5,10.9,5.9,22.1,7.2,33.5c5.5,8.3,15.2,21.3,24.5,24.7
		c5,1.8,10.7-0.6,15-3.3c13.4-8.9,24.6-26.3,32.4-40.2c0.5,0,0.9,0,1.4,0c4.5-0.3,8.8-2.1,12.2-5.1c0.4-0.3,0.7-0.7,1.1-1
		c-1,0.7-2.1,1.1-3.2,1.3c-0.2,0.1-0.5,0.1-0.8,0.1c-0.2,0-0.6,0-0.8,0c-0.2,0-0.6,0-0.8-0.1c-0.2-0.1-0.5-0.1-0.8-0.2
		c-0.2-0.1-0.6-0.2-0.7-0.3l-0.7-0.3c-0.6-0.3-1.2-0.7-1.7-1.2c-0.5-0.4-1-0.9-1.4-1.5c-0.2-0.3-0.4-0.5-0.6-0.8
		c-0.4-0.6-0.7-1.1-1-1.7c-0.6-1.2-1-2.5-1.1-3.9c-0.2-4.3,3.9-7.1,7.6-8.2c-1.9,0.6-3.6,1.7-5,3c-2,1.8-2.7,4.6-1.8,7.1
		c0.6,1.8,1.6,3.5,3,4.9c0.5,0.5,1.1,1,1.7,1.4l0.6,0.3l0.4,0.2c0.3,0.1,0.6,0.2,0.9,0.3c0.2,0.1,0.5,0.1,0.7,0.1l0.7,0.1h0.7
		c1.7-0.2,3.2-0.9,4.4-2c3.3-3.1,4.5-7.9,2.9-12.2c-2.2-5-9-4.5-13.5-3.6c-0.9,0.2-1.8,0.5-2.7,0.7l0.1-0.9
		c0.6-3.6,0.7-7.2,0.4-10.9c-0.1-0.8-0.4-2.6-1.2-2.6c-0.3,0.1-0.6,0.5-0.9,0.7c-0.5,0.7-1,1.5-1.3,2.3c-1.1,2.5-2.1,5-3,7.7
		c-1.8,5.2-3.3,10.5-4.8,15.8l-0.1,0.2l-0.2,0.1c-8,3-15.6,6.8-22.7,11.4c-1.8,1.2-3.5,2.5-5.2,3.8v0.1L632-1210.4z"/>
</g>
<g id="_x38_QO7Qwo1hda9gvAPIDm4r" transform="matrix(1 0 0 1 -423.19 1264.43)">
	<path vector-effect="non-scaling-stroke" class="st1" d="M610.6-1196.2c1.8-0.1,3.7-0.4,5.4-0.6c0.8-0.1,2.8-0.4,3.6-0.5l1.2-0.2
		c2.8-0.4,5.6-1,8.3-1.8c2-0.5,3.8-1.2,5.7-2.1c0.9-0.4,1.8-1,2.5-1.7c-1.6-1.8-3.3-3.4-5.2-4.9c-0.8,1-1.8,1.8-2.9,2.5
		c-3.7,2.2-7.8,3.3-12,4.2c-2.4,0.5-4.9,0.9-7.3,1.2c-3.2,0.3-6.4,0.4-9.5,0.2c-11-0.9-21.9-3.5-32.1-7.8c-1.8,1.5-3.5,3.2-5.1,4.9
		c10.5,3,21.3,5.1,32.2,6.2C600.5-1196,605.5-1195.9,610.6-1196.2z"/>
</g>
<g id="KCJSq5kSEWB0Fv1t4_Pdh" transform="matrix(1 0 0 1 -412.1 1290.42)">
	<path vector-effect="non-scaling-stroke" class="st3" d="M595.4-1211.7c-4.6-0.3-9.1-1.3-13.4-2.8c-7.4-1.8-14.9,2.7-16.7,10.1
		c-1.8,7.4,2.7,14.9,10.1,16.7l-0.5-0.1l0.2,0.1c0.5,0.2,1.4,0.4,1.9,0.6c0.2,0.1,0.7,0.2,1,0.2c3.9,0.9,7.9,1.3,12,1.3
		c2.7,0,5.3-0.1,8-0.4l1.5-0.1c0.3,0,2.1-0.3,2.5-0.3l1.5-0.2l3.5-0.6c1.1-0.3,2.8-0.6,3.9-0.9l2.4-0.7c1.4-0.5,2.9-0.9,4.3-1.4
		c4.3-1.5,8.5-3.5,12.5-5.9c1-0.7,1.9-1.5,2.7-2.4c2.2-2.5,3.3-5.9,2.9-9.3c-0.4-3.4-2.2-6.4-4.9-8.4c-3.9-2.8-9.1-3-13.2-0.6
		c-1.1,0.8-2.3,1.4-3.5,2C608.1-1212.2,601.7-1211.2,595.4-1211.7z M587.9-1195.2c-1.2,0-2.2-2.7-2.2-6.2s0.9-6.2,2.2-6.2
		c1.2,0,2.2,2.7,2.2,6.2S589.1-1195.1,587.9-1195.2L587.9-1195.2z M618.1-1210.4c1.2,0,2.2,2.7,2.2,6.2s-1,6.2-2.2,6.2
		s-2.2-2.7-2.2-6.2S616.8-1210.4,618.1-1210.4L618.1-1210.4z"/>
</g>
<g id="hyG3IUHLHZgkSByFc1ltW" transform="matrix(1 0 0 1 -423.15 1256.3)">
	<path vector-effect="non-scaling-stroke" class="st2" d="M613-1193.4c3.8-0.5,7.6-1.2,11.3-2.3c2.3-0.6,4.6-1.7,6.6-3
		c0.5-0.3,0.9-0.7,1.2-1.1c-2.6-2.2-5.5-4-8.5-5.6c-17.9-9.5-39.7-7.2-55.2,5.8C582.1-1195.2,598.8-1191.3,613-1193.4z"/>
</g>
<g id="EeAxFq_tlocpM4E-RfRck" transform="matrix(1 0 0 1 -422.99 1304.82)">
	<path vector-effect="non-scaling-stroke" class="st2" d="M635.8-1242.1c-0.7,0.5-1.4,0.9-2.1,1.2c-5.1,2.5-10.9,3.6-16.5,4.5
		c-0.7,0.1-1.7,0.2-2.4,0.3c-1.6,0.2-3.3,0.4-4.9,0.5c-9.8,0.7-19.6-0.6-29.2-2.6c-6-1.3-11.9-2.9-17.7-4.9
		c-8.1,9-12.6,20.7-12.6,32.8c-0.1,37.9,39.8,61.2,73.1,43.7c13.6-7,23.2-20,25.9-35.1c2.7-15.1-1.8-30.6-12.2-41.8
		C636.8-1242.9,636.3-1242.5,635.8-1242.1z M647.6-1222.3c0.3,3.6-1,7.2-3.6,9.8c-0.9,0.9-1.9,1.6-3,2.2c-1,0.8-2.1,1.4-3.2,2.1
		c-2.9,1.8-6,3.3-9.1,4.5c-0.4,0.1-1.1,0.4-1.4,0.6l-2.4,0.8c-0.5,0.2-1.4,0.4-2,0.6c-1.5,0.5-3.4,0.9-4.9,1.3l-3,0.6
		c-1.1,0.2-2.9,0.4-4,0.6c-1.3,0.1-2.7,0.2-4.1,0.4c-2.3,0.1-4.8,0.2-7.1,0.1c-1-0.1-2.1-0.1-3-0.2l-2-0.2l-2-0.3
		c-2.2-0.4-4.3-1-6.4-1.8c-0.9-0.3-1.8-0.7-2.7-1.2c-6.1-2.4-9.7-8.8-8.7-15.3c1.1-6.5,6.5-11.4,13.1-11.7c1.7-0.1,3.4,0.2,5,0.8
		c5.1,1.1,10.4,1.7,15.7,1.9c3.5,0,7-0.3,10.4-1c0.7-0.1,1.6-0.4,2.3-0.5c2.4-0.6,4.7-1.5,6.8-2.6
		C635.7-1236.9,646.7-1231.9,647.6-1222.3L647.6-1222.3z"/>
</g>
<g id="_x39_jFzmZntMQN02X1fJHDLM" transform="matrix(1 0 0 1 -481.27 1295.1)">
	<path vector-effect="non-scaling-stroke" class="st1" d="M597.2-1204.6l-0.8-0.1l-3.4-0.4h-0.1l-1.2-0.4c0.5,1.7,1.1,3.3,1.8,4.9
		c1.2,2.5,3,6,5.8,6.7c0.8,0.1,1.5,0.1,2.3,0.1c1.3,0,2.6-0.2,3.9-0.5c1-0.2,1.9-0.5,2.8-0.9c-0.6-5-0.4-10.1,0.5-15.1
		c-2.6,2.4-5.7,4.2-9,5.4C599-1204.5,598.1-1204.5,597.2-1204.6z"/>
</g>
<g id="siR6TTQ8KcAtvlVVroKrV" transform="matrix(1 0 0 1 -427.31 1449.36)">
	<path vector-effect="non-scaling-stroke" class="st1" d="M642.2-1208.8c-1.9,1.5-3.9,2.6-6.2,3.5c-5.3,2-10.8,3.3-16.5,3.9
		c-7,0.8-14.1,1.2-21.1,1c-1,0-3.3-0.1-4.2-0.1c-1.6-0.1-4-0.2-5.6-0.4l-4.2-0.4c-1.6-0.2-4-0.5-5.6-0.8c-3.7-0.6-7.4-1.4-11-2.4
		c-3.4-0.9-6.8-2.2-10-3.7c0,0.2,0,0.3,0,0.5c-0.2,2.3-0.6,4.6-1.1,6.9c8.8,2.7,17.7,4.6,26.8,5.8c7.4,1,14.9,1.5,22.3,1.3
		c5.6-0.2,11.2-0.8,16.7-1.7c7.3-1.2,14.4-3.1,21.3-5.6c0-3.1,0-6.1-0.1-9.2C643.3-1209.7,642.8-1209.2,642.2-1208.8z"/>
</g>
<g id="_x2D_BnJtrqAWMv8OJZO9UcPC" transform="matrix(1 0 0 1 -524.32 1295.53)">
	<path vector-effect="non-scaling-stroke" class="st4" d="M592-1215.2c6.5-6.2,13.5-11.9,21-16.8c7.3-4.7,15.1-8.8,23.6-10.9
		l0.7-0.2c-1.6,0-3.2,0.1-4.7,0.4c-23.3,3.2-42.4,19.9-55.2,38.7c-7.2,10.7-11.9,23-13.7,35.8c-0.3,2.4-0.5,4.8-0.4,7.2v0.1
		c0.3-1.1,0.6-2.2,0.9-3.2C569.8-1181.6,578.6-1202.3,592-1215.2z"/>
</g>
<g id="atKKVrJfiEDTxghXRvlB-" transform="matrix(1 0 0 1 -492.36 1317.58)">
	<path vector-effect="non-scaling-stroke" class="st5" d="M643.4-1171.8c-12.3-9-24.3-18.6-36-28.2c-5.1-4.2-10.2-8.5-15.4-12.6
		c-3.4-2.7-7.1-5.4-10.5-8c-3.4-2.6-7-5.6-10.3-8.3c-1.7-1.4-3.4-2.8-5.1-4.2s-3.1-2.7-4.7-4c-0.9,0.9-1.7,1.7-2.5,2.5
		c-0.5,0.5-1,1.2-1.5,1.7c12.2,9.1,24.2,18.7,35.9,28.4c5,4.2,10.1,8.6,15.3,12.7c3.4,2.7,7.1,5.4,10.5,8.1c3.4,2.7,7,5.6,10.3,8.3
		c1.7,1.4,3.4,2.8,5.1,4.2c1.6,1.4,3.3,2.8,4.9,4.2C640.2-1168.7,641.7-1170.4,643.4-1171.8z"/>
</g>
<g id="OhipBCFAO0G9CzJdSme2L" transform="matrix(1 0 0 1 -432 1395.59)">
	<path vector-effect="non-scaling-stroke" class="st1" d="M597.5-1170.6c2.9-1.6,5.9-3.3,8.7-5.1c3.4-2.1,6.7-4.5,9.8-7.1
		c16.7-14.7,21.7-41.3,22.3-62.7c-0.9,0-1.8-0.1-2.7-0.2c-1.1-0.1-2.1-0.4-3.1-0.9c0.9,25.6-5.7,58.6-31,70.6
		c-5.8,2.8-11.7,5.6-17.6,8.1c-4.8,2.1-9.6,4-14.5,5.6c-1.9,0.6-3.8,1.1-5.7,1.5c-0.4,0.1-0.9,0.1-1.3,0.1l-0.1,0.1
		c0.1,1.1,0.2,2.2,0.2,3.3c2.4-0.5,4.7-1.1,7-1.8C579.2-1161.9,588.6-1165.8,597.5-1170.6z"/>
</g>
<g id="gyXFeOOkiBzaWBdi7h2al" transform="matrix(1 0 0 1 -417.95 1376.46)">
	<path vector-effect="non-scaling-stroke" class="st5" d="M606-1193.1l2.3,2c1-0.4,1.8-1,2.5-1.8c0.8-0.8,1.3-1.8,1.6-2.9
		c-3.6-3.1-7.5-5.7-11.2-8.5c-1.8-1.4-3.7-3-5.5-4.5c-1.6-1.3-3.1-2.7-4.7-4.1c-0.5,2.2-1.5,4.3-3,6c1.7,1.2,3.3,2.4,4.9,3.6
		C597.5-1200.1,601.8-1196.6,606-1193.1z"/>
</g>
<g id="e_ij53reJjoJTlAR5tbNK" transform="matrix(1 0 0 1 -447.13 1391.27)">
	<path vector-effect="non-scaling-stroke" class="st2" d="M591.4-1161.6c4.8-1.9,9.5-3.9,14.3-6.1c2.3-1.1,4.7-2.1,7-3.2
		c2-0.9,5-2.3,6.9-3.4c22.3-13.1,28.5-44,28-68c-2.9-1.3-4.6-4.3-4.2-7.5c-11.1,4.6-23.6,5-34.9,1l-0.4,1c2.3,0.7,4.4,2,6.1,3.6
		c0.4,0.4,1.1,1,1.5,1.5c0.2,0.2,0.5,0.5,0.7,0.8c1.4,1.6,2.4,3.4,3.2,5.3c1.1,2.7,1.3,5.7,0.8,8.6c5.6,3.9,11,8.1,16.1,12.7
		c1.8,1.6,3.7,3.1,5.6,4.5c0,0.4-0.1,0.7-0.2,1.1c-0.3,0.9-0.7,1.7-1.3,2.5c-0.8,1.1-1.9,2-3.2,2.4l-2.8-2.2c-2.5-2-5.3-4.1-7.8-6.2
		c-3.3-2.7-6.5-5.5-9.6-8.4c-0.7,0.8-1.6,1.5-2.5,2.1c-0.4,0.2-0.8,0.4-1.1,0.6c-0.6,0.3-1.5,0.5-2.2,0.8c-1.7,0.6-4,1.3-5.8,1.9
		c1.7-0.7,3.9-1.6,5.6-2.3c0.6-0.3,1.5-0.6,2.1-0.9l0.6-0.4c0.4-0.3,0.8-0.5,1.2-0.9c3.3-3,5-7.4,4.4-11.8c-0.3-2.6-1.3-5-2.8-7.2
		l-0.6-0.8c-0.1-0.1-0.7-0.8-0.8-1c-0.1-0.2-0.4-0.4-0.5-0.5c-0.4-0.4-1-1-1.4-1.4l-0.8-0.6c-3.6-3.2-8-4.5-12.4-2.1
		c-3.4,2.1-6.3,5-8.2,8.5c0.5-1,1.1-2,1.7-3c-1.2-0.9-2.4-1.8-3.7-2.7c-1.4,3.5-2.1,7.2-2.3,10.9c0,1.9,0,3.8,0.2,5.7
		c0.2,2,0.4,4,0.8,6c-1.2,0.8-2.3,1.7-3.4,2.5c-3.8,3-7.3,6.5-10.4,10.2c-2.5,3.4-4.8,7-6.9,10.7c-1.7,3-3.4,6.1-5,9.3
		c2-4.9,4.3-9.6,6.9-14.2c1.8-3.3,4-6.4,6.5-9.2c3.3-3.7,7.1-7,11.2-9.8c-0.6-3.7-0.8-7.5-0.6-11.2c0.3-3.3,1.1-6.5,2.4-9.5
		c-5.2,0-13.9,0.7-18,4c-1.1,1.2-2.1,2.6-2.8,4.1c-3.6,7.1-6.7,14.5-9.1,22.1c-3.3,10.4-6.2,21.1-6.6,32c0,1.7,0,3.4,0.3,5.1
		c0.4,3.2,1.1,6.4,1.9,9.5c0.8,2.8,1.9,5.6,4,7.6c1.4,1.3,3.1,2.2,5,2.6c0.8,0.2,1.7,0.5,2.5,0.6c2,0.3,4.1,0.1,6-0.6
		c1.2-0.5,2.4-1.1,3.5-1.9v-0.1l0.8-0.6l0,0h0.2c4.9-3.6,8.7-9.3,11.8-14.2c3.1-5.1,5.8-10.5,8-16c0.1-0.3,0.4-1,0.5-1.4
		c2.9-9,5.5-18.2,8.3-27.2c-0.8,2.9-2.3,8.7-3.1,11.6c-1.6,5.8-3.1,11.6-5,17.3c-0.7,1.9-1.5,3.7-2.3,5.6
		c-3.4,7.3-7.2,14.4-12.5,20.5c-1.1,1.3-2.4,2.5-3.7,3.7l1.4-0.3C584.2-1158.9,587.9-1160.1,591.4-1161.6z"/>
</g>
<g id="z7djO__Jlz9tiUEHBPC46" transform="matrix(1 0 0 1 -423.25 1296.54)">
	<path vector-effect="non-scaling-stroke" d="M584.7-1154.4l-0.1,0.3c11.4,4,23.8,3.6,34.9-1c0-0.2,0-0.4,0.1-0.6c0,0.2,0,0.4,0,0.5
		c1.2-0.5,2.4-1,3.5-1.6c16.8-8.5,27.5-26.4,27.4-45.2c0.1-19-10.5-36.4-27.4-45.2c-22.6-11.3-46.8-4.2-60.9,12l1.1,0.3
		c1.6-1.8,3.3-3.4,5.1-4.9l-0.6-0.2l0.7,0.2c15.5-13,37.3-15.3,55.2-5.8c3,1.6,5.8,3.4,8.5,5.6c0.1-0.1,0.2-0.2,0.2-0.3
		c-0.1,0.1-0.1,0.2-0.2,0.4c1.8,1.5,3.6,3.1,5.2,4.9l0.2-0.2c0.1-0.1,0.1-0.2,0.2-0.2c-0.1,0.1-0.1,0.2-0.2,0.3
		c0,0.1-0.1,0.1-0.2,0.2c10.4,11.3,14.9,26.8,12.2,41.8s-12.3,28-25.9,35.1c-33.3,17.4-73.2-5.8-73.1-43.7
		c0-12.2,4.5-23.9,12.7-32.9l-1-0.4c-1.1,1.3-2.2,2.6-3.2,4l0.9-0.5c-0.3,0.2-0.7,0.5-1.1,0.7c-3.1,4.5-5.5,9.4-7,14.7
		c0.3-0.3,0.6-0.7,0.8-1.1c-0.2,0.5-0.5,1-0.9,1.5c-0.4,1.3-0.7,2.7-1,4.1l0.5-0.3l-0.5,0.4c-0.9,5-1.1,10.1-0.5,15.1l0.2-0.1
		l-0.2,0.1c0.3,2.3,0.7,4.6,1.2,6.8c4.2,16.3,16.2,29.5,32,35.3l0.1-0.3L584.7-1154.4z"/>
</g>
<g id="YcdZfo0c2WzEOS_s86D1S" transform="matrix(1 0 0 1 -423.08 1262.55)">
	<path vector-effect="non-scaling-stroke" d="M609.9-1198.2c2.4-0.3,5-0.7,7.3-1.2c4.1-0.9,8.3-2,12-4.2c1.1-0.6,2.1-1.5,2.9-2.5
		l0,0c-0.4,0.4-0.8,0.8-1.2,1.1c-2,1.3-4.3,2.4-6.6,3c-3.7,1.1-7.5,1.8-11.3,2.3c-14.2,2.1-30.9-1.8-44.6-6.2l0,0
		c10.2,4.3,21,6.9,32.1,7.8C603.7-1197.8,606.8-1197.9,609.9-1198.2z"/>
</g>
<g id="qMx2WfP-7Q69FajYfJjeW" transform="matrix(1 0 0 1 -391.2 1258.3)">
	<path vector-effect="non-scaling-stroke" d="M600.4-1202.2c-0.1,0.1-0.2,0.2-0.2,0.3l0,0C600.3-1201.9,600.3-1202,600.4-1202.2z"/>
</g>
<g id="OZTTDzHbrYl9jpr3LCVEi" transform="matrix(1 0 0 1 -455.34 1258.6)">
	<path vector-effect="non-scaling-stroke" d="M600-1202.1l0.6,0.2l0,0L600-1202.1z"/>
</g>
<g id="qp3UpP0rsvJnAcTSgcoYQ" transform="matrix(1 0 0 1 -423.15 1267.48)">
	<path vector-effect="non-scaling-stroke" d="M580.9-1200.8c9.6,2,19.4,3.3,29.2,2.6c1.6-0.1,3.3-0.3,4.9-0.5
		c0.7-0.1,1.8-0.2,2.4-0.3c5.6-0.9,11.3-2,16.5-4.5c0.7-0.4,1.4-0.8,2.1-1.2c0.5-0.4,1-0.8,1.4-1.2l0,0c-0.8,0.7-1.6,1.3-2.5,1.7
		c-1.8,0.9-3.7,1.6-5.7,2.1c-2.7,0.7-5.5,1.3-8.3,1.8l-1.2,0.2c-0.8,0.1-2.8,0.4-3.6,0.5c-1.8,0.2-3.6,0.4-5.4,0.6
		c-5,0.3-10.1,0.2-15.1-0.3c-10.9-1.1-21.7-3.2-32.2-6.2l-0.1,0.1C569-1203.7,574.9-1202,580.9-1200.8z"/>
</g>
<g id="_CN2oRCALGeJ7cwSPQMyI" transform="matrix(1 0 0 1 -461.3 1263.34)">
	<path vector-effect="non-scaling-stroke" d="M600.3-1202L600.3-1202L600.3-1202L600.3-1202z"/>
</g>
<g id="_x35_qKrL5ZeV1aj9mRBm7v6B" transform="matrix(1 0 0 1 -385.89 1263.18)">
	<path vector-effect="non-scaling-stroke" d="M600.3-1201.9c0.1-0.1,0.1-0.2,0.2-0.3C600.4-1202.1,600.3-1202,600.3-1201.9l-0.2,0.2
		l0,0C600.2-1201.8,600.2-1201.9,600.3-1201.9z"/>
</g>
<g id="LwoEQzXPBh6gCskLlUu4M" transform="matrix(1 0 0 1 -460.72 1263.59)">
	<path vector-effect="non-scaling-stroke" d="M600.8-1201.9l-1.1-0.3l0,0l1,0.4L600.8-1201.9z"/>
</g>
<g id="OTHE1tWQjRpn8FIoZ-1AA" transform="matrix(1 0 0 1 -476.61 1276.43)">
	<path vector-effect="non-scaling-stroke" d="M603.7-1194.8c-1.5,0.8-3.2,1.3-4.9,1.2c-1.1,0-2.2-0.1-3.3-0.5
		c-3.5-1.5-5-6.4-5.7-9.8c-0.2-0.9-0.3-1.8-0.4-2.6l-0.8-0.1l0.7-0.6c0,0.2,0,0.5,0.1,0.8c1.8,0.3,4,0.8,5.6,1
		c0.6,0.1,1.1,0.2,1.7,0.2c5.2,0,11.1-2.8,15.6-5.5l0.1-0.2c-4.7,2.3-10.6,4.8-15.7,4.7c-0.5,0-1-0.1-1.5-0.2
		c-1.8-0.4-4.5-0.9-6.3-1.3l-0.7-0.1c0.1,0.8,0.2,1.7,0.3,2.5c0.7,3.9,2,8.8,5.4,11.3c1,0.7,2.1,1.1,3.2,1.2c1.2,0.1,2.4,0,3.6-0.2
		c1.8-0.3,3.4-1.3,4.6-2.6l0.1-0.4C604.8-1195.6,604.3-1195.2,603.7-1194.8z"/>
</g>
<g id="AVIFcRvX1LHnfZB8iafu1" transform="matrix(1 0 0 1 -487.85 1271.48)">
	<path vector-effect="non-scaling-stroke" d="M599.9-1201.8l0.8,0.1c0-0.2-0.1-0.5-0.1-0.8L599.9-1201.8z"/>
</g>
<g id="t0evrlM2RKtQOEzscfxPg" transform="matrix(1 0 0 1 -471.27 1281.92)">
	<path vector-effect="non-scaling-stroke" d="M599.9-1201.6l-0.1,0.4c0.4-0.5,0.7-1,0.9-1.5C600.5-1202.3,600.2-1202,599.9-1201.6z"
		/>
</g>
<g id="_x30_lLRUFac13hpxvMHUcDwC" transform="matrix(1 0 0 1 -464.07 1267.29)">
	<path vector-effect="non-scaling-stroke" d="M600.8-1202.3l-0.9,0.4l-0.1,0.2C600.1-1201.9,600.5-1202.1,600.8-1202.3z"/>
</g>
<g id="DVk1p4ncntt3gZ9c0v8mk" transform="matrix(1 0 0 1 -488.34 1290.97)">
	<path vector-effect="non-scaling-stroke" d="M600.3-1202h-0.1H600.3z"/>
</g>
<g id="UDM_8KwYCsB0oRUkCWu7A" transform="matrix(1 0 0 1 -490.38 1291.07)">
	<path vector-effect="non-scaling-stroke" d="M599.8-1201.9l1,0.4c-0.1-0.3-0.2-0.7-0.3-1L599.8-1201.9z"/>
</g>
<g id="_x2D_575KBmXclY2X_x5F_AMnsq1T" transform="matrix(1 0 0 1 -482.11 1295.35)">
	<path vector-effect="non-scaling-stroke" d="M606.4-1194.5c-1.3,0.3-2.6,0.4-3.9,0.4c-0.8,0.1-1.5,0-2.3-0.1
		c-2.8-0.7-4.6-4.2-5.8-6.7c-0.7-1.6-1.3-3.2-1.8-4.9l-1-0.4l0.7-0.7c0.1,0.3,0.2,0.7,0.3,1l1.2,0.4h0.1l3.4,0.4l0.8,0.1
		c0.9,0.1,1.8,0,2.6-0.2c3.3-1.2,6.4-3,9-5.4v-0.1c-2.8,2.1-5.9,3.7-9.3,4.7c-0.8,0.2-1.5,0.2-2.3,0.1l-0.8-0.1l-3.2-0.5h0H594h0.1
		l-3.2-1.2c0.6,2.5,1.4,4.9,2.5,7.2c0.7,1.5,1.5,2.9,2.5,4.2c1,1.4,2.5,2.4,4.1,2.8c0.6,0.1,1.1,0.1,1.7,0c0.5,0,1.1-0.1,1.6-0.2
		c2.1-0.2,4.1-0.8,5.9-1.8l0,0C608.3-1195,607.4-1194.7,606.4-1194.5z"/>
</g>
<g id="biOn9E262UzvLEUGhUB3Q" transform="matrix(1 0 0 1 -473.09 1301.88)">
	<path vector-effect="non-scaling-stroke" d="M600.2-1201.9L600.2-1201.9l0.2-0.1L600.2-1201.9z"/>
</g>
<g id="icepG3i3gcY5swDbfvcn8" transform="matrix(1 0 0 1 -472.44 1286.64)">
	<path vector-effect="non-scaling-stroke" d="M600.5-1202.2l-0.5,0.3v0.1L600.5-1202.2z"/>
</g>
<g id="_x2D_2zmE_x5F_TQmWN3JUDjyU6yG" transform="matrix(1 0 0 1 -439.41 1290.9)">
	<path vector-effect="non-scaling-stroke" d="M602.2-1188.2l0.5,0.1c-7.4-1.8-11.9-9.3-10.1-16.7c1.8-7.4,9.3-11.9,16.7-10.1
		l-0.5-0.2l0.6,0.1c-1.6-0.6-3.3-0.9-5-0.8c-6.6,0.4-12,5.2-13.1,11.7s2.6,12.9,8.7,15.3c-0.8-0.4-1.5-0.8-2.2-1.3
		C599.2-1189.4,600.7-1188.7,602.2-1188.2z"/>
</g>
<g id="Eu35fWm9OWiOwBmymsVog" transform="matrix(1 0 0 1 -385.33 1284.83)">
	<path vector-effect="non-scaling-stroke" d="M590.5-1211.2c0.3-0.1,0.5-0.3,0.8-0.4l-0.5,0.4c4.2-2.4,9.3-2.1,13.2,0.6
		c2.7,2,4.5,5,4.9,8.4c0.4,3.4-0.7,6.7-2.9,9.3c-0.8,0.9-1.7,1.7-2.7,2.4c0.7-0.4,1.3-0.8,1.9-1.3c-0.3,0.2-0.5,0.4-0.8,0.6
		s-0.7,0.5-1,0.8c1.1-0.6,2.1-1.3,3-2.2c2.6-2.6,3.9-6.2,3.6-9.8C609.1-1211.9,598-1216.9,590.5-1211.2z"/>
</g>
<g id="nB82TUobZGbkstilNv3WH" transform="matrix(1 0 0 1 -412.63 1278.25)">
	<path vector-effect="non-scaling-stroke" d="M582.5-1202.3c4.3,1.5,8.8,2.5,13.4,2.8c6.4,0.6,12.8-0.5,18.6-3.1
		c1.2-0.6,2.4-1.2,3.5-2c-0.3,0.2-0.7,0.4-1,0.7c0.2-0.2,0.5-0.4,0.8-0.6c-2.2,1.1-4.5,1.9-6.8,2.6c-0.7,0.2-1.6,0.4-2.3,0.5
		c-3.4,0.7-6.9,1-10.4,1c-5.3-0.1-10.5-0.7-15.7-1.9c0.2,0.1,0.4,0.1,0.6,0.2L582.5-1202.3z"/>
</g>
<g id="_x36_hcvSXLtXsttvYe7onGXp" transform="matrix(1 0 0 1 -430.26 1277.92)">
	<path vector-effect="non-scaling-stroke" d="M600.1-1202l0.7,0.2c-0.2-0.1-0.4-0.2-0.6-0.2l-0.6-0.1L600.1-1202z"/>
</g>
<g id="_x33_JgoyOZhiMfHfOJfEhSPN" transform="matrix(1 0 0 1 -395.11 1275.73)">
	<path vector-effect="non-scaling-stroke" d="M600.5-1202.1l0.5-0.4c-0.3,0.2-0.5,0.3-0.8,0.4c-0.3,0.2-0.5,0.4-0.8,0.6
		C599.8-1201.7,600.2-1201.9,600.5-1202.1z"/>
</g>
<g id="IoehNhssmqZX9QVT5zPVk" transform="matrix(1 0 0 1 -411.02 1302.11)">
	<path vector-effect="non-scaling-stroke" d="M628.9-1207.8c-3.9,2.4-8.1,4.4-12.5,5.9c-1.4,0.5-2.9,0.9-4.3,1.4l-2.4,0.7
		c-1.1,0.3-2.8,0.7-3.9,0.9l-3.5,0.6l-1.5,0.2c-0.4,0-2.2,0.3-2.5,0.3l-1.5,0.1c-2.7,0.3-5.3,0.4-8,0.4c-4,0-8-0.5-12-1.3
		c-0.2,0-0.7-0.2-1-0.2c-0.5-0.1-1.4-0.4-1.9-0.6l-0.2-0.1c-0.7-0.1-1.5-0.3-2.2-0.6c0.9,0.4,1.8,0.8,2.7,1.2
		c2.1,0.8,4.2,1.3,6.4,1.8l2,0.3l2,0.2c1,0.1,2.1,0.2,3,0.2c2.3,0.1,4.8,0.1,7.1,0c1.3-0.1,2.7-0.2,4.1-0.4c1.2-0.2,2.9-0.4,4-0.6
		l3-0.6c1.5-0.4,3.5-0.8,4.9-1.3c0.6-0.2,1.4-0.4,2-0.6l2.4-0.8c0.4-0.1,1-0.4,1.4-0.6c3.2-1.2,6.2-2.7,9.1-4.5
		c1.1-0.7,2.2-1.4,3.2-2.1c-0.5,0.2-0.9,0.5-1.4,0.6C628.1-1207.3,628.5-1207.5,628.9-1207.8z"/>
</g>
<g id="tbPmcPPufmDeZTciHZdMR" transform="matrix(1 0 0 1 -439.66 1303.68)">
	<path vector-effect="non-scaling-stroke" d="M598.1-1203c0.7,0.5,1.5,1,2.2,1.4c0.7,0.3,1.5,0.5,2.2,0.6
		C601-1201.5,599.5-1202.2,598.1-1203z"/>
</g>
<g id="J2VZPZo6FznI8-g3DlTqk" transform="matrix(1 0 0 1 -382.06 1296.07)">
	<path vector-effect="non-scaling-stroke" d="M601.9-1203c-0.6,0.4-1.3,0.8-1.9,1.3c-0.4,0.3-0.8,0.5-1.3,0.8
		c0.5-0.2,0.9-0.4,1.4-0.6c0.3-0.2,0.7-0.5,1-0.8S601.6-1202.8,601.9-1203z"/>
</g>
<g id="_x37_rnwaaMEiZl_x5F_fh-a1QZIx" transform="matrix(1 0 0 1 -424.5 1291.03)">
	<path vector-effect="non-scaling-stroke" d="M600.3-1208.1c-1.1,0-2,2.8-2,6.1s0.9,6.1,2,6.1s2-2.8,2-6.1
		S601.4-1208.1,600.3-1208.1z"/>
</g>
<g id="_x30_z1DU6S4qT_x5F_aCD8lkOlW6" transform="matrix(1 0 0 1 -424.5 1291.03)">
	<path vector-effect="non-scaling-stroke" d="M600.3-1208.2c-1.2,0-2.2,2.7-2.2,6.2s0.9,6.2,2.2,6.2c1.2,0,2.2-2.7,2.2-6.2
		S601.5-1208.2,600.3-1208.2z M600.3-1195.8c-1.2,0-2.1-2.8-2.1-6.1c0-3.4,0.9-6.2,2.1-6.2s2.1,2.8,2.1,6.2
		C602.4-1198.6,601.4-1195.8,600.3-1195.8z"/>
</g>
<g id="aTJBO5rAmnuIfan4ULqWs" transform="matrix(1 0 0 1 -424.5 1291.03)">
	<path vector-effect="non-scaling-stroke" d="M600.3-1208.1c-1.2,0-2.1,2.8-2.1,6.2c0,3.4,0.9,6.1,2.1,6.1s2.1-2.8,2.1-6.1
		C602.4-1205.4,601.4-1208.1,600.3-1208.1z M600.3-1195.9c-1.1,0-2-2.8-2-6.1s0.9-6.1,2-6.1s2,2.8,2,6.1S601.4-1195.9,600.3-1195.9z
		"/>
</g>
<g id="g8XhpeeqT-L5jJGYC6Tbc" transform="matrix(1 0 0 1 -394.32 1288.22)">
	<path vector-effect="non-scaling-stroke" d="M598.3-1202c0-3.4,0.9-6.1,2-6.1s2,2.7,2,6.1s-0.9,6.1-2,6.1S598.3-1198.6,598.3-1202z
		"/>
</g>
<g id="DOmunC_Z5SUZ9boTh7EtH" transform="matrix(1 0 0 1 -394.32 1288.21)">
	<path vector-effect="non-scaling-stroke" d="M600.3-1195.8c1.2,0,2.2-2.7,2.2-6.2s-1-6.2-2.2-6.2s-2.2,2.7-2.2,6.2
		S599.1-1195.8,600.3-1195.8z M600.3-1208.1c1.2,0,2.1,2.8,2.1,6.1s-0.9,6.1-2.1,6.1s-2.1-2.8-2.1-6.1S599.1-1208.1,600.3-1208.1z"
		/>
</g>
<g id="_x35_NDlUAMFLhvLUKEf1LkXm" transform="matrix(1 0 0 1 -394.32 1288.21)">
	<path vector-effect="non-scaling-stroke" d="M600.3-1195.8c1.2,0,2.1-2.8,2.1-6.1s-0.9-6.1-2.1-6.1s-2.1,2.8-2.1,6.1
		S599.1-1195.8,600.3-1195.8z M600.3-1208.1c1.1,0,2,2.8,2,6.1s-0.9,6.1-2,6.1s-2-2.8-2-6.1S599.2-1208.1,600.3-1208.1z"/>
</g>
<g id="BodjnxgoEW5xbdd9ulyng" transform="matrix(1 0 0 1 -426.88 1445.93)">
	<path vector-effect="non-scaling-stroke" d="M641.7-1205.5c-0.8,0.5-1.6,1-2.4,1.5c-9.2,4.7-23.2,5.6-33.5,5.9h-6.3
		c-1.6,0-4-0.1-5.6-0.1c-2.1-0.1-4.9-0.2-7-0.4c-1.4-0.1-4.2-0.4-5.6-0.6c-1.6-0.1-3.9-0.5-5.6-0.8c-3.7-0.6-7.4-1.4-11-2.4
		c-2.5-0.7-5-1.5-7.4-2.5l0,0c3.2,1.5,6.6,2.8,10,3.7c3.6,1,7.3,1.8,11,2.4c1.6,0.3,4,0.6,5.6,0.8l4.2,0.4c1.6,0.1,4,0.2,5.6,0.4
		c1,0.1,3.2,0.1,4.2,0.1c7.1,0.2,14.1-0.2,21.1-1c5.6-0.6,11.2-1.9,16.5-3.9C637.8-1202.8,639.9-1204,641.7-1205.5
		c0.6-0.4,1.1-0.9,1.5-1.4v-0.1C642.8-1206.4,642.3-1205.9,641.7-1205.5z"/>
</g>
<g id="KQLqqhGeQlZJvHVcqX_Q2" transform="matrix(1 0 0 1 -377.38 1367.16)">
	<path vector-effect="non-scaling-stroke" d="M577.9-1218.3c0-0.1,0-0.2,0-0.3C577.9-1218.4,577.9-1218.4,577.9-1218.3
		c1,0.5,2,0.8,3.1,0.9c0.9,0.1,1.8,0.2,2.7,0.2c0-0.1,0-0.3,0-0.4c0,0.1,0,0.3,0,0.4c2.1,0.1,4.3,0.1,6.4,0.1
		c2.3-0.1,4.7,0.5,6.7,1.6c1.8,1.2,3.4,2.7,4.7,4.4c8.4,10.7,16.9,22.1,25.4,32.7l0,0c-7.9-11.4-16-22.6-24.6-33.4
		c-1.4-1.8-3.1-3.4-5-4.6c-2.9-1.8-6.4-1.7-9.7-1.6c-2.4,0.1-4.8,0.1-7.2-0.2c-1.6-0.2-3.1-0.8-4.3-1.8c-1.7-1.5-2.6-3.7-2.5-5.9
		l0,0C573.3-1222.6,575-1219.6,577.9-1218.3z"/>
</g>
<g id="IDewwn9Mn2mW1iB5PZFkB" transform="matrix(1 0 0 1 -350.45 1391.2)">
	<path vector-effect="non-scaling-stroke" d="M600.3-1201.9L600.3-1201.9L600.3-1201.9L600.3-1201.9z"/>
</g>
<g id="JleBF25pZwPIgIjeMhcXY" transform="matrix(1 0 0 1 -403.99 1343.13)">
	<path vector-effect="non-scaling-stroke" d="M600.3-1201.7L600.3-1201.7c0-0.2,0-0.4,0-0.5C600.3-1202.1,600.3-1201.9,600.3-1201.7
		z"/>
</g>
<g id="aIw7jjAVlZTM97DQ0kAxu" transform="matrix(1 0 0 1 -322.27 1369.62)">
	<path vector-effect="non-scaling-stroke" d="M626.9-1207.5c-3.2-3.7-9.2-3.3-13.5-2.4c-0.4,0.1-0.8,0.2-1.2,0.3
		c0,0.3-0.1,0.6-0.1,0.8l-0.7-0.6l0.8-0.2c0.3-2.5,0.5-5,0.5-7.5c0-1.4-0.1-2.9-0.4-4.3c-0.3-1.1-1.2-2.5-2.6-2s-2.1,2.4-2.7,3.6
		c-3.4,7.5-5.5,15.6-7.7,23.5l0.2-0.1l-0.3,0.3l0.1-0.2c-6.3,2.5-12.3,5.5-18.1,8.9c-3.3,2-6.4,4.3-9.4,6.7l0.2,0.2
		c1.7-1.3,3.4-2.6,5.2-3.8c7.2-4.6,14.8-8.4,22.7-11.3l0.2-0.1l0.1-0.2c1.4-5.3,3-10.6,4.8-15.9c0.9-2.6,1.9-5.2,3-7.6
		c0.4-0.8,0.8-1.6,1.3-2.3c0.2-0.3,0.5-0.7,0.9-0.7c0.9,0,1.1,1.8,1.2,2.6c0.3,3.6,0.1,7.3-0.4,10.9l-0.1,0.9
		c0.9-0.3,1.8-0.5,2.7-0.7c4.5-0.9,11.3-1.5,13.5,3.6c1.5,4.3,0.4,9.1-2.9,12.2c-1.2,1.1-2.8,1.8-4.4,2H619l-0.7-0.1
		c-0.2,0-0.5-0.1-0.7-0.1c-0.3-0.1-0.6-0.2-0.9-0.3l-0.4-0.2l-0.6-0.4c-0.6-0.4-1.2-0.8-1.7-1.4c-1.4-1.4-2.4-3.1-3-4.9
		c-0.9-2.5-0.2-5.3,1.8-7.1c1.4-1.3,3.1-2.4,5-3c-3.7,1.1-7.8,3.9-7.6,8.2c0.1,1.4,0.4,2.7,1.1,3.9c0.3,0.6,0.6,1.2,1,1.7
		c0.2,0.3,0.4,0.6,0.6,0.8c0.4,0.5,0.9,1,1.4,1.5c0.5,0.5,1.1,0.8,1.7,1.2l0.7,0.3c0.2,0.1,0.5,0.2,0.7,0.3s0.5,0.1,0.8,0.2
		c0.2,0.1,0.6,0.1,0.8,0.1c0.2,0,0.6,0,0.8,0c0.1,0,0.5,0,0.8-0.1c1.2-0.2,2.3-0.6,3.2-1.3c0.8-0.8,1.5-1.7,2.2-2.6
		c-0.5,0.8-1.1,1.5-1.7,2.3l0.4-0.3c3.1-2.8,4.6-7,3.9-11.1C628.4-1205,627.8-1206.4,626.9-1207.5z"/>
</g>
<g id="pzVwD5qN-YmN2ZfT6Cmro" transform="matrix(1 0 0 1 -310.71 1362.37)">
	<path vector-effect="non-scaling-stroke" d="M600.6-1201.6c0-0.3,0.1-0.6,0.1-0.8l-0.8,0.2L600.6-1201.6z"/>
</g>
<g id="XKeLQZwQLMIqN519heIcz" transform="matrix(1 0 0 1 -353.87 1393.95)">
	<path vector-effect="non-scaling-stroke" d="M596.9-1199c2.1-2.1,4.4-4,6.7-5.8l-0.2-0.2C601.2-1203.1,599-1201.1,596.9-1199z"/>
</g>
<g id="zR5K0oAB_Scks0nzqCtSs" transform="matrix(1 0 0 1 -323.09 1375.31)">
	<path vector-effect="non-scaling-stroke" d="M600.4-1202.2l-0.2,0.1l-0.1,0.2L600.4-1202.2z"/>
</g>
<g id="FktoNBjt7fUFpDGCKngj5" transform="matrix(1 0 0 1 -350.6 1391.04)">
	<path vector-effect="non-scaling-stroke" d="M600.4-1201.9L600.4-1201.9l-0.2-0.2l0,0L600.4-1201.9z"/>
</g>
<g id="_x35_Dr2Bc9h2VT0wL3hOpO0x" transform="matrix(1 0 0 1 -313.06 1386.53)">
	<path vector-effect="non-scaling-stroke" d="M600.1-1201.9h0.2l0.1-0.2L600.1-1201.9z"/>
</g>
<g id="f4LcGPE-J5LtFcpHmlAl2" transform="matrix(1 0 0 1 -341.76 1405.14)">
	<path vector-effect="non-scaling-stroke" d="M642.2-1226.3c-3.4,3-7.7,4.8-12.2,5.1c-0.5,0-0.9,0-1.4,0
		c-7.8,14-18.9,31.4-32.3,40.2c-4.3,2.7-10,5.1-15,3.3c-9.3-3.3-19-16.4-24.5-24.7l0,0c5,8.4,12.8,19.2,21.1,24.1
		c1.9,1.2,4.1,1.9,6.3,2.1c6.8,0.2,12.8-3.7,17.8-7.9c9.9-8.6,17.3-19.7,23.9-31c1.1-1.8,2.1-3.7,3-5.6h-0.2l0.3-0.2l-0.1,0.2
		c3.3-0.2,6.5-1.1,9.4-2.7c2.1-1.2,3.9-2.7,5.4-4.5c-0.2,0.1-0.3,0.3-0.5,0.4C643-1227,642.6-1226.6,642.2-1226.3z"/>
</g>
<g id="_x33_U-i2L2oP4IgDoaaSTf6q" transform="matrix(1 0 0 1 -297.66 1378.47)">
	<path vector-effect="non-scaling-stroke" d="M599.2-1200.7c0.2-0.1,0.3-0.2,0.5-0.4c0.6-0.7,1.2-1.5,1.7-2.3
		C600.7-1202.4,600-1201.5,599.2-1200.7z"/>
</g>
<g id="r9xzhexcM8DLJYkcGaP9A" transform="matrix(1 0 0 1 -522.91 1295.43)">
	<path vector-effect="non-scaling-stroke" d="M587.3-1211.1l0.4,0.3c0.5-0.6,1.1-1.2,1.5-1.7c0.8-0.8,1.6-1.7,2.5-2.5l-0.3-0.3
		l0.1-0.1l0.4,0.3c0.9-0.9,1.8-1.7,2.6-2.6c6.7-6.4,14.1-12.1,22-16.9c6.4-3.7,13.2-6.8,20.6-8.1c0.6-0.1,1.2-0.2,1.8-0.2v-0.6
		c-1.3-0.1-2.6-0.2-3.9-0.1c-2.4,0.1-4.9,0.3-7.3,0.7c-17.6,3.1-32.9,14.2-44.4,27.5c-0.7,0.9-1.8,2.1-2.5,3
		c-0.4,0.5-1.4,1.8-1.8,2.3c-0.9,1.2-2,2.7-2.8,4c-4.8,7-8.5,14.6-11.1,22.7c-2.2,6.8-3.4,13.9-3.4,21.1c0,0.6,0,1.2,0.1,1.8
		c0,0,0,0.1,0,0.1c0,0,0,0.1,0,0.1c0,0,0.1-0.1,0.1-0.2v-0.1l0.1-0.2l0.1-0.4c4.8-14.3,10.8-28.4,19.2-41c1-1.5,2.1-3.1,3.2-4.5
		c0.9-1.1,2-2.5,2.9-3.6l0.2-0.2l-0.4-0.3L587.3-1211.1z M562.8-1164.1c-0.3,1.1-0.6,2.2-0.9,3.2v0.2c0,0,0,0.1,0,0l0,0l0,0v-0.1
		v-0.1v-0.1c0-2.4,0.1-4.8,0.4-7.2c1.8-12.8,6.5-25,13.7-35.8c12.8-18.9,31.9-35.6,55.2-38.7c1.6-0.2,3.1-0.3,4.7-0.4
		c1-0.2,2-0.4,3-0.5v0.6c-1-0.1-2-0.1-2.9-0.1l-0.7,0.2c-8.5,2.1-16.3,6.2-23.6,10.9c-7.5,4.9-14.5,10.6-21,16.8
		C577.2-1202.2,568.4-1181.5,562.8-1164.1L562.8-1164.1z"/>
</g>
<g id="N8ewAPunaCwByK8bwpV_d" transform="matrix(1 0 0 1 -485.83 1254.24)">
	<path vector-effect="non-scaling-stroke" d="M601.8-1201.7v-0.6c-1,0.1-2,0.2-3,0.5C599.8-1201.8,600.8-1201.8,601.8-1201.7z"/>
</g>
<g id="_x31_DAvBGktl8413w0ddALHl" transform="matrix(1 0 0 1 -561.36 1336.76)">
	<path vector-effect="non-scaling-stroke" d="M600.3-1201.9L600.3-1201.9L600.3-1201.9L600.3-1201.9v-0.2v0.1V-1201.9z"/>
</g>
<g id="gG45rFDefupIoRBPPAfr5" transform="matrix(1 0 0 1 -494.56 1319.71)">
	<path vector-effect="non-scaling-stroke" d="M637.5-1171.7c1.2,0.9,2.4,1.8,3.7,2.7c0,0,0-0.1,0.1-0.1c-1.6-1.4-3.2-2.8-4.9-4.2
		c-1.6-1.4-3.4-2.8-5.1-4.2c-3.3-2.7-6.9-5.7-10.3-8.3c-3.4-2.6-7.1-5.4-10.5-8.1c-5.2-4.1-10.2-8.4-15.3-12.7
		c-11.7-9.7-23.7-19.3-35.9-28.4l-0.1,0.1c11.5,10,23.4,19.6,35.4,29c5.2,4,10.5,8.1,15.6,12.2c3.4,2.8,6.8,5.7,10.1,8.5
		C626-1180.6,631.7-1176.1,637.5-1171.7c0-0.1,0-0.2,0.1-0.2L637.5-1171.7z"/>
</g>
<g id="FigI1xXTKqV4sabWChuLx" transform="matrix(1 0 0 1 -535.71 1286.59)">
	<path vector-effect="non-scaling-stroke" d="M600.1-1202.2L600.1-1202.2l0.3,0.4l0.1-0.1L600.1-1202.2z"/>
</g>
<g id="iVgicf4EM6via7Te45jS8" transform="matrix(1 0 0 1 -409.86 1387.42)">
	<path vector-effect="non-scaling-stroke" d="M600.5-1201.9l-0.2-0.2l-0.2,0.1L600.5-1201.9z"/>
</g>
<g id="zD0f-GPSIvyO2RwY4-YFS" transform="matrix(1 0 0 1 -417.8 1376.83)">
	<path vector-effect="non-scaling-stroke" d="M605.2-1192.6l2.8,2.2c1.3-0.5,2.4-1.3,3.2-2.4c0.6-0.7,1-1.6,1.3-2.5
		c0.1-0.3,0.2-0.7,0.2-1.1c-1.9-1.4-3.8-2.9-5.6-4.5c-5.1-4.6-10.5-8.8-16.1-12.7l-0.1,0.3c1.5,1.4,3.1,2.8,4.7,4.1
		c1.8,1.5,3.7,3.1,5.5,4.5c3.7,2.8,7.6,5.5,11.2,8.5c0,0,0,0,0-0.1l0.1,0.2l-0.1-0.1c-0.3,1.1-0.8,2.1-1.6,2.9
		c-0.7,0.8-1.5,1.4-2.5,1.8l0.2,0.2l-0.4-0.1l0.2-0.1l-2.3-2c-4.2-3.5-8.6-7-13-10.3c-1.6-1.2-3.3-2.4-4.9-3.6l-0.1,0.1
		c3.1,2.9,6.4,5.6,9.6,8.4C599.9-1196.8,602.7-1194.6,605.2-1192.6z"/>
</g>
<g id="Xjqy5lRtyF8AF2PF2JnVT" transform="matrix(1 0 0 1 -405.71 1382.63)">
	<path vector-effect="non-scaling-stroke" d="M600.2-1202.1C600.2-1202.1,600.2-1202.1,600.2-1202.1l0.1,0.2L600.2-1202.1z"/>
</g>
<g id="bMyi6rQWMYshatNQacOMr" transform="matrix(1 0 0 1 -490.28 1315.03)">
	<path vector-effect="non-scaling-stroke" d="M563.9-1230.6c1.7,1.4,3.4,2.8,5.1,4.2c3.3,2.7,7,5.7,10.3,8.3s7.1,5.4,10.5,8
		c5.2,4,10.3,8.4,15.4,12.6c11.8,9.7,23.8,19.2,36,28.2l0.1-0.1c-11.5-9.9-23.5-19.5-35.6-28.8c-5.2-4-10.6-8-15.7-12.2
		c-3.4-2.7-6.8-5.7-10.2-8.5c-6.7-5.5-13.6-10.8-20.6-15.9l-0.1,0.1C560.7-1233.2,562.3-1231.9,563.9-1230.6z"/>
</g>
<g id="cMB7qEo5j5a8elCkgrbJv" transform="matrix(1 0 0 1 -531.51 1282.22)">
	<path vector-effect="non-scaling-stroke" d="M600.1-1202.1l0.3,0.3l0.1-0.1L600.1-1202.1L600.1-1202.1z"/>
</g>
<g id="XFdoEUYhxdpk2pxTTfGLs" transform="matrix(1 0 0 1 -441.06 1361.07)">
	<path vector-effect="non-scaling-stroke" d="M592.6-1214.9l-0.5-0.4c-1.7,1.4-3.1,3-4.3,4.8l0.1,0.1l-0.1,0.1l-0.1-0.1
		c-0.6,1-1.2,2-1.7,3c2-3.5,4.8-6.4,8.2-8.5c4.4-2.4,8.8-1.1,12.4,2.1l0.8,0.6c0.4,0.4,1,1,1.4,1.4c0.1,0.1,0.4,0.4,0.5,0.5
		c0.1,0.2,0.7,0.8,0.8,1l0.6,0.8c1.5,2.1,2.5,4.6,2.8,7.2c0.6,4.4-1,8.9-4.4,11.8c-0.4,0.3-0.8,0.6-1.2,0.9l-0.6,0.4
		c-0.6,0.3-1.4,0.6-2.1,0.9c-1.7,0.7-3.9,1.6-5.6,2.3c1.7-0.5,4-1.3,5.8-1.9c0.7-0.2,1.5-0.5,2.2-0.8c0.4-0.2,0.8-0.4,1.2-0.6
		c0.9-0.6,1.8-1.3,2.5-2.1l-0.4-0.4l0.1-0.1l0.5,0.3c1.5-1.7,2.5-3.8,3-6l-0.7-0.6l0.1-0.1l0.7,0.5c0.6-2.9,0.3-5.9-0.8-8.6
		c-0.8-1.9-1.9-3.7-3.2-5.3c-0.2-0.2-0.5-0.6-0.7-0.8c-0.4-0.4-1-1-1.5-1.4c-1.7-1.7-3.8-2.9-6.1-3.6l-0.1,0.2l-1.1-0.4v-0.1
		c-1.1-0.2-2.1-0.2-3.2,0c-2,0.4-3.9,1.2-5.5,2.5L592.6-1214.9L592.6-1214.9z"/>
</g>
<g id="wpcr8hs3kEx8knm1qUK0L" transform="matrix(1 0 0 1 -453.56 1352.7)">
	<path vector-effect="non-scaling-stroke" d="M600.4-1202l-0.1-0.1c0,0-0.1,0.1-0.1,0.1L600.4-1202L600.4-1202z"/>
</g>
<g id="_x30_5_x5F_R02KfUSjThhBX5XLOp" transform="matrix(1 0 0 1 -427.44 1365.14)">
	<path vector-effect="non-scaling-stroke" d="M600-1202.4L600-1202.4l0.6,0.7l0.1-0.3L600-1202.4z"/>
</g>
<g id="qog1VuqLw7UcK0hEycB_b" transform="matrix(1 0 0 1 -430.38 1371.41)">
	<path vector-effect="non-scaling-stroke" d="M600.1-1202.2L600.1-1202.2l0.3,0.5l0.1-0.1L600.1-1202.2z"/>
</g>
<g id="Ujf_wrq8up-wuQ4mm_Ja9" transform="matrix(1 0 0 1 -448.99 1347.94)">
	<path vector-effect="non-scaling-stroke" d="M600.5-1201.8L600.5-1201.8l-0.4-0.5l-0.1,0.1L600.5-1201.8z"/>
</g>
<g id="konFelekgAc-UhwsLYjXM" transform="matrix(1 0 0 1 -459.63 1372.16)">
	<path vector-effect="non-scaling-stroke" d="M600.4-1202.3l-0.3,0.2c0,0.1,0,0.2,0,0.3L600.4-1202.3z"/>
</g>
<g id="l2kr-bpAXqem9V8eB16ro" transform="matrix(1 0 0 1 -470.7 1377.67)">
	<path vector-effect="non-scaling-stroke" d="M613.1-1228.3c-1.3,3-2.1,6.2-2.4,9.5c-0.2,3.7,0,7.5,0.6,11.2l0.3-0.2l-0.2,0.5
		c0-0.1,0-0.2,0-0.3c-4.1,2.8-7.8,6.1-11.2,9.8c-2.5,2.8-4.6,5.9-6.5,9.2c-2.6,4.6-4.9,9.3-6.9,14.2c1.6-3.1,3.2-6.2,5-9.3
		c2.1-3.7,4.4-7.3,6.9-10.7c3.1-3.8,6.6-7.2,10.4-10.2c1.1-0.9,2.2-1.7,3.4-2.5c-0.4-2-0.6-4-0.8-6c-0.2-1.9-0.2-3.8-0.2-5.7
		c0.2-3.7,1-7.4,2.3-10.9l0,0C613.6-1229.2,613.4-1228.8,613.1-1228.3L613.1-1228.3L613.1-1228.3z"/>
</g>
<g id="a2qkX-rVMxFuXQqgXw3N5" transform="matrix(1 0 0 1 -457.27 1349.9)">
	<path vector-effect="non-scaling-stroke" d="M600.3-1202.1c0,0.1-0.1,0.1-0.1,0.2l0,0L600.3-1202.1z"/>
</g>
<g id="_cdMmZQDUOvVZnIcEc6Kg" transform="matrix(1 0 0 1 -476.74 1395.76)">
	<path vector-effect="non-scaling-stroke" d="M602.3-1159.4c-1.9,0.8-4,1-6,0.7c-0.8-0.2-1.7-0.4-2.5-0.6c-1.9-0.5-3.6-1.4-5-2.6
		c-2.1-2-3.2-4.8-4.1-7.6c-0.9-3.1-1.5-6.3-1.9-9.5c-0.2-1.7-0.3-3.4-0.3-5.1c0.3-11,3.3-21.6,6.6-32c2.4-7.6,5.4-15,9.1-22.1
		c0.7-1.5,1.7-2.9,2.8-4.1c4.1-3.3,12.8-3.9,18-4l0,0c-5.4-0.1-13.3,0.3-17.8,3.3c-0.7,0.6-1.4,1.2-1.8,2c-1.7,2.5-3.1,5.1-4.4,7.9
		c-4.2,9.1-7.6,18.5-10.1,28.2c-1.9,7.3-3.5,14.7-3.4,22.3c0,2,0.3,4,0.6,6c0.8,5,2.2,11.9,6,15.5c2,1.9,4.7,2.7,7.3,3.4
		c3.8,1,7.4-0.2,10.5-2.2l-0.1-1.2C604.7-1160.6,603.6-1159.9,602.3-1159.4z"/>
</g>
<g id="ETdoHaFp8NPwas2mkYXEm" transform="matrix(1 0 0 1 -456.04 1406.38)">
	<path vector-effect="non-scaling-stroke" d="M591.6-1176.4c5.3-6.1,9.1-13.2,12.5-20.5c0.8-1.8,1.6-3.7,2.3-5.6
		c1.9-5.7,3.4-11.5,5-17.3c0.8-2.9,2.3-8.7,3.1-11.6c-2.7,9.1-5.3,18.2-8.3,27.2c-0.1,0.4-0.4,1.1-0.5,1.4c-2.2,5.5-4.9,10.9-8,16
		c-3,4.9-6.9,10.5-11.8,14.2c0.6,0,1.3-0.1,1.9-0.2C589.3-1173.9,590.5-1175.1,591.6-1176.4z"/>
</g>
<g id="R_QpwzrJI-6d6fcd1QC6b" transform="matrix(1 0 0 1 -470.02 1436.93)">
	<path vector-effect="non-scaling-stroke" d="M600.2-1202L600.2-1202L600.2-1202L600.2-1202z"/>
</g>
<g id="Ay-cGlJI0oO3Uo6_KOI5G" transform="matrix(1 0 0 1 -457.88 1351.36)">
	<path vector-effect="non-scaling-stroke" d="M600.3-1202L600.3-1202z"/>
</g>
<g id="jO_O0rsnZCdC-pzqCWY4E" transform="matrix(1 0 0 1 -431.9 1396.17)">
	<path vector-effect="non-scaling-stroke" d="M605-1174.4c2.9-1.8,5.8-3.7,8.5-5.7c1.4-1,2.7-2.1,4-3.2
		c16.2-14.8,21.2-41.7,20.8-62.9l0,0c-0.5,21.4-5.6,48-22.3,62.7c-3.1,2.6-6.4,4.9-9.8,7.1c-2.8,1.8-5.8,3.6-8.7,5.1
		c-8.9,4.8-18.4,8.7-28.1,11.5c-2.3,0.7-4.6,1.3-7,1.8l0,0c2.4-0.4,4.7-0.9,7-1.5C581.9-1162.6,593.9-1167.7,605-1174.4z"/>
</g>
<g id="gA7pAaRpA15huSh-XJ3qT" transform="matrix(1 0 0 1 -393.93 1351.9)">
	<path vector-effect="non-scaling-stroke" d="M600.3-1202.2c0,0.1,0,0.3,0,0.4l0,0C600.3-1202,600.3-1202.1,600.3-1202.2z"/>
</g>
<g id="iIAXNJh55M7Jz-sKS77rZ" transform="matrix(1 0 0 1 -470.74 1436.13)">
	<path vector-effect="non-scaling-stroke" d="M600.6-1202.3l-0.8,0.6v0.1c0.3-0.2,0.6-0.4,0.9-0.7L600.6-1202.3L600.6-1202.3z"/>
</g>
<g id="dMLOt80svIBBLCsFJgdI6" transform="matrix(1 0 0 1 -434.85 1393.89)">
	<path vector-effect="non-scaling-stroke" d="M572.2-1160.6c4.9-1.6,9.7-3.6,14.5-5.6c5.9-2.5,11.8-5.3,17.6-8.1
		c25.3-12.1,32-45,31-70.6l0,0c0.5,24.1-5.7,55-28,68c-1.9,1.1-4.9,2.5-6.9,3.4c-2.3,1.1-4.7,2.2-7,3.2c-4.7,2.1-9.5,4.2-14.3,6.1
		c-3.6,1.4-7.3,2.7-11,3.6l-1.4,0.3c-0.5,0.5-1.1,0.9-1.6,1.3c0.4,0,0.9-0.1,1.3-0.1C568.4-1159.5,570.3-1160,572.2-1160.6z"/>
</g>
<g id="ekhnQq8SsGkCinDGViCVT" transform="matrix(1 0 0 1 -427.5 1414.96)">
	<path vector-effect="non-scaling-stroke" d="M642.6-1212.2c-1.2-11.4-3.6-22.6-7.2-33.5c1,3.2,1.8,6.4,2.6,9.7
		c4.1,16.2,5.1,33,5.6,49.6c0.1,3.5,0.2,7,0.3,10.5c0.1-0.2,0.3-0.4,0.4-0.6c-0.1,0.2-0.3,0.4-0.4,0.6c0.1,3.1,0.1,6.1,0.1,9.2
		l0.3-0.1l-0.3,0.4v-0.3c-6.9,2.5-14,4.4-21.3,5.6c-5.5,1-11.1,1.5-16.7,1.7c-7.5,0.2-14.9-0.2-22.3-1.3c-9.1-1.2-18.1-3.2-26.8-5.8
		c0,0.2-0.1,0.3-0.1,0.5l-0.4-0.7l0.5,0.2c0.5-2.3,0.9-4.5,1.1-6.9c0-0.2,0-0.3,0-0.5l-0.5-0.3l0.5,0.2c0-0.9,0-1.9-0.1-2.8
		l-0.9,0.1l0.9-0.2c0-1.1-0.1-2.2-0.2-3.3c-0.3,0.2-0.7,0.5-1,0.7c0.2,2,0.2,4,0.2,5.9c-0.2,2.4-0.6,4.8-1.2,7.2l-0.1,0.5l0.5,0.2
		c9.9,3.1,20,5.2,30.3,6.4c7.5,0.9,15,1.2,22.5,0.8c6.6-0.4,13.1-1.3,19.5-2.8c5.5-1.2,10.9-2.8,16.2-4.8l0.3-0.1v-0.3
		C644.7-1181.6,644.4-1197,642.6-1212.2l-0.2-0.3L642.6-1212.2z"/>
</g>
<g id="S5mFhwNILCwXUtmZgK5dK" transform="matrix(1 0 0 1 -383.64 1450.36)">
	<path vector-effect="non-scaling-stroke" d="M600.4-1202.2l-0.3,0.1v0.3L600.4-1202.2z"/>
</g>
<g id="c1_s9lfxCP6QqdWlPNnXQ" transform="matrix(1 0 0 1 -471.12 1450.72)">
	<path vector-effect="non-scaling-stroke" d="M600.4-1201.7c0-0.2,0.1-0.3,0.1-0.5l-0.5-0.2L600.4-1201.7z"/>
</g>
<g id="juaBMnI5KY4mcfT3nEqix" transform="matrix(1 0 0 1 -383.67 1440.78)">
	<path vector-effect="non-scaling-stroke" d="M600.5-1202.3c-0.1,0.2-0.3,0.4-0.4,0.6v0.1C600.2-1201.9,600.4-1202.1,600.5-1202.3z"
		/>
</g>
<g id="hCgzsuFhSZFOLR0WST4Oh" transform="matrix(1 0 0 1 -470.05 1443.05)">
	<path vector-effect="non-scaling-stroke" d="M600-1202.1l0.5,0.3l0,0L600-1202.1z"/>
</g>
<g id="N4bDNBUFVsTIeQRTIARzL" transform="matrix(1 0 0 1 -399.8 1350.75)">
	<path vector-effect="non-scaling-stroke" d="M600.3-1202.1c0,0.1,0,0.2,0,0.3l0,0C600.3-1202,600.3-1202,600.3-1202.1z"/>
</g>
<g id="i6awLq1eW60K8xT5-W3rM" transform="matrix(1 0 0 1 -385.29 1404.61)">
	<path vector-effect="non-scaling-stroke" d="M600.2-1202.2l0.2,0.3l0,0L600.2-1202.2z"/>
</g>
<g id="KCZWSOagifVidoyDf8zff" transform="matrix(1 0 0 1 -470.47 1436.55)">
	<path vector-effect="non-scaling-stroke" d="M599.9-1201.7c0.1,0,0.2,0,0.2,0.1c0.2,0,0.4,0,0.6,0c0-0.2,0-0.4,0-0.6L599.9-1201.7z
		"/>
</g>
<g id="_x31_JVwgMoqJsjGn8DRgesEe" transform="matrix(1 0 0 1 -469.84 1436.69)">
	<path vector-effect="non-scaling-stroke" d="M600.1-1201.8c-0.2,0-0.4,0-0.6,0c-0.1,0-0.2,0-0.2-0.1l0.8-0.5
		C600-1202.2,600-1202,600.1-1201.8L600.1-1201.8c0.6-0.4,1.1-0.8,1.7-1.2c-0.6,0.1-1.3,0.2-1.9,0.2c-0.3,0.2-0.6,0.5-0.9,0.7
		l0.1,1.2c0.4-0.2,0.7-0.5,1-0.7L600.1-1201.8z"/>
</g>
<g id="OQnl94vvVQYvWSh-OQFEQ" transform="matrix(1 0 0 1 -470.3 1440.4)">
	<path vector-effect="non-scaling-stroke" d="M599.8-1201.9l0.9-0.1l0,0L599.8-1201.9z"/>
</g>
<g id="pX_VKkyVa-hb2njZ5xp0x" transform="matrix(1 0 0 1 -439.63 1344.76)">
	<path vector-effect="non-scaling-stroke" d="M601-1202.3l-1.1-0.4l-0.4,1.1c0.4,0.1,0.8,0.1,1.1,0.3L601-1202.3z"/>
</g>
<g id="cicjxNtvZgvayojlF2Bmm" transform="matrix(1 0 0 1 -439.4 1344.11)">
	<path vector-effect="non-scaling-stroke" d="M600.9-1201.9l-1.1-0.4l-0.1,0.3l1.1,0.4L600.9-1201.9z"/>
</g>
<g id="kPx6iDRP_Mpi3J2LjpGlI" transform="matrix(1 0 0 1 -439.86 1345.45)">
	<path vector-effect="non-scaling-stroke" d="M600.7-1201.7l0.1-0.2c-0.4-0.1-0.7-0.2-1.1-0.3v0.1L600.7-1201.7z"/>
</g>
</svg>
