<?xml version="1.0" encoding="UTF-8" standalone="no" ?>
<!DOCTYPE svg PUBLIC "-//W3C//DTD SVG 1.1//EN" "http://www.w3.org/Graphics/SVG/1.1/DTD/svg11.dtd">
<svg xmlns="http://www.w3.org/2000/svg" xmlns:xlink="http://www.w3.org/1999/xlink" version="1.1" width="47.349" height="55.699" viewBox="-71.59782268370606 142.27829552715653 47.349 55.699" xml:space="preserve">
<desc>Created with Fabric.js 4.6.0</desc>
<defs>
</defs>
<g transform="matrix(1 0 0 1 -47.92 170.13)" id="5heUJVsunswd4692fCH49"  >
<path style="stroke: rgb(52,52,52); stroke-width: 0; stroke-dasharray: none; stroke-linecap: butt; stroke-dashoffset: 0; stroke-linejoin: miter; stroke-miterlimit: 4; fill: rgb(52,52,52); fill-rule: nonzero; opacity: 1;" vector-effect="non-scaling-stroke"  transform=" translate(-27.85, -27.85)" d="M 51.51 18.001 C 51.504 17.916 51.488 17.834 51.46 17.753 C 51.448 17.719 51.44 17.686 51.425000000000004 17.653 C 51.376000000000005 17.546999999999997 51.316 17.447 51.231 17.362 L 51.231 17.360999999999997 L 51.231 17.360999999999997 C 51.231 17.360999999999997 51.230000000000004 17.359999999999996 51.230000000000004 17.358999999999998 L 34.161 0.293 C 34.075 0.206 33.973 0.145 33.866 0.09599999999999997 C 33.839 0.08299999999999998 33.809 0.07599999999999997 33.78 0.06599999999999998 C 33.694 0.03699999999999998 33.606 0.017999999999999974 33.515 0.012999999999999977 C 33.494 0.011 33.475 0 33.453 0 L 22.177 0 C 18.499 0 15.508 2.992 15.508 6.67 L 15.508 8.344 L 10.844999999999999 8.344 C 7.166999999999999 8.344 4.174999999999999 11.335999999999999 4.174999999999999 15.014 L 4.174999999999999 49.03 C 4.174999999999999 52.708 7.166999999999999 55.699 10.844999999999999 55.699 L 33.522 55.699 C 37.199 55.699 40.190999999999995 52.708 40.190999999999995 49.03 L 40.190999999999995 47.355000000000004 L 44.855 47.355000000000004 C 48.532999999999994 47.355000000000004 51.523999999999994 44.364000000000004 51.523999999999994 40.68600000000001 L 51.523999999999994 18.069 C 51.524 18.045 51.512 18.025 51.51 18.001 z M 34.454 3.414 L 48.109 17.069 L 39.124 17.069 C 36.549 17.069 34.454 14.973999999999998 34.454 12.399 L 34.454 3.414 z M 38.191 49.029 C 38.191 51.603 36.096000000000004 53.698 33.522000000000006 53.698 L 10.845 53.698 C 8.27 53.698 6.175000000000001 51.603 6.175000000000001 49.029 L 6.175000000000001 15.014 C 6.175000000000001 12.439 8.270000000000001 10.344 10.845 10.344 L 16.508000000000003 10.344 L 21.122000000000003 10.344 L 21.122000000000003 20.743 C 21.122000000000003 24.421 24.113000000000003 27.412 27.790000000000003 27.412 L 38.190000000000005 27.412 L 38.190000000000005 46.354 L 38.191 49.029 L 38.191 49.029 z M 36.777 25.412 L 27.791 25.412 C 25.217 25.412 23.123 23.317999999999998 23.123 20.743 L 23.123 11.758 L 36.777 25.412 z M 44.855 45.355 L 40.190999999999995 45.355 L 40.190999999999995 26.412 C 40.190999999999995 26.389 40.178999999999995 26.368 40.17699999999999 26.345 C 40.17099999999999 26.259999999999998 40.15599999999999 26.177999999999997 40.12799999999999 26.096 C 40.11599999999999 26.063 40.10699999999999 26.03 40.09199999999999 25.996 C 40.04399999999999 25.891 39.98299999999999 25.791 39.89799999999999 25.706 L 39.89799999999999 25.706 L 39.89799999999999 25.706 C 39.89799999999999 25.705 39.89699999999999 25.704 39.89699999999999 25.704 L 22.829 8.637 C 22.742 8.551 22.641000000000002 8.49 22.534 8.441 C 22.505 8.428 22.476 8.42 22.445999999999998 8.41 C 22.36 8.38 22.273999999999997 8.362 22.182999999999996 8.357 C 22.161999999999995 8.354999999999999 22.142999999999997 8.344 22.120999999999995 8.344 L 17.506999999999994 8.344 L 17.506999999999994 6.67 C 17.506999999999994 4.095 19.601999999999993 2 22.175999999999995 2 L 32.452999999999996 2 L 32.452999999999996 12.4 C 32.452999999999996 16.078 35.44499999999999 19.07 39.123 19.07 L 49.522 19.07 L 49.522 40.686 C 49.524 43.26 47.429 45.355 44.855 45.355 z" stroke-linecap="round" />
</g>
</svg>