<?xml version="1.0" encoding="utf-8"?>
<!-- Generator: Adobe Illustrator 26.0.2, SVG Export Plug-In . SVG Version: 6.00 Build 0)  -->
<svg version="1.1" id="Слой_1" xmlns="http://www.w3.org/2000/svg" xmlns:xlink="http://www.w3.org/1999/xlink" x="0px" y="0px"
	 viewBox="0 0 356.6 257.1" style="enable-background:new 0 0 356.6 257.1;" xml:space="preserve">
<style type="text/css">
	.st0{fill:#B21533;}
	.st1{fill:#343434;}
	.st2{fill:#811619;}
	.st3{fill:#FFFFFF;}
</style>
<desc>Created with Fabric.js 4.6.0</desc>
<g id="SynGjLUEaaD4C55BcyLmJ" transform="matrix(1 0 0 1 -587.92 214.15)">
	<g>
		<g vector-effect="non-scaling-stroke">
			<path class="st0" d="M618.4,36.4c-16.5,0-30-13.5-30-30v-190c0-16.5,13.5-30,30-30h295.6c16.5,0,30,13.5,30,30v190
				c0,16.5-13.5,30-30,30H618.4z"/>
		</g>
	</g>
</g>
<g id="fIdANkbweUKwt8NiHPwsV" transform="matrix(1 0 0 1 -577.71 289.07)">
	<path vector-effect="non-scaling-stroke" class="st1" d="M770.8-88.6c-3.5,4.7-7.5,9-11.8,12.9c-2.5,2.2-5.3,4.5-8,6.5
		c-13.1,9.7-27.9,16.9-43.1,22.4c7.3,1.7,14.7,3,22.2,4.1c4.2,0.6,8.7,1,13,1.3c1.3,0.1,3,0.2,4.3,0.2c11.6,0.5,23.1-1.5,34.4-3.8
		c1.8-0.4,3.9-0.8,5.7-1.2c3.5-0.8,6.9-1.6,10.4-2.5c0.4-3,0.8-6,1.1-8.9c0.6-6.4,1.1-13,1.1-19.5c0.2-11.4-0.4-22.8-1.7-34
		c-0.2-1.6-0.4-3.2-0.7-4.8c1.7,9.6,2.7,19.4,3,29.1c0.1,2.3,0.1,5,0.2,7.3c0.1,10.2-0.6,20.5-1.9,30.6c6.2-0.7,12.3-2.5,17.9-5.2
		c0.9-0.5,2-1,2.9-1.6c0.6-0.3,1.2-0.7,1.7-1.2c0.9-1.1,1.6-2.3,2-3.7c1-3.5,1.4-7.2,1.3-10.8c0-10.3-1.6-20.6-3.4-30.7
		c-1.2-6.5-2.5-13-4.1-19.5c-0.8-3.5-2-7.1-4.5-9.6c-1-1-2.2-1.8-3.5-2.4c-3.9-1.8-8.4-2-12.6-2.6c-0.9,2.5-1.9,4.9-2.9,7.3
		C787.4-114.7,780.1-101,770.8-88.6z"/>
</g>
<g id="S8o4PRW6pxYLDfP-uWUv3" transform="matrix(1 0 0 1 -592.15 285.06)">
	<path vector-effect="non-scaling-stroke" class="st2" d="M764.2-74.3c-0.8,0.7-2.2,1.6-3.1,2.3c-0.4,0.3-1.2,0.8-1.6,1.1
		c-1.5,1-3.3,2.2-4.8,3.1c-4.3,2.7-8.7,5.2-13.2,7.6c-6.5,3.5-13.2,6.8-20,9.9c0.2,2.4,0.3,4.9,0.5,7.3c10.1-3.7,19.8-8.4,29-13.9
		c5.9-3.5,11.5-7.3,16.8-11.6c5.3-4.3,10.1-9.1,14.4-14.4c5.1-6.4,9.7-13.2,13.8-20.3c5.5-9.2,10.2-19.4,14.6-29h-0.2
		c-2.6-0.3-5-0.7-7.1-2c-9,18-18.8,35.9-31.3,51.7C769.8-79.5,767.2-76.8,764.2-74.3z"/>
</g>
<g id="wEBgIfIlhX9t7MwGWthBA" transform="matrix(1 0 0 1 -583.41 136.6)">
	<path vector-effect="non-scaling-stroke" class="st2" d="M796-83.7c5-1.3,9.9-3,14.6-4.9c0.8-0.3,1.5-0.6,2.2-1
		c-1.7-2.2-3.5-4.3-5.4-6.2c-6.7,2-13.6,3.5-20.5,4.5c-7.3,1.1-14.8,1.7-22.2,1.8c-1.5,0-3.2,0-4.7-0.1c-0.9-0.1-3.2-0.2-4-0.3
		l-2.7-0.3c-10-1.1-19.9-3.6-29.2-7.4c-1.5,1.4-3,2.9-4.3,4.4c13.7,7.9,29.9,13.1,45.8,13.4C775.8-79.7,786-81,796-83.7z"/>
</g>
<g id="btEknb8t7OonPkbH5ZFjY" transform="matrix(1 0 0 1 -583.75 169.5)">
	<path vector-effect="non-scaling-stroke" class="st3" d="M761-101.3c-5.7-0.7-11.3-2.1-16.5-4.4c-1.6-0.4-3.3-0.8-5-1
		c-1.1-0.1-2.3-0.1-3.4,0.1c-1.7,0.3-3.3,0.8-4.9,1.5c-6.3,3.1-10,9.9-9.3,16.9c0.8,7,5.8,12.8,12.7,14.5h-0.2l1.7,0.5
		c5.9,1.3,11.9,2,18,2.2c6,0.3,12.7,0.3,18.7,0.1l3.5-0.1c1.3-0.1,3.3-0.2,4.7-0.2l3.5-0.3c1.1-0.1,2.3-0.2,3.5-0.4
		c3.3-0.3,6.5-0.9,9.7-1.7c-0.6,0.1-1.3,0.1-2,0.2c0.6-0.1,1.2-0.2,1.8-0.3c1.5-0.3,2.9-0.9,4.3-1.6c6.8-3.6,10.2-11.3,8.4-18.7
		s-8.4-12.7-16.1-12.8c-1.9,0-3.8,0.3-5.7,0.8c-3.3,1.1-6.6,2.1-10,2.9C772.7-101.6,766.8-100.7,761-101.3z M744.1-84.2
		c-2.8,0-5.9-1-7.4-3.4c3.1,2.4,7.5,2.8,11.2,1.6c1.3-0.4,2.5-0.9,3.7-1.6C749.7-85.4,747-84.2,744.1-84.2z M790-86
		c1.3-0.4,2.5-0.9,3.7-1.6c-1.9,2.1-4.6,3.4-7.5,3.4c-2.8,0-5.9-1-7.4-3.4C781.9-85.1,786.3-84.8,790-86z"/>
</g>
<g id="EVbvZGNxiULYa092n1zPT" transform="matrix(1 0 0 1 -583.97 123.2)">
	<path vector-effect="non-scaling-stroke" class="st1" d="M761.9-77.3c8.9,0.2,17.9-0.4,26.8-1.6c6.4-0.9,12.9-2,19.3-3.5
		c-22.8-22.8-59.6-23.6-83.4-1.8c6.5,2.2,13.2,3.9,20,5.1C750.3-78.1,756.1-77.5,761.9-77.3z"/>
</g>
<g id="Y4gJPCiH1dHK610Rt1jS1" transform="matrix(1 0 0 1 -633.54 254.48)">
	<path vector-effect="non-scaling-stroke" class="st1" d="M786.4-103.6c-2,0.9-4.2,1.4-6.4,1.4c-1.8,0-4.3-0.2-6.1-0.3
		c-2.6-0.1-5.2-0.1-7.8,0.2c-0.6,0.1-1.2,0.2-1.8,0.3l-1.2,0.3c-1.9,0.5-3.8,1.2-5.6,2.1c-1,0.5-2.3,1.1-3.3,1.6
		c-8.9,4.7-17.7,9.7-26.6,14.2v0.6c0.1,1.7,0,3.4-0.2,5.1c0.2-1.9,0.2-3.9,0-5.8c-0.2-2.4-0.5-4.9-0.9-7.2c-0.6-3.4-1.2-6.7-2-10
		c-1.9-7.5-5.1-14.7-9.5-21.1l-0.2-0.3l0.3-0.3c3-3.4,7.2-8.5,8.2-12.8c0.2-0.8,0.2-1.7-0.1-2.5c-0.3-0.8-1-1.3-1.8-1.5
		c-2.7-0.6-6.3,1.6-8.4,3.2l-0.8,0.6c-0.3-1.9-0.7-3.8-1.2-5.7c-0.8-3.1-1.9-6.2-3.3-9.1c-4.9-9.9-12.3-8.4-16.8,0.9
		c-3,6.3-4.9,16.9-2.1,23.5c0.3,0.7,0.8,1.4,1.3,2c0.4,0.5,1.1,1.4,1.5,1.9c1.1,1.2,2.2,2.4,3.3,3.5c1.2,1.1,2.4,2.2,3.8,3
		c-0.5-0.2-0.9-0.5-1.4-0.8c-1.4,16.8-2.9,51.5,7.4,64.9c3,3.8,6.5,5.2,11.2,5.2c13.7,0,28.9-10,39.7-17.9
		c4.5-3.3,8.9-6.9,13.1-10.6c0.2-1,0.5-2,0.7-3c-0.2,1-0.4,1.9-0.6,2.9l0.6-0.5l-0.6,0.6c-1.8,8.5-3.4,17-4.8,25.6
		c-0.9,5.2-1.5,10.4-1.8,15.6c0,4.7,0.3,9.4,0.6,14.1c4.4-2.2,8.7-4.5,13-6.8c4.4-2.4,8.9-4.9,13.2-7.5c5.4-3.2,10.7-6.7,15.7-10.5
		c1-0.8,1.9-1.6,2.8-2.5c4.8-5,9.2-10.4,13-16.2c8.9-13,16.7-26.6,24.3-40.4c-0.5-0.3-1-0.7-1.5-1.1c-3.1-2.8-4.4-7.1-4.6-11.2
		c-14.7,6.4-31.4,6.6-46.3,0.6C792.7-110.7,790.8-105.8,786.4-103.6z"/>
</g>
<g id="b_GVxly_EWyzpJy-ifD_p" transform="matrix(1 0 0 1 -591.25 336.65)">
	<path vector-effect="non-scaling-stroke" class="st2" d="M766.7-87.7c-5.8,0-11.6-0.3-17.4-1.1c-6.7-0.9-13.4-2.1-20-3.5
		c-2.7-0.5-5.3-1.1-8-1.7l0.1,0.9c0.2,3.1,0.5,6.2,0.7,9.2c3.5,0.5,7.1,1,10.6,1.3c15.6,1.6,31.4,1.8,47.1,0.6
		c6.4-0.5,12.9-1.3,19.3-2.3c3.5-0.6,7.1-1.2,10.6-2c0.6-3.2,1.2-6.5,1.7-9.8c-9.4,2.9-19,5.1-28.7,6.7
		C777.3-88.4,772-87.9,766.7-87.7z"/>
</g>
<g id="SBDSbJgxsXwgAyUBTx2lB" transform="matrix(1 0 0 1 -517.64 160)">
	<path vector-effect="non-scaling-stroke" class="st2" d="M769.2-74.9c0.2,0,1.2,0.1,1.4,0c0.6,0,1.2-0.2,1.7-0.5
		c3.8-2.6,5.1-12.3,5.7-16.7c0.2-1.3,0.3-2.7,0.4-4c-2,0-4,0-6-0.1c-2.8-0.1-5.6-0.6-8.3-1.3c-3.6-1.1-7-2.7-10.2-4.8
		c3.4,7.8,5.2,16.3,5.2,24.9v0.8c1.4,0.5,2.9,0.9,4.4,1.1C765.5-75.3,767.4-75.1,769.2-74.9z"/>
</g>
<g id="sQosh8QGm8BI7WHuJmlG9" transform="matrix(1 0 0 1 -516.21 191.54)">
	<path vector-effect="non-scaling-stroke" class="st2" d="M754.6-78.9c1.7,2,3.6,3.8,5.8,5.3c0.3,0.2,0.7,0.4,1.1,0.6
		c5.6,2.1,13.7-8.6,16.6-12.6c0.8-1.1,1.6-2.2,2.3-3.3c-0.9,0-1.8,0-2.8-0.1c-1.9-0.2-3.9-0.5-5.8-0.9c-3.3-0.6-6.3-2.4-8.4-5
		c-2.5-2.9-4.5-6.2-5.9-9.8c-0.5,7.4-2.4,14.7-5.5,21.4C752.6-81.6,753.5-80.2,754.6-78.9z"/>
</g>
<g id="knqPCt8cmjWcgNM7189Gk" transform="matrix(1 0 0 1 -584.88 181.53)">
	<path vector-effect="non-scaling-stroke" class="st1" d="M814.3-134.5c-3.5,1.8-7.1,3.3-10.8,4.7c-11.7,4.2-24.1,6.4-36.6,6.3
		c-16-0.3-32.5-5.8-45.8-14.5c-9.5,10.8-14.8,24.6-14.9,39c-0.1,45.7,47.9,73.5,88,52.6C813.6-56.5,826.4-77,826.3-99
		C826.3-111.8,822-124.3,814.3-134.5z M801.5-86c-0.7,0.3-1.4,0.6-2.1,0.8c-4.5,1.4-9.1,2.3-13.8,2.8c-6.2,0.7-12.5,1-18.8,1
		c-10.2-0.1-20.5-0.5-30.3-3.4c-1.1-0.3-2.2-0.8-3.3-1.2l-0.9-0.4c-6.3-2.6-10.4-8.7-10.4-15.5c-0.1-6.8,3.9-13,10.1-15.7
		c3.3-1.5,7-1.8,10.5-0.9c1,0.2,2.1,0.6,3.1,0.9l-0.2-0.1c5.5,1.7,11.2,2.8,16.9,3.4c4.3,0.3,8.6,0.1,12.8-0.7
		c3.3-0.5,6.6-1.2,9.9-1.9c1.5-0.3,2.9-0.6,4.4-1c1.9-0.7,3.8-1.1,5.9-1.3c8.4-0.3,15.9,5.6,17.4,13.9C814.2-97,809.5-88.8,801.5-86
		L801.5-86z"/>
</g>
<g id="wFx6RBfLFOl5sSt-a5TTO" transform="matrix(1 0 0 1 -585.23 171.04)">
	<path vector-effect="non-scaling-stroke" d="M821.1-62.7c3.1-6.8,5-14,5.5-21.4l-0.1-0.2c0,0,0,0.1,0.1,0.1
		c0.1-1.2,0.1-2.4,0.1-3.6h-0.1h0.1v-0.8c0-8.6-1.8-17-5.2-24.9l-0.3-0.2l0.3,0.2c-0.3-0.8-0.7-1.5-1.1-2.3l-0.7-1.4l-0.2-0.3
		l-0.5-1c-0.2-0.4-0.8-1.6-1.1-1.9c-0.3-0.4-0.9-1.5-1.2-1.9c-15.9-24.4-46.9-34-73.7-22.7c-45,19.2-50.3,79.2-10.3,106.7
		c3.6,2.5,7.4,4.5,11.5,6.1c0-0.1,0-0.3,0-0.4c0,0.2,0,0.3,0,0.5c14.9,6,31.6,5.8,46.3-0.6c0-0.2,0-0.4,0-0.7c0,0.2,0,0.4,0,0.7
		c10.7-4.7,19.8-12.4,26.1-22.2l1.2-1.9c0.3-0.4,0.9-1.5,1.1-1.9c0.2-0.4,0.5-0.9,0.7-1.3C820.2-60.9,820.6-61.8,821.1-62.7
		c0-0.1-0.1-0.2-0.1-0.4L821.1-62.7z M794.5-35.9c-40.1,21-88-6.9-88-52.6c0.1-14.4,5.4-28.2,14.8-39l-0.9-0.6l0.9,0.5
		c1.4-1.5,2.8-3,4.3-4.4l-0.7-0.3l0.8,0.3c23.8-21.8,60.5-21,83.3,1.8l0.5-0.1l-0.5,0.2c1.9,1.9,3.8,4,5.4,6.2l0.6-0.3l-0.6,0.3
		c7.8,10.2,12,22.7,12,35.5C826.8-66.5,813.9-46.1,794.5-35.9z"/>
</g>
<g id="S944obPZ416OqSlpMK0Mt" transform="matrix(1 0 0 1 -583.94 131.73)">
	<path vector-effect="non-scaling-stroke" d="M756.4-85c0.9,0.1,3.2,0.2,4,0.3c1.5,0.1,3.2,0.1,4.7,0.1c7.4,0,14.8-0.6,22.2-1.8
		c6.9-1,13.8-2.5,20.5-4.5l0,0c-6.3,1.5-12.8,2.6-19.3,3.5c-8.9,1.2-17.8,1.8-26.8,1.6c-5.8-0.2-11.6-0.8-17.3-1.8
		c-6.8-1.2-13.5-2.9-20-5.1l0,0c9.4,3.8,19.2,6.3,29.2,7.4L756.4-85z"/>
</g>
<g id="NBeYfVd5IbkkBYUPxywlI" transform="matrix(1 0 0 1 -541.98 129.37)">
	<path vector-effect="non-scaling-stroke" d="M766.5-88.7l-0.5,0.1l0,0L766.5-88.7z"/>
</g>
<g id="FP4vI6BrOzZhvHJrk8sUb" transform="matrix(1 0 0 1 -626.06 127.56)">
	<path vector-effect="non-scaling-stroke" d="M765.9-88.8l0.7,0.3l0,0L765.9-88.8z"/>
</g>
<g id="Ts0-cO8Hi_s5b8Biq-jeD" transform="matrix(1 0 0 1 -583.42 139.51)">
	<path vector-effect="non-scaling-stroke" d="M802.1-87.8c3.7-1.3,7.3-2.9,10.8-4.7l0,0c-0.7,0.3-1.5,0.7-2.2,1
		c-4.8,2-9.7,3.6-14.6,4.9c-9.9,2.7-20.2,4-30.5,4c-15.9-0.3-32.1-5.5-45.8-13.4v0.1c13.4,8.8,29.9,14.2,45.8,14.5
		C778-81.3,790.3-83.5,802.1-87.8z"/>
</g>
<g id="oFAVrz1UiOwlBfEQ1TKVx" transform="matrix(1 0 0 1 -630.5 131.92)">
	<path vector-effect="non-scaling-stroke" d="M765.8-88.9l0.9,0.6v0L765.8-88.9z"/>
</g>
<g id="_x31_qSvj1MD7YNb_x5F_e-G7JTTC" transform="matrix(1 0 0 1 -536.54 135.56)">
	<path vector-effect="non-scaling-stroke" d="M766.5-88.8l-0.6,0.3l0,0L766.5-88.8z"/>
</g>
<g id="_Tuky0s9Sabt40WyafSmE" transform="matrix(1 0 0 1 -617.46 167.83)">
	<path vector-effect="non-scaling-stroke" d="M765.8-72.6c0.7,0.3,1.5,0.5,2.2,0.7h0.2c-7.8-1.9-13.2-9.1-12.8-17.1
		c0.4-8,6.3-14.7,14.3-15.9c1.1-0.2,2.3-0.3,3.4-0.1c1.7,0.2,3.4,0.6,5,1H778c-1-0.3-2.1-0.6-3.1-0.9c-3.5-0.9-7.2-0.6-10.5,0.9
		c-6.2,2.7-10.2,8.9-10.1,15.7c0.1,6.8,4.2,12.9,10.4,15.5c-0.8-0.4-1.5-0.8-2.1-1.3C763.6-73.5,764.7-73,765.8-72.6z"/>
</g>
<g id="UJiiqoHamgoff4HqlycpG" transform="matrix(1 0 0 1 -549.9 167.96)">
	<path vector-effect="non-scaling-stroke" d="M777.4-93.1c-2.1-7.7-9.2-12.9-17.1-12.6c-2,0.1-4,0.6-5.8,1.3l1.3-0.3l-1.1,0.4
		c1.8-0.5,3.7-0.8,5.7-0.8c7.7,0.1,14.3,5.3,16.1,12.8s-1.7,15.2-8.4,18.7c-1.4,0.7-2.8,1.3-4.3,1.6c-0.6,0.1-1.2,0.2-1.8,0.3
		c0.7,0,1.3-0.1,1.9-0.2l0.6-0.2c0.9-0.3,1.9-0.6,2.8-0.9c0.5-0.2,1.1-0.5,1.6-0.8c-0.2,0.1-0.3,0.2-0.5,0.3
		c-0.5,0.3-1.1,0.6-1.7,0.9C775-75.4,779.8-84.4,777.4-93.1z"/>
</g>
<g id="KrHEbHwR4kE7rcm1eORif" transform="matrix(1 0 0 1 -583.73 154.65)">
	<path vector-effect="non-scaling-stroke" d="M744.5-90.8c5.3,2.2,10.8,3.7,16.5,4.4c5.8,0.6,11.7-0.3,17.4-1.6
		c3.4-0.8,6.7-1.7,10-2.9l-1.6,0.4l1.4-0.5c-1.5,0.3-2.9,0.7-4.4,1c-3.3,0.7-6.6,1.4-9.9,1.9c-4.2,0.7-8.5,1-12.8,0.7
		c-5.7-0.6-11.4-1.7-16.9-3.4l0.2,0.1L744.5-90.8L744.5-90.8z"/>
</g>
<g id="amdY08KEKRCbtdBzGt4Xu" transform="matrix(1 0 0 1 -605.52 152.49)">
	<path vector-effect="non-scaling-stroke" d="M766.4-88.6l-0.2-0.1h0.1L766.4-88.6z"/>
</g>
<g id="_x38_G7Qvej-f0-B3vKI-aAl4" transform="matrix(1 0 0 1 -561.79 152.34)">
	<path vector-effect="non-scaling-stroke" d="M766.5-88.6l1.1-0.4l-1.3,0.3l-1.4,0.5L766.5-88.6z"/>
</g>
<g id="kwSh6sLLHpj7IC1BQ7aQA" transform="matrix(1 0 0 1 -584.29 186.23)">
	<path vector-effect="non-scaling-stroke" d="M788.4-88.4c-1.1,0.1-2.4,0.2-3.5,0.4l-3.5,0.3c-1.3,0.1-3.4,0.2-4.7,0.2l-3.5,0.1
		c-6,0.2-12.7,0.1-18.7-0.1c-6-0.2-12-1-18-2.2l-1.7-0.4c-1.1-0.2-2.2-0.5-3.2-0.9l0.9,0.4c1.1,0.5,2.2,0.9,3.3,1.2
		c9.8,2.9,20.2,3.3,30.4,3.4c6.3,0,12.6-0.3,18.8-1c4.7-0.5,9.3-1.4,13.8-2.8c0.7-0.2,1.4-0.5,2.1-0.8c-0.9,0.3-1.8,0.5-2.8,0.7
		C794.9-89.3,791.7-88.7,788.4-88.4z"/>
</g>
<g id="RIf5FfHk3ANcmCQzl8whd" transform="matrix(1 0 0 1 -618.35 183.46)">
	<path vector-effect="non-scaling-stroke" d="M766.7-88.2c-1.1-0.4-2.2-0.9-3.1-1.6c0.6,0.5,1.4,1,2.1,1.4c1,0.4,2.1,0.7,3.2,0.9
		C768.2-87.7,767.4-88,766.7-88.2z"/>
</g>
<g id="S2OB9n8jWpL4agn_A8xnL" transform="matrix(1 0 0 1 -549.92 183.86)">
	<path vector-effect="non-scaling-stroke" d="M768.7-89.6c-0.5,0.3-1,0.6-1.6,0.8c-0.9,0.4-1.8,0.7-2.8,0.9l-0.6,0.2
		c1-0.1,1.9-0.4,2.8-0.7c0.6-0.3,1.1-0.5,1.7-0.9C768.4-89.4,768.6-89.5,768.7-89.6z"/>
</g>
<g id="Z-Kzhk2M-jQcoP6cuhe7u" transform="matrix(1 0 0 1 -605.81 172.26)">
	<path vector-effect="non-scaling-stroke" d="M758.8-90.4c1.5,2.4,4.7,3.4,7.4,3.4c2.9,0,5.6-1.3,7.5-3.4c-1.2,0.7-2.4,1.2-3.7,1.6
		C766.4-87.6,761.9-87.9,758.8-90.4z"/>
</g>
<g id="WCimBdPSyjByde5K63sCh" transform="matrix(1 0 0 1 -563.73 172.26)">
	<path vector-effect="non-scaling-stroke" d="M766.2-87c2.9,0,5.6-1.3,7.5-3.4c-1.2,0.7-2.4,1.2-3.7,1.6c-3.7,1.1-8.1,0.8-11.2-1.6
		C760.3-87.9,763.4-86.9,766.2-87z"/>
</g>
<g id="ZojmyMxZepAvHQjP1jbB2" transform="matrix(1 0 0 1 -505.04 152.22)">
	<path vector-effect="non-scaling-stroke" d="M765.9-89c0,0.2,0,0.4,0,0.6h0.6L765.9-89z"/>
</g>
<g id="mBnkfivc4pWQ8HzRahhOp" transform="matrix(1 0 0 1 -517.19 160.43)">
	<path vector-effect="non-scaling-stroke" d="M763.7-98c2.7,0.7,5.5,1.2,8.3,1.3c2,0.1,4,0.2,6,0.1c0-0.2,0-0.4,0-0.6l0.6,0.6H778
		c-0.1,1.3-0.2,2.7-0.4,4c-0.6,4.5-1.9,14.1-5.7,16.7c-0.5,0.3-1.1,0.5-1.7,0.5c-0.2,0-1.2,0-1.4,0c-1.9-0.1-3.8-0.3-5.7-0.6
		c-1.5-0.2-3-0.6-4.4-1.1l0,0c2.5,1.1,5.1,1.8,7.7,2.1c0.7,0.1,1.6,0.2,2.3,0.3c0.2,0,1.3,0.1,1.5,0.1c0.8,0,1.5-0.2,2.1-0.6
		c5.1-3.2,6.5-16.3,6.8-22v-0.6h-0.6c-4.4,0.2-8.8,0-13.1-0.7c-0.9-0.2-1.9-0.4-2.8-0.7c-3.2-1-6.3-2.2-9.2-3.8v0
		C756.6-100.7,760.1-99.1,763.7-98z"/>
</g>
<g id="zFCTekKBVprYQcsqm7pLK" transform="matrix(1 0 0 1 -530.08 146.24)">
	<path vector-effect="non-scaling-stroke" d="M766.4-88.5L766.4-88.5l-0.3-0.2L766.4-88.5z"/>
</g>
<g id="_x2D__x5F_3GdvN7L7sbzc1EjfZgM" transform="matrix(1 0 0 1 -524.77 171.98)">
	<path vector-effect="non-scaling-stroke" d="M766.2-88.6L766.2-88.6L766.2-88.6L766.2-88.6z"/>
</g>
<g id="_x34_CvoCkJK29ZyWBqFXpYck" transform="matrix(1 0 0 1 -515.03 191.9)">
	<path vector-effect="non-scaling-stroke" d="M776.6-90.4c-1.6-0.1-3.2-0.3-4.8-0.6c-0.9-0.2-1.9-0.3-2.8-0.5
		c-5.7-1.7-10-8.3-12.6-13.4l0,0c1.4,3.6,3.4,6.9,5.9,9.8c2.1,2.6,5.1,4.4,8.4,4.9c1.9,0.4,3.8,0.7,5.8,0.9c0.9,0.1,1.8,0.1,2.8,0.1
		c0.2-0.3,0.4-0.7,0.7-1l0.6,0.8l-0.3,0.1c-0.3,0-0.7,0.1-1,0.1c-0.8,1.1-1.5,2.2-2.3,3.3c-3,4-11.1,14.6-16.6,12.6
		c-0.4-0.1-0.7-0.4-1.1-0.6c-2.1-1.5-4.1-3.3-5.8-5.3c-1.1-1.3-1.9-2.7-2.5-4.2l0,0c0.8,3.2,3.4,6.2,5.8,8.4c0.6,0.5,1.4,1.2,2,1.7
		c0.7,0.6,1.6,1,2.6,1.1c7,0.7,16-12,19.5-17.4l0.8-1.2l-1.4,0.4C779-90.4,777.8-90.3,776.6-90.4z"/>
</g>
<g id="bwqK5d2zHvLhsHqLDO5Dv" transform="matrix(1 0 0 1 -501.35 190.83)">
	<path vector-effect="non-scaling-stroke" d="M766.9-88.3l-0.6-0.8c-0.2,0.3-0.4,0.7-0.7,1c0.3,0,0.7,0,1-0.1L766.9-88.3z"/>
</g>
<g id="R9p3y0WfcmzXStsVP6XRc" transform="matrix(1 0 0 1 -530.42 196.89)">
	<path vector-effect="non-scaling-stroke" d="M766.2-88.8c0,0.1,0,0.2,0.1,0.3l0,0L766.2-88.8z"/>
</g>
<g id="C-92MiZmNl6r3yqGfuFw-" transform="matrix(1 0 0 1 -524.93 175.57)">
	<path vector-effect="non-scaling-stroke" d="M766.3-88.6L766.3-88.6c0,0-0.1-0.1-0.1-0.1L766.3-88.6z"/>
</g>
<g id="BZfjnqOgOSUcAW9cwif5Y" transform="matrix(1 0 0 1 -639.56 243.55)">
	<path vector-effect="non-scaling-stroke" d="M760.4-87.1c1-0.5,2.2-1.1,3.3-1.6c1.8-0.8,3.7-1.5,5.6-2.1l1.2-0.3
		c0.6-0.1,1.2-0.2,1.8-0.3c2.6-0.3,5.2-0.4,7.8-0.2c1.8,0.1,4.3,0.2,6.1,0.3c2.2,0,4.4-0.4,6.4-1.4c4.4-2.2,6.3-7.2,6.2-11.8l0,0
		c-0.2,4.5-2.2,9.2-6.5,11.2c-1.9,0.8-3.9,1.2-6,1.1c-1.7-0.1-4.3-0.3-6.1-0.4c-3.3-0.3-6.6-0.1-9.8,0.5c-2.4,0.5-4.8,1.3-7,2.4
		c-1.4,0.7-3,1.5-4.4,2.2c-8.5,4.6-16.8,9.6-25,14.6l0,0C742.7-77.4,751.4-82.4,760.4-87.1z"/>
</g>
<g id="goCNcztxnEWwuUvL8LILY" transform="matrix(1 0 0 1 -607.2 227.49)">
	<path vector-effect="non-scaling-stroke" d="M766.2-88.9c0,0.1,0,0.3,0,0.4l0,0C766.2-88.6,766.2-88.7,766.2-88.9z"/>
</g>
<g id="n9WLTlHF2jr-ykqG_XpTe" transform="matrix(1 0 0 1 -686.98 205.6)">
	<path vector-effect="non-scaling-stroke" d="M766.7-88.2c-0.1-0.3-0.1-0.6-0.2-0.9l-0.8,0.5L766.7-88.2z"/>
</g>
<g id="_x33_YuGCiAmKbKHXRG25aISc" transform="matrix(1 0 0 1 -692.42 224.84)">
	<path vector-effect="non-scaling-stroke" d="M756.4-87.1c0.4,0.3,0.9,0.6,1.4,0.8c-1.4-0.8-2.7-1.9-3.8-3c-1.2-1.1-2.3-2.3-3.4-3.5
		c-0.5-0.5-1.1-1.3-1.5-1.9c-0.5-0.6-1-1.3-1.3-2c-2.8-6.6-0.9-17.1,2.1-23.5c4.5-9.3,11.9-10.8,16.8-0.9c1.4,2.9,2.5,5.9,3.3,9.1
		c0.5,1.9,0.9,3.8,1.2,5.7l0.8-0.6c2.1-1.6,5.7-3.8,8.4-3.2c0.8,0.2,1.5,0.8,1.8,1.5c0.3,0.8,0.3,1.7,0.1,2.5
		c-1.1,4.4-5.2,9.5-8.2,12.8l-0.3,0.3l0.2,0.3c4.4,6.4,7.6,13.5,9.5,21.1c0.8,3.3,1.4,6.7,2,10c0.4,2.4,0.7,4.8,0.9,7.2
		c0.2,1.9,0.2,3.9,0,5.8c0.2-1.7,0.3-3.4,0.2-5.1v-0.6l-0.2,0.1l0.2-0.1c-0.1-2.5-0.4-4.9-0.7-7.4c-0.3-2.5-0.7-4.8-1.1-7.2
		c-1.6-8.2-4.7-16.1-9.1-23.2c-0.2-0.3-0.4-0.6-0.6-0.9l-0.3,0.3v-0.6l0.2,0.3c3.1-3.5,7.2-8.5,8.3-13c0.3-1.1,0.2-2.2-0.2-3.2
		c-0.9-1.7-2.8-2.7-4.7-2.2c-1.4,0.2-2.7,0.7-3.9,1.3c-0.9,0.5-1.8,1-2.7,1.6c0.1,0.3,0.1,0.6,0.2,0.9l-0.9-0.4l0.8-0.5
		c-1.2-5.9-3.2-12.9-7-17.4c-2.5-2.8-5.9-4-9.4-2.4c-6.8,3.4-9.5,14.9-9.7,21.9c-0.1,3.9,0.2,8.7,3,11.8c1.6,1.9,3.3,3.7,5.1,5.3
		C754.7-88.4,755.6-87.8,756.4-87.1L756.4-87.1L756.4-87.1z"/>
</g>
<g id="dKHkb6inJbO1mz4NtUJre" transform="matrix(1 0 0 1 -683.76 220.66)">
	<path vector-effect="non-scaling-stroke" d="M766.1-88.3l0.3-0.3l-0.2-0.3L766.1-88.3z"/>
</g>
<g id="a38bMh4eijdL52NSkbRGk" transform="matrix(1 0 0 1 -672.16 259.42)">
	<path vector-effect="non-scaling-stroke" d="M766.3-88.7L766.3-88.7l-0.2,0.1L766.3-88.7z"/>
</g>
<g id="_x32_pofqcW2h7m7QnhpdgjUw" transform="matrix(1 0 0 1 -630.39 267.76)">
	<path vector-effect="non-scaling-stroke" d="M765.9-88.4L765.9-88.4l0.6-0.5L765.9-88.4z"/>
</g>
<g id="qY4XpId6CL88k8OurY4sM" transform="matrix(1 0 0 1 -667.39 262.08)">
	<path vector-effect="non-scaling-stroke" d="M789.7-72c-10.8,7.9-26,17.9-39.7,17.9c-4.7-0.1-8.2-1.5-11.2-5.2
		c-10.4-13.4-8.8-48.1-7.4-64.9l0,0c-2.1,17.1-4.2,51.7,6.5,65.6c3.1,4.1,7,5.6,12.1,5.7c16.1,0.1,35.1-14.1,46.9-24.2
		c2-1.7,4-3.5,5.9-5.4v-0.1C798.6-78.9,794.2-75.4,789.7-72z"/>
</g>
<g id="zhuMsYFKvaZUlXhAzGRU7" transform="matrix(1 0 0 1 -702.22 226.41)">
	<path vector-effect="non-scaling-stroke" d="M766.2-88.6L766.2-88.6L766.2-88.6z"/>
</g>
<g id="zJ6SiCQlgtH9l8NEoZhrB" transform="matrix(1 0 0 1 -539.52 277.94)">
	<path vector-effect="non-scaling-stroke" d="M749.5-128.3c0.5,0.4,1,0.8,1.5,1.1c0-0.1,0.1-0.1,0.1-0.2l-0.1,0.2
		c2.1,1.3,4.5,1.7,7.1,2h0.2l0.1-0.3c0,0.1-0.1,0.2-0.1,0.3c4.2,0.6,8.7,0.8,12.6,2.6c1.3,0.6,2.5,1.4,3.5,2.4
		c2.6,2.6,3.8,6.1,4.5,9.6c1.5,6.5,2.9,13,4.1,19.5c1.8,10.1,3.4,20.4,3.4,30.7c0.1,3.7-0.3,7.3-1.3,10.8c-0.4,1.4-1.1,2.6-2,3.7
		c-0.5,0.5-1.1,0.9-1.7,1.2c-0.9,0.5-2,1.1-2.9,1.6c-5.6,2.8-11.7,4.5-17.9,5.2l0,0c5.9-0.5,11.7-1.9,17.1-4.3c0.6-0.2,1.5-0.7,2-1
		c0.5-0.3,1.4-0.7,2-1c0.7-0.3,1.3-0.8,1.9-1.3c0.6-0.5,1-1.2,1.4-1.9c5.1-9.6,1.1-33.2-0.8-44.1c-1.2-6.5-2.6-13.1-4.2-19.5
		c-0.8-3.7-2.1-7.4-4.9-10.1c-2.3-2.1-5.1-3.4-8.1-3.9c-2.9-0.6-5.9-0.8-8.8-1.1c-3-0.3-5.8-0.7-8.2-2.6c-3.3-2.6-4.7-7-5-11.1l0,0
		C745.1-135.4,746.4-131.1,749.5-128.3z"/>
</g>
<g id="_x33_Sgj2-gFnUgivJKtEAHkd" transform="matrix(1 0 0 1 -560.9 226.75)">
	<path vector-effect="non-scaling-stroke" d="M766.3-88.3L766.3-88.3c0-0.2,0-0.5,0-0.7C766.2-88.8,766.2-88.5,766.3-88.3z"/>
</g>
<g id="_zG7MTxc4_mkV-Xik-yMN" transform="matrix(1 0 0 1 -634.46 299.52)">
	<path vector-effect="non-scaling-stroke" d="M763.9-64.8l-0.4,0.2L763.9-64.8c-0.3-4.7-0.6-9.4-0.6-14.1c0.3-5.2,0.9-10.4,1.8-15.6
		c1.4-8.6,3-17.1,4.8-25.6l-0.1,0.1c-2.7,11.6-5.2,23.2-6.8,35c-0.2,2-0.5,4-0.5,6.1c-0.1,1.2,0,2.5,0,3.7c0.2,6,0.5,12.1,0.9,18.1
		l0.9-0.3C764.3-60,764.1-62.4,763.9-64.8z"/>
</g>
<g id="vuTCoWWTeUEdXqcOjEDPk" transform="matrix(1 0 0 1 -635.59 341.58)">
	<path vector-effect="non-scaling-stroke" d="M766.4-88.4v-0.4l-0.4-0.1L766.4-88.4z"/>
</g>
<g id="_BlaRXPuh1FLjLBPgm5K0" transform="matrix(1 0 0 1 -547.75 339.19)">
	<path vector-effect="non-scaling-stroke" d="M766.4-88.8l-0.3,0.1l-0.1,0.3L766.4-88.8z"/>
</g>
<g id="UOocYvMu3Xwn2jec48s25" transform="matrix(1 0 0 1 -591.27 337.1)">
	<path vector-effect="non-scaling-stroke" d="M812.2-96.8l-1,0.3c-0.5,3.3-1,6.6-1.7,9.8l0.3-0.1l-0.4,0.4l0.1-0.3
		c-3.5,0.8-7,1.4-10.6,2c-6.4,1-12.8,1.8-19.3,2.3c-15.7,1.2-31.4,0.9-47.1-0.6c-3.5-0.4-7.1-0.8-10.6-1.3v0.4l-0.4-0.5l0.4,0.1
		c-0.3-3.1-0.5-6.2-0.7-9.2l-0.1-0.9l-1-0.2c0.2,3.6,0.5,7.2,0.8,10.8v0.4l0.4,0.1c7.3,1.2,14.8,1.9,22.2,2.4
		c12.5,0.8,25.1,0.7,37.6-0.3c9.7-0.8,19.4-2.3,28.9-4.4l0.3-0.1l0.1-0.3C811.1-89.7,811.7-93.2,812.2-96.8l-0.1,0L812.2-96.8z"/>
</g>
<g id="LSgNVt6yh6-cruyUNU-gC" transform="matrix(1 0 0 1 -544.9 295.43)">
	<path vector-effect="non-scaling-stroke" d="M767.8-85.8c0-2.3-0.1-5-0.2-7.3c-0.3-9.8-1.3-19.5-3-29.1c0.3,1.6,0.5,3.2,0.7,4.8
		c1.3,11.3,1.9,22.7,1.8,34.1c-0.1,6.5-0.5,13-1.2,19.5c-0.3,3-0.7,6-1.1,8.9l0.9-0.2v0.1h0.1C767.2-65.3,767.9-75.6,767.8-85.8z"/>
</g>
<g id="bZsRTqFyY0HwhIjH0B4qb" transform="matrix(1 0 0 1 -630.47 266.59)">
	<path vector-effect="non-scaling-stroke" d="M765.9-87.2L765.9-87.2c0.3-1.1,0.5-2,0.7-3C766.4-89.1,766.1-88.2,765.9-87.2z"/>
</g>
<g id="CVq15dAExqmWa_AIx2PaL" transform="matrix(1 0 0 1 -630.74 268.07)">
	<path vector-effect="non-scaling-stroke" d="M766.3-88.7L766.3-88.7l-0.1,0.1L766.3-88.7L766.3-88.7z"/>
</g>
<g id="vDQr-H0XSA6wEwuekNQwG" transform="matrix(1 0 0 1 -545.28 328.91)">
	<path vector-effect="non-scaling-stroke" d="M766.2-88.6"/>
</g>
<g id="F_e5ER1sqSJVNPjUcL5Tp" transform="matrix(1 0 0 1 -595.79 281.37)">
	<path vector-effect="non-scaling-stroke" d="M770-74c-0.9,0.9-1.8,1.7-2.8,2.5c-5,3.8-10.3,7.3-15.7,10.5
		c-4.3,2.6-8.8,5.1-13.2,7.5c-4.4,2.4-8.7,4.6-13,6.8l0,0c6.8-3,13.5-6.3,20-9.9c4.4-2.4,8.9-4.9,13.2-7.6c1.5-0.9,3.3-2.1,4.8-3.1
		c0.4-0.3,1.2-0.8,1.6-1.1c0.9-0.7,2.2-1.6,3.1-2.3c2.9-2.5,5.6-5.2,8-8.2c12.6-15.8,22.3-33.7,31.3-51.7l0,0
		c-7.6,13.8-15.4,27.4-24.3,40.4C779.1-84.4,774.7-79,770-74z"/>
</g>
<g id="EEGNEAfGbxLfN87wVY8-M" transform="matrix(1 0 0 1 -554.75 239.34)">
	<path vector-effect="non-scaling-stroke" d="M766.3-88.8c0,0.1-0.1,0.1-0.1,0.2l0,0L766.3-88.8z"/>
</g>
<g id="ogqNvvx0qVTEs0xhIga48" transform="matrix(1 0 0 1 -637 323.42)">
	<path vector-effect="non-scaling-stroke" d="M766-88.6l0.4-0.2l0,0L766-88.6z"/>
</g>
<g id="Us5dXxwEamEFhbKDdYawm" transform="matrix(1 0 0 1 -636.17 330.97)">
	<path vector-effect="non-scaling-stroke" d="M766.2-88.7L766.2-88.7l0.1,0L766.2-88.7z"/>
</g>
<g id="d1fVH-pRxtxhqgecESJIS" transform="matrix(1 0 0 1 -591.24 333.37)">
	<path vector-effect="non-scaling-stroke" d="M800.9-90.5c-1.8,0.4-3.8,0.8-5.7,1.2c-11.3,2.3-22.8,4.3-34.4,3.8
		c-1.3,0-3-0.2-4.3-0.2c-4.3-0.3-8.7-0.8-13-1.3c-7.5-1-14.9-2.3-22.2-4.1l-0.2,0.1v0.3c2.7,0.6,5.3,1.2,8,1.7
		c6.6,1.4,13.3,2.6,20,3.5c5.8,0.8,11.6,1.2,17.4,1.1c5.3-0.2,10.7-0.8,15.9-1.7c9.7-1.6,19.3-3.9,28.7-6.7c0-0.1,0-0.1,0-0.2
		C807.8-92.1,804.4-91.2,800.9-90.5z"/>
</g>
<g id="UcV-6Foq1UvHWVsRVY5iB" transform="matrix(1 0 0 1 -637.26 330.99)">
	<path vector-effect="non-scaling-stroke" d="M766.2-88.6h0.2v-0.1L766.2-88.6z"/>
</g>
<g id="n0cFt_iGia4JEDqmutRHT" transform="matrix(1 0 0 1 -591.84 286.18)">
	<path vector-effect="non-scaling-stroke" d="M782.1-84.1c-4.3,5.3-9.1,10.1-14.4,14.4c-5.3,4.3-10.9,8.1-16.8,11.6
		c-9.2,5.5-18.9,10.2-29,13.9v0.3h0.2c15.3-5.5,30-12.8,43.1-22.4c2.7-2,5.5-4.3,8-6.5c4.3-3.9,8.3-8.3,11.8-12.9
		c9.3-12.3,16.6-26.1,22.7-40.2c1-2.4,2-4.9,2.9-7.3l0,0c-4.4,9.6-9.1,19.7-14.6,29C791.9-97.3,787.2-90.5,782.1-84.1z"/>
</g>
<g id="_x37_a53yXqm8HNdsafH7IjD9" transform="matrix(1 0 0 1 -547.46 241.33)">
	<path vector-effect="non-scaling-stroke" d="M766.3-88.8l-0.1,0.3l0,0C766.2-88.6,766.3-88.7,766.3-88.8z"/>
</g>
<g id="_1MSPPbaHmP_JJnXYYrWU" transform="matrix(1 0 0 1 -545.72 329.07)">
	<path vector-effect="non-scaling-stroke" d="M765.7-88.6c0,0.1,0,0.1,0,0.2l1-0.3l0,0l0,0v-0.1L765.7-88.6z"/>
</g>
<g id="WEFoLZ4SCkOlL5Cu6DQj_" transform="matrix(1 0 0 1 -636.66 330.97)">
	<path vector-effect="non-scaling-stroke" d="M766.7-88.6l-0.4,0.2v-0.3L766.7-88.6V-89l-0.9,0.3v0.1l1,0.2L766.7-88.6z"/>
</g>
<g id="W5U_Chw7vg7Xh5RpFUdNC" transform="matrix(1 0 0 1 -636.48 331)">
	<path vector-effect="non-scaling-stroke" d="M766-88.8v0.3l0.4-0.2v-0.1L766-88.8z"/>
</g>
<g id="KsLDT8ht091aG_Zc8Fvck" transform="matrix(1 0 0 1 -545.28 328.91)">
	<path vector-effect="non-scaling-stroke" d="M766.2-88.6L766.2-88.6L766.2-88.6z"/>
</g>
</svg>
