<?xml version="1.0" encoding="utf-8"?>
<!-- Generator: Adobe Illustrator 26.0.2, SVG Export Plug-In . SVG Version: 6.00 Build 0)  -->
<svg version="1.1" id="Слой_1" xmlns="http://www.w3.org/2000/svg" xmlns:xlink="http://www.w3.org/1999/xlink" x="0px" y="0px"
	 viewBox="0 0 289.3 286.8" style="enable-background:new 0 0 289.3 286.8;" xml:space="preserve">
<style type="text/css">
	.st0{fill:url(#SVGID_1_);}
	.st1{fill:#606060;}
	.st2{fill:#343434;}
	.st3{fill:#811619;}
	.st4{fill:#FFFFFF;}
	.st5{fill:#C2C2C2;}
	.st6{fill:#B21533;}
</style>
<desc>Created with Fabric.js 4.6.0</desc>
<g id="cHaXDISStSEukl-BjMuNi" transform="matrix(1 0 0 1 -415.48 -453.89)">
	<g>
		<g vector-effect="non-scaling-stroke">
			
				<radialGradient id="SVGID_1_" cx="1731.6152" cy="-1922.6724" r="93.19" gradientTransform="matrix(1.34 0 0 -1.32 -1757.6632 -1947.425)" gradientUnits="userSpaceOnUse">
				<stop  offset="0.37" style="stop-color:#811619"/>
				<stop  offset="1" style="stop-color:#B21533"/>
			</radialGradient>
			<path class="st0" d="M446,693.9c-16.5,0-30-13.5-30-30V523.3c0-16.5,13.5-30,30-30h228.3c16.5,0,30,13.5,30,30v140.6
				c0,16.5-13.5,30-30,30H446z"/>
		</g>
	</g>
</g>
<g id="_x34_mjdwRLEWMMToX-MAy_x5F_hs" transform="matrix(1 0 0 1 -404.51 -317.37)">
	<path vector-effect="non-scaling-stroke" class="st1" d="M464,593.6c0-5.5,43-10,96.1-10s96.1,4.5,96.1,10s-43,10-96.1,10
		S464,599.2,464,593.6z"/>
</g>
<g id="IbBJ0GeJKAl0Lg1c0QXyY" transform="matrix(1 0 0 1 -401.03 -367.65)">
	<path vector-effect="non-scaling-stroke" class="st2" d="M563.3,552.8l-3.2,1l-2,0.5c-0.8,0.1-1.9,0.4-2.7,0.5
		c-3.5,0.6-7.1,1-10.7,1.1c-1.8,0.1-3.6,0.1-5.4,0.1c-10.6-0.2-21.1-1.6-31.5-4.2c0.5,2.8,1.4,5.6,2.5,8.2c0.4,0.8,0.9,1.6,1.6,2.2
		c0.4,0.3,0.7,0.6,0.9,1c1,1.7,1.9,3.4,2.6,5.2c8.7,22.6,15.3,45.9,22.4,69v0.2c-0.6,1-0.9,2.2-0.8,3.4c0.3,2.3,2.5,3.8,4.6,4.6
		c1.4,0.6,2.8,1,4.3,1.2c3.3,0.6,6.6,0.9,9.9,0.9c8.5,0.2,17.1-0.1,25.5-1.1c2.3-0.2,5.2-0.6,7.2-0.9c0.3-0.2,0.5-0.5,0.5-0.9
		c0-3.5-8.8-10.1-11.8-12c-1.9-1.2-3.8-2.3-5.8-3.3v-0.3c-0.1-7.1-0.9-14.2-2.3-21.2c-1.3-7-3.4-13.9-5-20.8
		c-1.2-4.7-2.4-9.4-3.7-14.1h0.2c3.5-0.8,10.5-2.3,14-3l-4.4,1.1c1.2,2.2,2.4,4.6,3.5,6.9c1.3,2.3,2.3,4.7,2.9,7.2h-0.1
		c-0.4-0.5-0.7-1.1-1.1-1.7c-0.2-0.3-0.4-0.6-0.6-0.9c-0.1,0.2-0.3,0.4-0.4,0.6c-1.1,1.6-2.3,3.1-3.6,4.6c-0.7,0.8-1.5,1.6-2.4,2.4
		c-0.7,0.7-1.5,1.2-2.4,1.7l0.5,2c1.9,6.9,3.4,13.9,4.4,21c0.3,2.4,0.6,4.7,0.8,7.1c0.8,1.2,1.6,2.4,2.5,3.5c0.5,0.7,1.2,1.3,2,1.7
		c0.3,0.1,0.7,0,1-0.2c0.3-0.2,0.5-0.5,0.5-0.8l0,0l0.5-4.3c0.4-2.8,1.4-10.2,1.7-13.1c9.3-4.8,24.1-12.9,30.1-21.2
		c1.3-1.7,2-3.9,1.8-6.1c-0.4-4.4-2.4-8.6-4.4-12.5c-5.2-9.8-12.2-18.8-18.2-28.1c-0.3-0.5-0.6-1-0.8-1.5c-2.2,2.1-4.6,3.9-7.2,5.4
		C575.9,548.2,569.7,550.9,563.3,552.8z"/>
</g>
<g id="asYT2T1Y8H12cgMxPvQ-F" transform="matrix(1 0 0 1 -413.35 -417.04)">
	<path vector-effect="non-scaling-stroke" class="st3" d="M590.7,588.7c-5.4,2.9-11.1,5.2-17.1,6.9c-1.7,0.5-3.4,1-5.1,1.4
		c-1,0.2-2.2,0.4-3.2,0.6c-6.8,0.9-13.6,1.2-20.5,0.7c-5-0.3-9.9-0.9-14.9-1.7l0,0c-3.7-0.6-7.4-1.4-11-2.3c0.3,1.9,0.6,3.8,1,5.8
		c0.1,0.4,0.2,0.8,0.3,1.2c8.6,1.7,17.3,2.7,26.1,3.2c7.6,0.5,15.1,0,22.6-1.3l1.3-0.3l1.9-0.5l3.2-0.9c4.7-1.4,9.3-3.1,13.7-5.2
		c2.8-1.3,5.5-2.8,8.1-4.5c1.4-0.9,2.7-1.9,4-3c-0.9-1.9-1.6-3.9-2.2-5.9C596.5,585.1,593.7,587.1,590.7,588.7z"/>
</g>
<g id="_x31_ijTii2H2Zw_x5F_jb0mUuf59" transform="matrix(1 0 0 1 -404.94 -424.44)">
	<path vector-effect="non-scaling-stroke" class="st2" d="M556.1,587.8c-6,3.7-12.5,6.6-19.2,8.6c-0.6,1.1-1.4,2.1-2.3,3
		c-1.6,1.7-3.9,3.9-5,5c11.3,1.1,22.9,1.1,32.9-1.4c8.4-2.3,16.8-5.2,24.2-9.8c1.1-0.7,2.2-1.5,3.2-2.3c0.3-0.2,0.5-0.4,0.8-0.7
		c-0.2-0.7-0.4-1.3-0.6-2c-0.6-2-1.1-4-1.5-6c-7.1,4.2-16.9,5.4-24.4,5.7C561.4,588,558.7,588,556.1,587.8z"/>
</g>
<g id="YKRNOUOgav2heBkAZHgUx" transform="matrix(1 0 0 1 -431.48 -563.8)">
	<path vector-effect="non-scaling-stroke" class="st3" d="M596.8,588.9c-0.3,0.3-0.7,0.6-1.1,0.8c-2.1,1.6-4.4,3-6.7,4.2
		c-5.7,3-11.7,5.2-18,6.7c-6.3,1.5-12.7,2.3-19.1,2.4c-9.5,0.2-18.9-0.1-28.4-1c0.8-2.5,1.9-4.9,3.2-7.2c11.3,1.6,22.7,1.9,34,1
		c2.1-0.2,4.4-0.5,6.5-0.9c6.4-1.2,12.6-3.3,18.5-6.3c1.9-1,3.6-2,5.4-3.2h0.1c0.5-0.4,1-0.7,1.5-1.1h0.1
		C594,585.6,595.5,587.2,596.8,588.9z"/>
</g>
<g id="uhLRlKNv20wjSReCq0ggR" transform="matrix(1 0 0 1 -432.16 -573.03)">
	<path vector-effect="non-scaling-stroke" class="st2" d="M593,593.5c-7.3,5-15.8,7.8-24.4,9.6l-3.2,0.6c-2.1,0.3-4.3,0.5-6.4,0.7
		c-10.6,0.7-21.2,0.5-31.8-0.3c5.2-9.2,13.7-16.1,23.7-19.5l0,0c10.6-3.5,22.1-2.7,32.1,2.2c1.6,0.7,3.1,1.6,4.5,2.5
		C589.5,590.5,591.3,591.9,593,593.5z"/>
</g>
<g id="u2rb0kEcRa0xznzMFCN8D" transform="matrix(1 0 0 1 -477.81 -545.69)">
	<path vector-effect="non-scaling-stroke" class="st3" d="M552.7,588.8c-0.2-0.1-0.3-0.1-0.5-0.2c-0.1,0.9-0.2,1.8-0.2,2.7
		c-0.1,3.3,0,6.5,0.6,9.8c1.3,0.4,2.6,0.6,3.9,0.8c2.8,0.4,5.8,0.3,8.1-1.4c0.9-0.6,1.7-1.4,2.4-2.3c-0.3-4.4,0.2-8.8,1.3-13
		c-3.1,2.9-7.9,3.9-12.1,4C555,589.3,553.8,589.1,552.7,588.8z"/>
</g>
<g id="USxaS16LNidZKn5nTSgDR" transform="matrix(1 0 0 1 -475.46 -526.37)">
	<path vector-effect="non-scaling-stroke" class="st3" d="M553.6,591.2c-0.4,0-0.9-0.1-1.3-0.2c0,0.4-0.2,0.7-0.5,0.9
		c-0.1,1.6-0.1,3.2,0,4.7c0.1,1,0.2,2.1,0.5,3.1c0.1,1,0.7,2,1.5,2.6c3.1,0.8,6.4,0.6,9.5-0.4c1.9-0.7,2.9-2.6,3.8-4.2
		c0.5-1,1-2,1.5-3c-1.1-2.3-1.9-4.7-2.6-7.2c-0.3-1-0.5-2-0.7-3C563.6,590.1,559.6,591.9,553.6,591.2z"/>
</g>
<g id="UtaVVbgqv_vU1kjdub_Fb" transform="matrix(1 0 0 1 -447.77 -418.89)">
	<path vector-effect="non-scaling-stroke" class="st2" d="M563.7,597.8l4-4.6c-2.7,0.3-5.4,0.1-8.1-0.4c-2.6-0.5-5.1-1.6-7.1-3.3
		c0.2,2.2,0.5,4.4,0.9,6.6C556.7,596.7,560.1,597.3,563.7,597.8L563.7,597.8z"/>
</g>
<g id="ffwzuvxwsfnDh8itL4Zq4" transform="matrix(1 0 0 1 -440.19 -445.2)">
	<path vector-effect="non-scaling-stroke" class="st2" d="M572,587.6c-4.2-2.3-9.3-2.2-13.9-1.9c-2.7,0.2-5.4,0.7-7.9,1.6
		c-3.9,1.5-6.6,4.9-4.9,9.1c1.4,3.1,4.5,5.2,7.9,5.2c0.6,0,1.1-0.1,1.7-0.2c0.6-0.1,1.4-0.3,2-0.4c2.1-0.5,4.1-1.4,5.9-2.6
		c1-0.6,1.8-1.5,2.3-2.6c3.4-1.5,6.9-2.9,10.4-4.3C574.9,589.9,573.6,588.5,572,587.6z"/>
</g>
<g id="c9Z6ZDLCwFzR6-dXILLHE" transform="matrix(1 0 0 1 -388.14 -465.4)">
	<path vector-effect="non-scaling-stroke" class="st2" d="M580.2,608.8c-0.3,2-0.9,4-1.7,5.9c-5.1,10.3-20.8,12.8-31.3,13.6
		c-2.6,0.2-5.2,0.3-7.8,0.2c7.1-4.3,13.7-9.4,19.7-15c0.7-0.7,1.5-1.4,2.2-2.1c0.4-0.3,0.7-0.7,1-1.2c1.2-1.6,2.1-3.5,2.6-5.4
		c0.3-2,0.1-4.1-0.8-5.9c-0.2-0.5-0.4-1-0.7-1.5l0,0l-0.6-2.4h-0.2l0.6,2.4l-1.6,0.5c-0.1-2.8-0.4-5.7-0.9-8.4
		c-0.6-4.9-2.6-9.4-5.9-13.1c2,3.2,3.5,6.8,4.4,10.5c0.7,3.2,1.7,7.9,2.4,11.1c-5.8,1.9-12,3.8-17.9,5.9c1.1-1.1,2-2.3,2.8-3.6
		c2.3-4,3.9-8.4,4.7-12.9c0.2-1,0.4-2.3,0.6-3.3c0.4-2.4,0.7-5,0.9-7.4c0.4-5.8,0.4-11.6-0.2-17.4c1.7-0.2,3.4-0.4,4.8-0.5l1.3-0.1
		c2.9-0.2,6.7-0.4,8.9,0.9c1.9,1.3,3.7,4.3,5.2,7.2l0,0c0.9,1.8,1.7,3.7,2.3,5.1C579.4,583.4,582,596.6,580.2,608.8z"/>
</g>
<g id="YsnJkvjPVPbqMsO8oyenj" transform="matrix(1 0 0 1 -407.28 -474.58)">
	<path vector-effect="non-scaling-stroke" class="st3" d="M567.9,603.3c0.4-1.3,0.7-2.6,1.1-3.9c0.2-0.8,0.4-2.1,0.6-2.9
		c1.6-9.2,2.3-18.6,2.1-27.9l-3.6,0.5c-0.9,0.1-1.8,0.2-2.8,0.3c-0.7,6.6-1.6,13.2-2.7,19.8c-0.6,3.8-1.4,7.5-2.5,11.2
		c-1.7,5-4.7,9.4-7.8,13.6c-1.2,1.6-2.4,3.2-3.7,4.7c2.9-1.1,5.8-2.2,8.6-3.3c1.8-0.7,3.7-1.4,5.6-2c1.1-1.4,2.1-2.9,2.9-4.5
		C566.6,607,567.3,605.2,567.9,603.3z"/>
</g>
<g id="nMu1WMNXcUk2Gn5t25I-T" transform="matrix(1 0 0 1 -436.33 -417.56)">
	<path vector-effect="non-scaling-stroke" class="st3" d="M559.7,597.3c0.3-0.3,3.6-3.3,5.6-5.5c0.6-0.6,1.1-1.2,1.6-1.9l-0.6,0.2
		c-1.7,0.4-3.5,0.8-5.2,1.1c-1.1,0.2-2.3,0.4-3.4,0.5l-4.3,4.9C555.4,596.9,557.6,597.1,559.7,597.3z"/>
</g>
<g id="Qk4x9sYPkTTXaiA1W_t22" transform="matrix(1 0 0 1 -415.81 -541.14)">
	<path vector-effect="non-scaling-stroke" class="st4" d="M558.8,610.3c10-1.4,19.8-6.1,25.9-14.2c1.1-1.4,2.1-3,3-4.6
		c0.9-1.9,1.2-3.9,1-6c-0.4-3.3-2.3-6.2-5.3-7.8c-1.9-1.1-4.2-1.5-6.4-1.1c-1.1,0.3-2.1,0.6-3.2,1.1c-1,0.9-2,1.7-3.1,2.5
		c-2.2,1.7-4.7,3-7.3,4c-1.3,0.4-2.7,0.8-4.1,1c-5.4,0.8-11,0.9-16.4,0.3c-2,0.1-3.9,0.6-5.6,1.6c-3.9,2.2-6.2,6.4-6,10.8
		c0.2,4.5,2.9,8.4,7,10.2l0,0C544.9,610.7,551.9,611.4,558.8,610.3z M580.4,589.2c0.8-0.6,1.4-1.5,1.7-2.4c0,0.5-0.1,1.1-0.3,1.5
		c-0.7,1.5-2,2.6-3.5,3.2c-1.9,0.8-4.5,1.2-6.2-0.2C574.5,592.2,578.5,590.8,580.4,589.2z M548.4,598.8c-2,0.3-4.6,0.2-6-1.6
		c2.2,1.4,6.4,0.9,8.6-0.2c0.9-0.4,1.7-1.1,2.2-1.9c-0.1,0.5-0.3,1-0.7,1.4C551.5,597.8,550,598.6,548.4,598.8L548.4,598.8z"/>
</g>
<g id="qd7nGTFCxYs-u9KJePdJd" transform="matrix(1 0 0 1 -426.25 -462.63)">
	<path vector-effect="non-scaling-stroke" class="st2" d="M576.1,593c1-2,1.9-4,2.4-6.2c2.3-9.7,3.8-19.7,5.7-29.5c-0.5,0-1,0-1.5,0
		c-2.7-0.5-3.8-3.9-4.1-6.3l-0.8,0.4c-9.8,5-21.2,5.9-31.7,2.6c0.3,1.8,0.3,3.7,0.1,5.5c0,0.7-0.4,1.4-0.9,1.9
		c-1.2,0.5-2.5,0.8-3.8,1.2c-5.7,1.7-11.6,3.3-16.8,6.2c-1.1,0.6-2,1.3-2.9,2.2l-0.5,0.6l-0.4,0.6c-6.7,10.5-2.3,29.8,1.1,41
		c4.9,16.6,9.5,25.6,29,22.2c3.2-0.6,6.3-1.3,9.4-2.3c11.9-3.9,22.7-10.7,32.2-18.6c2.4-2,4.7-4.1,6.9-6.3c0.3-0.3,0.5-0.5,0.7-0.9
		c1-1.4,1.8-3,2.4-4.6c0.1-0.3,0.2-0.7,0.3-1c0.3-2.3-0.2-4.6-1.4-6.6c-3.2,1.1-9.4,3.1-12.5,4.2c-8.4,2.8-16.7,6.2-24.9,9.5
		c-4.1,1.7-8.1,3.4-12.2,5.1c-0.2,0.4-0.5,0.8-0.9,1.2c-2.3,2.5-5.6,3.6-8.8,4.3c-1,0.3-2.1,0.4-3.1,0.4c-5-0.1-9.8-4.9-8.8-9.9
		c0.8-3.6,4.4-5.6,7.8-6.4c2-0.5,4.1-0.8,6.1-0.9c0.8-0.1,1.6-0.1,2.3-0.1c-2.9-7.9-5.2-16.1-6.8-24.4c2.9,7.9,5.2,16.1,6.9,24.4
		c4-0.1,8.2,0.2,11.7,2.3c1.5,0.9,2.7,2.2,3.3,3.8l0.1,0.4c1.9-0.8,3.8-1.5,5.8-2.3c1.2-1.7,2.3-3.3,3.5-5
		C572.8,599,574.5,596,576.1,593z"/>
</g>
<g id="zNknixYwiHGFxDpoHFOCp" transform="matrix(1 0 0 1 -427.9 -534.93)">
	<path vector-effect="non-scaling-stroke" class="st2" d="M578.8,622.8c14.2-6.8,23.7-21.4,23.6-37.1c0-9.4-3.3-18.5-9.3-25.7
		c-5.6,5-12.7,8.4-19.8,10.9c-1,0.4-3,0.9-4.1,1.3l-1.8,0.5c-2.4,0.6-4.8,1.1-7.2,1.4c-7.3,0.9-14.6,1.2-21.9,0.9
		c-6.3-0.2-12.5-0.8-18.7-1.7c-1.3,4-2,8.3-2.1,12.5C517.6,617.1,550.6,636.5,578.8,622.8z M547.4,581.5c2.2-1.7,5-2.4,7.8-2.2
		c6.8-0.2,13.7-0.3,20.2-2.1c3.8-1.4,7.5-3.4,10.8-5.8l-0.1,0.1c1.4-1.1,3-1.7,4.7-1.9c5.6-0.3,10.4,4.1,10.7,9.7
		c0.1,2.1-0.4,4.1-1.5,5.8c-0.8,1.8-1.7,3.5-2.8,5.1c-4.4,6.2-10.7,10.7-17.9,13c-4.8,1.6-9.8,2.3-14.8,2.2
		c-4.9-0.1-9.8-1.3-14.2-3.5c-4.1-1.5-7-5-7.6-9.3C542.1,588.2,543.9,584,547.4,581.5z"/>
</g>
<g id="LiCgKnhXAMnJ7i5cKrbXM" transform="matrix(1 0 0 1 -423 -580.73)">
	<path vector-effect="non-scaling-stroke" class="st5" d="M578.4,597.1c-4.7-2-9.6-3.5-14.6-4.7c-9.8-2.3-21.6-0.1-22,0
		c10.6-3.5,22.1-2.7,32.1,2.2C575.5,595.3,576.9,596.1,578.4,597.1z"/>
</g>
<g id="ZCwKYyY1PBC3vYPBH6DgB" transform="matrix(1 0 0 1 -382.62 -496.28)">
	<path vector-effect="non-scaling-stroke" class="st5" d="M567.1,597.7c-0.2-0.3-3.5-5.3-6.3-6.5c-1.9-0.9-5.5-1.3-7.8-1.5
		c2.9-0.2,6.7-0.4,8.9,0.9C563.9,591.9,565.7,594.8,567.1,597.7z"/>
</g>
<g id="uoioePmi_p6lDGjUdDYgs" transform="matrix(1 0 0 1 -397.77 -570.4)">
	<path vector-effect="non-scaling-stroke" class="st6" d="M563.1,595.5c-0.3,0.3-0.7,0.6-1.1,0.8c-1.3-1.7-3-3.2-4.8-4.3h0.1
		l1.5-1.1C560.3,592.3,561.7,593.9,563.1,595.5z"/>
</g>
<g id="YtqGnK52h58Pc4mGQBeSS" transform="matrix(1 0 0 1 -428.3 -542.83)">
	<path vector-effect="non-scaling-stroke" d="M548,634c0,0.1,0,0.3,0,0.4c10.5,3.3,21.9,2.4,31.7-2.6c0.3-0.1,0.6-0.3,0.8-0.4
		c0-0.2-0.1-0.4-0.1-0.6h0.1c0,0.2,0.1,0.4,0.1,0.6c17.1-9.3,25.7-29,21-47.9c-4.7-18.9-21.6-32.2-41.1-32.5
		c-19.5-0.2-36.7,12.7-41.8,31.5c0.2-0.2,0.5-0.4,0.7-0.6c-0.2,0.3-0.5,0.5-0.7,0.8c-1.1,4.2-1.6,8.6-1.3,13
		c0.2-0.2,0.4-0.5,0.5-0.8c-0.2,0.3-0.3,0.6-0.5,0.9c0.1,1.7,0.3,3.5,0.6,5.2c0.1-0.2,0.1-0.3,0.2-0.5c0,0.2-0.1,0.4-0.2,0.6
		c0.2,1,0.4,2,0.7,3.1c0.6,2.5,1.5,4.9,2.6,7.2c0-0.1,0.1-0.2,0.1-0.3c0,0.1,0,0.2-0.1,0.4c5.2,11.1,14.9,19.4,26.5,23.1
		c0-0.1,0-0.3,0-0.4L548,634z M518.1,593.7c0.1-4.3,0.7-8.5,2.1-12.5l-0.7-0.1l0.7,0.1c0.8-2.5,1.9-4.9,3.2-7.2l-0.6-0.1h0.6
		c11.1-19.6,35.6-27.2,55.8-17.2c3.6,1.7,7,4,10,6.7l0.4-0.3l-0.4,0.3c1.6,1.4,3,3,4.4,4.6l0.3-0.2l-0.3,0.2
		c6,7.2,9.2,16.3,9.3,25.7c0.1,15.7-9.5,30.2-23.6,37.1C551,644.5,517.9,625.2,518.1,593.7z"/>
</g>
<g id="tGXVjuB0AAytRVEca7ma2" transform="matrix(1 0 0 1 -432.13 -566.97)">
	<path vector-effect="non-scaling-stroke" d="M561.2,599.2c2.1-0.2,4.4-0.5,6.5-0.9c6.4-1.2,12.6-3.3,18.4-6.3
		c2.4-1.2,4.7-2.7,6.9-4.4l0,0c-7.2,5-15.8,7.8-24.4,9.7c-0.7,0.1-2.4,0.4-3.2,0.6c-2,0.3-4.3,0.5-6.4,0.7
		c-10.6,0.7-21.2,0.5-31.8-0.4l0,0C538.5,599.7,549.9,600.1,561.2,599.2z"/>
</g>
<g id="hYZU9dBMCeUm1fHRYYyKx" transform="matrix(1 0 0 1 -465.36 -562.5)">
	<path vector-effect="non-scaling-stroke" d="M559.8,593.6l0.6,0.1l0,0L559.8,593.6z"/>
</g>
<g id="lvAh59y1mT4qSI8bM2E8c" transform="matrix(1 0 0 1 -399.07 -573.16)">
	<path vector-effect="non-scaling-stroke" d="M560.3,593.5l-0.4,0.3l0,0L560.3,593.5z"/>
</g>
<g id="NFTDdwHPq0EmCqij1GYki" transform="matrix(1 0 0 1 -431.55 -560.91)">
	<path vector-effect="non-scaling-stroke" d="M564,600.2c2.4-0.3,4.8-0.8,7.2-1.4l1.8-0.5c1.1-0.3,3-0.9,4.1-1.3
		c7.1-2.5,14.1-5.8,19.8-10.8l0,0c-2.4,1.9-5.1,3.6-7.8,5c-5.7,3-11.8,5.2-18,6.7c-6.3,1.5-12.7,2.3-19.2,2.4
		c-9.5,0.2-18.9-0.1-28.4-1l0,0c6.2,0.9,12.4,1.5,18.7,1.7C549.4,601.3,556.7,601.1,564,600.2z"/>
</g>
<g id="_x32_M3ZEA6zGXE_x5F_NYdIq-vm1" transform="matrix(1 0 0 1 -468.54 -555.25)">
	<path vector-effect="non-scaling-stroke" d="M559.8,593.6l0.7,0.1l0,0L559.8,593.6z"/>
</g>
<g id="f59htSxCTSVXCKQQb5wod" transform="matrix(1 0 0 1 -394.71 -568.52)">
	<path vector-effect="non-scaling-stroke" d="M560.3,593.5l-0.3,0.2l0,0L560.3,593.5z"/>
</g>
<g id="IRyTcEDRgqAYi5oKSs47R" transform="matrix(1 0 0 1 -394.18 -550.97)">
	<path vector-effect="non-scaling-stroke" d="M555.5,586.6c2.2-0.4,4.4,0,6.4,1.1c2.9,1.6,4.9,4.5,5.3,7.8c0.2,2.1-0.1,4.1-1,6
		c0.3-0.5,0.6-1.1,0.8-1.7c-0.2,0.5-0.3,1-0.6,1.5c1.1-1.7,1.6-3.8,1.5-5.8c-0.3-5.6-5.1-9.9-10.7-9.7c-1.7,0.2-3.3,0.8-4.7,1.9
		l-0.1,0.1C553.3,587.2,554.4,586.8,555.5,586.6z"/>
</g>
<g id="cbK0JR0h8MAyGroSETEWF" transform="matrix(1 0 0 1 -439.16 -537.87)">
	<path vector-effect="non-scaling-stroke" d="M561.3,604.8l0.5,0.2l0,0c-4.1-1.8-6.8-5.7-7-10.2c-0.2-4.5,2.1-8.6,6-10.8
		c1.7-1,3.6-1.5,5.6-1.6h-0.2h0.3c-2.8-0.2-5.5,0.5-7.8,2.2c-3.5,2.5-5.3,6.8-4.7,11c0.6,4.3,3.5,7.8,7.5,9.3L561.3,604.8z"/>
</g>
<g id="YyPN_ZuT3QSrqN5LZ36-F" transform="matrix(1 0 0 1 -417.32 -552.9)">
	<path vector-effect="non-scaling-stroke" d="M544.5,597.4c5.5,0.6,11,0.5,16.4-0.3c1.4-0.2,2.8-0.6,4.1-1c2.6-1,5.1-2.3,7.3-4
		c1.1-0.8,2.1-1.6,3.1-2.5l0,0l0.1-0.1l0.1-0.1c-3.3,2.4-7,4.3-10.8,5.8C558.3,597,551.4,597.1,544.5,597.4l0.3-0.1L544.5,597.4z"/>
</g>
<g id="CwSNa8TRbfMvDOTrnI2Th" transform="matrix(1 0 0 1 -401.97 -556.92)">
	<path vector-effect="non-scaling-stroke" d="M560.1,593.6L560.1,593.6L560.1,593.6L560.1,593.6z"/>
</g>
<g id="Mo3HPpCw0oTe1W7tyiwHb" transform="matrix(1 0 0 1 -432.87 -549.11)">
	<path vector-effect="non-scaling-stroke" d="M560.1,593.6h0.2H560.1h-0.2H560.1z"/>
</g>
<g id="_x30_SPKfS5LKuLilBUwQ-KD-" transform="matrix(1 0 0 1 -412.91 -533.24)">
	<path vector-effect="non-scaling-stroke" d="M584.8,583.7c-0.9,1.6-1.9,3.2-3,4.6c-6.2,8.1-15.9,12.8-25.9,14.2
		c-6.9,1-13.9,0.3-20.4-2.3l-0.2-0.1c4.4,2.2,9.3,3.4,14.2,3.5c5,0.2,10-0.6,14.8-2.2c7.2-2.3,13.5-6.8,17.9-13
		c1.1-1.6,2.1-3.3,2.8-5.1c-0.2,0.2-0.3,0.4-0.5,0.7C584.6,584,584.7,583.9,584.8,583.7z"/>
</g>
<g id="_x34_KWPs339nyvKZ0TdbuWs5" transform="matrix(1 0 0 1 -387.95 -543.73)">
	<path vector-effect="non-scaling-stroke" d="M559.8,594.2c-0.1,0.2-0.2,0.3-0.2,0.5c0.2-0.2,0.3-0.4,0.5-0.7c0.2-0.5,0.4-1,0.6-1.5
		C560.4,593.1,560.1,593.7,559.8,594.2z"/>
</g>
<g id="JjbVXFVpCHW0BL1XKSsJr" transform="matrix(1 0 0 1 -437.78 -526.64)">
	<path vector-effect="non-scaling-stroke" d="M559.9,593.5l0.2,0.1l0.2,0.1L559.9,593.5z"/>
</g>
<g id="ciBE7vrE3obfqTgfhWEqD" transform="matrix(1 0 0 1 -398.9 -545.11)">
	<path vector-effect="non-scaling-stroke" d="M561.3,595.6c1.5-0.6,2.8-1.7,3.5-3.2c0.2-0.5,0.3-1,0.3-1.5c-0.4,0.9-0.9,1.8-1.7,2.4
		c-1.9,1.6-5.9,3.1-8.3,2.2C556.8,596.9,559.4,596.4,561.3,595.6z"/>
</g>
<g id="yaYxGKFhiqNzRvomUGraT" transform="matrix(1 0 0 1 -428.06 -537.61)">
	<path vector-effect="non-scaling-stroke" d="M563.3,593.6c-2.2,1.1-6.5,1.6-8.6,0.2c1.3,1.8,4,1.9,6,1.6c1.6-0.2,3.1-1,4.2-2.3
		c0.3-0.4,0.6-0.9,0.7-1.4C565,592.5,564.2,593.2,563.3,593.6z"/>
</g>
<g id="_x35_c66N7NZpguZUBN6ulcJB" transform="matrix(1 0 0 1 -486.1 -550.93)">
	<path vector-effect="non-scaling-stroke" d="M559.7,593.6c0.2,0.2,0.4,0.3,0.7,0.4c0-0.2,0-0.4,0.1-0.6L559.7,593.6z"/>
</g>
<g id="gwHLrfxzbS2lZLxIOkhql" transform="matrix(1 0 0 1 -478.37 -545.29)">
	<path vector-effect="non-scaling-stroke" d="M565.1,600.2c-2.4,1.7-5.3,1.8-8.1,1.4c-1.3-0.2-2.6-0.4-3.9-0.8v0.2l-0.3-0.3l0.2,0.1
		c-0.5-3.2-0.7-6.5-0.6-9.8c0-0.9,0.1-1.8,0.2-2.7c-0.2-0.1-0.5-0.2-0.7-0.4l0.7-0.3c0,0.2,0,0.4-0.1,0.6c0.2,0.1,0.3,0.1,0.5,0.2
		c1.2,0.4,2.4,0.5,3.6,0.5c4.1-0.1,9-1.1,12.1-4c0,0,0-0.1,0-0.2c-2.2,1.6-4.8,2.7-7.5,3.1c-2.5,0.5-5.1,0.5-7.6-0.1
		c-0.4-0.1-0.7-0.3-1.1-0.5l-0.7-0.5l-0.1,0.7c-0.5,4-0.5,8,0.1,11.9c0.1,0.6,0.2,1.3,0.4,1.9c2.9,0.9,5.9,1.1,8.9,0.8
		c2.6-0.5,4.8-1.9,6.2-4.1V598C566.8,598.8,566,599.6,565.1,600.2z"/>
</g>
<g id="_x31_sZM7SfCZ_x5F_9crnxQC0kYf" transform="matrix(1 0 0 1 -485.53 -538.06)">
	<path vector-effect="non-scaling-stroke" d="M560.2,593.8v-0.2l-0.2-0.1L560.2,593.8z"/>
</g>
<g id="v0tXHopDm2kzBEnBWcL_s" transform="matrix(1 0 0 1 -469.23 -554.33)">
	<path vector-effect="non-scaling-stroke" d="M560.5,593.2c-0.2,0.2-0.5,0.4-0.7,0.6c0,0,0,0.1,0,0.2
		C560,593.8,560.2,593.5,560.5,593.2z"/>
</g>
<g id="SmExGVjHOBoChe_P-F9FP" transform="matrix(1 0 0 1 -470.71 -541.28)">
	<path vector-effect="non-scaling-stroke" d="M559.8,593.9v0.1c0.2-0.3,0.4-0.6,0.5-0.9C560.2,593.4,560,593.7,559.8,593.9z"/>
</g>
<g id="Ilr8OXDwFdiGKEcQdFn9Q" transform="matrix(1 0 0 1 -474.45 -520.8)">
	<path vector-effect="non-scaling-stroke" d="M566,592.2c-0.9,1.7-1.9,3.5-3.7,4.2c-3.1,1-6.4,1.2-9.5,0.4l0,0h-0.1
		c2.7,1.5,6.9,1.4,9.8,0.4c2.1-0.8,3.3-2.9,4-4.9c0.4-1,0.7-2.1,1-3.2l-0.1-0.1C567,590.2,566.5,591.2,566,592.2z"/>
</g>
<g id="_x35_pFMbqnWEcJBOLDuTwZQ5" transform="matrix(1 0 0 1 -467.01 -525.37)">
	<path vector-effect="non-scaling-stroke" d="M560,593.7l0.1,0.1c0-0.1,0-0.2,0.1-0.4C560.1,593.5,560.1,593.6,560,593.7z"/>
</g>
<g id="YqXTJLQYm5LZgvxVdYMIA" transform="matrix(1 0 0 1 -484.2 -529.04)">
	<path vector-effect="non-scaling-stroke" d="M560.1,593.6"/>
</g>
<g id="CHUABELII-qIAcGhD200b" transform="matrix(1 0 0 1 -483.67 -529.15)">
	<path vector-effect="non-scaling-stroke" d="M560.1,593.9c0-0.2,0-0.3,0.1-0.5l0,0C560.1,593.5,560.1,593.7,560.1,593.9
		L560.1,593.9z"/>
</g>
<g id="nK1MrCKR73mx7eSU2TNL_" transform="matrix(1 0 0 1 -483.93 -529.19)">
	<path vector-effect="non-scaling-stroke" d="M560.4,593.4L560.4,593.4l-0.5,0.4l0,0L560.4,593.4z"/>
</g>
<g id="_x38_1lR_x5F_1Y95BUKK_x5F_GlA9FLU" transform="matrix(1 0 0 1 -484.21 -529.02)">
	<path vector-effect="non-scaling-stroke" d="M560.1,593.6L560.1,593.6L560.1,593.6L560.1,593.6z"/>
</g>
<g id="DreacyF4Zah3h04VGpH0I" transform="matrix(1 0 0 1 -484.5 -530.01)">
	<path vector-effect="non-scaling-stroke" d="M560.1,593.6L560.1,593.6z"/>
</g>
<g id="g6OTkAqe1tcpphgbqpxrq" transform="matrix(1 0 0 1 -484.57 -529.27)">
	<path vector-effect="non-scaling-stroke" d="M560.2,592.9c0,0.4-0.1,0.8-0.2,1.2v0.3c0-0.4,0.1-0.7,0.1-1L560.2,592.9z"/>
</g>
<g id="rWQyxVa3F7C-rnIFGryDc" transform="matrix(1 0 0 1 -483.54 -528.4)">
	<path vector-effect="non-scaling-stroke" d="M560.3,593.2l-0.4-0.1c0,0.1,0,0.2,0,0.3c0,0,0,0,0-0.1c0,0.2,0,0.5-0.1,0.7
		C560.2,593.9,560.3,593.6,560.3,593.2z"/>
</g>
<g id="yC9c0z_vVjVre33ZrgqOG" transform="matrix(1 0 0 1 -477.39 -532.08)">
	<path vector-effect="non-scaling-stroke" d="M554,596.2c0.1,0.2,0.2,0.5,0.1,0.7c0.4,0.1,0.9,0.1,1.3,0.2c6,0.7,10-1.1,11.7-6.8
		v-0.2c-1.9,4.2-4.4,6.3-9.4,6.2c-1.6,0-3.2-0.2-4.7-0.6l0,0C553.4,595.8,553.8,595.8,554,596.2z"/>
</g>
<g id="uWEA3HdeNKko7d7awInEf" transform="matrix(1 0 0 1 -483.27 -523.03)">
	<path vector-effect="non-scaling-stroke" d="M561.6,599.1c-0.8-0.6-1.4-1.5-1.5-2.6c-0.2-1-0.4-2-0.5-3.1c-0.1-1.6-0.1-3.2,0-4.7
		c-0.2,0.1-0.4,0-0.6-0.1c-0.1-0.1-0.2-0.3-0.2-0.5c-0.2,3.3,0.1,8.7,2.2,10.6C561.1,598.9,561.3,599,561.6,599.1L561.6,599.1
		L561.6,599.1z"/>
</g>
<g id="Rp_xNFwn5-uVg1FkCFIPS" transform="matrix(1 0 0 1 -483.92 -528.86)">
	<path vector-effect="non-scaling-stroke" d="M560.2,594.6c0-0.2,0-0.5,0.1-0.7l0,0l-0.1-0.1c-0.1,0-0.2,0-0.3,0c0,0-0.1,0-0.1,0.1
		c0.1-0.1,0.1-0.2,0.1-0.3l0,0l0,0l0,0l0,0l0.5-0.4l0,0l0,0c0,0.2-0.1,0.3-0.1,0.5l0.4,0.1c0-0.2,0-0.5-0.1-0.7
		c-0.2-0.3-0.7-0.4-1-0.5l0,0v0.5c0,0.3-0.1,0.6-0.1,1c0,0.2,0.1,0.4,0.2,0.5C559.9,594.7,560,594.7,560.2,594.6z"/>
</g>
<g id="foL4Ec2kAd3OMnWzaYczF" transform="matrix(1 0 0 1 -483.71 -528.73)">
	<path vector-effect="non-scaling-stroke" d="M560.1,593.4L560.1,593.4c0,0.1,0,0.2,0,0.3c0,0,0,0,0,0.1
		C560.1,593.7,560.1,593.6,560.1,593.4z"/>
</g>
<g id="UsE8EgipazDYz9r2_My4d" transform="matrix(1 0 0 1 -484.2 -529.04)">
	<path vector-effect="non-scaling-stroke" d="M560.1,593.6L560.1,593.6L560.1,593.6L560.1,593.6L560.1,593.6z"/>
</g>
<g id="SgIQxH21c1LZ5y9cpT56N" transform="matrix(1 0 0 1 -484.2 -529.04)">
	<path vector-effect="non-scaling-stroke" d="M560.1,593.6L560.1,593.6L560.1,593.6z"/>
</g>
<g id="Gio0RcfwvTb03Q0Hruqvb" transform="matrix(1 0 0 1 -483.93 -529.15)">
	<path vector-effect="non-scaling-stroke" d="M560.4,593.4l-0.5,0.3l0,0l0.5,0.1C560.3,593.7,560.3,593.6,560.4,593.4z"/>
</g>
<g id="xZAC7_10CCqVmtW1wukWl" transform="matrix(1 0 0 1 -484.04 -528.87)">
	<path vector-effect="non-scaling-stroke" d="M559.9,593.5L559.9,593.5c0,0.1,0,0.2-0.1,0.3c0,0,0.1,0,0.1-0.1c0.1,0,0.2,0,0.3,0
		l0.1,0.1l0,0c0-0.1,0-0.2,0-0.3H559.9z"/>
</g>
<g id="_FC0a0I_xvhR0SU4UcS0o" transform="matrix(1 0 0 1 -470.25 -535.81)">
	<path vector-effect="non-scaling-stroke" d="M560.2,593.3c-0.1,0.2-0.1,0.3-0.2,0.5v0.2C560.1,593.7,560.2,593.5,560.2,593.3z"/>
</g>
<g id="bZ-bWqZu7KPKhlKdRxYPJ" transform="matrix(1 0 0 1 -481.83 -517.53)">
	<path vector-effect="non-scaling-stroke" d="M560.1,593.6L560.1,593.6L560.1,593.6L560.1,593.6L560.1,593.6z"/>
</g>
<g id="x63gAIPjQaS2Y25qKTS5-" transform="matrix(1 0 0 1 -387.89 -467.58)">
	<path vector-effect="non-scaling-stroke" d="M544.3,562.5c0.5,0,1,0,1.5,0c0-0.1,0-0.2,0-0.3v0.3c0.9,0,1.8-0.2,2.8-0.3l3.6-0.5
		c0-0.1,0-0.2,0-0.4c0,0.1,0,0.2,0,0.4c1.7-0.2,3.4-0.4,4.8-0.5c2.9-0.2,7.7-0.7,10.2,0.8c3.1,2.2,6,8.7,7.5,12.3
		c4.5,11.4,7,24.7,5.2,36.9c-0.3,2-0.9,4-1.7,5.9c-5.1,10.3-20.8,12.8-31.3,13.6c-2.6,0.2-5.2,0.3-7.8,0.3L539,631
		c2.7,0.2,5.3,0.2,8,0.1c7.5-0.3,17.3-1.5,24.4-5.7l-0.1-0.5h0.1l0.1,0.5c3.3-1.8,5.9-4.6,7.6-7.9c4.7-11.3,0.9-28.1-2.7-39.4
		c-0.9-2.7-1.8-5.3-3-7.9c-1.1-2.6-2.5-5.1-4.2-7.4c-0.5-0.6-1-1.1-1.6-1.5c-1.9-1.2-4.3-1.2-6.4-1.2c-5.4,0.1-10.5,1.3-15.9,1.8
		c-3.2,0.4-4.5-3.3-5.1-5.9l-0.1,0.1C540.5,558.6,541.5,562,544.3,562.5z"/>
</g>
<g id="NQl0wu5iOtQJNJfxNpgR7" transform="matrix(1 0 0 1 -407.84 -505.39)">
	<path vector-effect="non-scaling-stroke" d="M560,593.3c0,0.2,0,0.4,0.1,0.6l0.1-0.1c0-0.2-0.1-0.4-0.1-0.6L560,593.3z"/>
</g>
<g id="lwmKrGtTNhAueTRK5bMHQ" transform="matrix(1 0 0 1 -389.98 -471.5)">
	<path vector-effect="non-scaling-stroke" d="M556.7,582.8c2,3.2,3.5,6.8,4.4,10.5c0.7,3.2,1.7,7.8,2.4,11.1l0,0
		c-0.1-2.8-0.4-5.7-0.9-8.5C562,591.1,559.9,586.5,556.7,582.8z"/>
</g>
<g id="kxRHkk65K0NpBpVHNHaNe" transform="matrix(1 0 0 1 -443.38 -465.72)">
	<path vector-effect="non-scaling-stroke" d="M563.5,605.8L563.5,605.8c-1.7-8.3-4-16.4-6.8-24.4
		C558.4,589.7,560.6,597.9,563.5,605.8z"/>
</g>
<g id="_x2D_i9n7R7C2oXfEiTZA7-Kw" transform="matrix(1 0 0 1 -426.6 -460.56)">
	<path vector-effect="non-scaling-stroke" d="M531.3,631.3c2.1,1.7,4.5,2.9,7.1,3.3c2.7,0.5,5.4,0.6,8.1,0.4l0.8-0.9l0.7,0.6
		l-0.1,0.1c1.2-0.1,2.3-0.3,3.4-0.5c1.7-0.3,3.5-0.7,5.2-1.1l0.6-0.2c0.4-0.6,0.6-0.9,0.6-0.9l0.8,0.4c0,0,0,0.1,0,0.1
		c6.7-2,13.2-4.9,19.2-8.6h-0.5v-0.1h0.6c7.1-4.3,13.7-9.4,19.7-15c0.7-0.7,1.5-1.4,2.2-2.1c0.4-0.3,0.7-0.7,1-1.2
		c1.2-1.6,2-3.5,2.6-5.4c0.3-2,0.1-4.1-0.7-5.9c-0.2-0.5-0.4-1-0.7-1.5l0,0v0.1h-0.2v-0.1l-1.6,0.5c0,0,0,0.1,0,0.2v-0.1
		c-5.8,1.9-12,3.8-17.9,5.9c-0.2,0.2-0.3,0.3-0.5,0.4l0.3-0.4c-1.9,0.7-3.8,1.3-5.6,2c-2.9,1.1-5.8,2.2-8.6,3.3l-0.5,0.6l0.4-0.5
		c-1.9,0.8-3.8,1.5-5.8,2.3c0.1,0.2,0.1,0.4,0.1,0.6H562c0-0.2-0.1-0.4-0.1-0.6c-3.5,1.4-6.9,2.8-10.4,4.3c-0.5,1-1.3,1.9-2.3,2.6
		c-1.8,1.2-3.8,2.1-5.9,2.6c-0.6,0.2-1.4,0.3-2,0.4c-0.6,0.1-1.1,0.2-1.7,0.2c-3.4,0-6.5-2.1-7.9-5.2c-1.8-4.2,1-7.6,4.9-9.1
		c2.6-0.9,5.2-1.4,7.9-1.6c4.6-0.4,9.8-0.5,13.9,1.8c1.6,0.9,2.8,2.3,3.5,4h0.1c0-0.1-0.1-0.2-0.1-0.4c-0.7-1.6-1.8-2.9-3.3-3.8
		c-3.5-2-7.7-2.4-11.7-2.3v0.1c0,0,0-0.1,0-0.1c-0.8,0-1.6,0.1-2.3,0.1c-2.1,0.1-4.1,0.5-6.1,0.9c-3.3,0.8-7,2.8-7.8,6.3
		c-1,5,3.8,9.8,8.8,9.9c1.1,0,2.1-0.1,3.1-0.4c3.2-0.7,6.6-1.9,8.8-4.3c0.3-0.4,0.6-0.8,0.9-1.2l-0.1,0.1l0.2-0.2l-0.1,0.2
		c4-1.7,8.1-3.4,12.2-5.1c8.2-3.4,16.5-6.7,24.9-9.5c3.1-1.1,9.3-3.1,12.5-4.2c0,0,0-0.1,0-0.1l0.2,0.1h-0.1c1.1,2,1.6,4.3,1.4,6.6
		c-0.1,0.4-0.2,0.7-0.3,1.1c-0.6,1.6-1.4,3.2-2.4,4.6c-0.2,0.3-0.4,0.6-0.7,0.8c-2.2,2.2-4.5,4.3-6.9,6.3
		c-9.6,7.9-20.4,14.7-32.2,18.6c-3.1,1-6.2,1.8-9.4,2.3c-19.5,3.4-24.1-5.6-29-22.2c-3.4-11.2-7.8-30.5-1.1-41l0.4-0.6l0.5-0.6
		c0.8-0.9,1.8-1.6,2.9-2.2c5.3-2.9,11.1-4.5,16.8-6.2c1.3-0.4,2.6-0.7,3.8-1.2c0.6-0.5,0.9-1.2,0.9-1.9c0.2-1.8,0.2-3.7-0.1-5.5
		h-0.1c0.1,0.8,0.1,1.7,0.2,2.6c0,1,0,2-0.2,3c-0.1,0.5-0.2,0.9-0.5,1.3c-0.3,0.4-0.8,0.5-1.2,0.6c-1,0.3-1.9,0.5-2.9,0.8
		c-4.9,1.2-9.7,2.8-14.3,4.7c-1.9,0.8-3.7,1.8-5.3,3.1c-0.2,0.2-0.4,0.4-0.5,0.6l-0.5,0.6l-0.4,0.6c-1.9,3-3,6.5-3.4,10
		c-1.3,10.7,1.1,21.5,4.1,31.7c1.1,3.9,2.4,7.6,4,11.3c1.3,3.2,3.4,6.1,6,8.4c0-0.2,0-0.4,0-0.6
		C531.2,630.9,531.3,631.1,531.3,631.3z"/>
</g>
<g id="qbaDxb9Uo5MEF6v4D-ZiW" transform="matrix(1 0 0 1 -424.74 -446.78)">
	<path vector-effect="non-scaling-stroke" d="M560.1,593.9h0.1c0-0.2-0.1-0.4-0.1-0.6H560C560.1,593.5,560.1,593.7,560.1,593.9z"/>
</g>
<g id="_0h8of5T2PY_3_sI6t6EG" transform="matrix(1 0 0 1 -384.94 -460.99)">
	<path vector-effect="non-scaling-stroke" d="M560,593.6c0,0,0,0.1,0,0.1h0.1L560,593.6z"/>
</g>
<g id="e-RalsbeM4yq55lDj556M" transform="matrix(1 0 0 1 -434.64 -442.19)">
	<path vector-effect="non-scaling-stroke" d="M560,593.7l0.1-0.1l0.1-0.2L560,593.7z"/>
</g>
<g id="fvKgVkwOms_BnywCt1_fg" transform="matrix(1 0 0 1 -440.46 -502.28)">
	<path vector-effect="non-scaling-stroke" d="M560.1,593.4L560.1,593.4c-0.1,0.1-0.1,0.3-0.1,0.4h0.1
		C560.2,593.7,560.2,593.6,560.1,593.4z"/>
</g>
<g id="sjpP3bCaywFIgGtxoEbBU" transform="matrix(1 0 0 1 -409.17 -430.26)">
	<path vector-effect="non-scaling-stroke" d="M559.8,593.6v0.1h0.5l0.2-0.1L559.8,593.6z"/>
</g>
<g id="Gv844jFnzizeHUPxh3Ysx" transform="matrix(1 0 0 1 -386.56 -460.64)">
	<path vector-effect="non-scaling-stroke" d="M560.1,593.7c0-0.1,0-0.1,0-0.2l0,0V593.7z"/>
</g>
<g id="rAGAScCq5ZCtH88tK8syr" transform="matrix(1 0 0 1 -439.88 -453.46)">
	<path vector-effect="non-scaling-stroke" d="M560.1,593.7v-0.1l0,0C560.1,593.6,560.1,593.6,560.1,593.7z"/>
</g>
<g id="mjoG5GA2X17Vin68qmffE" transform="matrix(1 0 0 1 -385.22 -462.43)">
	<path vector-effect="non-scaling-stroke" d="M559.7,592.4l0.6,2.4h0.1h0.1l-0.6-2.4L559.7,592.4z"/>
</g>
<g id="FRuOUR1_2YcaM9gDbeHPW" transform="matrix(1 0 0 1 -384.92 -461.17)">
	<path vector-effect="non-scaling-stroke" d="M560,593.6v0.1h0.2v-0.1L560,593.6L560,593.6z"/>
</g>
<g id="TOzH62vxZRYKdZYdyU1o5" transform="matrix(1 0 0 1 -399.95 -477.11)">
	<path vector-effect="non-scaling-stroke" d="M560.5,606c-0.6,1.9-1.3,3.7-2.2,5.5c-0.8,1.6-1.8,3.1-2.9,4.5l0.1-0.1
		c1.1-1.1,2-2.3,2.8-3.6c2.3-4,3.9-8.4,4.7-12.9c0.2-1,0.4-2.3,0.6-3.3c0.4-2.4,0.7-5,0.9-7.4c0.5-5.8,0.4-11.6-0.2-17.4l0,0
		c0.2,9.4-0.5,18.7-2.1,27.9"/>
</g>
<g id="ICnrA1TP_MmaFGDxOO0p8" transform="matrix(1 0 0 1 -395.79 -499.64)">
	<path vector-effect="non-scaling-stroke" d="M560.1,593.4c0,0.1,0,0.2,0,0.4l0,0C560.1,593.7,560.1,593.6,560.1,593.4z"/>
</g>
<g id="IJDE0brPLYBmoI2ePbWnC" transform="matrix(1 0 0 1 -404.75 -454.6)">
	<path vector-effect="non-scaling-stroke" d="M559.9,593.8c0.2-0.1,0.3-0.3,0.5-0.4l-0.1,0.1L559.9,593.8z"/>
</g>
<g id="m_LF-vyPju_8Ie0q7Uixq" transform="matrix(1 0 0 1 -410.58 -474.07)">
	<path vector-effect="non-scaling-stroke" d="M563.3,599.9c1-3.7,1.8-7.4,2.4-11.2c1.1-6.5,2.1-13.1,2.7-19.8l0,0
		c-1.9,9.8-3.4,19.8-5.7,29.5c-0.6,2.1-1.4,4.2-2.5,6.2c-1.6,3-3.3,5.9-5.2,8.7c-1.1,1.7-2.3,3.4-3.5,5h0.1c1.3-1.5,2.5-3.1,3.7-4.7
		C558.6,609.3,561.6,604.9,563.3,599.9z"/>
</g>
<g id="caqs_079R3D9m4pvmHdu4" transform="matrix(1 0 0 1 -402.17 -498.86)">
	<path vector-effect="non-scaling-stroke" d="M560.1,593.5c0,0.1,0,0.2,0,0.3l0,0L560.1,593.5z"/>
</g>
<g id="HmafCWtX3wLefvjHNarFd" transform="matrix(1 0 0 1 -419.14 -449.14)">
	<path vector-effect="non-scaling-stroke" d="M559.9,593.9l0.5-0.6h-0.1L559.9,593.9z"/>
</g>
<g id="mUFRCRkYCS2R02TjEfEnU" transform="matrix(1 0 0 1 -388.86 -332.09)">
	<path vector-effect="non-scaling-stroke" d="M560.2,593.8v-0.3l-0.3-0.1L560.2,593.8z"/>
</g>
<g id="HHbROWyFrwjxNbhoYd4Z1" transform="matrix(1 0 0 1 -424.24 -323.62)">
	<path vector-effect="non-scaling-stroke" d="M560.2,593.4c0,0.1-0.1,0.1-0.1,0.2v0.2L560.2,593.4z"/>
</g>
<g id="PF9Etq1DwZe1FzLuCspeH" transform="matrix(1 0 0 1 -400.23 -387.74)">
	<path vector-effect="non-scaling-stroke" d="M560,593.7h0.2l-0.1-0.2L560,593.7z"/>
</g>
<g id="_x39_ywzhl7N-l-rG43zEzbiE" transform="matrix(1 0 0 1 -413.23 -367.66)">
	<path vector-effect="non-scaling-stroke" d="M583.8,621.4c0.2,0.3,0.3,0.5,0.5,0.8c-0.2-2.4-0.5-4.8-0.8-7.1
		c-1-7.1-2.5-14.1-4.5-21c-0.2-0.7-0.4-1.3-0.5-2l-0.4,0.2l0.4-0.3c-1.7-6.1-3.4-12.3-5.2-18.3H573l0.2-0.3l0.1,0.2l6.7-1.7l2.5-0.6
		v-0.1h0.1v0.1l4.4-1.1c-3.5,0.7-10.5,2.3-14,3l-0.2,0.1c1.3,4.7,2.5,9.4,3.7,14.1c1.7,6.9,3.7,13.8,5,20.8c1.4,7,2.2,14.1,2.3,21.2
		v0.3c2,1,4,2.1,5.9,3.3c3,1.9,11.8,8.5,11.8,12c0,0.4-0.2,0.7-0.5,0.9c-1.9,0.3-4.9,0.7-7.2,0.9c-8.5,0.9-17,1.3-25.5,1.1
		c-3.4,0-6.7-0.3-10-0.9c-1.5-0.3-2.9-0.7-4.3-1.2c-2.1-0.8-4.2-2.3-4.5-4.6c-0.1-1.2,0.1-2.4,0.8-3.4l-0.1-0.2
		c-7-23.1-13.7-46.4-22.4-69c-0.7-1.8-1.6-3.6-2.6-5.2c-0.2-0.4-0.5-0.7-0.9-1c-0.7-0.6-1.2-1.4-1.5-2.2c-1.1-2.6-2-5.4-2.5-8.2
		l-0.5-0.1l0.5,0.1c-0.1-0.4-0.2-0.8-0.2-1.2c-0.4-1.9-0.7-3.8-1-5.8h-0.1h0.1c-0.3-2.2-0.6-4.4-0.9-6.6l0,0
		c0.4,6.4,1.4,12.7,3,18.9c0.3,1.1,0.7,2.1,1.1,3.1c0.4,1,1,1.9,1.8,2.7c0.2,0.2,0.4,0.4,0.6,0.7c0.9,1.7,1.7,3.4,2.4,5.2
		c0.8,2,1.6,4.1,2.4,6.1c7.4,20.6,13.6,41.6,19.9,62.6c0-0.1,0.1-0.1,0.1-0.2l-0.1,0.4v-0.2l-0.1,0.3c-0.5,1-0.7,2.2-0.5,3.3
		c0.3,2.7,2.8,4.4,5.1,5.3c1.4,0.6,2.9,1,4.5,1.3c3.3,0.6,6.7,0.9,10.1,0.9c11,0.3,22-0.4,33-2h0c0.2-0.1,0.4-0.2,0.5-0.3
		c2.8-2.8-4.3-8.6-6.4-10.4c-3.3-2.7-6.8-5-10.6-7v0.3l-0.3-0.4l0.3,0.1c0-2.2-0.1-4.4-0.3-6.6C584.2,622.1,584,621.7,583.8,621.4
		L583.8,621.4z"/>
</g>
<g id="wCA57hyvuoRGy8m8rO4bR" transform="matrix(1 0 0 1 -455.49 -423.23)">
	<path vector-effect="non-scaling-stroke" d="M560.1,593.3c0,0.2,0,0.4,0,0.6l0,0C560.1,593.7,560.1,593.6,560.1,593.3z"/>
</g>
<g id="_x38_NVKNVApcaVOL26ObAXQ5" transform="matrix(1 0 0 1 -379.97 -351.9)">
	<path vector-effect="non-scaling-stroke" d="M560,593.8l0.2-0.1v-0.2L560,593.8z"/>
</g>
<g id="UEo_UBFlZDNA-FNJSG0V6" transform="matrix(1 0 0 1 -368.7 -384.67)">
	<path vector-effect="non-scaling-stroke" d="M563.7,565.8l-3.8-5.5c-1-1.3-1.9-2.7-2.7-4.2c-2-4.4-3.6-9-4.8-13.7l-0.1,0.1
		c0.4,2,1,4,1.5,6l0.6,2l0.2-0.2c-0.1,0.1-0.1,0.1-0.2,0.2c0.6,2,1.3,4,2.2,5.9l0.3-0.2l-0.2,0.2c0.3,0.5,0.5,1,0.8,1.5
		c6,9.3,13,18.3,18.2,28.1c2,3.9,4,8.1,4.4,12.5c0.2,2.2-0.4,4.4-1.8,6.1c-6,8.3-20.9,16.4-30.1,21.2c-0.4,2.9-1.4,10.3-1.7,13.1
		l-0.5,4.3l0,0c-0.1,0.3-0.3,0.6-0.5,0.8c-0.3,0.2-0.6,0.3-1,0.2c-0.8-0.4-1.5-1-2-1.7c-0.9-1.1-1.8-2.3-2.5-3.5v0.3
		c1.1,1.9,2.8,4.6,4.2,5.2c0.5,0.1,1,0.1,1.5-0.1c0.4-0.2,0.6-0.5,0.7-0.9c0.1-0.1,0.1-0.3,0.1-0.4l0,0c0.8-4.7,1.9-12.1,2.6-16.9
		l-0.2,0.1l0.3-0.4v0.2c2-1,3.9-2,5.8-3c4-2.2,7.8-4.5,11.5-7.1c3.8-2.5,7.2-5.4,10.3-8.7c1.8-2.1,3.6-4.6,3.8-7.5
		c0.1-3.9-1.6-7.8-3.1-11.3C573.4,580.8,568.9,573.1,563.7,565.8z"/>
</g>
<g id="OKeRgzp1sbpjU8lcxnBRK" transform="matrix(1 0 0 1 -376.6 -436.04)">
	<path vector-effect="non-scaling-stroke" d="M560,593.4l0.1,0.5l0.1-0.1L560,593.4L560,593.4z"/>
</g>
<g id="zeiIpNdyg4ViTfXK65kkN" transform="matrix(1 0 0 1 -389.32 -339.36)">
	<path vector-effect="non-scaling-stroke" d="M559.9,593.1L559.9,593.1c0.1,0.3,0.3,0.7,0.5,1v-0.3
		C560.2,593.7,560,593.4,559.9,593.1z"/>
</g>
<g id="_x32_IGLd4U9IF8zeMiXr_x5F_G1K" transform="matrix(1 0 0 1 -390.47 -373.83)">
	<path vector-effect="non-scaling-stroke" d="M560.5,594.2c1.3-1.5,2.5-3,3.6-4.6c0.1-0.2,0.3-0.4,0.4-0.6l0,0
		c-0.5,0.3-0.9,0.6-1.3,0.9c-0.8,0.7-1.6,1.6-2.3,2.4c-1.1,1.3-2.1,2.6-3.2,3.8c-0.6,0.7-1.2,1.4-1.9,2v0.1c0.9-0.5,1.6-1,2.4-1.7
		C558.9,595.8,559.7,595,560.5,594.2z"/>
</g>
<g id="_x36_1tXS5It5pVMy7CwVmeMd" transform="matrix(1 0 0 1 -395.05 -369.17)">
	<path vector-effect="non-scaling-stroke" d="M559.9,593.8l0.4-0.2v-0.1L559.9,593.8z"/>
</g>
<g id="ZBdICwXUVADUKjburGIvt" transform="matrix(1 0 0 1 -387.7 -382.86)">
	<path vector-effect="non-scaling-stroke" d="M559.8,593.7c0.6,1.5,1.2,2.9,1.9,4.3l0.1-0.1l-0.1,0.1c0.2,0.3,0.3,0.6,0.5,1
		c0.3,0.6,0.7,1.1,1.1,1.6h0.1c-0.7-2.5-1.7-4.9-3-7.2c-1.1-2.2-2.3-4.7-3.5-6.9h-0.1c0.5,1.2,1,2.4,1.4,3.6L559.8,593.7z"/>
</g>
<g id="FidX7-XxbGhSmkKFIQd9t" transform="matrix(1 0 0 1 -390.92 -390.03)">
	<path vector-effect="non-scaling-stroke" d="M560.1,593.6L560.1,593.6L560.1,593.6L560.1,593.6L560.1,593.6z"/>
</g>
<g id="BcwYX6TFw9m0QKvgw6QdT" transform="matrix(1 0 0 1 -386.08 -378.55)">
	<path vector-effect="non-scaling-stroke" d="M560.1,593.7L560.1,593.7L560.1,593.7L560.1,593.7z"/>
</g>
<g id="RjUiaWmK5FoJx3tfLVfok" transform="matrix(1 0 0 1 -449.05 -415.17)">
	<path vector-effect="non-scaling-stroke" d="M564.9,594.2c-3.6-0.5-7-1.1-10.3-1.7l0,0c3.6,0.9,7.3,1.7,11,2.3L564.9,594.2z"/>
</g>
<g id="_x2D_P_x5F_u1uE8SOsW2poNuwtrc" transform="matrix(1 0 0 1 -409.03 -419.9)">
	<path vector-effect="non-scaling-stroke" d="M590.7,588.7c-7.4,4.6-15.8,7.5-24.2,9.8c-10,2.5-21.7,2.5-32.9,1.4l-0.6,0.6l-0.7-0.7
		l0,0c-2.1-0.2-4.2-0.5-6.3-0.8l-0.4,0.4c4.9,0.8,9.9,1.4,14.9,1.7c6.8,0.5,13.7,0.3,20.4-0.7c1-0.2,2.3-0.4,3.3-0.6
		c1.7-0.4,3.4-0.9,5.1-1.4c5.9-1.7,11.6-4.1,17.1-7c3-1.6,5.8-3.6,8.3-5.9l0,0c-0.2,0.2-0.5,0.5-0.8,0.7
		C592.8,587.2,591.8,588,590.7,588.7z"/>
</g>
<g id="A2oGJgP3ai2Z2NjfZ5Q1W" transform="matrix(1 0 0 1 -454.61 -416.3)">
	<path vector-effect="non-scaling-stroke" d="M560,593.6h0.1l0,0H560z"/>
</g>
<g id="fmxvFe9hiYQ6BWemRadBB" transform="matrix(1 0 0 1 -374.39 -427.89)">
	<path vector-effect="non-scaling-stroke" d="M560.2,593.5l-0.2,0.2l0,0C560.1,593.7,560.1,593.6,560.2,593.5z"/>
</g>
<g id="_x30_iQ96ZE3dbVuG0k2dx4_x5F_E" transform="matrix(1 0 0 1 -412.76 -413.56)">
	<path vector-effect="non-scaling-stroke" d="M588.5,592.8c-4.4,2.1-9,3.8-13.7,5.2l-3.2,0.9l-1.9,0.5l-1.3,0.3
		c-7.5,1.3-15,1.8-22.6,1.3c-8.8-0.5-17.5-1.5-26.1-3.2l0,0c10.3,2.5,20.8,3.9,31.5,4.2c1.8,0,3.6,0,5.4,0c3.6-0.1,7.2-0.5,10.7-1.1
		c0.8-0.1,1.9-0.4,2.7-0.6l2-0.5l3.2-1c6.4-1.9,12.6-4.7,18.4-8.1c2.6-1.5,5-3.4,7.2-5.4l0,0c-1.3,1.1-2.6,2.1-4,3
		C594,590,591.3,591.5,588.5,592.8z"/>
</g>
<g id="DEnV095PyzHJ_r2eSmc5c" transform="matrix(1 0 0 1 -453.5 -409.39)">
	<path vector-effect="non-scaling-stroke" d="M559.9,593.6l0.5,0.1l0,0L559.9,593.6z"/>
</g>
<g id="_x37_Dj5V_x5F_MoCKSfw9bdyJdVJ" transform="matrix(1 0 0 1 -372.16 -422.03)">
	<path vector-effect="non-scaling-stroke" d="M560.2,593.5l-0.3,0.2l0,0L560.2,593.5z"/>
</g>
<g id="_x33_1PLkROmAHfT-qVhTZJ5O" transform="matrix(1 0 0 1 -441.53 -416.9)">
	<path vector-effect="non-scaling-stroke" d="M557.4,595.9l1.1,0.2l4.3-4.9l-1.4,0.1L557.4,595.9L557.4,595.9z"/>
</g>
<g id="fcOfq__b-hroXt7X8Yi6S" transform="matrix(1 0 0 1 -443.54 -414.01)">
	<path vector-effect="non-scaling-stroke" d="M560.1,593.6"/>
</g>
<g id="XARK7S8lzPx9kw0QtEQrf" transform="matrix(1 0 0 1 -439.47 -419.61)">
	<path vector-effect="non-scaling-stroke" d="M560.8,593.8l-0.7-0.6l-0.8,0.9L560.8,593.8L560.8,593.8z"/>
</g>
<g id="oiKhahEUwZr2sAJSvelbt" transform="matrix(1 0 0 1 -443.7 -414.33)">
	<path vector-effect="non-scaling-stroke" d="M560.3,593.9L560.3,593.9l0.4-0.4l-1.1-0.2L560.3,593.9z"/>
</g>
<g id="OdxyoLoI6hNguCbKZPg4s" transform="matrix(1 0 0 1 -432.54 -417.57)">
	<path vector-effect="non-scaling-stroke" d="M555.8,597.5l1.2,0.1c1.1-1,3.5-3.3,5-5c0.9-0.9,1.6-1.9,2.3-2.9
		c-0.5,0.1-0.9,0.3-1.4,0.4c-0.5,0.7-1,1.3-1.6,1.9C559.4,594.2,556.1,597.2,555.8,597.5z"/>
</g>
<g id="g8m96EWyT-XafzlJLr2fA" transform="matrix(1 0 0 1 -428.91 -421.57)">
	<path vector-effect="non-scaling-stroke" d="M560.8,593.6l-0.8-0.4c0,0-0.2,0.3-0.6,0.9C559.9,594,560.3,593.8,560.8,593.6
		C560.8,593.7,560.8,593.6,560.8,593.6z"/>
</g>
<g id="oS2qhhwu_ph2QZVUM94Hx" transform="matrix(1 0 0 1 -436.2 -413.37)">
	<path vector-effect="non-scaling-stroke" d="M559.5,593.3l0.7,0.7l0.6-0.6L559.5,593.3L559.5,593.3z"/>
</g>
<g id="jVSsjbNUvZIdV-_9Hu3td" transform="matrix(1 0 0 1 -380.78 -567.54)">
	<path vector-effect="non-scaling-stroke" class="st5" d="M556.3,602.2l-0.4-1.3c-0.1-0.3-0.1-0.7,0-1c0.7-3.7,1.8-7.3,3.3-10.8
		l-5.3,1.6c-0.2,0.1-0.4,0.1-0.6,0c-0.2-0.1-0.3-0.2-0.4-0.4l-0.6-2c-0.1-0.3,0.1-0.5,0.3-0.6l10.4-3.1c0.2-0.1,0.4,0,0.5,0
		c0.2,0.1,0.3,0.2,0.3,0.4l0.4,1.4c0.1,0.4,0,0.6-0.2,1c-1.5,2.8-3.7,7.6-4,10.8l6.5-1.9c0.2-0.1,0.3,0,0.5,0
		c0.1,0.1,0.2,0.2,0.3,0.4l0.6,2c0.1,0.2,0.1,0.3,0,0.5s-0.2,0.3-0.4,0.3l-10.5,3.1c-0.2,0.1-0.3,0-0.5,0
		C556.4,602.5,556.3,602.4,556.3,602.2z"/>
</g>
<g id="HixTvbTjAMBIx0YzWO0XQ" transform="matrix(1 0 0 1 -366.87 -578.04)">
	<path vector-effect="non-scaling-stroke" class="st5" d="M552.2,598.8l0.4-1.3c0.1-0.3,0.3-0.6,0.5-0.8c2.6-2.7,5.6-5.2,8.7-7.3
		l-5.3-1.5c-0.4-0.1-0.7-0.5-0.6-0.9l0.6-2.1c0.1-0.3,0.4-0.4,0.6-0.4l10.4,3c0.2,0,0.3,0.2,0.4,0.3c0.1,0.2,0.1,0.3,0.1,0.5
		l-0.4,1.4c-0.1,0.4-0.3,0.5-0.8,0.7c-2.8,1.5-7.3,4.4-9.3,6.9l6.5,1.9c0.2,0,0.3,0.1,0.4,0.3c0.1,0.1,0.1,0.3,0,0.5l-0.6,2
		c0,0.2-0.1,0.3-0.3,0.4c-0.1,0.1-0.3,0.1-0.5,0l-10.5-3c-0.2,0-0.3-0.1-0.4-0.3C552.2,599.2,552.1,599,552.2,598.8z"/>
</g>
<g id="ndKiLxh5cal94HqJiSJ9v" transform="matrix(1 0 0 1 -350.89 -584.55)">
	<path vector-effect="non-scaling-stroke" class="st5" d="M555.1,601.7l-0.2-1.3c-0.1-0.3,0-0.7,0.1-1c1.2-3.6,2.8-7,4.8-10.3
		l-5.5,0.8c-0.2,0.1-0.4,0-0.6-0.1c-0.2-0.1-0.3-0.3-0.3-0.5l-0.3-2.1c0-0.3,0.2-0.5,0.4-0.6l10.8-1.6c0.4-0.1,0.7,0.2,0.8,0.6
		l0.2,1.5c0.1,0.4,0,0.6-0.3,1c-1.9,2.5-4.7,7-5.5,10.2l6.7-1c0.2,0,0.3,0,0.5,0.1s0.2,0.2,0.2,0.4l0.3,2.1c0,0.2,0,0.3-0.1,0.5
		c-0.1,0.1-0.2,0.2-0.4,0.2l-10.8,1.6c-0.2,0-0.3,0-0.5-0.1C555.2,602,555.1,601.8,555.1,601.7z"/>
</g>
</svg>
