<?xml version="1.0" encoding="utf-8"?>
<!-- Generator: Adobe Illustrator 26.0.2, SVG Export Plug-In . SVG Version: 6.00 Build 0)  -->
<svg version="1.1" id="Слой_1" xmlns="http://www.w3.org/2000/svg" xmlns:xlink="http://www.w3.org/1999/xlink" x="0px" y="0px"
	 viewBox="0 0 289.3 291.3" style="enable-background:new 0 0 289.3 291.3;" xml:space="preserve">
<style type="text/css">
	.st0{fill:url(#SVGID_1_);}
	.st1{fill:#606060;}
	.st2{fill:#811619;}
	.st3{fill:#343434;}
	.st4{fill:#FFFFFF;}
	.st5{fill:#C2C2C2;}
	.st6{fill:#B21533;}
	.st7{fill:#5E2B35;}
</style>
<desc>Created with Fabric.js 4.6.0</desc>
<g id="sPMT_7F25kyPJMm_SHR1J" transform="matrix(1 0 0 1 17.03 -455.86)">
	<g>
		<g vector-effect="non-scaling-stroke">
			
				<radialGradient id="SVGID_1_" cx="1299.6765" cy="-1914.205" r="93.19" gradientTransform="matrix(1.34 0 0 -1.32 -1610.6099 -1935.8947)" gradientUnits="userSpaceOnUse">
				<stop  offset="0.37" style="stop-color:#811619"/>
				<stop  offset="1" style="stop-color:#B21533"/>
			</radialGradient>
			<path class="st0" d="M13.5,694.2c-16.5,0-30-13.5-30-30V523.7c0-16.5,13.5-30,30-30h228.3c16.5,0,30,13.5,30,30v140.6
				c0,16.5-13.5,30-30,30H13.5z"/>
		</g>
	</g>
</g>
<g id="_x34_H8CVDp9foTCgm4c4maLg" transform="matrix(1 0 0 1 12.85 -313.13)">
	<path vector-effect="non-scaling-stroke" class="st1" d="M31.5,594c0-5.5,43-10,96.1-10s96.1,4.5,96.1,10s-43,10-96.1,10
		S31.5,599.5,31.5,594z"/>
</g>
<g id="_x36_YPJIzwIMd5ik3g5gN3u-" transform="matrix(1 0 0 1 84.6 -553.4)">
	<path vector-effect="non-scaling-stroke" class="st2" d="M127.5,601.4c2.4,0.3,4.9,0,7.2-0.8l0,0c1.7-3,1.2-7.1,0.9-10.3
		c-0.1-1-0.2-2-0.4-3c-2.5,1.5-5.5,2.2-8.4,2c-2.7-0.2-5.3-1.2-7.5-2.7c0.8,3.4,1.3,6.9,1.2,10.4c0,0.6,0,1.2,0,1.8
		c1.1,0.6,2.2,1.2,3.4,1.6C125,600.8,126.3,601.1,127.5,601.4z"/>
</g>
<g id="YQ33EZdUGwoLrsX0h5GzY" transform="matrix(1 0 0 1 14.12 -367.05)">
	<path vector-effect="non-scaling-stroke" class="st3" d="M123.9,634.6c0-0.2,0-0.3-0.1-0.5V634c0,0,0,0.1,0,0.1
		c-1.5-10.2-2.6-21-2.2-31.3c0.7-10.4,2-20.7,3.9-30.9c-5.2-1-11.1-2.2-15.4-3c2.9,0.4,7.4,1.2,10.3,1.7c3.5,0.6,6.9,1.2,10.4,1.9
		c0.6,2.5,1.2,4.9,1.8,7.4c4,16.9,7.8,34.2,10.9,51.3l0.4-0.3l-0.4,0.4v0.1v-0.1c-3.4,3.2-7.1,6.7-10.3,10.1
		c-0.5,0.6-3.1,3.3-2.6,3.8c0.3,0.4,0.8,0.7,1.2,0.9c0.7,0.3,1.4,0.6,2.2,0.8c4.7,1.2,9.5,1.8,14.3,1.6c3.2,0,6.4-0.3,9.6-0.9
		c4.6-0.8,12.5-2,16-5c0.8-0.6,1.2-1.6,1-2.6c0-0.4-0.1-1.4-0.2-1.8l-0.3-3.2c0,0-0.2-1.8-0.3-3.5v-0.5l0,0c0-0.6-0.1-1.1-0.1-1.7
		v-0.1l0,0c-0.3-4.8-0.2-9.9-0.2-14.5c-0.6-19.8-2.2-41-3.6-61.2c-1-4.8-1.6-9.7-1.9-14.6c-2.2,1-4.4,1.9-6.7,2.8
		c-8.2,3.2-16.6,5.8-25.1,7.8c-2.4,0.5-5.3,1.1-7.8,1.5c-2.6,0.4-5.3,0.7-7.9,0.9l-2,0.1l-3.3,0.1c-1.2,0-2.7-0.1-4-0.1
		c-1.3,0-2.7-0.2-4-0.3c-4.4-0.4-8.7-1.3-12.9-2.5c-2.3-0.7-4.6-1.5-6.7-2.6c-0.2,9.5,0.2,19.3,0.5,28.7c0.5,12.3,1.2,24.6,2.3,36.8
		c0.4,4,0.9,8.2,1.5,12.2c0.3,1.6,0.6,3.2,1,4.8l0.6-0.4c-3.3,3.2-7.1,6.7-10.3,10c-1,1.1-2,2.2-2.9,3.4c-0.2,0.2-0.3,0.5-0.4,0.8
		c0.4,1.4,5.1,2.4,6.5,2.7c9,1.7,18.3,0.8,27.1-1.2c2.9-0.7,9.9-2.2,10.8-5.4c0.1-0.4,0.1-0.7,0-1.1c-0.1-0.7-0.2-1.5-0.3-2.2
		c-0.1-0.6-0.3-1.3-0.6-1.9c0,0,0-0.1,0-0.1L123.9,634.6z"/>
</g>
<g id="v0c2nN2u9ePDjpDPiH2X4" transform="matrix(1 0 0 1 82.4 -534.88)">
	<path vector-effect="non-scaling-stroke" class="st2" d="M121.8,601.7c1.4,1.1,3.1,1.8,4.8,2.1c1.1,0.2,2.2,0.4,3.4,0.5
		c1.7-1,3.2-2.3,4.6-3.6c0.6-0.6,1-1.3,1.3-2c0.6-1.4,1-2.8,1.3-4.3c-0.7,0-1.3-0.1-2-0.3c-1.7-0.4-3.2-1-4.7-1.8
		c-3.6-2-6.5-5.1-8.2-8.9c-0.6,5.2-2.1,10.2-4.5,14.8C119.1,599.6,120.4,600.7,121.8,601.7z"/>
</g>
<g id="RiXPMuhU8dQWCojgGvf6S" transform="matrix(1 0 0 1 16.2 -462.09)">
	<path vector-effect="non-scaling-stroke" class="st2" d="M169,557.2c-14.4,11.9-28.3,24.6-41.6,37.7c-13.5,13-27.3,25.7-41.2,38.2
		c0-0.8,0.1-1.6,0.1-2.3c0-0.4,0-0.8,0.1-1.2c0.5-0.6,1-1.3,1.5-1.9l2.1-2.6c8.5-10.1,17.3-20.1,26.5-29.6
		c13.7-13.9,28.2-27.3,42.8-40.3l0.5-0.5c1.7,1.8,4.5,2,6.9,2.2C167.4,557.1,168.2,557.1,169,557.2z"/>
</g>
<g id="_x30_VFJHHh9rQbqkmpPmUn9r" transform="matrix(1 0 0 1 41.7 -581.84)">
	<path vector-effect="non-scaling-stroke" class="st3" d="M157.4,604.3c-2.6,0.1-5.1,0.2-7.7,0.2c-8,0.1-15.9-0.5-23.8-2
		c-5.2-1.1-10.2-2.8-15-4.9c-3.9-1.7-7.6-3.7-11.1-6.2l-0.2-0.1c-0.7-0.5-1.4-1.1-2-1.7c6.2-3.7,13.2-5.8,20.3-6.2
		c7-0.3,14,1.1,20.4,4C146.4,591.1,153,596.9,157.4,604.3z"/>
</g>
<g id="p5Agfl3onkl4pyiMUyh3b" transform="matrix(1 0 0 1 40.62 -574.57)">
	<path vector-effect="non-scaling-stroke" class="st2" d="M162.3,605.2c-9.2,0.6-18.5,0.4-27.7-0.6c-6.2-0.7-12.3-2.1-18.1-4.3
		c-0.6-0.2-1.6-0.6-2.2-0.8c-5.1-2-9.9-4.5-14.5-7.4c-1.7-1.1-3.4-2.3-5-3.7c-0.7-0.6-1.3-1.2-1.9-1.8c1.8-1.6,3.8-3,5.9-4.3
		c0.6,0.6,1.3,1.3,2,1.9c5.1,4.4,12.3,7.7,18.3,9.8c10.1,3.6,21.1,4.1,31.7,3.7c2.6-0.2,5.1-0.3,7.7-0.7
		C160.1,599.6,161.4,602.4,162.3,605.2z"/>
</g>
<g id="e827J0erxkSLIvRyJYRGt" transform="matrix(1 0 0 1 34.59 -545.26)">
	<path vector-effect="non-scaling-stroke" class="st3" d="M168.4,576c-4.6,0.6-9.1,0.9-13.7,1c-7.9,0.2-15.7-0.5-23.4-2.2
		c-6.1-1.5-12-3.7-17.6-6.7c-3.5-1.8-6.8-3.9-9.9-6.3c-1-0.8-2-1.6-3-2.5c-0.6-0.6-1.2-1.2-1.8-1.9c-4.1,3.5-7.4,7.9-9.8,12.7
		c-2.8,5.8-4.3,12.2-4.2,18.7c0.5,30.7,32.5,50.6,60.7,37.8c14.8-6.7,24.9-21.6,24.8-37.8C170.4,584.4,169.7,580.1,168.4,576z
		 M150.9,594.7c-0.5,4-3.3,7.4-7.1,8.9c-1.1,0.4-2.2,0.6-3.3,0.7c-8.6,2-17.6,2.1-26.3,0.2c-6.8-1.7-13.3-5.3-17.6-10.8
		c-1-0.9-1.7-2-2.3-3.2c-2-4.3-1.9-9.5,1.3-13.2c2.6-3.1,6.7-4.6,10.7-3.8c2.1,0.7,4,2,5.4,3.7c2.7,2.1,5.8,3.8,9.1,4.8
		c3.4,0.8,7.1,0.7,10.6,0.7c2.4,0,4.8,0,7.2,0c5-1.3,9.8-0.5,11.6,4.9c0.5,1.5,0.7,3,0.8,4.6C151,593.2,151,594,150.9,594.7z"/>
</g>
<g id="e9g3h1pOuya1yjaF7H-cU" transform="matrix(1 0 0 1 34.35 -454.27)">
	<path vector-effect="non-scaling-stroke" class="st3" d="M89.2,607.4c-6.8,6.3-13.6,12.5-20.5,18.6c9.4,1.9,19,3,28.7,3.1
		c6.4,0,12.9-0.7,19.2-1.9c2.1-0.4,4.3-1,6.3-1.7c-1.2-1.7-1.7-3.7-1.5-5.8c0.5-6.5,4.4-12.2,10.3-15.1c4.2-2.1,9.7-2.9,13.6,0.2
		c-0.9-3.4-1.5-6.8-1.6-10.3c-0.5-8.2,0.9-16.4,4.3-23.9c-0.8-1.3-1.6-2.5-2.3-3.8c4.2,5,8.1,10.6,11.8,15.9c2,3.1,3.6,6.4,5,9.8
		c0.5-0.2,0.9-0.5,1.4-0.7c2.3-1.2,4.6-2.2,7-3c-2.4,0.8-4.7,1.9-7,3.1c-0.5,0.2-0.9,0.5-1.4,0.7l0.3,0.8l-0.4-0.7
		c-6.2,3.5-11.3,8.4-16.5,13.2l-0.2,0.2v0.2v-0.2l-0.1,0.1c-0.2-0.2-0.4-0.4-0.6-0.6c-3.1-2.4-7.5-2.2-11-0.8
		c-0.9,0.4-1.9,0.8-2.8,1.3c-5,2.9-8.3,8.1-8.8,13.8c-0.2,2.5,0.5,5.5,3,6.5c0.6,0.2,1.3,0.4,1.9,0.4c0.7,0.1,1.4,0.1,2.1,0.2
		c3.3,0.2,7,0.2,10-1.6c0.6-0.4,1.1-0.8,1.5-1.4c0.4-0.5,0.9-1,1.5-1.4c1.7-1.2,3.5-2.2,5.5-3c-1.9,0.8-3.7,1.8-5.4,3.1
		c-0.5,0.4-1,0.9-1.5,1.4c-0.4,0.6-0.9,1.1-1.5,1.5c-1.8,1.2-3.9,1.9-6,2c-2.5,0.2-4.9,0.2-7.4-0.1c-1.3-0.2-2.4-0.9-3.2-1.9
		c-2.1,0.8-4.2,1.4-6.3,1.9c-3.4,0.8-6.9,1.3-10.4,1.7c-2.9,0.3-5.9,0.6-8.8,0.6c-9.9,0.1-19.7-0.9-29.3-2.8
		c-0.1,1.3-0.1,2.5-0.2,3.5c0,0.3,0,2.7,0,3.1c0,0.2,0,0.5,0,0.7c1.9,0.7,3.8,1.4,5.7,1.9c1.6,0.4,3.5,0.9,5.1,1.2
		c3,0.6,6,1,9.1,1.2c1.2,0.1,2.7,0.2,3.9,0.2h2.6c1.2,0,3.4-0.1,4.6-0.1l3.3-0.2c12.6-1.2,24.9-4.6,36.9-8.5c3.1-1,6.2-2.1,9.3-3.3
		c0-0.6,0-1.3,0-1.9l-0.1-4l0,0V620c0,0.2,0.1,0.3,0.2,0.5c0.2,0,0.5,0,0.7,0c0.3,0,0.6-0.1,0.9-0.2c0.5-0.3,0.8-0.8,1-1.3v-0.1h0.1
		c10.8-0.6,21.5-4.7,29.3-12.2c1.9-1.9,3.6-3.9,5.1-6.1c0.8-1,1.4-2.2,1.8-3.4c0.6-2.5,0.6-5.1,0-7.7c-2.5-10.8-10.6-22.6-17.6-31.2
		c-1.7-2.1-3.5-4-5.5-5.8c-0.9-0.7-1.9-1.3-2.9-1.8c-3.2-1.4-6.6-1.3-10-1.4c-6.9,6-13.7,12.3-20.4,18.5
		C116.5,580.8,103.3,594.5,89.2,607.4z"/>
</g>
<g id="hu79r2DhYrDNu9GNGOZ3Z" transform="matrix(1 0 0 1 -12.9 -485.53)">
	<path vector-effect="non-scaling-stroke" class="st3" d="M188.9,578.3c-15.4,12.5-30.1,25.9-44,40.1
		c-10.5,10.9-20.3,22.5-29.4,34.7v-0.7c1.4-20.4,4.3-40.9,10.8-60.3c-1.2,3.3-2.3,6.6-3.3,9.9c-6.9,3.7-14.3,6.4-21.9,8.2
		c-7.4,1.5-15.5,1.8-22.4-1.7c-9-4.5-8.3-22.7-7.8-31.4c0.3-3.9,0.7-7.8,1.4-11.6c-0.5-0.3-0.9-0.6-1.3-0.9
		c-5.7-4.9-5.1-13-3.5-19.7l0.8,0.6v0.1l-0.4,2.9c0,0.2,0.1,0.4,0.3,0.4c0.2,0,0.4-0.1,0.4-0.3l0.7-2.8l0,0l0.1-0.7
		c0.6-3.2,4.2-9.8,11.5-10.1c2.2-0.1,3.7,0.2,4.5,1c1.1,1.1,1.2,3,1.2,5.3c0,1,0,2,0.1,3c0,0.7,0.1,1.4,0.1,2l0,0
		c0.1,1.3,0.2,2.6,0.2,3.9c0,1.3,0.1,2.6,0,3.9c0,1.4-0.2,2.7-0.6,4c-0.5,1.1-1.3,2-2.3,2.7c-0.1,0-0.2,0.1-0.2,0.2s0.1,0.2,0.2,0.2
		c0.1,0,0.2,0,0.3,0c0.3-0.2,0.6-0.5,0.9-0.7c1.5,4.8,3.1,9.5,4.5,14.3c0.8,2.7,1.5,5.5,2.2,8.2l-0.3,0.1l0.3-0.1
		c0.6,2.2,1.1,4.5,1.6,6.8c-0.1-2.3-0.4-4.7-0.8-7l2-0.6c11.4-3.6,23-7.6,34.4-10.9c0.8-0.2,1.7-0.4,2.6-0.6c0.5,0,1,0,1.6,0
		c3.4,0.3,6.8,1,10,2.1c0.9,0.3,1.8,0.5,2.7,0.8l1.6,0.4c3.9,1.3,6.2-3.6,7.2-6.8c10.1,5.3,22,6.4,32.9,3c-0.6,2.4-0.8,5,0.5,7.1
		C188.5,577.7,188.6,578,188.9,578.3z"/>
</g>
<g id="h77BsPrvffMlMRhwSu1sV" transform="matrix(1 0 0 1 28.76 -549.66)">
	<path vector-effect="non-scaling-stroke" class="st4" d="M130,588c-1.2-0.1-2.5-0.3-3.7-0.6c-3.4-1.2-6.4-3.1-8.8-5.7
		c-2-1.5-4.1-3-6.7-3.2c-1.8,0-3.6,0.4-5.3,1.2c-5.7,3-7.3,9.2-5.1,15c0.5,1.4,1.3,2.7,2.3,3.8l-0.2-0.2c5.6,5.5,12.8,9,20.5,10.1
		c7.3,1.1,14.8,1.1,22.1,0.2H145c1.5-0.1,3-0.5,4.4-1.2c3.4-1.6,5.7-4.8,6.2-8.5c0.2-2.2,0-4.4-0.6-6.6c-1.5-5.2-6-5.9-10.8-5.2h0.1
		C139.5,588.1,134.7,588.3,130,588z M114.9,591.8c-0.3,1.2-0.7,2.3-1.2,3.4c-0.5,0.8-1,1.3-1.4,1.3h-0.1c-0.5-0.1-0.7-0.7-0.8-1.8
		c0-2.4,0.5-4.8,1.6-7c0.5-0.9,1-1.4,1.5-1.3s0.7,0.7,0.8,1.8C115.3,589.4,115.2,590.7,114.9,591.8L114.9,591.8z M136.7,596.5
		c0.6-2.5,1.8-4.9,2.7-4.7s1,2.9,0.4,5.4s-1.7,4.7-2.6,4.7h-0.1C136.2,601.6,136.2,599,136.7,596.5L136.7,596.5z"/>
</g>
<g id="uLxOH4Q5Z3V-qH2UfWoLQ" transform="matrix(1 0 0 1 -61.91 -549.7)">
	<path vector-effect="non-scaling-stroke" class="st5" d="M124.4,599.5c-1-0.1-1.7-1-1.6-2.1c0.1-1,1-1.8,2-1.7s1.8,0.9,1.8,1.9
		c0,0.4-0.1,0.8-0.3,1.1c0.4-0.1,0.8-0.2,1.2-0.3c-0.2-0.2-0.3-0.5-0.2-0.7c0-1.1,0.9-1.9,1.9-1.9s1.9,0.9,1.9,1.9
		c0,0.1,0,0.3-0.1,0.4c0.6,0,1.1,0.1,1.7,0.2c-0.1-0.2-0.1-0.4-0.1-0.6c0-0.6,0.4-1.1,1-1.2s1.2,0.3,1.3,0.8
		c0.2,0.6-0.1,1.2-0.6,1.4c0.3,0.2,0.6,0.4,0.9,0.7c1.5,1.3,1.5,3.6,1.5,6.1c0,1,0,1.9,0.1,3l0.1,1.7c3-2,5.3-4.8,6.7-8.1
		c5.4-12.8-5.7-26.4-19.5-24c-10.4,1.9-16.1,13-12.9,22.7c0.6,1.8,1.5,3.5,2.6,5c1,1.4,2.2,2.6,3.5,3.6l0.1-0.3
		C118.3,605.1,120.8,601.6,124.4,599.5z M140.7,593.1c0.4,0,0.8,0.4,0.8,0.8s-0.4,0.8-0.8,0.8c-0.4,0-0.8-0.4-0.8-0.8
		c0-0.2,0.1-0.4,0.2-0.6C140.3,593.1,140.5,593.1,140.7,593.1z M137.6,600.7c-0.3,0-0.6-0.2-0.7-0.5s-0.1-0.6,0.2-0.9
		c0.2-0.2,0.6-0.3,0.9-0.2s0.5,0.4,0.5,0.7C138.4,600.3,138.1,600.7,137.6,600.7L137.6,600.7z M137.6,587.1c0.4,0,0.8,0.4,0.8,0.8
		c0,0.4-0.4,0.8-0.8,0.8c-0.4,0-0.8-0.4-0.8-0.8c0-0.2,0.1-0.4,0.2-0.6C137.2,587.2,137.4,587.1,137.6,587.1L137.6,587.1z
		 M137,592.8c0.6,0,1.1,0.5,1,1.1s-0.5,1.1-1.1,1.1s-1.1-0.5-1.1-1.1c0-0.3,0.1-0.6,0.3-0.8C136.5,592.9,136.7,592.8,137,592.8z
		 M122.4,595.8c-1,0-1.9-0.9-1.9-1.9c0-1,0.9-1.9,1.9-1.9c1,0,1.9,0.9,1.9,1.9c0,0.5-0.2,1-0.6,1.3
		C123.4,595.6,123,595.8,122.4,595.8z M131.5,595.8c-1,0-1.9-0.9-1.9-1.9c0-1,0.9-1.9,1.9-1.9c1,0,1.9,0.9,1.9,1.9
		c0,0.5-0.2,1-0.6,1.3S132,595.8,131.5,595.8z M134.9,590.1c0,0.5-0.3,0.9-0.7,1.1c-0.4,0.2-1,0.1-1.3-0.2c-0.3-0.3-0.4-0.9-0.3-1.3
		c0.2-0.4,0.6-0.7,1.1-0.7c0.3,0,0.6,0.1,0.8,0.3S134.9,589.8,134.9,590.1z M133.7,581.7c0.4,0,0.8,0.4,0.8,0.8
		c0,0.4-0.4,0.8-0.8,0.8c-0.4,0-0.8-0.4-0.8-0.8c0-0.2,0.1-0.4,0.2-0.6C133.3,581.8,133.5,581.7,133.7,581.7z M131.8,584.4
		c0.6,0,1.1,0.5,1.1,1.1s-0.5,1.1-1.1,1.1c-0.6,0-1.1-0.5-1.1-1.1c0-0.3,0.1-0.6,0.3-0.8C131.3,584.5,131.5,584.4,131.8,584.4
		L131.8,584.4z M131,590.1c0,0.8-0.4,1.5-1.2,1.8c-0.7,0.3-1.5,0.1-2.1-0.4c-0.6-0.5-0.7-1.4-0.4-2.1c0.3-0.7,1-1.2,1.8-1.2
		C130.2,588.2,131,589,131,590.1z M126.8,581.2c0.3,0,0.6,0.2,0.7,0.5c0.1,0.3,0.1,0.6-0.2,0.9c-0.2,0.2-0.6,0.3-0.9,0.2
		c-0.3-0.1-0.5-0.4-0.5-0.7c0-0.2,0.1-0.4,0.2-0.6S126.6,581.2,126.8,581.2z M126.8,585.2c0.6,0,1.2,0.5,1.2,1.2
		c0,0.6-0.5,1.2-1.2,1.2c-0.6,0-1.2-0.5-1.2-1.2c0-0.3,0.1-0.6,0.3-0.9C126.2,585.3,126.5,585.1,126.8,585.2L126.8,585.2z
		 M124.7,588.2c1,0,1.9,0.9,1.9,1.9s-0.9,1.9-1.9,1.9s-1.9-0.9-1.9-1.9C122.8,589,123.6,588.2,124.7,588.2L124.7,588.2z
		 M121.9,584.4c0.6,0,1.1,0.5,1.1,1.1c0,0.6-0.5,1.1-1.1,1.1c-0.6,0-1.1-0.5-1.1-1.1c0-0.3,0.1-0.6,0.3-0.8
		C121.3,584.5,121.6,584.4,121.9,584.4L121.9,584.4z M120.1,581.7c0.3,0,0.6,0.2,0.7,0.5c0.1,0.3,0.1,0.6-0.2,0.9s-0.6,0.3-0.9,0.2
		c-0.3-0.1-0.5-0.4-0.5-0.7c0-0.2,0.1-0.4,0.2-0.6S119.9,581.7,120.1,581.7z M120.1,588.9c0.6,0,1.2,0.5,1.2,1.2
		c0,0.6-0.5,1.2-1.2,1.2s-1.2-0.5-1.2-1.2C118.9,589.4,119.5,588.9,120.1,588.9z M120.1,596.5c0.6,0,1.2,0.5,1.2,1.2
		c0,0.6-0.5,1.2-1.2,1.2s-1.2-0.5-1.2-1.2C118.9,597,119.5,596.5,120.1,596.5z M117.9,593.9c0,0.4-0.3,0.8-0.7,1
		c-0.4,0.2-0.9,0.1-1.2-0.2c-0.3-0.3-0.4-0.8-0.2-1.2c0.2-0.4,0.6-0.7,1-0.7c0.3,0,0.6,0.1,0.8,0.3
		C117.7,593.3,117.9,593.6,117.9,593.9z M116.3,587.3c0.4,0,0.8,0.4,0.8,0.8c0,0.4-0.4,0.8-0.8,0.8s-0.8-0.4-0.8-0.8
		c0-0.2,0.1-0.4,0.2-0.6C115.8,587.4,116,587.3,116.3,587.3z M113.3,594.7c-0.4,0-0.8-0.4-0.8-0.8c0-0.4,0.4-0.8,0.8-0.8
		s0.8,0.4,0.8,0.8C114.1,594.3,113.7,594.7,113.3,594.7z M116.3,600.7c-0.3,0-0.6-0.2-0.7-0.5c-0.1-0.3-0.1-0.6,0.2-0.9
		c0.2-0.2,0.6-0.3,0.9-0.2s0.5,0.4,0.5,0.7C117.1,600.3,116.7,600.7,116.3,600.7z"/>
</g>
<g id="mope57lsR3dOpe6FBQ7ax" transform="matrix(1 0 0 1 14.28 -418.69)">
	<path vector-effect="non-scaling-stroke" class="st2" d="M87,591.1L87,591.1l0.2,7.2c0,0,16.9,7.6,33.6,5.1
		c11.9-1.9,23.6-4.6,35.2-8l12.1-4.5l-0.4-7l-6.2,3.4c0,0-1.2,5.4-14.3,4.2c-1.5-0.5-2.9-1-4.3-1.7c0,0-20.1,5.1-25.9,3.7
		c-6.3,0.2-29-2.6-29-2.6"/>
</g>
<g id="rxb5MgD6Z3Zq8MC6hzJib" transform="matrix(1 0 0 1 -21.55 -502.67)">
	<path vector-effect="non-scaling-stroke" class="st5" d="M152.1,590c-3.7-0.6-7.5-0.7-11.2-0.3c-6.1,0.9-37.7,10.2-37.7,10.2
		l0.3-0.5c11.4-3.6,23-7.6,34.4-10.9c0.8-0.2,1.7-0.4,2.6-0.6c0.5,0,1,0,1.6,0C145.5,588.3,148.8,589,152.1,590z"/>
</g>
<g id="BI2ht5vCFxwOsLI4zpdLJ" transform="matrix(1 0 0 1 1.9 -575.5)">
	<path vector-effect="non-scaling-stroke" class="st5" d="M133.4,589.5c-4.1,3.4-8,7-11.6,10.8c2.4-4.8,5.7-9.2,9.8-12.7
		C132.2,588.3,132.8,588.9,133.4,589.5z"/>
</g>
<g id="Q-a4KthsRYz8R2cSGn14v" transform="matrix(1 0 0 1 9.87 -583.14)">
	<path vector-effect="non-scaling-stroke" class="st6" d="M131.5,592.8c-1.1,0.7-2.2,1.4-3.2,2.1c-1,0.7-1.8,1.4-2.7,2.1
		c-0.7-0.6-1.3-1.2-1.9-1.8c1.8-1.6,3.8-3,5.9-4.3C130.2,591.6,130.8,592.2,131.5,592.8z"/>
</g>
<g id="ix0r8D-IArs-u5r8Bn9jZ" transform="matrix(1 0 0 1 22.01 -588.34)">
	<path vector-effect="non-scaling-stroke" class="st5" d="M137.8,590c-6.3,2.1-12.4,4.7-18.2,7.9l-0.2-0.1c-0.7-0.5-1.4-1.1-2-1.7
		C123.6,592.4,130.6,590.3,137.8,590z"/>
</g>
<g id="_8SamQCIvGdw4FrAwgh3r" transform="matrix(1 0 0 1 12.82 -463)">
	<path vector-effect="non-scaling-stroke" class="st6" d="M109,610.5c-12.6,14-17.5,19.2-19.3,21.2c0-0.4,0-0.8,0.1-1.2
		c0.5-0.6,1-1.3,1.5-1.9l2.1-2.6c8.5-10.1,17.3-20.1,26.5-29.6c13.7-13.9,28.2-27.3,42.8-40.3l2.9,1.2
		C166.4,557.4,127.9,589.5,109,610.5z"/>
</g>
<g id="_x39_s_x5F_QjWsUw6Dm9O5qRq4dn" transform="matrix(1 0 0 1 60.75 -329.49)">
	<path vector-effect="non-scaling-stroke" class="st7" d="M127.6,594.2v-0.4l0,0V594.2z"/>
</g>
<g id="IjMinUcDNQAJc7rWcS6Ty" transform="matrix(1 0 0 1 34.28 -544.66)">
	<path vector-effect="non-scaling-stroke" d="M107.6,626.5c10.1,5.3,22,6.4,32.9,3c0.1-0.3,0.2-0.5,0.2-0.8
		c-0.1,0.3-0.1,0.5-0.2,0.8c2-0.6,4-1.4,5.9-2.3c8.4-4,15.3-10.7,19.5-19.1l-0.2-0.2c0.1,0.1,0.1,0.1,0.2,0.2
		c2.4-4.6,3.9-9.6,4.5-14.8c0-0.1-0.1-0.1-0.1-0.2c0,0,0,0.1,0.1,0.1c0.1-1.1,0.2-2.2,0.2-3.3l0,0l0,0c0-0.6,0-1.2,0-1.8
		c0-3.5-0.4-7-1.2-10.4l-0.2-0.1l0.1,0.1c-0.2-0.8-0.4-1.6-0.7-2.4h-0.3c1.4,4.1,2.1,8.4,2.1,12.8c0.1,16.2-10,31.1-24.8,37.8
		c-28.2,12.8-60.2-7.1-60.7-37.8c-0.2-12,4.9-23.5,14-31.4l-0.3-0.4c-6.4,5.7-10.9,13.1-13.1,21.4C80.3,598.8,91,617.8,107.6,626.5
		c0-0.3,0.1-0.5,0.2-0.7C107.8,626.1,107.7,626.3,107.6,626.5z"/>
</g>
<g id="_x33_2njZUkcnc48T5OV1ErBQ" transform="matrix(1 0 0 1 40.63 -578.33)">
	<path vector-effect="non-scaling-stroke" d="M98.8,586.2l-0.2-0.3L98.8,586.2c12.4-7.5,27.7-8.3,40.8-2.1
		c7.9,3.6,14.4,9.4,18.9,16.8h0.3h-0.3c1.6,2.6,2.8,5.3,3.8,8.2h0.3c-3.5-11.5-11.7-21-22.5-26.2c-15.9-7.4-34.6-4.6-47.6,7.2
		c0.1,0.1,0.2,0.2,0.4,0.4C94.8,588.9,96.7,587.5,98.8,586.2z"/>
</g>
<g id="iz704OZO7Yr6BAhNWnC00" transform="matrix(1 0 0 1 41.71 -578.33)">
	<path vector-effect="non-scaling-stroke" d="M118,597.9c10.1,3.6,21.1,4.1,31.7,3.6c2.6-0.1,5.1-0.3,7.7-0.7l0,0
		c-2.6,0.1-5.1,0.2-7.7,0.2c-8,0.1-15.9-0.5-23.8-2c-5.2-1.1-10.2-2.8-15-4.9c-4-1.7-7.7-3.8-11.2-6.3c-0.7-0.5-1.4-1.1-2-1.7l0,0
		C102.8,591.5,111.2,595.5,118,597.9z"/>
</g>
<g id="xRMNe6I9VA1vCJLL5i2ax" transform="matrix(1 0 0 1 11.71 -586.16)">
	<path vector-effect="non-scaling-stroke" d="M127.5,593.8l0.2,0.3l0,0L127.5,593.8z"/>
</g>
<g id="WMHD24oSuF6YE_oN2WuKA" transform="matrix(1 0 0 1 71.7 -571.44)">
	<path vector-effect="non-scaling-stroke" d="M127.8,594h-0.3l0,0H127.8z"/>
</g>
<g id="iSedh_f8P_M2Rw0HGB-d4" transform="matrix(1 0 0 1 40.67 -572.01)">
	<path vector-effect="non-scaling-stroke" d="M134.6,602.1c-6.2-0.7-12.3-2.1-18.1-4.3c-0.6-0.2-1.6-0.6-2.2-0.8
		c-5.1-2-9.9-4.5-14.5-7.4c-2.5-1.6-4.8-3.4-6.9-5.4l0,0c1.4,1.6,3,3.1,4.7,4.4c3.1,2.4,6.4,4.5,9.9,6.3c5.6,3,11.5,5.2,17.6,6.7
		c7.7,1.6,15.6,2.4,23.5,2.2c4.6-0.1,9.2-0.4,13.7-1l0,0C153.1,603.4,143.8,603.2,134.6,602.1z"/>
</g>
<g id="x7rkhXOBkYj2yTSz8IEEp" transform="matrix(1 0 0 1 5.56 -582.21)">
	<path vector-effect="non-scaling-stroke" d="M127.6,594L127.6,594L127.6,594z"/>
</g>
<g id="keXFIlF91UCPgaDoQQ95K" transform="matrix(1 0 0 1 75.72 -563.21)">
	<path vector-effect="non-scaling-stroke" d="M127.6,594L127.6,594z"/>
</g>
<g id="gN1YL6_YnGBqB9-_EsUzR" transform="matrix(1 0 0 1 5.78 -581.98)">
	<path vector-effect="non-scaling-stroke" d="M127.8,594.1c-0.1-0.1-0.2-0.2-0.4-0.4l0,0L127.8,594.1L127.8,594.1z"/>
</g>
<g id="swL1nS7COVGrEWFvrx9Yw" transform="matrix(1 0 0 1 75.51 -563.16)">
	<path vector-effect="non-scaling-stroke" d="M127.4,594h0.3l0,0H127.4z"/>
</g>
<g id="b3FCb5DgbmQMwyKQ07gb6" transform="matrix(1 0 0 1 9.34 -555.4)">
	<path vector-effect="non-scaling-stroke" d="M122.1,604.2l0.2,0.2c-1-1.1-1.8-2.4-2.3-3.8c-2.2-5.8-0.7-12,5.1-15
		c1.6-0.8,3.4-1.2,5.3-1.2c2.5,0.1,4.7,1.7,6.7,3.1l-0.2-0.2l0.2,0.2c-1.5-1.7-3.3-2.9-5.4-3.7c-4-0.8-8.1,0.6-10.7,3.8
		c-3.2,3.7-3.3,8.9-1.3,13.2c0.5,1.2,1.3,2.3,2.3,3.2l-0.3-0.3L122.1,604.2z"/>
</g>
<g id="B8ETSwpcXLGVm4vF1DOZW" transform="matrix(1 0 0 1 51.65 -545.87)">
	<path vector-effect="non-scaling-stroke" d="M133.1,588.5c-1.8-5.4-6.6-6.3-11.6-4.9h0.1h-0.2h-0.1c4.8-0.7,9.3,0,10.8,5.2
		c0.6,2.1,0.8,4.4,0.6,6.6c-0.5,3.7-2.9,6.9-6.2,8.5c-1.4,0.7-2.9,1-4.4,1.2h0.3c0.7-0.1,1.4-0.2,2.1-0.3l-1.1,0.3
		c5.3-0.3,9.7-4.3,10.4-9.6c0.1-0.8,0.1-1.6,0-2.4C133.8,591.5,133.5,589.9,133.1,588.5z"/>
</g>
<g id="_x30_LqHy9HU8TqVjYvjrGeAQ" transform="matrix(1 0 0 1 32.13 -558.63)">
	<path vector-effect="non-scaling-stroke" d="M114.2,590.8c2.4,2.6,5.5,4.5,8.8,5.7c1.2,0.3,2.4,0.5,3.7,0.6c4.8,0.3,9.6,0,14.3-0.8
		h0.1c-2.4,0-4.8,0-7.1,0c-3.5-0.1-7.2,0-10.6-0.7C120,594.5,116.9,592.9,114.2,590.8l0.2,0.2L114.2,590.8z"/>
</g>
<g id="_xnA1AYisKJe30SNpip9W" transform="matrix(1 0 0 1 18.71 -561.85)">
	<path vector-effect="non-scaling-stroke" d="M127.6,594l0.2,0.2L127.6,594l-0.2-0.2L127.6,594z"/>
</g>
<g id="_8s_I_6l0-9FDYrQ7-3Ov" transform="matrix(1 0 0 1 45.56 -556.3)">
	<path vector-effect="non-scaling-stroke" d="M127.7,594L127.7,594h-0.2H127.7z"/>
</g>
<g id="vTCyCI4UlN2rPxnoR-aVf" transform="matrix(1 0 0 1 25.53 -539.35)">
	<path vector-effect="non-scaling-stroke" d="M148.6,598.5c-7.3,0.9-14.8,0.8-22.1-0.2c-7.7-1.1-14.9-4.6-20.5-10.1
		c-0.1-0.1-0.2-0.2-0.3-0.2c4.3,5.5,10.9,9.1,17.6,10.8c8.7,1.9,17.6,1.8,26.3-0.2C149.2,598.5,148.9,598.5,148.6,598.5z"/>
</g>
<g id="CAuN7p9HYikjn0RZrQ405" transform="matrix(1 0 0 1 3.6 -545.46)">
	<path vector-effect="non-scaling-stroke" d="M127.3,593.7l0.3,0.3c0.1,0.1,0.2,0.2,0.3,0.2L127.3,593.7z"/>
</g>
<g id="_x38_w-mk_x5F_3dds_x5F_0swgZ7gFcU" transform="matrix(1 0 0 1 47.55 -534.96)">
	<path vector-effect="non-scaling-stroke" d="M126.5,594.1c0.3,0,0.7,0,1,0l1.1-0.3C127.9,593.9,127.2,594,126.5,594.1z"/>
</g>
<g id="nSddmmNr-1AApUoeNukI-" transform="matrix(1 0 0 1 92.58 -560.45)">
	<path vector-effect="non-scaling-stroke" d="M127.2,593.6c0,0.2,0.1,0.5,0.1,0.7c0.2-0.1,0.4-0.3,0.7-0.4L127.2,593.6z"/>
</g>
<g id="Mm5BmqO1HHueQoKGIyD1S" transform="matrix(1 0 0 1 91.76 -546.75)">
	<path vector-effect="non-scaling-stroke" d="M127.7,593.9h-0.1l-0.1,0.1L127.7,593.9z"/>
</g>
<g id="AByomZen7-D926MNGVbdT" transform="matrix(1 0 0 1 85.22 -553.38)">
	<path vector-effect="non-scaling-stroke" d="M126.3,589.3c2.9,0.2,5.9-0.5,8.4-2c0-0.2-0.1-0.5-0.1-0.7l0.8,0.3
		c-0.2,0.1-0.4,0.3-0.7,0.4c0.1,1,0.3,2,0.4,2.9c0.3,3.3,0.8,7.4-0.9,10.4h0.1l-0.2,0.1l0.1-0.1c-2.3,0.8-4.8,1.1-7.2,0.8
		c-1.2-0.2-2.4-0.6-3.6-1.1c-1.2-0.5-2.3-1-3.4-1.7l0,0c2,1.5,4.4,2.7,6.9,3.3c2.6,0.4,5.3,0.2,7.8-0.6h0.1l0.1-0.1
		c2.2-2.9,1.8-7.9,1.4-11.2c-0.2-1.5-0.4-3-0.7-4.5c-2.6,2-5.8,3-9.1,3c-2.7-0.1-5.3-0.8-7.6-2.1l0,0
		C121,588.1,123.6,589,126.3,589.3z"/>
</g>
<g id="QZafRUv00Je2nz3E5nxXf" transform="matrix(1 0 0 1 77.5 -548.64)">
	<path vector-effect="non-scaling-stroke" d="M127.6,594L127.6,594L127.6,594z"/>
</g>
<g id="eN4r-5Skbeymj2nNopPr1" transform="matrix(1 0 0 1 76.26 -560.83)">
	<path vector-effect="non-scaling-stroke" d="M127.7,594L127.7,594l-0.1-0.1L127.7,594z"/>
</g>
<g id="_x34_dezmOVkMJUjbZZ4q2F2B" transform="matrix(1 0 0 1 84.89 -524.34)">
	<path vector-effect="non-scaling-stroke" d="M127.7,593.9h-0.2l-0.1,0.1L127.7,593.9z"/>
</g>
<g id="_x33_K140mgFsQbt4MZ1Qha7-" transform="matrix(1 0 0 1 92.49 -534.58)">
	<path vector-effect="non-scaling-stroke" d="M127.9,594.2l-0.6-0.6c0,0.2-0.1,0.4-0.1,0.6C127.5,594.2,127.7,594.2,127.9,594.2z"/>
</g>
<g id="_x31_Kd5t44EF5AnEsxZDabI9" transform="matrix(1 0 0 1 83.11 -534.43)">
	<path vector-effect="non-scaling-stroke" d="M129.9,592c1.5,0.8,3.1,1.4,4.7,1.8c0.7,0.2,1.3,0.2,2,0.3c0-0.2,0.1-0.4,0.1-0.6
		l0.6,0.6c-0.2,0-0.4,0-0.7,0c-0.3,1.5-0.7,2.9-1.3,4.3c-0.3,0.7-0.8,1.4-1.3,2c-1.4,1.4-3,2.6-4.6,3.6h0.1l-0.3,0.1l0.1-0.1
		c-1.1-0.1-2.3-0.3-3.4-0.5c-1.8-0.3-3.4-1.1-4.9-2.1c-1.4-1-2.7-2.2-3.9-3.4l0,0c1,1.4,2.3,2.7,3.6,3.8c0.9,0.8,2,1.5,3.2,1.9
		c1.8,0.7,3.7,1.1,5.6,1.3c2-1.1,3.8-2.5,5.4-4.2c0.9-1.1,1.5-2.3,1.9-3.6c0.4-1.3,0.7-2.7,0.9-4.1c-1.8,0.2-3.6-0.1-5.3-0.8
		c-1.5-0.5-3-1.2-4.4-2.1c-2.6-1.8-4.8-4.2-6.4-7l0,0C123.5,586.9,126.3,590,129.9,592z"/>
</g>
<g id="LcdRHKY6zUTVjvkCFxOK7" transform="matrix(1 0 0 1 77.25 -545.37)">
	<path vector-effect="non-scaling-stroke" d="M127.6,594L127.6,594c0,0-0.1-0.1-0.1-0.1C127.6,593.9,127.6,594,127.6,594z"/>
</g>
<g id="h5kjHYnm2Fb6nqtXM9h2Z" transform="matrix(1 0 0 1 72.66 -530.56)">
	<path vector-effect="non-scaling-stroke" d="M127.5,593.8l0.2,0.2l0,0C127.6,594,127.6,593.9,127.5,593.8z"/>
</g>
<g id="Cdw-laEYiitPub2uy79CD" transform="matrix(1 0 0 1 14.53 -552.05)">
	<path vector-effect="non-scaling-stroke" d="M129.3,590.7c-0.1-0.9-0.3-1.5-0.6-1.6h-0.1c-0.3,0-0.7,0.4-1.2,1.2
		c-1.1,2.1-1.6,4.5-1.6,6.9c0.1,0.9,0.3,1.5,0.6,1.6c0.3,0.1,0.8-0.3,1.3-1.2C128.8,595.5,129.4,593.1,129.3,590.7L129.3,590.7z"/>
</g>
<g id="G5RmMGSzMbjpJPFn2582B" transform="matrix(1 0 0 1 14.52 -552.08)">
	<path vector-effect="non-scaling-stroke" d="M128.8,589c-0.4-0.1-1,0.3-1.5,1.2c-1.1,2.2-1.7,4.6-1.6,7c0.1,1.1,0.3,1.7,0.8,1.8
		h0.1c0.4,0,0.9-0.4,1.4-1.3c1.1-2.2,1.7-4.6,1.6-7C129.5,589.7,129.2,589.1,128.8,589z M129.1,594.3L129.1,594.3
		c-0.6,2.7-1.8,4.8-2.6,4.6c-0.8-0.2-1-2.5-0.3-5.2c0.7-2.7,1.8-4.8,2.6-4.6C129.6,589.2,129.7,591.6,129.1,594.3z"/>
</g>
<g id="Iww3cMfPVpiklk-SBDV0t" transform="matrix(1 0 0 1 14.53 -552.07)">
	<path vector-effect="non-scaling-stroke" d="M128.7,589c-0.8-0.2-2,1.9-2.6,4.6c-0.6,2.7-0.5,5.1,0.3,5.2c0.8,0.2,2-1.9,2.6-4.6
		H129c-0.3,1.2-0.7,2.3-1.2,3.3c-0.5,0.8-0.9,1.2-1.3,1.2c-0.3-0.1-0.6-0.7-0.6-1.6c0-2.4,0.5-4.8,1.6-6.9c0.4-0.8,0.8-1.2,1.2-1.2
		h0.1c0.3,0.1,0.6,0.6,0.6,1.6c0,1.2-0.1,2.4-0.4,3.6h0.1l0,0C129.7,591.6,129.5,589.2,128.7,589z"/>
</g>
<g id="CIhWS73p4xON0yvLRGWT3" transform="matrix(1 0 0 1 39.51 -546.68)">
	<path vector-effect="non-scaling-stroke" d="M126.5,598.8c0.7,0.1,1.8-1.6,2.5-4.5s0.4-5-0.2-5.1h-0.1c-0.7,0-1.8,1.7-2.4,4.5
		C125.6,596.4,125.8,598.6,126.5,598.8z"/>
</g>
<g id="BSe91JO2xBkpxcPEuN1Mw" transform="matrix(1 0 0 1 39.49 -546.7)">
	<path vector-effect="non-scaling-stroke" d="M126.4,599h0.1c1,0,2.1-2.3,2.6-4.7c0.6-2.4,0.6-5.2-0.4-5.4c-1-0.2-2.2,2.2-2.7,4.7
		C125.5,596.1,125.5,598.8,126.4,599z M126.2,593.6c0.6-2.7,1.8-4.8,2.6-4.6c0.8,0.2,1,2.5,0.3,5.3c-0.7,2.7-1.8,4.8-2.6,4.6
		C125.7,598.7,125.5,596.4,126.2,593.6z"/>
</g>
<g id="TYZLSacpMwflavrrJsWA1" transform="matrix(1 0 0 1 39.51 -546.68)">
	<path vector-effect="non-scaling-stroke" d="M126.4,598.9c0.8,0.2,2-1.9,2.6-4.6c0.6-2.7,0.5-5.1-0.3-5.3c-0.8-0.2-2,1.9-2.6,4.6
		S125.6,598.7,126.4,598.9z M126.2,593.6c0.6-2.8,1.7-4.5,2.4-4.5h0.1c0.7,0.1,0.9,2.2,0.2,5.1c-0.7,2.9-1.8,4.7-2.5,4.5
		C125.8,598.6,125.6,596.5,126.2,593.6L126.2,593.6z"/>
</g>
<g id="t2albbOpyjPPzuIP3k09U" transform="matrix(1 0 0 1 54.65 -427.62)">
	<path vector-effect="non-scaling-stroke" d="M127.6,594"/>
</g>
<g id="km0iDV1pWXy-kDRftAqgt" transform="matrix(1 0 0 1 57.54 -429.05)">
	<path vector-effect="non-scaling-stroke" d="M127.6,594L127.6,594C127.6,594,127.6,594,127.6,594L127.6,594z"/>
</g>
<g id="_x38_tqNcXdkfn8JUzgLXhGB6" transform="matrix(1 0 0 1 71.2 -468.37)">
	<path vector-effect="non-scaling-stroke" d="M138.6,578.1c-3.3-4.4-6.7-8.7-10.9-12.3c-1-0.8-2.1-1.4-3.2-1.9c-1.5-0.6-3-1-4.6-1.1
		c-4.2-0.4-8.2,0.3-12.2-0.7c-1.3-0.3-2.4-1-3.2-2.1c-1.3-2-1.3-4.6-0.8-6.9h-0.1c-0.6,2.4-0.8,5,0.5,7.1c0.2,0.3,0.4,0.6,0.6,0.8
		l0.2-0.1l-0.2,0.1c1.7,1.8,4.5,2,6.9,2.2c0.8,0.1,1.6,0.1,2.4,0.1l0.8-0.7l-0.8,0.7c3.4,0.1,6.8,0,10,1.4c1,0.5,2,1.1,2.9,1.8
		c2,1.8,3.8,3.7,5.5,5.8c7,8.6,15.1,20.4,17.6,31.2c0.6,2.5,0.6,5.1,0,7.6c-0.4,1.2-1.1,2.3-1.8,3.4c-1.5,2.2-3.2,4.3-5.1,6.1
		c-7.7,7.5-18.5,11.6-29.3,12.2h-0.1v0.1c-0.2,0.6-0.5,1-1,1.3c-0.3,0.1-0.6,0.2-0.8,0.2c-0.2,0-0.5,0-0.8,0l0,0c0.2,0,0.5,0,0.7,0
		c0.6,0,1.2-0.2,1.6-0.7c0.2-0.2,0.3-0.5,0.4-0.7H114l0.1-0.1c0,0,0,0,0,0.1c1.3,0,2.7,0,4-0.2c12.3-1.2,24.4-7.3,31.4-17.6
		c0.8-1.1,1.5-2.4,2-3.7c1.3-4.1,0.3-8.4-1-12.3C147.8,591.8,143.4,584.7,138.6,578.1z"/>
</g>
<g id="LqXumfjsUBslWKLvO7qK1" transform="matrix(1 0 0 1 47.36 -509.49)">
	<path vector-effect="non-scaling-stroke" d="M127.5,594.4L127.5,594.4c0.1-0.3,0.2-0.5,0.2-0.8
		C127.6,593.8,127.6,594.1,127.5,594.4z"/>
</g>
<g id="oH8tf4TeX1YjWGXrjEggo" transform="matrix(1 0 0 1 73.32 -457.56)">
	<path vector-effect="non-scaling-stroke" d="M124.8,595.1c2.3-1.2,4.6-2.2,7-3.1C129.4,592.9,127,593.9,124.8,595.1
		c-0.5,0.2-0.9,0.4-1.4,0.6v0.1C123.9,595.6,124.3,595.4,124.8,595.1z"/>
</g>
<g id="CrrJpp7FT_8ESmKPqhfxC" transform="matrix(1 0 0 1 60.61 -448.94)">
	<path vector-effect="non-scaling-stroke" d="M119.2,599.7l0.3,0.2h-0.3c0,0.1,0,0.2,0.1,0.3v0.4l0.2-0.2
		c5.2-4.8,10.3-9.7,16.5-13.2v-0.1C129.9,590.6,124.5,595.1,119.2,599.7z"/>
</g>
<g id="NohVIcjOCw9hNyTvmZoKK" transform="matrix(1 0 0 1 52.05 -443.02)">
	<path vector-effect="non-scaling-stroke" d="M127.5,594h0.1v-0.1L127.5,594z"/>
</g>
<g id="_x35_RI5fx-uWRK64url1Xgka" transform="matrix(1 0 0 1 52.19 -443.2)">
	<path vector-effect="non-scaling-stroke" d="M127.6,593.9L127.6,593.9L127.6,593.9L127.6,593.9z"/>
</g>
<g id="CLUkf89NSbyC-y_lZ6vfQ" transform="matrix(1 0 0 1 52.38 -443.08)">
	<path vector-effect="non-scaling-stroke" d="M127.7,594.1l-0.3-0.2l0,0c0,0.1,0,0.1,0,0.2L127.7,594.1z"/>
</g>
<g id="_x35_q1bo4QVoz0NUejH-x2uo" transform="matrix(1 0 0 1 41.4 -433)">
	<path vector-effect="non-scaling-stroke" d="M115.8,604.2c0.8,1,2,1.7,3.2,1.9c2.4,0.3,4.9,0.4,7.4,0.1c2.1-0.1,4.2-0.8,5.9-2
		c0.6-0.4,1.1-0.9,1.5-1.5c0.4-0.5,0.9-1,1.4-1.4c1.7-1.3,3.6-2.4,5.6-3.2c-2,0.8-3.9,1.9-5.7,3.1c-0.6,0.4-1.1,0.9-1.5,1.4
		c-0.4,0.5-0.9,1-1.5,1.4c-2.9,1.8-6.6,1.8-9.9,1.6c-0.7,0-1.4-0.1-2.1-0.2c-0.7,0-1.3-0.2-1.9-0.4c-2.6-1-3.2-4-3-6.5
		c0.6-5.8,3.8-10.9,8.8-13.8c0.9-0.5,1.8-0.9,2.8-1.3c3.5-1.4,7.8-1.6,11,0.8c0.2,0.2,0.4,0.4,0.6,0.6l0.1-0.1
		c0-0.2-0.1-0.5-0.1-0.4c0,0-0.1-0.2-0.1-0.3h-0.1l0.1-0.1l-0.1-0.4c-3.9-3-9.5-2.3-13.6-0.2c-5.8,2.9-9.7,8.6-10.3,15.1
		C114.1,600.5,114.7,602.6,115.8,604.2l0.5-0.2L115.8,604.2z"/>
</g>
<g id="QEQDEqG4BTrAthLAD8_SX" transform="matrix(1 0 0 1 60.68 -468.55)">
	<path vector-effect="non-scaling-stroke" d="M121.5,584.9c2.9,4.6,6.1,9.1,9.2,13.4c1.8,2.8,3.4,5.7,5.2,8.5l0.1-0.1
		c-1.4-3.4-3-6.7-5-9.8c-3.7-5.4-7.7-10.9-11.8-15.9C119.9,582.3,120.7,583.6,121.5,584.9c0-0.1,0.1-0.2,0.1-0.3
		C121.6,584.7,121.6,584.8,121.5,584.9z"/>
</g>
<g id="ay0PY1411t7k42Dun4R6V" transform="matrix(1 0 0 1 69.24 -455.26)">
	<path vector-effect="non-scaling-stroke" d="M127.8,594.3l-0.3-0.8l-0.1,0.1L127.8,594.3z"/>
</g>
<g id="E-64MBTh82DXoKG0xENwI" transform="matrix(1 0 0 1 69.07 -455.65)">
	<path vector-effect="non-scaling-stroke" d="M127.6,594l0.1-0.1v-0.1L127.6,594L127.6,594z"/>
</g>
<g id="WBSP0iDXDrg2pH_HZIWw7" transform="matrix(1 0 0 1 -16.66 -504.24)">
	<path vector-effect="non-scaling-stroke" d="M133.1,590.2c0.8-0.2,1.7-0.4,2.6-0.6c0.5,0,1,0,1.6,0c4.3,0.2,8.5,1.7,12.6,2.8
		l1.6,0.4c4,1.3,6.2-3.6,7.1-6.8l0,0c-1,2.7-3.3,7.1-6.4,6.4c-1.2-0.3-3-0.9-4.2-1.3c-2.1-0.7-4.2-1.3-6.3-1.8
		c-2.1-0.6-4.3-0.8-6.4-0.6c-2.3,0.4-4.5,1.1-6.7,1.8c-10.8,3.4-21.4,7.1-32,11.2v0.1C108.7,598,121,593.7,133.1,590.2z"/>
</g>
<g id="_x31_LKevi0HJ28-qXZtuCbH4" transform="matrix(1 0 0 1 -48.49 -496.19)">
	<path vector-effect="non-scaling-stroke" d="M127.7,593.9L127.7,593.9l-0.2,0.1L127.7,593.9z"/>
</g>
<g id="X-G6PzrVxbZVZ83A6NCU6" transform="matrix(1 0 0 1 14.4 -512.45)">
	<path vector-effect="non-scaling-stroke" d="M127.7,593.6c-0.1,0.2-0.2,0.4-0.2,0.7l0,0C127.6,594.1,127.7,593.8,127.7,593.6z"/>
</g>
<g id="aS6lPrBVR_SH-l8CXr0vS" transform="matrix(1 0 0 1 -51.37 -507.56)">
	<path vector-effect="non-scaling-stroke" d="M128.4,597c0.8,2.7,1.5,5.5,2.2,8.2l0.7-0.3c-1.4-7.7-3.9-15.2-7.4-22.3h-0.1
		C125.3,587.5,126.9,592.2,128.4,597z"/>
</g>
<g id="_x32_x3Vm3TbSLxH_x5F_3YHjbEz1" transform="matrix(1 0 0 1 -47.6 -492.97)">
	<path vector-effect="non-scaling-stroke" d="M127.6,590.5l-0.7,0.2c0.5,2.3,1.1,4.5,1.5,6.8C128.2,595.1,128,592.8,127.6,590.5z"/>
</g>
<g id="Zj_4Z4n185eVXvdxvhijR" transform="matrix(1 0 0 1 -48 -496.39)">
	<path vector-effect="non-scaling-stroke" d="M127.2,594.1l0.7-0.2v-0.1L127.2,594.1L127.2,594.1z"/>
</g>
<g id="VmsjtuqgYjP4Stq3GMjxH" transform="matrix(1 0 0 1 -61.89 -549.8)">
	<path vector-effect="non-scaling-stroke" d="M116.4,609.1c0.3,0.2,0.5,0.4,0.8,0.6v-0.2c-1.3-1-2.5-2.3-3.5-3.6
		c-1.1-1.5-2-3.2-2.6-5c-3.2-9.7,2.5-20.8,12.9-22.7c13.8-2.4,24.9,11.1,19.5,24c-1.4,3.3-3.8,6.1-6.7,8.1c0,0.1,0,0.1,0,0.2
		c6.1-3.3,9.6-10,9-16.9c-0.6-6.9-5.2-12.8-11.8-15.1c-9.7-3.3-20.3,1.7-23.9,11.3C107.8,596.9,110.3,604.7,116.4,609.1
		C116.3,609.2,116.3,609.1,116.4,609.1L116.4,609.1z"/>
</g>
<g id="_VpF72U8Z7s2mON_BiuYR" transform="matrix(1 0 0 1 -71.98 -532.27)">
	<path vector-effect="non-scaling-stroke" d="M127.7,592.9c-0.1,0-0.3-0.1-0.3-0.2c-0.1-0.1-0.1-0.3-0.1-0.4l-0.4,2.9
		c0,0.2,0.1,0.4,0.3,0.4c0.2,0,0.4-0.1,0.4-0.3l0.7-2.8C128.3,592.8,128,593,127.7,592.9z"/>
</g>
<g id="EPkWNy2qYhK4ZY2dBHUkJ" transform="matrix(1 0 0 1 -52.63 -533.22)">
	<path vector-effect="non-scaling-stroke" d="M127.6,594L127.6,594c0-0.1,0-0.1,0-0.2l0,0C127.6,593.9,127.6,594,127.6,594z"/>
</g>
<g id="X9Z8hLPtD-5M6lXpaj3yu" transform="matrix(1 0 0 1 -72.28 -533.97)">
	<path vector-effect="non-scaling-stroke" d="M127.6,594L127.6,594c0,0,0-0.1,0-0.1l0,0V594L127.6,594z"/>
</g>
<g id="_x39_DvtfnWVdbYEr8HMsSvNn" transform="matrix(1 0 0 1 -62.41 -539.41)">
	<path vector-effect="non-scaling-stroke" d="M118.8,599.7L118.8,599.7l0.1-0.6c0.6-3.2,4.2-9.8,11.5-10.1c2.2-0.1,3.7,0.2,4.5,1
		c1.1,1,1.2,3,1.2,5.3c0,1,0,2,0.1,3c0,0.7,0.1,1.4,0.1,2c0-0.3,0.2-0.5,0.5-0.6c0.2,0,0.3,0.1,0.5,0.2l0.1-0.1
		c0-0.6-0.1-1.1-0.1-1.7c-0.1-1-0.1-2-0.1-3c0-2.5-0.1-4.7-1.5-6.1c-0.3-0.3-0.6-0.5-0.9-0.6c-0.2,0.1-0.3,0.1-0.5,0.1
		c-0.4,0-0.8-0.3-1-0.6c-0.5-0.1-1.1-0.2-1.7-0.2c-0.2,0.7-1,0.8-1.9,0.8c-0.6,0.1-1.2-0.1-1.7-0.4c-0.4,0.1-0.8,0.2-1.2,0.3
		c-0.4,0.5-0.9,0.8-1.6,0.8H125c-3.6,2.1-6.1,5.5-7.1,9.5l-0.1,0.3h0.1c0.2-0.2,0.5-0.2,0.7-0.1
		C118.8,599.1,118.9,599.4,118.8,599.7z"/>
</g>
<g id="awIuxfifuAWPHxBmdMqfD" transform="matrix(1 0 0 1 -72.19 -534.1)">
	<path vector-effect="non-scaling-stroke" d="M127.6,593.9L127.6,593.9l-0.1,0.2l0,0C127.6,594,127.6,593.9,127.6,593.9z"/>
</g>
<g id="q13jkS3b8fbUK1aTDEhIK" transform="matrix(1 0 0 1 -52.7 -533.39)">
	<path vector-effect="non-scaling-stroke" d="M127.6,593.9l0.1,0.1l0,0C127.6,594,127.6,593.9,127.6,593.9L127.6,593.9z"/>
</g>
<g id="W1QeBNXEh3zPa9l684RHs" transform="matrix(1 0 0 1 -71.71 -533.86)">
	<path vector-effect="non-scaling-stroke" d="M127.1,593.6l0.4,0.3l-0.1,0.1l-0.4-0.3c0,0,0,0.1,0,0.1l0,0c0,0.1,0,0.3,0.1,0.4
		c0.1,0.1,0.2,0.2,0.3,0.2c0.3,0.1,0.6-0.1,0.6-0.4l0,0c0.1-0.3,0-0.5-0.3-0.7C127.6,593.3,127.3,593.4,127.1,593.6z"/>
</g>
<g id="pjvnT57Rki0mpmSA9cH6j" transform="matrix(1 0 0 1 -71.98 -533.98)">
	<path vector-effect="non-scaling-stroke" d="M127.9,594.1l-0.4-0.3c0,0-0.1,0.1-0.1,0.1L127.9,594.1L127.9,594.1z"/>
</g>
<g id="XZmeo9FDCOGRAy_gfCkOO" transform="matrix(1 0 0 1 -54.47 -525.6)">
	<path vector-effect="non-scaling-stroke" d="M128.9,587L128.9,587c-0.3,0-0.5-0.2-0.5-0.5l0,0c0.1,1.3,0.2,2.6,0.2,3.9
		c0,1.3,0.1,2.6,0,3.9c0,1.4-0.2,2.7-0.6,4c-0.5,1.1-1.3,2-2.3,2.7c-0.1,0.1-0.2,0.3-0.1,0.4s0.3,0.2,0.4,0.1
		c0.3-0.2,0.6-0.5,0.9-0.8c0-0.2-0.1-0.3-0.2-0.5c0.1,0.2,0.2,0.3,0.2,0.5c0.7-0.7,1.3-1.4,1.7-2.3c0.4-1.3,0.6-2.6,0.7-4
		c0.1-1.3,0.1-2.7,0.1-4s0-2.7-0.1-4c0,0.1,0,0.3-0.1,0.4S129.1,587,128.9,587z"/>
</g>
<g id="xZARboAYA9VRhPpwzpNf7" transform="matrix(1 0 0 1 -55.14 -519.04)">
	<path vector-effect="non-scaling-stroke" d="M127.7,594.2L127.7,594.2c0-0.2-0.1-0.3-0.2-0.5C127.5,593.8,127.6,594,127.7,594.2z"
		/>
</g>
<g id="x-xrrQl4mbzvMHvjLCpYD" transform="matrix(1 0 0 1 -53.12 -533.1)">
	<path vector-effect="non-scaling-stroke" d="M128.1,593.8l-0.5,0.2v-0.1l0.4-0.3c-0.1-0.1-0.3-0.2-0.4-0.2c-0.3,0-0.5,0.3-0.5,0.6
		l0,0c0,0.3,0.3,0.5,0.5,0.5l0,0c0.1,0,0.3-0.1,0.4-0.2c0.1-0.1,0.1-0.2,0.1-0.4l0,0C128.1,593.9,128.1,593.8,128.1,593.8z"/>
</g>
<g id="JxcMLnCmuLyQRxWx7zHMu" transform="matrix(1 0 0 1 -52.92 -533.24)">
	<path vector-effect="non-scaling-stroke" d="M127.4,594.1l0.5-0.2l-0.1-0.1L127.4,594.1L127.4,594.1z"/>
</g>
<g id="gtpXvNG1MhzP0MFYExnaI" transform="matrix(1 0 0 1 -68.88 -513.7)">
	<path vector-effect="non-scaling-stroke" d="M127.5,593.8c0,0.1,0,0.2,0,0.2l0.2,0.2L127.5,593.8z"/>
</g>
<g id="pE4Gn1LXUUwa7uLLalEKw" transform="matrix(1 0 0 1 -46.08 -500.99)">
	<path vector-effect="non-scaling-stroke" d="M134.2,625.6c-7.4,1.5-15.5,1.8-22.4-1.7c-9-4.5-8.3-22.7-7.7-31.4
		c0.3-3.9,0.7-7.8,1.4-11.6c-0.5-0.3-0.9-0.6-1.3-0.9c-5.7-4.9-5.1-13-3.5-19.7l0,0c-1.5,5.4-2.4,11.6,0.4,16.7
		c0.9,1.7,2.2,3.1,3.7,4.2c0-0.1,0-0.2,0-0.2l0.2,0.4l-0.2-0.2c-0.3,1.8-0.6,3.6-0.9,5.5c-1.3,10-2.8,28.9,5,36.4
		c1.5,1.3,3.3,2.3,5.2,2.8c2.8,1,5.7,1.5,8.7,1.6c9.8,0.3,19.3-3,28-7.1c1.6-0.8,3.8-1.9,5.4-2.9l0,0
		C149.2,621.2,141.8,623.9,134.2,625.6z"/>
</g>
<g id="UF33eiX5cPIh251C1OIdz" transform="matrix(1 0 0 1 -73.06 -534.68)">
	<path vector-effect="non-scaling-stroke" d="M127.6,593.9c0,0,0,0.1,0,0.1l0,0V593.9z"/>
</g>
<g id="CdNSWd2ARg9uf1qsIcj2B" transform="matrix(1 0 0 1 55.74 -417.34)">
	<path vector-effect="non-scaling-stroke" d="M126.7,587.7c0,0.6,0,1.3,0,1.9l0.6-0.2l-0.6,0.3c0.3,4.9,0.9,9.8,1.9,14.6
		c-0.2-3.1-0.4-6.2-0.6-9.2c0.3,2.8,0.5,5.6,0.8,8.4c0.1-2.5,0-5-0.4-7.4c-0.3-2.6-0.9-9.2-1.7-12.2h-0.1L126.7,587.7z"/>
</g>
<g id="_x32_qNX6PhbRxucvwwXKM7Id" transform="matrix(1 0 0 1 54.63 -428.18)">
	<path vector-effect="non-scaling-stroke" d="M127.6,594.5h0.1c-0.1-0.2-0.3-1-0.3-1.1L127.6,594.5z"/>
</g>
<g id="LpyCFFIwW_3jVNhLEZ8a0" transform="matrix(1 0 0 1 54.72 -427.62)">
	<path vector-effect="non-scaling-stroke" d="M127.5,594L127.5,594h0.1H127.5z"/>
</g>
<g id="_x37_fPtJqxGfS1PBe4OV30Or" transform="matrix(1 0 0 1 52.43 -460.39)">
	<path vector-effect="non-scaling-stroke" d="M126.8,607.2c-0.5-5.2-0.6-10.4-0.1-15.5c0.6-5.1,1.6-10,3.1-14.9l0,0
		c-3.3,7.5-4.8,15.7-4.3,23.9c0.1,3.5,0.7,7,1.6,10.3l0.2,0.2C127.1,609.8,127,608.5,126.8,607.2z"/>
</g>
<g id="LIonBY9IY0t4Ksnj5XEDl" transform="matrix(1 0 0 1 52.35 -442.14)">
	<path vector-effect="non-scaling-stroke" d="M127.6,594.1v-0.2l0,0V594.1z"/>
</g>
<g id="ywswpj-elgquZq59o7hLs" transform="matrix(1 0 0 1 52.22 -442.6)">
	<path vector-effect="non-scaling-stroke" d="M127.6,593.6h-0.1c0,0.1,0,0.2,0.1,0.3c0.1,0.1,0.1,0.2,0.1,0.4l0,0v-0.4
		C127.7,593.8,127.6,593.7,127.6,593.6z"/>
</g>
<g id="k-W1BbO10Vekaphiyaj3C" transform="matrix(1 0 0 1 52.15 -443.06)">
	<path vector-effect="non-scaling-stroke" d="M127.6,593.9l-0.1,0.1v0.1h0.1C127.7,594,127.7,593.9,127.6,593.9z"/>
</g>
<g id="TQS9D1_Xyr9HwGq8FfIgh" transform="matrix(1 0 0 1 52.09 -443.24)">
	<path vector-effect="non-scaling-stroke" d="M127.7,594L127.7,594l-0.2-0.3l0.1,0.4L127.7,594z"/>
</g>
<g id="vnxvS8QQCtNRfP8jk6FKh" transform="matrix(1 0 0 1 54.65 -477.79)">
	<path vector-effect="non-scaling-stroke" d="M127.7,593.8c0,0.1-0.1,0.2-0.1,0.3l0,0C127.6,594,127.6,593.9,127.7,593.8z"/>
</g>
<g id="Re8-4M481itwJS7N8DH7Q" transform="matrix(1 0 0 1 -11.24 -322.5)">
	<path vector-effect="non-scaling-stroke" d="M150.2,593.9c0.1,0.4,0.1,0.7,0,1.1c-0.9,3.1-7.9,4.6-10.8,5.3
		c-8.9,2-18.1,2.9-27.1,1.2c-1.4-0.3-6.1-1.3-6.5-2.7c0.1-0.3,0.2-0.6,0.4-0.8c0.9-1.2,1.8-2.4,2.9-3.4c3.1-3.3,7-6.8,10.3-10
		l-0.6,0.4c-4.2,3.3-8.2,6.9-11.9,10.7c-0.7,0.8-2.3,2.4-2,3.5c0.7,2,5.4,3,7.3,3.3c6.1,1.1,12.3,1,18.4-0.1
		c4.9-0.8,16.4-2.6,19.4-6.4c0.5-0.6,0.6-1.4,0.5-2.2c-0.1-1.4-0.5-2.8-1-4.1c0.2,0.6,0.4,1.2,0.6,1.9
		C150.1,592.4,150.1,593.1,150.2,593.9z"/>
</g>
<g id="cRwmemzOA6jUz5GHG7EUD" transform="matrix(1 0 0 1 10.35 -326.89)">
	<path vector-effect="non-scaling-stroke" d="M127.6,594L127.6,594C127.6,594,127.6,593.9,127.6,594
		C127.6,593.9,127.6,594,127.6,594z"/>
</g>
<g id="hI1ktbwXgMPtQ30sBGSgb" transform="matrix(1 0 0 1 10.44 -326.7)">
	<path vector-effect="non-scaling-stroke" d="M127.6,594L127.6,594L127.6,594L127.6,594z"/>
</g>
<g id="vl_iHIUySyRYmfsHJq2sl" transform="matrix(1 0 0 1 -20.28 -454.66)">
	<path vector-effect="non-scaling-stroke" d="M122.7,625.7c0-1.2,0.1-2.4,0.2-3.4l-0.6,0.7c0.2-0.2,0.4-0.5,0.6-0.8
		c0-0.2,0-0.4,0-0.6c1.4-20.4,4.3-40.9,10.8-60.3c-1.2,3.3-2.3,6.6-3.3,9.9l0.4-0.2l-0.4,0.2c-3.3,11.7-5.7,23.5-7.1,35.6
		c-0.2,2.3-0.6,5.1-0.8,7.4c-0.1,1.7-0.5,5.7-0.6,7.4c-0.1,1.4-0.2,3.3-0.3,5.2l0.4-0.3L122.7,625.7z"/>
</g>
<g id="Yf4nm2pSZsL1B6EAB9JUZ" transform="matrix(1 0 0 1 -23.45 -376.52)">
	<path vector-effect="non-scaling-stroke" d="M128.4,622c-1.2-12.2-1.8-24.6-2.3-36.8c-0.4-9.4-0.7-19.2-0.5-28.7l-0.6-0.3l0.6,0.2
		c0-0.2,0-0.5,0-0.7c0-0.4,0-2.7,0-3.1c0-1,0.1-2.2,0.2-3.5l-0.4-0.1l-0.6-0.1c0,1.1-0.1,2.2-0.2,3.1c-0.1,2.2-0.1,6.4-0.2,8.6
		c0,6.4,0.2,13.3,0.5,19.7c0.4,10.6,1.1,21.4,2,31.9c0.5,5.6,1.2,11.5,2,17.1c0.4,3.3,1.1,6.5,1.9,9.7c-0.4-1.6-0.7-3.2-1-4.8
		C129.3,630.2,128.8,626,128.4,622z"/>
</g>
<g id="pq0LSelR0Q5zLkY85gLr-" transform="matrix(1 0 0 1 -17.34 -477.57)">
	<path vector-effect="non-scaling-stroke" d="M127.4,594.1L127.4,594.1l0.4-0.2L127.4,594.1z"/>
</g>
<g id="lLchvhhctiQiDxrbibD8Y" transform="matrix(1 0 0 1 59.05 -369.16)">
	<path vector-effect="non-scaling-stroke" d="M125.3,556c1.4,20.2,3,41.4,3.6,61.2c0.1,4.6-0.1,9.7,0.2,14.5c0.1,0.3,0.2,0.7,0.2,1
		c0.5-5.2,0.6-10.4,0.4-15.5c-0.8-20.7-2.5-41.3-4.3-62c0,0.3,0,0.7-0.1,1L125.3,556z"/>
</g>
<g id="j29Ahjxrg6NhMOgN-NHGd" transform="matrix(1 0 0 1 60.65 -330.52)">
	<path vector-effect="non-scaling-stroke" d="M127.7,594.8c-0.1-0.7-0.1-1.6-0.1-1.7C127.5,593.7,127.6,594.2,127.7,594.8
		L127.7,594.8z"/>
</g>
<g id="x-iB9uiPr9YXgWiA6gZCI" transform="matrix(1 0 0 1 60.73 -329.42)">
	<path vector-effect="non-scaling-stroke" d="M127.6,593.7l0.1,0.5v-0.1L127.6,593.7L127.6,593.7z"/>
</g>
<g id="kg5vp94eov6P1I8kjN2Hf" transform="matrix(1 0 0 1 56.48 -411.63)">
	<path vector-effect="non-scaling-stroke" d="M127.9,598.5v0.2c0-0.3,0.1-0.7,0.1-1c-0.2-2.8-0.5-5.6-0.8-8.4
		C127.5,592.3,127.7,595.4,127.9,598.5z"/>
</g>
<g id="O4Pd3znGsux8GR66LEHts" transform="matrix(1 0 0 1 29.99 -329.49)">
	<path vector-effect="non-scaling-stroke" d="M127.6,593.9L127.6,593.9v0.1V593.9z"/>
</g>
<g id="mY3m4_t2m5DZHakJk2kZM" transform="matrix(1 0 0 1 13.33 -360.76)">
	<path vector-effect="non-scaling-stroke" d="M133.4,573.8c-0.6-2.5-1.2-4.9-1.8-7.4c-3.5-0.7-6.9-1.3-10.4-1.9
		c-2.9-0.5-7.4-1.4-10.3-1.7c4.3,0.7,10.2,1.9,15.4,3v-0.2v0.2c1.8,0.4,3.4,0.7,4.9,1v-0.1l0.2,0.2h-0.1c0.9,4.9,1.9,9.7,2.9,14.6
		c3.1,14.6,6.4,29.4,10.1,43.8l0,0C141.1,607.9,137.4,590.7,133.4,573.8z"/>
</g>
<g id="CcGjunhdhOFQstN0bWFJl" transform="matrix(1 0 0 1 17.01 -388.1)">
	<path vector-effect="non-scaling-stroke" d="M127.5,593.9v0.1h0.1L127.5,593.9z"/>
</g>
<g id="_x39_uFI7ywUD9HaIqHoeDOhD" transform="matrix(1 0 0 1 10.44 -326.6)">
	<path vector-effect="non-scaling-stroke" d="M127.6,593.8v-0.1c0,0.2,0,0.3,0.1,0.5C127.6,594.1,127.6,593.9,127.6,593.8z"/>
</g>
<g id="ZH8K8jPDqH05YHyL18vOH" transform="matrix(1 0 0 1 10 -357.88)">
	<path vector-effect="non-scaling-stroke" d="M125.7,593.7c-0.4,10.3,0.7,21.1,2.2,31.3v0.1c-0.6-10.3-1.7-21.1-1.2-31.3
		c0.5-9,1.9-21.8,2.8-30.9l0,0C127.7,573,126.4,583.3,125.7,593.7z"/>
</g>
<g id="abbE35AGJ0ROBZVCdEXY2" transform="matrix(1 0 0 1 10.35 -326.8)">
	<path vector-effect="non-scaling-stroke" d="M127.6,593.9v0.1l0,0V593.9z"/>
</g>
<g id="_x39__x5F_eKz0Agf3N4Z6qqvLgOy" transform="matrix(1 0 0 1 12.03 -389.09)">
	<path vector-effect="non-scaling-stroke" d="M127.6,594L127.6,594v-0.2V594z"/>
</g>
<g id="_x37_I9JYPSnpHnESF0S7_x5F_Oxh" transform="matrix(1 0 0 1 60.58 -331.41)">
	<path vector-effect="non-scaling-stroke" d="M127.6,594L127.6,594L127.6,594L127.6,594z"/>
</g>
<g id="wIo7Dwt_qyvebvalsFvqE" transform="matrix(1 0 0 1 38.89 -320.78)">
	<path vector-effect="non-scaling-stroke" d="M149.5,585.4v0.3v-0.2c0.1,1.7,0.3,3.5,0.3,3.5l0.3,3.2c0,0.4,0.1,1.4,0.2,1.8
		c0.2,1-0.2,2-1,2.6c-3.5,2.9-11.4,4.2-16,5c-3.2,0.6-6.4,0.8-9.6,0.9c-4.8,0.2-9.6-0.4-14.3-1.6c-0.7-0.2-1.5-0.5-2.2-0.8
		c-0.5-0.2-0.9-0.5-1.2-0.9c-0.5-0.5,2.1-3.3,2.6-3.9c3.1-3.4,6.9-6.9,10.3-10.1v-0.1l0,0c-3.8,3-7.5,6.2-10.9,9.6
		c-1,1-2,2.1-2.8,3.3c-2,3.1,6.7,4.6,8.7,4.9c4.9,0.7,9.8,0.7,14.7,0c5.6-0.9,16.8-2.4,20.9-6.1c0.8-0.7,1.2-1.7,1-2.8l-0.1-0.6
		c-0.2-1.9-0.2-6.2-0.8-9.1c0,0.2,0,0.5-0.1,0.7V585.4z"/>
</g>
<g id="AU0473PDLc49TfRQDP1LO" transform="matrix(1 0 0 1 30.18 -329.74)">
	<path vector-effect="non-scaling-stroke" d="M127.4,594v0.1l0.4-0.4L127.4,594z"/>
</g>
<g id="SQaClfzTHz2aS2sQUJivk" transform="matrix(1 0 0 1 60.78 -329.14)">
	<path vector-effect="non-scaling-stroke" d="M127.6,594.1v-0.3v0.1V594.1z"/>
</g>
<g id="q64ymujkYqYbzNJ-yRIUa" transform="matrix(1 0 0 1 60.69 -330.57)">
	<path vector-effect="non-scaling-stroke" d="M127.5,593.2c0,0.1,0.1,1,0.1,1.7c0-0.2,0.1-0.5,0.1-0.7
		C127.7,593.9,127.6,593.4,127.5,593.2L127.5,593.2z"/>
</g>
<g id="NoG6y4QFHzyAZ7-y5-iFQ" transform="matrix(1 0 0 1 29.99 -329.6)">
	<path vector-effect="non-scaling-stroke" d="M127.6,594v-0.1l0,0V594z"/>
</g>
<g id="CgmB4n_fNoCj97m_jK4Xx" transform="matrix(1 0 0 1 11.68 -463.74)">
	<path vector-effect="non-scaling-stroke" d="M120.3,596.6c-10.5,10.9-20.4,22.5-29.4,34.7v0.1l1.5-1.9l2.1-2.6
		c8.5-10.1,17.3-20.1,26.5-29.6c13.9-14.1,28.6-27.6,43.3-40.8l0,0C148.9,569.1,134.2,582.4,120.3,596.6z"/>
</g>
<g id="_LeBftk_3dtpf002K9aFu" transform="matrix(1 0 0 1 48.49 -501.22)">
	<path vector-effect="non-scaling-stroke" d="M127.7,593.9l-0.2,0.1l0,0L127.7,593.9z"/>
</g>
<g id="uMEZcfnrq4raZ7ohwvcE-" transform="matrix(1 0 0 1 -25.32 -426.03)">
	<path vector-effect="non-scaling-stroke" d="M127.3,594.3l0.6-0.7v-0.1C127.7,593.8,127.5,594.1,127.3,594.3z"/>
</g>
<g id="mB9vjwFmk7TaKbnEY5vl1" transform="matrix(1 0 0 1 2.04 -420.71)">
	<path vector-effect="non-scaling-stroke" d="M129.7,596.1c2.9,0,5.9-0.3,8.8-0.6c3.5-0.4,7-0.9,10.4-1.7c2.2-0.5,4.3-1.2,6.4-2.1
		l-0.1,0.2c-2.1,0.7-4.2,1.3-6.3,1.7c-6.3,1.2-12.7,1.9-19.2,1.9c-9.7-0.2-19.5-1.2-29-3.2c-0.2,0.2-0.1,0.6-0.3,0.8
		c0,0.1-0.4,0.1-0.4,0.1C109.7,595.2,119.7,596.2,129.7,596.1z"/>
</g>
<g id="_x33_cZGlxP9nW18hvRoiTscb" transform="matrix(1 0 0 1 -24.89 -421.93)">
	<path vector-effect="non-scaling-stroke" d="M127.3,593.6v0.7l0.7-0.6L127.3,593.6z"/>
</g>
<g id="UkzVVpWEDa9G1UrUkLE-o" transform="matrix(1 0 0 1 -26.44 -421.74)">
	<path vector-effect="non-scaling-stroke" d="M127.4,594.1l0.3,0.1v-0.4L127.4,594.1z"/>
</g>
<g id="B4rVvHd4h51iZYXwzjjSo" transform="matrix(1 0 0 1 16.27 -460.49)">
	<path vector-effect="non-scaling-stroke" d="M86.1,631.5v0.6l0.6,0.1c6.9-6.1,13.8-12.3,20.5-18.6c14.1-12.8,27.4-26.6,41.3-39.6
		c6.7-6.2,13.5-12.4,20.4-18.5l0,0c-14.4,11.9-28.3,24.6-41.6,37.7C113.9,606.3,100.1,619,86.1,631.5z"/>
</g>
<g id="wVSVuP9qKYRzY3fR3eBWt" transform="matrix(1 0 0 1 58.08 -499.16)">
	<path vector-effect="non-scaling-stroke" d="M128,593.6l-0.8,0.7l0,0L128,593.6z"/>
</g>
<g id="B82cVNubwyA2jNYLqVAWg" transform="matrix(1 0 0 1 30.09 -422.89)">
	<path vector-effect="non-scaling-stroke" d="M128.1,593.8c-0.1,0.1-0.9,0.3-1,0.3l0,0C127.2,594.1,128,593.9,128.1,593.8z"/>
</g>
<g id="_x31_9kMKsN9xIFRhcQUmOHvZ" transform="matrix(1 0 0 1 -25.75 -422.17)">
	<path vector-effect="non-scaling-stroke" d="M128.1,594.8v-0.2l0,0l-0.2-0.8h0.3v-0.6l-0.7,0.6l-0.4,0.3v0.4l0.6,0.1L128.1,594.8z"
		/>
</g>
<g id="PVTBzLXrYyCEoRphUad7J" transform="matrix(1 0 0 1 -25.39 -421.95)">
	<path vector-effect="non-scaling-stroke" d="M127.5,593.6l0.2,0.8l0,0v-0.7L127.5,593.6z"/>
</g>
<g id="jiWgqZN7r5awGclH8Fhg7" transform="matrix(1 0 0 1 14.43 -415.09)">
	<path vector-effect="non-scaling-stroke" d="M121.8,599.2l-3.3,0.2c-1.2,0-3.4,0.2-4.6,0.1h-2.6c-1.3-0.1-2.7-0.1-3.9-0.2
		c-3-0.2-6.1-0.7-9.1-1.2c-1.6-0.3-3.5-0.7-5.1-1.2c-2.1-0.6-4.2-1.3-6.2-2.1c0,0,0.6,0.3,0.6,0.3c2.2,1,4.4,1.9,6.7,2.6
		c4.2,1.2,8.6,2.1,12.9,2.5c1.3,0.1,2.7,0.2,4,0.3c1.3,0.1,2.7,0.1,4,0.1l3.3-0.1l2-0.1c2.6-0.2,5.3-0.5,7.9-0.9
		c2.6-0.4,5.3-0.9,7.8-1.5c8.6-1.9,17-4.5,25.1-7.7c2.2-0.9,4.5-1.8,6.7-2.8l0,0c-3.1,1.2-6.2,2.3-9.3,3.3
		C146.7,594.6,134.4,598,121.8,599.2z"/>
</g>
<g id="llA-XUy-7t5Wm4GvXHdFs" transform="matrix(1 0 0 1 55.14 -421.82)">
	<path vector-effect="non-scaling-stroke" d="M127.9,593.8l-0.6,0.2l0,0L127.9,593.8z"/>
</g>
<g id="WCHMIL1Cr3sNnY604RzUh" transform="matrix(1 0 0 1 -25.82 -414.1)">
	<path vector-effect="non-scaling-stroke" d="M127.3,593.8c0.2,0.1-0.2,0.3,0,0.4c0,0,0.6-0.1,0.6-0.1L127.3,593.8z"/>
</g>
<g id="XC4Xjwk8xyG3hZLPCvetI" transform="matrix(1 0 0 1 -64.82 -553.52)">
	<path vector-effect="non-scaling-stroke" d="M125.7,594c0-1,0.9-1.9,1.9-1.9s1.9,0.9,1.9,1.9s-0.9,1.9-1.9,1.9S125.7,595,125.7,594
		z"/>
</g>
<g id="IkxeD9aH4TwOxQFpWRDfy" transform="matrix(1 0 0 1 -60.38 -553.52)">
	<path vector-effect="non-scaling-stroke" d="M125.7,594c0-1,0.9-1.9,1.9-1.9s1.9,0.9,1.9,1.9s-0.9,1.9-1.9,1.9S125.7,595,125.7,594
		z"/>
</g>
<g id="mmv5vGhoT_SieEhgQvI3W" transform="matrix(1 0 0 1 -57.97 -549.72)">
	<path vector-effect="non-scaling-stroke" d="M125.7,594c0-1,0.9-1.9,1.9-1.9s1.9,0.9,1.9,1.9s-0.9,1.9-1.9,1.9S125.7,595,125.7,594
		z"/>
</g>
<g id="uy9oHJFpG2uWMK87K9kVf" transform="matrix(1 0 0 1 -60.38 -546.51)">
	<path vector-effect="non-scaling-stroke" d="M127.6,592.6c-0.5,0-1,0.2-1.4,0.6s-0.6,0.8-0.6,1.3c0,0.3,0.1,0.5,0.2,0.7
		c0.8-0.2,1.6-0.3,2.4-0.3h1.1c0-0.1,0.1-0.3,0.1-0.4c0-0.5-0.2-1-0.6-1.3S128.1,592.6,127.6,592.6z"/>
</g>
<g id="XtB7R216ZW9vTN8L5FIkA" transform="matrix(1 0 0 1 -60.29 -545.13)">
	<path vector-effect="non-scaling-stroke" d="M128.3,593.6c-0.8,0-1.6,0.2-2.4,0.3c0.5,0.4,1.1,0.5,1.7,0.4c0.9,0,1.7-0.1,1.9-0.8
		H128.3z"/>
</g>
<g id="ohYXSpMMrClUWpfNIfdYp" transform="matrix(1 0 0 1 -64.79 -545.94)">
	<path vector-effect="non-scaling-stroke" d="M127.6,592.1c-1,0-1.8,0.8-1.9,1.8s0.6,1.9,1.6,2c0.6-0.3,1.2-0.6,1.8-0.8
		c0.2-0.3,0.3-0.7,0.3-1.1c0-0.5-0.2-1-0.6-1.3C128.6,592.3,128.1,592.1,127.6,592.1z"/>
</g>
<g id="tjvOVT7wt4-Wkhme4znOV" transform="matrix(1 0 0 1 -64.15 -544.44)">
	<path vector-effect="non-scaling-stroke" d="M126.9,594.4c0.6,0,1.2-0.3,1.6-0.8c-0.6,0.2-1.2,0.5-1.8,0.8L126.9,594.4z"/>
</g>
<g id="qndt4qwQUZLlTy6juPVsP" transform="matrix(1 0 0 1 -67.03 -549.72)">
	<path vector-effect="non-scaling-stroke" d="M125.7,594c0-1,0.9-1.9,1.9-1.9s1.9,0.9,1.9,1.9s-0.9,1.9-1.9,1.9S125.7,595,125.7,594
		z"/>
</g>
<g id="HBuEMJa4gssHmzUuRxswq" transform="matrix(1 0 0 1 -62.66 -557.28)">
	<path vector-effect="non-scaling-stroke" d="M126.4,594c0-0.6,0.5-1.2,1.2-1.2s1.2,0.5,1.2,1.2s-0.5,1.2-1.2,1.2
		S126.4,594.6,126.4,594z"/>
</g>
<g id="fPwy0OJn3XZdS6xD5ZBUq" transform="matrix(1 0 0 1 -55.8 -553.52)">
	<path vector-effect="non-scaling-stroke" d="M126.4,594c0-0.6,0.5-1.2,1.2-1.2s1.2,0.5,1.2,1.2s-0.5,1.2-1.2,1.2
		S126.4,594.6,126.4,594z"/>
</g>
<g id="_x39_v4_x5F_0QRSfT-5ZkbULtED_x5F_" transform="matrix(1 0 0 1 -55.81 -545.94)">
	<path vector-effect="non-scaling-stroke" d="M128.8,594c-0.1-0.6-0.6-1.1-1.2-1.1c-0.6,0-1.1,0.5-1.2,1.1c0,0.2,0,0.4,0.1,0.6
		c0.5,0.1,1.1,0.3,1.5,0.5C128.5,594.8,128.8,594.4,128.8,594z"/>
</g>
<g id="HZ_PQVHmQZV9r7mYh0gtw" transform="matrix(1 0 0 1 -56.08 -545.06)">
	<path vector-effect="non-scaling-stroke" d="M127.9,594.3c0.2,0,0.3,0,0.5-0.1c-0.5-0.2-1-0.4-1.5-0.5
		C127,594,127.4,594.3,127.9,594.3z"/>
</g>
<g id="aWDI67LvVqX412z7mmjet" transform="matrix(1 0 0 1 -69.36 -553.52)">
	<path vector-effect="non-scaling-stroke" d="M126.4,594c0-0.6,0.5-1.2,1.2-1.2s1.2,0.5,1.2,1.2s-0.5,1.2-1.2,1.2
		S126.4,594.6,126.4,594z"/>
</g>
<g id="r9h8rZaQQlrZGETZMv0LI" transform="matrix(1 0 0 1 -69.36 -545.93)">
	<path vector-effect="non-scaling-stroke" d="M126.4,594c0-0.6,0.5-1.2,1.2-1.2s1.2,0.5,1.2,1.2s-0.5,1.2-1.2,1.2
		S126.4,594.6,126.4,594z"/>
</g>
<g id="b33tIjRtc6K1eTpxl8522" transform="matrix(1 0 0 1 -52.46 -549.7)">
	<path vector-effect="non-scaling-stroke" d="M126.5,594c0-0.6,0.5-1.1,1.1-1.1c0.6,0,1.1,0.5,1.1,1.1s-0.5,1.1-1.1,1.1
		C127,595,126.5,594.5,126.5,594z"/>
</g>
<g id="o0NsHLHy1kTs4kvfKJHbF" transform="matrix(1 0 0 1 -57.66 -558.14)">
	<path vector-effect="non-scaling-stroke" d="M126.5,594c0-0.6,0.5-1.1,1.1-1.1c0.6,0,1.1,0.5,1.1,1.1s-0.5,1.1-1.1,1.1
		C127,595,126.5,594.5,126.5,594z"/>
</g>
<g id="PDS_8p7ip3PAwB-o32dj_" transform="matrix(1 0 0 1 -67.61 -558.14)">
	<path vector-effect="non-scaling-stroke" d="M126.5,594c0-0.6,0.5-1.1,1.1-1.1c0.6,0,1.1,0.5,1.1,1.1s-0.5,1.1-1.1,1.1
		C127,595,126.5,594.5,126.5,594z"/>
</g>
<g id="_x35_qMx0CP8v4xkuXGNKaSvd" transform="matrix(1 0 0 1 -72.7 -549.7)">
	<path vector-effect="non-scaling-stroke" d="M126.5,594c0-0.6,0.5-1.1,1.1-1.1c0.6,0,1.1,0.5,1.1,1.1s-0.5,1.1-1.1,1.1
		C127,595,126.5,594.5,126.5,594z"/>
</g>
<g id="_538_bSkJ6DxRmSq3WGaN" transform="matrix(1 0 0 1 -55.8 -561.09)">
	<path vector-effect="non-scaling-stroke" d="M126.8,594c0-0.4,0.4-0.8,0.8-0.8s0.8,0.4,0.8,0.8s-0.4,0.8-0.8,0.8
		S126.8,594.4,126.8,594z"/>
</g>
<g id="AcjhSwAMiVkLJ3RfGShFA" transform="matrix(1 0 0 1 -62.66 -561.63)">
	<path vector-effect="non-scaling-stroke" d="M127.6,594.8c0.4,0,0.8-0.4,0.8-0.8c0-0.3-0.2-0.6-0.5-0.8c-0.3-0.1-0.7-0.1-0.9,0.2
		c-0.2,0.2-0.3,0.6-0.2,0.9C127,594.6,127.3,594.8,127.6,594.8z"/>
</g>
<g id="SeFccG51LKPzObKgFn89-" transform="matrix(1 0 0 1 -69.36 -561.09)">
	<path vector-effect="non-scaling-stroke" d="M126.8,594c0-0.4,0.4-0.8,0.8-0.8s0.8,0.4,0.8,0.8s-0.4,0.8-0.8,0.8
		S126.8,594.4,126.8,594z"/>
</g>
<g id="kSlRdnV1RonlVj8ktEy2j" transform="matrix(1 0 0 1 -73.24 -555.48)">
	<path vector-effect="non-scaling-stroke" d="M127.6,594.8c0.4,0,0.8-0.4,0.8-0.8c0-0.4-0.4-0.8-0.8-0.8c-0.4,0-0.8,0.4-0.8,0.8
		c0,0.2,0.1,0.4,0.2,0.6C127.2,594.7,127.4,594.8,127.6,594.8z"/>
</g>
<g id="D8vWtkkVS1l4bwXJ5ZB_g" transform="matrix(1 0 0 1 -76.22 -549.68)">
	<path vector-effect="non-scaling-stroke" d="M127.6,593.2c-0.3,0-0.6,0.2-0.7,0.5c-0.1,0.3-0.1,0.6,0.2,0.9
		c0.2,0.2,0.6,0.3,0.9,0.2c0.3-0.1,0.5-0.4,0.5-0.7C128.4,593.5,128,593.2,127.6,593.2z"/>
</g>
<g id="ttkCJxtjcKaTY7L70GH1f" transform="matrix(1 0 0 1 -51.88 -555.7)">
	<path vector-effect="non-scaling-stroke" d="M126.8,594c0-0.4,0.4-0.8,0.8-0.8s0.8,0.4,0.8,0.8s-0.4,0.8-0.8,0.8
		S126.8,594.4,126.8,594z"/>
</g>
<g id="YJZLz6-kdG_rpxwE2NQNC" transform="matrix(1 0 0 1 -48.81 -549.72)">
	<path vector-effect="non-scaling-stroke" d="M126.8,594c0-0.4,0.4-0.8,0.8-0.8s0.8,0.4,0.8,0.8s-0.4,0.8-0.8,0.8
		S126.8,594.4,126.8,594z"/>
</g>
<g id="Rbq8mQxxy2HGXmgaNVpCz" transform="matrix(1 0 0 1 -51.88 -543.69)">
	<path vector-effect="non-scaling-stroke" d="M126.8,594c0-0.4,0.4-0.8,0.8-0.8s0.8,0.4,0.8,0.8s-0.4,0.8-0.8,0.8
		S126.8,594.4,126.8,594z"/>
</g>
<g id="BkL3aqTWYvtv6iUI8xm12" transform="matrix(1 0 0 1 -73.23 -543.68)">
	<path vector-effect="non-scaling-stroke" d="M127.6,593.2c-0.2,0-0.4,0.1-0.6,0.2c-0.2,0.1-0.2,0.4-0.2,0.6c0,0.4,0.4,0.8,0.8,0.8
		c0.4,0,0.8-0.4,0.8-0.8c0-0.2-0.1-0.4-0.2-0.6S127.8,593.2,127.6,593.2z"/>
</g>
</svg>
