<?xml version="1.0" encoding="utf-8"?>
<!-- Generator: Adobe Illustrator 26.0.2, SVG Export Plug-In . SVG Version: 6.00 Build 0)  -->
<svg version="1.1" id="Слой_1" xmlns="http://www.w3.org/2000/svg" xmlns:xlink="http://www.w3.org/1999/xlink" x="0px" y="0px"
	 viewBox="0 0 299.2 258.6" style="enable-background:new 0 0 299.2 258.6;" xml:space="preserve">
<style type="text/css">
	.st0{fill:url(#SVGID_1_);}
	.st1{fill:#606060;}
	.st2{fill:#811619;}
	.st3{fill:#343434;}
	.st4{fill:#C2C2C2;}
	.st5{fill:#FFFFFF;}
	.st6{fill:#B21533;}
	.st7{fill:none;}
	.st8{fill:#AF7575;}
</style>
<desc>Created with Fabric.js 4.6.0</desc>
<g id="R0iTIf7QjCU7pD5POqkAy" transform="matrix(1 0 0 1 -848 -455.5)">
	<g>
		<g vector-effect="non-scaling-stroke">
			
				<radialGradient id="SVGID_1_" cx="2164.9329" cy="-1930.4537" r="93.19" gradientTransform="matrix(1.34 0 0 -1.32 -1906.6799 -1975.8098)" gradientUnits="userSpaceOnUse">
				<stop  offset="0.37" style="stop-color:#811619"/>
				<stop  offset="1" style="stop-color:#B21533"/>
			</radialGradient>
			<path class="st0" d="M878.4,675.8c-16.5,0-30-13.5-30-30V505.2c0-16.5,13.5-30,30-30h228.3c16.5,0,30,13.5,30,30v140.6
				c0,16.5-13.5,30-30,30H878.4z"/>
		</g>
	</g>
</g>
<g id="d8_PKO_pafz9mgHmmCQ5j" transform="matrix(1 0 0 1 -861.11 -338.34)">
	<path vector-effect="non-scaling-stroke" class="st1" d="M886.6,575.5c0-11.6,47.4-21,105.9-21s105.9,9.4,105.9,21
		s-47.4,21-105.9,21S886.6,587.1,886.6,575.5z"/>
</g>
<g id="joWmVo5lSR440GaHlXvDE" transform="matrix(1 0 0 1 -919.14 -503.71)">
	<path vector-effect="non-scaling-stroke" class="st2" d="M1001.8,573.3c-3.1,1.3-6.5,1.9-9.8,1.5c-1.7-0.2-3.3-0.5-4.9-1.1
		c-1.5-0.6-3-1-4.6-1.2c-2.4-0.1-4.7,0.3-6.9,1.3c-0.5,0.2-1,0.5-1.5,0.8c2.3,2.9,4.6,5.9,7.2,8.6l0,0c1.8-1.3,3.9-2,6.1-1.9
		c0.8,0.1,1.5,0.4,2.1,0.8c2,1.1,4.3,1.6,6.5,1.3c3.7-0.5,7.3-1.7,10.5-3.6c1.6-0.9,3.1-2,4.5-3.3c-0.7-2.9-1.3-5.9-1.5-8.9l0,0
		c-0.4,0.4-0.8,0.8-1.2,1.1C1006.3,570.6,1004.2,572.1,1001.8,573.3z"/>
</g>
<g id="Wqlpuc4ngXZn8YBrFsRmQ" transform="matrix(1 0 0 1 -918.56 -524.04)">
	<path vector-effect="non-scaling-stroke" class="st2" d="M1009.7,571.1c-0.2,0.8-0.3,1.7-0.4,2.6l-0.1,0.3l0,0
		c-0.4,2.5-0.6,5-0.6,7.6c-2.6,0.6-5.3,1-8,1.3c-7.6,0.7-9.6-0.7-15.1-5.5c-1.2-1.1-2.9-1.5-4.4-1c-1.2,0.3-2.4,0.6-3.5,1.1
		c-0.3-1.4-0.8-3.3-1.2-5.2c-0.3-1.5-0.7-2.9-1-4l5-0.2c0.5,0,1.2,0,1.7,0c0.6,0,1.1,0.1,1.7,0.2c4.5,0.8,8.5,3.6,13,4.3
		c4.3,0.7,8.7,0.2,12.8-1.3L1009.7,571.1z"/>
</g>
<g id="_x30_H3mCbJPHgi7p8b_x5F_RZ-wU" transform="matrix(1 0 0 1 -933.9 -356.61)">
	<path vector-effect="non-scaling-stroke" class="st3" d="M991.2,559c-3.5,2.1-5.2,6.7-5.8,10.5c-0.4,2.5-0.2,5.1,0.5,7.6
		c0.4,1.5,0.8,3,1.4,4.5c1.5,3.9,3.6,8.1,7.7,9.8c0.9,0.3,1.8,0.6,2.7,0.8l2.1,0.5c-0.9-0.9-1.8-1.8-2.5-2.9
		c-0.3-0.5-0.6-1.1-0.8-1.6c-1.5-3.1-2.3-6.5-2.5-9.9c-0.4-6.6,0.8-13.1,2.7-19.4C995,558,992.9,558,991.2,559z"/>
</g>
<g id="os1sV7vie7myP6JM3GVU_" transform="matrix(1 0 0 1 -907.67 -419.41)">
	<path vector-effect="non-scaling-stroke" class="st3" d="M997.5,591.7c-0.5-3.4-1-6.9-1.4-10.3c-0.9-7.3-1.1-14.7-0.8-22
		c-1.1,3.1-2,6.3-3,9.4c-1.9,6.7-3.8,13.4-4.7,20.3c1.7,0.2,3.4,0.5,5.1,1C994.3,590.5,995.9,591,997.5,591.7z"/>
</g>
<g id="ypuQC688yasgRu32Dn1n1" transform="matrix(1 0 0 1 -907.21 -398.95)">
	<path vector-effect="non-scaling-stroke" class="st2" d="M997,571.5c-3.5-0.1-6.9-1-9.9-2.7c-0.1,0.7-0.2,1.3-0.2,2
		c-0.2,1.9-0.3,3.9-0.5,5.8c-0.1,0.9-0.1,1.8-0.1,2.7c4,0.8,8.5,1.5,12.4,2.9C998.1,578.6,997.6,575.1,997,571.5z"/>
</g>
<g id="_LGneaQ-IP5ppWlZNbbMh" transform="matrix(1 0 0 1 -915.28 -366.02)">
	<path vector-effect="non-scaling-stroke" class="st3" d="M1008.5,558.6c-0.6-3-1.1-6.1-1.7-9.1c-3.9,0-9.2-0.9-12.5-3.1
		c0,1-0.1,2-0.1,3c-0.2-1.9-0.3-3.9-0.4-5.8c0-0.2,0-0.4,0-0.6c-1.5,0.9-2.9,2.1-4.1,3.5c-1.1,1.3-2.1,2.6-3,4
		c-4.7,7.3-7.3,15.7-9.1,24.2l-0.1,0.4l-0.5,2.8l-0.3,2.8c-0.6,5.8-0.3,11.9,2.4,17.2c0.7,1.5,1.7,2.8,2.9,3.8c2,2,4.4,3.6,7,4.7
		c1.3,0.6,2.7,0.9,4.1,1.1c2.4,0.3,4.8,0.5,7.2,0.5c1.8,0,3.7,0,5.5-0.2c0-0.1,0.1-0.2,0.1-0.4c0,0,0-0.1,0-0.1c0-0.1,0-0.2,0.1-0.3
		c0-0.1,0-0.1,0-0.1l0.1-0.2l0.1-0.1c0-0.1,0.1-0.2,0.1-0.2l0.1-0.1c0-0.1,0.1-0.2,0.1-0.2l0.1-0.1l0.2-0.3v-0.1
		c0.1-0.1,0.1-0.2,0.2-0.4l0.1-0.1l0.1-0.2l0.1-0.2l0.1-0.2l0.1-0.2c0-0.1,0.1-0.1,0.1-0.2l0.1-0.2c0,0,0.1-0.1,0.1-0.2l0.1-0.2
		c0,0,0.1-0.1,0.1-0.1l0.5-0.8L1008.5,558.6z"/>
</g>
<g id="_x31_H6Drsa7icjC9nIKDmmn_x5F_" transform="matrix(1 0 0 1 -712.72 -500.45)">
	<path vector-effect="non-scaling-stroke" class="st4" d="M984.1,572.5c-0.3-0.2-0.5-0.6-0.5-1c0-0.7,0.6-1.3,1.3-1.3
		s1.3,0.6,1.3,1.3c0,0.2,0,0.4-0.1,0.5l0.5-0.1c0.4,0,0.8-0.1,1.2-0.1c0-0.1,0-0.2,0-0.3c0-1.2,0.9-2.1,2.1-2.1s2.1,0.9,2.1,2.1
		c-0.1,0.8-0.5,1.6-1.1,2.1c-0.1,0.9-0.5,1.8-1.1,2.4c-0.8,0.8-1.6,1.5-2.5,2.2c-1.8,1.3-3.7,2.4-5.7,3.3c-1.8,0.7-3.5,1.4-5.3,2
		c3.2,5.9,9.3,9.5,16,9.6c8.9,0.2,17.1-6.7,18.2-15.5c1-6.7-2-13.4-7.7-17.1c-5.7-3.5-12.9-3.7-18.7-0.4c-5.9,3.2-9.5,9.4-9.6,16.1
		c1.9-0.9,3.9-1.7,5.8-2.5C981.5,573.3,982.8,572.9,984.1,572.5z M1007.2,574.8c0.5,0,0.9,0.4,0.9,0.9s-0.4,0.9-0.9,0.9
		c-0.5,0-0.9-0.4-0.9-0.9c0-0.2,0.1-0.5,0.3-0.6C1006.8,574.9,1007,574.8,1007.2,574.8z M984.9,589.2c-0.5,0-0.9-0.4-0.9-0.9
		s0.4-0.9,0.9-0.9c0.5,0,0.9,0.4,0.9,0.9C985.7,588.8,985.3,589.2,984.9,589.2z M986.8,586c-0.6,0-1.1-0.5-1.1-1.2
		c0-0.6,0.5-1.1,1.2-1.1c0.6,0,1.1,0.5,1.1,1.2c0,0.3-0.1,0.6-0.3,0.8S987.1,586,986.8,586z M987.8,579.8c0-0.8,0.5-1.6,1.3-1.9
		c0.8-0.3,1.7-0.2,2.3,0.4c0.6,0.6,0.8,1.5,0.5,2.3s-1.1,1.3-1.9,1.3c-0.6,0-1.1-0.2-1.5-0.6C987.9,580.9,987.7,580.3,987.8,579.8
		L987.8,579.8z M992.2,589.8c-0.5,0-0.9-0.4-0.9-0.9s0.4-0.9,0.9-0.9c0.5,0,0.9,0.4,0.9,0.9C993,589.4,992.6,589.7,992.2,589.8
		L992.2,589.8z M992.6,585.3c-0.7,0-1.3-0.6-1.3-1.3c0-0.7,0.6-1.3,1.3-1.3s1.3,0.6,1.3,1.3c0,0.3-0.2,0.7-0.4,0.9
		S992.9,585.2,992.6,585.3L992.6,585.3z M994.7,581.9c-1.1,0-2.1-0.9-2-2.1c0-1.1,0.9-2.1,2.1-2.1c1.1,0,2.1,0.9,2.1,2.1
		c0,0.6-0.2,1.1-0.7,1.5C995.7,581.7,995.2,581.9,994.7,581.9L994.7,581.9z M995.2,575.7c0-0.8,0.5-1.6,1.3-1.9
		c0.8-0.3,1.7-0.2,2.3,0.4c0.6,0.6,0.8,1.5,0.5,2.3c-0.3,0.8-1.1,1.3-1.9,1.3c-0.6,0-1.1-0.2-1.5-0.6
		C995.4,576.8,995.2,576.2,995.2,575.7L995.2,575.7z M998,586c-0.6,0-1.1-0.5-1.1-1.2s0.5-1.1,1.2-1.1c0.6,0,1.1,0.5,1.1,1.1
		C999.1,585.5,998.5,586,998,586L998,586z M999.7,589.2c-0.5,0-0.9-0.4-0.9-0.9c0-0.5,0.4-0.9,0.9-0.9c0.5,0,0.9,0.4,0.9,0.9
		c0,0.2-0.1,0.5-0.3,0.6C1000.1,589.1,999.9,589.2,999.7,589.2L999.7,589.2z M999.7,581.1c-0.7,0-1.3-0.6-1.3-1.3
		c0-0.7,0.6-1.3,1.3-1.3c0.7,0,1.3,0.6,1.3,1.3C1000.9,580.5,1000.3,581.1,999.7,581.1L999.7,581.1z M1004,583.1
		c-0.5,0-0.9-0.4-0.9-0.9c0-0.5,0.4-0.9,0.9-0.9s0.9,0.4,0.9,0.9c0,0.2-0.1,0.5-0.3,0.6C1004.4,583,1004.1,583.1,1004,583.1
		L1004,583.1z M1004,568.3c0.5,0,0.9,0.4,0.9,0.9s-0.4,0.9-0.9,0.9c-0.5,0-0.9-0.4-0.9-0.9C1003.1,568.7,1003.4,568.3,1004,568.3
		L1004,568.3z M1003.3,574.5c0.6,0,1.1,0.5,1.1,1.2s-0.5,1.1-1.2,1.1c-0.6,0-1.1-0.5-1.1-1.1
		C1002.1,575.1,1002.6,574.5,1003.3,574.5L1003.3,574.5z M1001,571.5c0,0.5-0.3,1-0.8,1.2c-0.5,0.2-1,0.1-1.4-0.3
		c-0.4-0.4-0.5-0.9-0.3-1.4c0.2-0.5,0.7-0.8,1.2-0.8C1000.4,570.3,1000.9,570.8,1001,571.5L1001,571.5z M999.7,562.4
		c0.5,0,0.9,0.4,0.9,0.9s-0.4,0.9-0.9,0.9c-0.5,0-0.9-0.4-0.9-0.9C998.8,562.8,999.2,562.4,999.7,562.4L999.7,562.4z M997.7,565.3
		c0.6,0,1.2,0.5,1.1,1.2c0,0.6-0.5,1.2-1.2,1.1c-0.6,0-1.2-0.5-1.1-1.2C996.5,565.9,997,565.3,997.7,565.3L997.7,565.3z
		 M996.8,571.5c0,0.8-0.5,1.6-1.3,1.9c-0.8,0.3-1.7,0.2-2.3-0.4c-0.6-0.6-0.8-1.5-0.5-2.3s1.1-1.3,1.9-1.3
		C995.8,569.5,996.7,570.4,996.8,571.5L996.8,571.5z M992.2,561.8c0.5,0,0.9,0.4,0.9,0.9c0,0.5-0.4,0.9-0.9,0.9s-0.9-0.4-0.9-0.9
		C991.3,562.2,991.7,561.8,992.2,561.8L992.2,561.8z M992.2,566.2c0.7,0,1.3,0.6,1.3,1.3s-0.6,1.3-1.3,1.3s-1.3-0.6-1.3-1.3
		C990.9,566.7,991.5,566.2,992.2,566.2L992.2,566.2z M986.8,565.3c0.6,0,1.2,0.5,1.1,1.2c0,0.6-0.5,1.2-1.2,1.1s-1.2-0.5-1.1-1.2
		C985.7,565.9,986.1,565.3,986.8,565.3L986.8,565.3z M984.9,562.4c0.5,0,0.9,0.4,0.9,0.9s-0.4,0.9-0.9,0.9c-0.5,0-0.9-0.4-0.9-0.9
		C984,562.8,984.4,562.4,984.9,562.4L984.9,562.4z M979.8,569.4c0-0.4,0.2-0.7,0.5-0.8c0.3-0.1,0.7-0.1,1,0.2c0.3,0.3,0.3,0.6,0.2,1
		c-0.1,0.3-0.5,0.5-0.8,0.5c-0.3,0-0.5-0.1-0.7-0.2S979.7,569.6,979.8,569.4L979.8,569.4z"/>
</g>
<g id="_x37_k6U9xkxBeV0xtq0uDxNf" transform="matrix(1 0 0 1 -831.52 -496.61)">
	<path vector-effect="non-scaling-stroke" class="st5" d="M987,592.8c11.8-0.4,23.7-3,34.1-8.7c2.2-1.2,4.3-2.5,6.3-4
		c3.2-3.5,4.9-8.5,3.4-13.1c-1.1-3.3-3.5-6-6.6-7.6c-3.1-1.5-6.7-1.8-10-0.6c-0.8,0.3-1.6,0.7-2.3,1.2c-1.6,1.4-3.4,2.7-5.3,3.6
		c-2.8,1.5-5.7,2.7-8.7,3.7c-5.1,2-10.6,2.6-16.1,1.9c-3.1-0.5-6.2-1.5-8.9-3l-0.1-0.1l0,0c-1.6-0.8-3.3-1.2-5.1-1.1
		c-5.4-0.2-10.4,2.2-12.8,7.1c-1.2,2.3-1.5,4.9-1.1,7.4c0.8,4.3,3.5,8,7.2,10.2C969.4,592.4,978.3,593.1,987,592.8z M1006.1,573.4
		c1.4-2,3.1-3.9,5-5.5c0.6-0.5,1.3-1,2-1.5c0.3-0.2,0.6-0.1,0.8,0.2c0.1,0.2,0.1,0.4,0,0.6c-0.8,1.3-1.8,2.4-2.9,3.5h0.2
		c1.4,0,2.4,2.5,2.4,5.6s-1.1,5.6-2.4,5.6c-1.4,0-2.4-2.4-2.4-5.6c0-1.5,0.2-2.9,0.8-4.3c-0.9,0.8-1.8,1.5-2.7,2.1
		c-0.2,0.2-0.5,0.2-0.8,0C1005.9,573.9,1005.9,573.6,1006.1,573.4z M977.3,575.9c-0.7-0.1-1.3-0.3-2-0.4c0.9,1.5,1.3,3.2,1.2,4.9
		c0,3.1-1.1,5.6-2.4,5.6s-2.4-2.4-2.4-5.6c0-2.7,0.8-4.8,1.8-5.4c-1.1-0.4-2.2-0.8-3.3-1.3c-0.8-0.4-1.5-0.8-2.2-1.2
		c-0.3-0.2-0.3-0.5-0.1-0.8c0.1-0.2,0.3-0.3,0.6-0.2c1.6,0.3,3.2,0.7,4.8,1.4c1.6,0.6,3,1.3,4.4,2.2c0.3,0.1,0.4,0.4,0.3,0.7
		C977.9,575.9,977.6,576,977.3,575.9L977.3,575.9z"/>
</g>
<g id="kQMEfoDI9lLhzd15HTat7" transform="matrix(1 0 0 1 -845.43 -549.89)">
	<path vector-effect="non-scaling-stroke" class="st3" d="M1046.4,583.7c-3.7,2.6-7.7,4.8-11.9,6.6c-10.7,4.6-22.1,7.4-33.7,8.3
		c-7,0.5-14,0.5-21,0c-13.8-0.9-27.6-2.6-41.2-5.1c4.2-14.1,13.6-26,26.3-33.3c17.3-10.2,38.7-10.7,56.5-1.4
		c6.5,3.3,12.4,7.9,17.2,13.4C1041.6,575.6,1044.3,579.5,1046.4,583.7z"/>
</g>
<g id="WtxSnmLPUUcHbF6rW6xs0" transform="matrix(1 0 0 1 -813.55 -391.76)">
	<path vector-effect="non-scaling-stroke" class="st3" d="M943.8,596.6c13.4-12.5,29-21.2,45.6-28.6l0,0c1.5-2.9,3-5.8,4.5-8.7
		c-0.5,1.3-7.7,18-8.1,18.6c-2.2,4.8-4.4,9.6-6.3,14.4c-4.2,11.1-6.4,22.8-8.2,34.5c1,0.4,2,0.6,3.1,0.8c1.8,0.4,3.7,0.6,5.6,0.8
		c3,0.3,6.3,0.4,9.4,0.5c11.2,0.2,22.7-0.4,33.6-3c2.2-0.6,4.5-1.1,6.6-1.8c-1.3-1.7-2.6-3.2-4.1-4.7c-5.1-4.8-10.8-8.8-17-11.9l0,0
		l0,0l-1.1-0.6c0.4,0.2,0.8,0.3,1.1,0.5c3.5-6.5,7.1-12.9,10.6-19.4c6.1-10.7,12.2-21.4,17.8-32.4c1.5-2.9,2.9-5.8,4-8.9
		c2.5-7.6,4.1-16.6-3.9-21.5c-2.3-1.4-4.7-2.3-7.3-2.9c-2.2-0.5-4.4-0.5-6.6-0.1c-3.2,0.5-6.4,1.5-9.4,2.8
		c-6.1,2.6-11.9,5.7-17.4,9.3c-5.2,3.3-10.9,7-15.9,10.7l0,0c-1.2,4.3-2.5,8.7-3.5,12.3c-2.6,2.2-5.3,4.3-8.1,6.2
		c-5.5,3.9-11.5,7.1-17.8,9.5c-2.4,0.9-4.8,1.7-7.2,2.4c-0.7,0.1-1.4,0.2-2,0.3C942.5,582.7,943.1,589.7,943.8,596.6L943.8,596.6z"
		/>
</g>
<g id="tNTLah4VK90e02JfRcWuT" transform="matrix(1 0 0 1 -768.64 -480.6)">
	<path vector-effect="non-scaling-stroke" class="st3" d="M1047.6,574.4c-1.3,1.5-3.8,2.2-5.6,2.6c-9.5,2.1-23.3,5-32.8,7
		c-6.6,1.3-13.1,2.9-19.6,4.9c-8.3,2.6-16.4,5.7-24.5,9h-27.7c0.2-1.2,0.4-2.4,0.5-3.6c2.1-0.8,4.1-1.7,6.1-2.7
		c7.7-3.9,14.5-9.5,19.7-16.4l1-1.3c0.4-0.5,0.7-1,1.1-1.5l1-0.3c8.2-2.4,16.5-4.4,24.9-5.9c3.9-0.7,8.6-1.3,13.4-1.9
		c4.8-0.6,9.5-1.2,13.5-1.7l0,0c3.7-1.6,7.4-3.3,11.1-4.9c3.2-1.4,6.5-2.6,9.9-3.7c1.7-0.5,8.3-2.2,5.2,1.4
		c-0.7,0.8-1.5,1.5-2.3,2.1c-1.7,1.3-3.5,2.4-5.4,3.4c-2.9,1.4-5.9,2.7-8.8,4c1.3-0.4,2.5-0.9,3.8-1.3c0.2,0.4,0.4,1,0.7,1.3
		l0.4,0.7c0.1,0.2,0.5,0.8,0.7,1.1c0.6,0.8,1.2,1.6,1.9,2.3C1038.9,572.2,1043.1,574.1,1047.6,574.4z"/>
</g>
<g id="b4-ZIuGDhQFDYhoECGADs" transform="matrix(1 0 0 1 -830.52 -430.22)">
	<path vector-effect="non-scaling-stroke" class="st3" d="M999.3,547.5c-1.6,9.1-5.4,17.7-11,25c-4.9,5.8-10.3,11.3-16.2,16.2
		c-4.5,3.9-9.2,7.5-14.1,10.9c0,1.3,0.1,2.7,0.2,4c11.5-3.3,22.9-7.4,33.3-13.4c1.3-0.7,2.6-1.5,3.9-2.4c0.3-1,0.6-2,0.9-3.1
		c1.1-3.6,2.2-7.1,3.4-10.7c2.6-7,5.9-13.7,9.2-20.5c-0.4,0.8-0.7,1.6-1.1,2.4l0,0c6.3-3,12.6-5.8,19.1-8.5L999.3,547.5z"/>
</g>
<g id="Y5futC0h6GqcOIKp6bE_K" transform="matrix(1 0 0 1 -844.55 -432.22)">
	<path vector-effect="non-scaling-stroke" class="st2" d="M992.2,583.7c4.3-4.2,8.6-8.5,11.9-13.6c4.2-6.3,7.2-13.3,9-20.6h-4.3
		c-0.4,1.6-0.9,3.2-1.4,4.8c-1.8,5.4-4.2,10.5-7.1,15.3l-1.7,2.5l-1.8,2.4c-1.2,1.5-2.6,3.1-4,4.5c-6.4,6.2-13.3,11.8-20.8,16.7
		c0,1.9,0.1,3.8,0.2,5.8c5.2-4.1,10.3-8.5,15.2-13C988.9,586.9,990.5,585.3,992.2,583.7z"/>
</g>
<g id="RrYehArZh7YqIwYIn3rKR" transform="matrix(1 0 0 1 -844.61 -529.19)">
	<path vector-effect="non-scaling-stroke" class="st2" d="M1037.9,568.2c-3.3,1.9-6.8,3.5-10.3,4.9c-1.5,0.6-3.4,1.3-5,1.8
		c-5.1,1.6-10.2,2.8-15.5,3.7c-10.5,1.7-21.2,1.5-31.7,0.6c-12.7-1.1-25.2-3.3-37.6-6.3c-0.8,2.7-1.3,5.4-1.7,8.2
		c14.1,3,28.5,5.2,42.9,6.4c7,0.6,14.1,0.7,21.2,0.4c3.7-0.2,7.3-0.7,11-1.2l4.5-0.9c2.4-0.6,4.8-1.1,7.1-1.8c1.8-0.5,4-1.3,5.7-1.8
		c1.6-0.6,3.2-1.2,4.7-1.9c0.4-0.2,2.1-0.9,2.5-1.1l2.5-1.2c0.3-0.2,2-1.1,2.4-1.3c0.7-0.4,1.6-1,2.4-1.4c2.1-1.3,4.1-2.7,6-4.2
		c-0.9-2.7-2-5.4-3.3-7.9C1043.2,565,1040.6,566.7,1037.9,568.2z"/>
</g>
<g id="UEcqKBzD5p5I7VVaw8XKq" transform="matrix(1 0 0 1 -843.48 -496.65)">
	<path vector-effect="non-scaling-stroke" class="st3" d="M1047.8,538.4c-2.5,2.3-5.2,4.4-8.1,6.2l-2.4,1.4l-2.4,1.3
		c-0.5,0.3-2,1-2.5,1.2c-1.1,0.6-2.2,1-3.4,1.5l-1.3,0.6l-2.2,0.8c-3.5,1.3-7.1,2.4-10.7,3.2c-1.3,0.2-4.2,0.9-5.5,1.1
		c-1.7,0.2-3.9,0.6-5.5,0.8c-6.2,0.6-12.4,0.8-18.6,0.4c-8-0.4-16.1-1.3-24-2.7c-8.8-1.5-17.6-3.4-26.2-5.8
		c-0.3,2.3-0.5,4.7-0.5,7.1c0,1.5,0,2.9,0.1,4.4h5.7v21.1c13.6,27.5,48.8,40.5,79.3,24.8c18.7-9.6,31.2-29.3,31.1-50.2
		C1050.6,549.8,1049.7,543.9,1047.8,538.4z M1037.1,582.4c-1.2,0.9-2.4,1.8-3.6,2.5c-12.8,8.1-28.6,10.5-43.5,9.1
		c-6-0.5-11.9-2-17.4-4.4h0.1c-3.1-1.5-5.6-4.1-7-7.2c-2.4-5.3-0.9-11.5,3.6-15.1c2.2-1.8,4.9-2.8,7.7-2.9c1.8-0.1,3.7,0.1,5.4,0.6
		c0.6,0.2,1.2,0.5,1.8,0.8c0.3,0.1,0.5,0.2,0.8,0.3c7,2.9,14.8,3.2,22,1c4.1-1.1,8-2.6,11.9-4.3c1.8-0.8,3.6-1.8,5.2-2.9l-0.1,0.1
		c0.6-0.5,1.3-1,2.1-1.4c6.2-2.7,13.5-0.3,16.8,5.7c1.8,3.3,2.1,7.2,0.7,10.7C1042.3,578.1,1040,580.7,1037.1,582.4L1037.1,582.4z"
		/>
</g>
<g id="DXbJD4IvSRF3Z06RZ4obJ" transform="matrix(1 0 0 1 -898.59 -501.63)">
	<path vector-effect="non-scaling-stroke" class="st3" d="M995.3,564.9h-5.7c0.5,7.3,2.4,14.5,5.7,21.1V564.9z"/>
</g>
<g id="H_ZdiGOaPYJavh2zidFnx" transform="matrix(1 0 0 1 -873.55 -432.92)">
	<path vector-effect="non-scaling-stroke" class="st3" d="M1022.9,550.2h-56.1v69.5l0,0c-0.2-1.3-0.4-2.7-0.7-4
		c-0.2-1.3-0.4-2.7-0.6-4c-2.3-15.5-4.5-31.2-2.6-46.8c0.4-2.7,0.9-5.7,1.5-8.4c2.1-9.4,8.5-18.2,15-25.2l0,0
		C990.6,543.3,1006.4,550.1,1022.9,550.2z"/>
</g>
<g id="m4SJOJNMwYfxCLMvDPkcS" transform="matrix(1 0 0 1 -864.02 -393)">
	<path vector-effect="non-scaling-stroke" class="st3" d="M1027.8,510.3c-0.9,2.5-1.8,4.9-2.8,7.3c-1.4,3.3-3.1,6.5-4.9,9.7
		l-1.5,2.5l-1.6,2.4l-1.2,1.6c-2.8,3.6-6,7-9.5,10c-4.8,4.4-9.9,8.6-15,12.6c-0.2-10.2-0.1-20.4,0.1-30.6c-0.7,15-1.1,30-0.4,45
		c0.6,11.2,1.6,22.4,2.7,33.6c0.4,3.6,0.7,7.3,1.1,10.9c0,0.4,0.1,0.3,0.1,0.4c0,0.1,0.1,0.2,0.2,0.2l0,0c-0.1,0,0,0,0,0
		c0.3,0.3,0.7,0.8,1,1.1c1.2,1.2,2.4,2.7,3.7,3.8c2.2,2.7,4.3,5.5,6.1,8.4c0.4,0.6,0.7,1.4,0.8,2.2c-0.8,1-2.1,1-3.3,0.8
		c-3.5-0.5-7-1.3-10.3-2.5l-0.3-0.1l-0.2,0.1c-2.1,1.5-4.3,2.9-6.6,4.2c-2.4,1.1-4.8,2.1-7.3,2.8c-2.5,0.9-4.9,1.9-7.4,2.7
		c-3.8,1-7.7,1.3-11.6,0.8c-0.9-0.1-1.7-0.4-2.6-0.8v-9.5c2.5-3.6,5.3-6.9,8.5-9.9c0.2,0.6,0.4,1.3,0.6,1.9
		c-1.5-5.5-2.8-11.1-4-16.7c-0.2-0.8-0.4-1.6-0.5-2.4l0,0c-0.1-0.4-0.2-0.9-0.3-1.3s-0.2-0.8-0.2-1.2c-0.2-0.9-0.4-1.7-0.5-2.6
		c-0.1-0.5-0.2-0.9-0.3-1.4c-0.2-0.9-0.4-1.8-0.5-2.7c-0.1-0.4-0.2-0.8-0.2-1.1c-0.2-1.2-0.5-2.3-0.7-3.5l-0.3-1.8l-0.4-2
		c-0.1-0.6-0.2-1.3-0.3-1.9l-0.3-1.9l-0.3-1.9l0,0v-69.5L1027.8,510.3z"/>
</g>
<g id="nTxGbgVMJypa7DeQj9-eY" transform="matrix(1 0 0 1 -846.24 -404.66)">
	<path vector-effect="non-scaling-stroke" class="st2" d="M973.9,578.1c0.1,1.5,0.2,2.9,0.2,4.4c0.1,2,0.3,4,0.5,6.1
		c0.6-0.2,1.3-0.5,1.9-0.8c0.8-0.3,1.6-0.5,2.4-0.8c9.3-3.6,18.2-8.3,26.2-14.2c1.3-1,2.6-2,3.8-3c0.7-2.5,1.4-4.9,2.2-7.3
		c-1.1,1-2.3,1.8-3.5,2.7C997.4,571.8,985.9,576.2,973.9,578.1z"/>
</g>
<g id="EjZBqJ21CBEPj6c-LIdCg" transform="matrix(1 0 0 1 -895.16 -361.01)">
	<path vector-effect="non-scaling-stroke" class="st3" d="M988.7,597.6c2.4-3.2,5.2-6.3,8.2-9c-3.5-11.9-6.3-23.9-8.7-36v45.8
		L988.7,597.6z"/>
</g>
<g id="_x30_2PNslUaunvRrmQK0HYZu" transform="matrix(1 0 0 1 -836.19 -563.32)">
	<path vector-effect="non-scaling-stroke" class="st4" d="M1029.3,585.5c-7.7-3.8-16.9-11.6-26.2-13.9c-11.2-2.8-30.7-2.3-47.5,1.9
		c17.3-10.2,38.7-10.7,56.5-1.4C1018.7,575.4,1024.5,580,1029.3,585.5z"/>
</g>
<g id="j9i45bikoUPpt1febciN_" transform="matrix(1 0 0 1 -918.6 -527.55)">
	<path vector-effect="non-scaling-stroke" class="st6" d="M1009.6,574.6l-0.4,2.5l0,0.3l0,0c0,0.1-1.9,2.3-8.9,2
		c-7-0.3-11.8-3.7-15.7-4.1c-2.7-0.1-5.5,0-8.2,0.4c-0.3-1.5-0.7-2.9-1-4l5-0.2c0.5,0,1.2,0,1.7,0c0.6,0,1.1,0.1,1.7,0.2
		c4.5,0.8,8.5,3.6,13,4.3C1001.1,576.7,1005.5,576.2,1009.6,574.6z"/>
</g>
<g id="PB78RtgydBywqgcyVtkx4" transform="matrix(1 0 0 1 -764.78 -489.52)">
	<path vector-effect="non-scaling-stroke" class="st4" d="M1025.9,566.6l-11.1,8.2c0,0-14.2-0.1-22.8,0.9
		c-7.7,0.9-27.9,7.5-32.1,8.5l-0.8,0.2l1.8-1.5l2-1.8c8.2-2.4,16.5-4.4,24.9-5.9c3.9-0.7,8.6-1.3,13.4-1.9c4.8-0.6,9.5-1.2,13.5-1.7
		l0,0C1018.5,569.8,1022.1,568.1,1025.9,566.6z"/>
</g>
<g id="whUknRQFTyra7swKDVuQh" transform="matrix(1 0 0 1 -895.31 -421.31)">
	<path vector-effect="non-scaling-stroke" class="st4" d="M986.2,564.6c-1,14.2,6.8,66.8,6.8,66.8l0,0c-0.1-0.5-0.2-0.9-0.3-1.3
		c-0.1-0.4-0.2-0.8-0.2-1.2c-0.2-0.9-0.4-1.7-0.6-2.6c-0.1-0.5-0.2-0.9-0.3-1.4c-0.2-0.9-0.4-1.8-0.5-2.7c-0.1-0.4-0.2-0.8-0.2-1.1
		c-0.2-1.2-0.5-2.3-0.7-3.5l-0.3-1.8l-0.4-2c-0.1-0.6-0.2-1.3-0.3-1.9l-0.3-1.9l-0.3-1.9l0,0c-0.2-1.3-0.5-2.7-0.7-4
		c-0.2-1.3-0.4-2.7-0.6-4c-2.3-15.5-4.5-31.2-2.6-46.8c0.4-2.7,0.9-5.7,1.5-8.4c2.1-9.4,8.5-18.2,15-25.3c-0.1,0.2-7,8.1-10.6,18
		C987.4,546.2,986.7,558,986.2,564.6z"/>
</g>
<g id="Oj2wwpmgz04HwT2yxWWIT" transform="matrix(1 0 0 1 -900.21 -337.53)">
	<path vector-effect="non-scaling-stroke" class="st7" d="M992.6,575.4c0,0-0.1,0.1-0.1,0.2C992.4,575.6,992.5,575.5,992.6,575.4z"
		/>
</g>
<g id="Z3Kw5H-vo7gUm-XbBKwUG" transform="matrix(1 0 0 1 -901.45 -335.23)">
	<path vector-effect="non-scaling-stroke" class="st7" d="M992.5,575.4l-0.1,0.1L992.5,575.4z"/>
</g>
<g id="JNwOnePQCGwcpOSV7uJTx" transform="matrix(1 0 0 1 -901.61 -334.86)">
	<path vector-effect="non-scaling-stroke" class="st7" d="M992.5,575.4l-0.1,0.1L992.5,575.4z"/>
</g>
<g id="duucVrUj34bXrzOIa4sOW" transform="matrix(1 0 0 1 -899.99 -337.88)">
	<path vector-effect="non-scaling-stroke" class="st7" d="M992.6,575.4l-0.1,0.2L992.6,575.4z"/>
</g>
<g id="_x2D_Gl2_x5F_u173-eyUoX2cI-g6" transform="matrix(1 0 0 1 -900.63 -336.85)">
	<path vector-effect="non-scaling-stroke" class="st7" d="M992.5,575.4l-0.1,0.2L992.5,575.4z"/>
</g>
<g id="zy4NQJ_wT3OzjDjowH3m1" transform="matrix(1 0 0 1 -901.88 -334.09)">
	<path vector-effect="non-scaling-stroke" class="st7" d="M992.5,575.4c0,0,0,0.1,0,0.1S992.5,575.5,992.5,575.4z"/>
</g>
<g id="aPDgCf72o2UUMtfoJJcLu" transform="matrix(1 0 0 1 -900.42 -337.22)">
	<path vector-effect="non-scaling-stroke" class="st7" d="M992.6,575.4l-0.1,0.2L992.6,575.4z"/>
</g>
<g id="_x2D_pZE1Rhm97GAcD1DivB8t" transform="matrix(1 0 0 1 -901.75 -334.49)">
	<path vector-effect="non-scaling-stroke" class="st7" d="M992.5,575.4l-0.1,0.1L992.5,575.4z"/>
</g>
<g id="_x32_2SGKR_x5F_Evg_x5F_02FktK3iqq" transform="matrix(1 0 0 1 -900.84 -336.47)">
	<path vector-effect="non-scaling-stroke" class="st7" d="M992.5,575.4c0,0.1,0,0.1-0.1,0.1C992.5,575.6,992.5,575.5,992.5,575.4z"
		/>
</g>
<g id="_x31_g9N1ux2y9etc4GkqtCwZ" transform="matrix(1 0 0 1 -899.62 -338.48)">
	<path vector-effect="non-scaling-stroke" class="st7" d="M992.2,575.9c0.2-0.3,0.3-0.5,0.5-0.8l0,0
		C992.6,575.4,992.4,575.6,992.2,575.9z"/>
</g>
<g id="jemDrl42uKceqjd8JzQX9" transform="matrix(1 0 0 1 -899.67 -390.64)">
	<path vector-effect="non-scaling-stroke" class="st7" d="M992.8,577.5c-0.2-1.3-0.5-2.7-0.7-4C992.4,574.8,992.6,576.2,992.8,577.5
		z"/>
</g>
<g id="fM9vG_6DBew0maQHMDChu" transform="matrix(1 0 0 1 -901.06 -336.02)">
	<path vector-effect="non-scaling-stroke" class="st7" d="M992.5,575.5C992.5,575.5,992.5,575.5,992.5,575.5
		C992.5,575.5,992.5,575.5,992.5,575.5z"/>
</g>
<g id="Yh8H_8ADl92YH4vEdI5Ct" transform="matrix(1 0 0 1 -901.27 -335.62)">
	<path vector-effect="non-scaling-stroke" class="st7" d="M992.5,575.4l-0.1,0.1L992.5,575.4z"/>
</g>
<g id="REuq3rMbmM4bYmYMdt3bT" transform="matrix(1 0 0 1 -933.77 -521.77)">
	<path vector-effect="non-scaling-stroke" d="M992.9,575.8c-0.1-0.2-0.1-0.4-0.2-0.7l-0.6,0.3L992.9,575.8z"/>
</g>
<g id="IsalQFexEQlLfRUm4pgHl" transform="matrix(1 0 0 1 -919.39 -524.22)">
	<path vector-effect="non-scaling-stroke" d="M1001.4,583c-7.6,0.7-9.6-0.7-15.1-5.5c-1.2-1.1-2.9-1.5-4.4-1
		c-1.2,0.3-2.4,0.6-3.5,1.1c0.1,0.2,0.1,0.5,0.2,0.7l-0.8-0.4l0.6-0.3c-0.6-2.5-1.6-6.7-2.2-9.2h-0.7l0.5-0.7c0,0.2,0.1,0.4,0.2,0.7
		l5-0.2c0.5,0,1.2,0,1.7,0c0.6,0,1.1,0.1,1.6,0.2c4.5,0.8,8.5,3.6,13,4.3c4.4,0.7,8.8,0.2,12.9-1.4v-0.1c-4.1,1.3-8.5,1.6-12.8,0.8
		c-4.5-0.9-8.4-3.8-13-4.7c-0.6-0.1-1.2-0.2-1.8-0.2c-0.5,0-1.2,0-1.8,0l-5.8,0.2h-0.7c0.7,3,2,8.2,2.7,11.2l0.2,0.7l0.6-0.3
		c1.3-0.6,2.6-1,3.9-1.4c0.6-0.2,1.3-0.2,2-0.1c0.6,0.2,1.2,0.5,1.6,0.9c1.1,0.9,2.2,1.9,3.3,2.7c2,1.6,4.5,2.6,7.1,2.8
		c1.8,0.1,3.6,0,5.4-0.3c2.7-0.4,5.3-1,7.9-1.7l0,0C1006.7,582.4,1004.1,582.8,1001.4,583z"/>
</g>
<g id="q8DiisVywPzD77M9CFULJ" transform="matrix(1 0 0 1 -936.09 -531.63)">
	<path vector-effect="non-scaling-stroke" d="M992.2,575.8h0.7c-0.1-0.2-0.1-0.5-0.2-0.7L992.2,575.8z"/>
</g>
<g id="U-Ww2dV7Lyu5xRR8WhU_t" transform="matrix(1 0 0 1 -902.29 -518.02)">
	<path vector-effect="non-scaling-stroke" d="M992.3,575.6L992.3,575.6l0.5-0.1L992.3,575.6z"/>
</g>
<g id="wNrZKcwkcEmmoFDGpi9WD" transform="matrix(1 0 0 1 -901.07 -528.58)">
	<path vector-effect="non-scaling-stroke" d="M992.8,575.3l-0.7,0.2v0.1L992.8,575.3z"/>
</g>
<g id="sIubyzF0lwYXIYUUH4wIp" transform="matrix(1 0 0 1 -937.89 -504.66)">
	<path vector-effect="non-scaling-stroke" d="M992.2,575.9l0.5-0.3l-0.4-0.5L992.2,575.9z"/>
</g>
<g id="c_auR8F0_n-SzT6Zk6TWm" transform="matrix(1 0 0 1 -902.87 -511.07)">
	<path vector-effect="non-scaling-stroke" d="M991.9,576.1c0.4-0.4,0.8-0.8,1.2-1.1c0,0,0-0.1,0-0.1
		C992.7,575.3,992.3,575.7,991.9,576.1z"/>
</g>
<g id="_x32_XMBJiVlqRFe8KpdqQDoo" transform="matrix(1 0 0 1 -920.03 -502.59)">
	<path vector-effect="non-scaling-stroke" d="M996.9,582.2c-2.3,0.3-4.5-0.1-6.5-1.3c-0.6-0.4-1.4-0.7-2.2-0.8
		c-2.2-0.1-4.4,0.6-6.1,1.9l0.2,0.1h-0.1H982h-0.1h-0.1l0,0c0.1-0.1,0.1-0.1,0.2-0.1l0,0c-2.6-2.7-4.8-5.7-7.2-8.6l-0.5,0.3l0.1-0.8
		l0.4,0.5c0.5-0.3,1-0.6,1.5-0.8c2.2-1,4.5-1.4,6.9-1.3c1.6,0.2,3.1,0.6,4.6,1.2c1.6,0.6,3.2,0.9,4.9,1.1c3.3,0.4,6.7-0.1,9.8-1.5
		c2.4-1.2,4.5-2.7,6.4-4.6c-2,1.7-4.2,3.1-6.6,4.1c-3,1.2-6.3,1.5-9.5,1.1c-1.6-0.2-3.2-0.6-4.7-1.1c-1.6-0.7-3.2-1.1-4.9-1.4
		c-3.7-0.2-7.3,0.8-10.2,3c1.8,2.4,3.7,4.7,5.7,7c0.8,0.9,1.6,1.8,2.4,2.6c0.2,0.2,0.4,0.3,0.7,0.4c0.2,0,0.3,0,0.5-0.1
		c1.5-1.1,3.2-1.8,5.1-2c0.4,0,0.8,0,1.2,0.1c0.8,0.3,1.7,0.9,2.5,1.2c3.7,1.4,7.8,0.4,11.3-0.9c3.5-1.3,6.7-3.4,9.4-6.1l0,0
		c-1.4,1.3-2.9,2.4-4.5,3.3C1004.1,580.6,1000.6,581.8,996.9,582.2z"/>
</g>
<g id="NPqJd3Si5jCwdKHRYqWE8" transform="matrix(1 0 0 1 -930.5 -495.91)">
	<path vector-effect="non-scaling-stroke" d="M992.3,575.6L992.3,575.6h0.2h0.1h0.1l-0.2-0.1C992.5,575.5,992.4,575.5,992.3,575.6
		L992.3,575.6z"/>
</g>
<g id="mYC5PY8Hbhsev5haUtnxX" transform="matrix(1 0 0 1 -902.16 -511.68)">
	<path vector-effect="non-scaling-stroke" d="M992.6,575.4l-0.2,0.2l0,0L992.6,575.4z"/>
</g>
<g id="AF47tl-UXzzunfW-x59oI" transform="matrix(1 0 0 1 -895.88 -430.05)">
	<path vector-effect="non-scaling-stroke" d="M983.9,568.7L983.9,568.7c0,0.1-0.1,0.3-0.1,0.4C983.8,569,983.8,568.9,983.9,568.7
		l0,0.1c-0.1,0.4-0.3,0.8-0.4,1.1c-0.3,7.3,0,14.7,0.9,22c0.4,3.4,0.9,6.9,1.3,10.3l0.6,0.3h-0.5c0.5,3.6,1.1,7.1,1.7,10.7l0.5,0.2
		h-0.5c0.5,3.1,1.1,6.1,1.7,9.1v-5.8l0,0c-0.2-1.3-0.5-2.7-0.7-4c-0.2-1.3-0.4-2.7-0.6-4c-2.3-15.5-4.5-31.2-2.6-46.8
		c0.4-2.7,0.9-5.7,1.5-8.4c2.1-9.4,8.5-18.2,15-25.2l0,0c-4.1,4-7.7,8.4-10.7,13.2c-2.3,3.7-4.1,7.7-5.2,11.9l-0.5,2.1
		c-0.4,2-0.8,4.3-1.2,6.4c-0.4,2.5-0.6,5-0.7,7.5C983.6,569.2,983.7,569,983.9,568.7C983.9,568.7,983.9,568.7,983.9,568.7z"/>
</g>
<g id="Nl_d9weYbjBPXwGAiMxl4" transform="matrix(1 0 0 1 -886.63 -477.2)">
	<path vector-effect="non-scaling-stroke" d="M992.6,575.4l-0.2,0.2l0,0L992.6,575.4z"/>
</g>
<g id="j2Gxnl4boyEevEiAni-Nu" transform="matrix(1 0 0 1 -768.97 -488.53)">
	<path vector-effect="non-scaling-stroke" d="M992,574.2c7.8-1.3,18.9-2.6,26.9-3.7l0,0c-8.5,0.2-17,1-25.4,2.2
		c-9.3,1.5-18.4,4-27.1,7.3l-0.2,0.3C974.6,577.9,983.3,575.8,992,574.2z"/>
</g>
<g id="Fs44zhdsDIF5HQOCtQkBB" transform="matrix(1 0 0 1 -742.55 -493.48)">
	<path vector-effect="non-scaling-stroke" d="M992.5,575.5L992.5,575.5z"/>
</g>
<g id="qa8ms_5HxBE7QPiqeEKf6" transform="matrix(1 0 0 1 -795.75 -483.7)">
	<path vector-effect="non-scaling-stroke" d="M992.4,575.7l0.5-0.1l0.2-0.3l-1.2,0.5H992.4z"/>
</g>
<g id="Uxi3ANRuSAol2IujUNarc" transform="matrix(1 0 0 1 -742.56 -493.47)">
	<path vector-effect="non-scaling-stroke" d="M992.5,575.5L992.5,575.5L992.5,575.5z"/>
</g>
<g id="R5NBXVr2XeuvvGWrTuOfg" transform="matrix(1 0 0 1 -728.46 -497.58)">
	<path vector-effect="non-scaling-stroke" d="M999.4,571c1.7-0.5,8.3-2.2,5.2,1.4c-0.7,0.8-1.5,1.5-2.3,2.1
		c-1.7,1.3-3.5,2.4-5.4,3.4c-2.9,1.4-5.9,2.7-8.8,4c1.3-0.4,2.5-0.9,3.8-1.3c0-0.1,0-0.1-0.1-0.2c0,0,0,0,0.1,0s0,0,0.1,0
		c0,0.1,0.1,0.1,0.1,0.2c1.8-0.6,3.5-1.3,5.3-2c2-0.9,3.9-2,5.7-3.3c0.9-0.6,1.8-1.4,2.5-2.2c0.7-0.6,1.1-1.5,1.1-2.4
		c-0.4,0.3-0.7,0.3-1,0c-0.5-0.7-1.8-0.9-2-1.8c-0.4,0-0.8,0.1-1.2,0.1l-0.5,0.1c-0.2,0.5-0.7,0.7-1.2,0.8c-0.3,0-0.6-0.1-0.8-0.3
		c-1.3,0.4-2.6,0.8-3.8,1.3c-2,0.8-3.9,1.6-5.8,2.5v0.3c0,0,0,0.1-0.1,0.1s-0.1,0-0.1-0.1c0-0.1,0-0.2,0-0.3
		c-3.9,1.8-7.8,3.9-11.6,6.1l0,0C985.3,576.5,992.2,573.3,999.4,571z"/>
</g>
<g id="GN-RDS9DSk7OrHvke_UUQ" transform="matrix(1 0 0 1 -742.57 -493.47)">
	<path vector-effect="non-scaling-stroke" d="M992.5,575.5L992.5,575.5z"/>
</g>
<g id="dVvejzTs1bhNjvhLajDR4" transform="matrix(1 0 0 1 -712.43 -500.27)">
	<path vector-effect="non-scaling-stroke" d="M989.5,557c-9.3,1.2-16.5,9.9-15.5,19.2l0.1-0.1c0.1-6.7,3.7-12.8,9.6-16.1
		s13-3.1,18.7,0.4c5.7,3.7,8.7,10.4,7.7,17.1c-1,8.8-9.3,15.7-18.2,15.5c-6.7-0.1-12.8-3.8-16-9.6h-0.1c0.2,0.4,0.4,1,0.7,1.3
		l0.4,0.7l0.7,1.1c0.6,0.8,1.2,1.6,1.9,2.3c3.2,3.1,7.4,5,11.9,5.3c0.2-0.2,0.3-0.5,0.5-0.7c-0.1,0.3-0.3,0.5-0.4,0.8
		c9.9,0.6,18.5-6.6,19.6-16.4C1012.3,565.8,1001.4,555.4,989.5,557z"/>
</g>
<g id="rxmZClWrVHRNpyZRsQfaI" transform="matrix(1 0 0 1 -730.95 -499.42)">
	<path vector-effect="non-scaling-stroke" d="M992.6,575.6v-0.3l-0.1,0.1c0,0.1,0,0.2,0,0.3C992.4,575.7,992.5,575.7,992.6,575.6
		C992.5,575.7,992.6,575.7,992.6,575.6z"/>
</g>
<g id="_x33_42ynBmZWeRPK2KLG9Guq" transform="matrix(1 0 0 1 -729.13 -492.46)">
	<path vector-effect="non-scaling-stroke" d="M992.4,575.4c0,0,0,0.1,0.1,0.2h0.1c0-0.1-0.1-0.1-0.1-0.2
		C992.5,575.4,992.5,575.4,992.4,575.4C992.4,575.4,992.4,575.4,992.4,575.4z"/>
</g>
<g id="gnBJwYlC4-u96MPkn_hIa" transform="matrix(1 0 0 1 -909.43 -414.07)">
	<path vector-effect="non-scaling-stroke" d="M988,591.2c0,0.2,0,0.4,0,0.5c0,2,0.1,3.9,0.4,5.8c0-1,0-2,0.1-3.1l-0.2-0.1h0.2
		c0-0.9,0.1-1.8,0.1-2.7c0.1-1.9,0.3-3.9,0.5-5.8c0.1-0.7,0.1-1.3,0.2-2l-0.5-0.3l0.5,0.1c0.9-6.9,2.8-13.6,4.7-20.3
		c1-3.1,1.8-6.3,3-9.4v-0.6c0,0.1-0.1,0.1-0.1,0.2c-2.2,4.9-4.1,9.9-5.5,15c-1.1,3.7-2,7.5-2.7,11.4
		C988.2,583.7,988,587.4,988,591.2l0.2-0.2L988,591.2z"/>
</g>
<g id="SWK_EJUcyHgOso4ORLswl" transform="matrix(1 0 0 1 -904.71 -436.16)">
	<path vector-effect="non-scaling-stroke" d="M992.7,575L992.7,575L992.7,575L992.7,575c0,0,0,0.2-0.1,0.3c0-0.1,0.1-0.2,0.1-0.4
		l0,0c0,0,0,0-0.1,0c-0.1,0.2-0.3,0.5-0.4,0.7v0.6C992.4,575.7,992.5,575.4,992.7,575z"/>
</g>
<g id="Oh1EFabMobHf0HKXaRCE8" transform="matrix(1 0 0 1 -904.49 -436.77)">
	<path vector-effect="non-scaling-stroke" d="M992.5,575.5L992.5,575.5C992.5,575.5,992.5,575.5,992.5,575.5z"/>
</g>
<g id="VZKyPhy8VCv877a4b21lS" transform="matrix(1 0 0 1 -907.65 -404.34)">
	<path vector-effect="non-scaling-stroke" d="M997.4,576.7c-1.5-0.7-3.1-1.2-4.8-1.6c-1.7-0.5-3.4-0.8-5.1-1v0.2
		c3,1.7,6.4,2.6,9.9,2.7L997.4,576.7z"/>
</g>
<g id="vEZvNt_6fiNDDBKmY_zV2" transform="matrix(1 0 0 1 -902.46 -403.05)">
	<path vector-effect="non-scaling-stroke" d="M992.8,575.6l-0.6-0.3v0.3H992.8z"/>
</g>
<g id="i2Av8yGLn3oRiTxCWDfB_" transform="matrix(1 0 0 1 -912.88 -405.73)">
	<path vector-effect="non-scaling-stroke" d="M992.3,575.4l0.5,0.3v-0.2L992.3,575.4z"/>
</g>
<g id="IKOc8GSN7rNu6X_Tm-x9R" transform="matrix(1 0 0 1 -907.23 -393.57)">
	<path vector-effect="non-scaling-stroke" d="M998.7,576.9c-3.9-1.4-8.4-2.1-12.4-2.9v0.1c3.2,2.1,8.5,3.1,12.4,3.1L998.7,576.9z"/>
</g>
<g id="_x31_T9v5_x5F_4XFQyzEvYIvKAzL" transform="matrix(1 0 0 1 -900.78 -392.11)">
	<path vector-effect="non-scaling-stroke" d="M992.8,575.6l-0.5-0.2v0.2H992.8z"/>
</g>
<g id="lprO_LGYSoGn9nBzsi648" transform="matrix(1 0 0 1 -913.54 -395.13)">
	<path vector-effect="non-scaling-stroke" d="M992.4,575.4l0.2,0.1v-0.1L992.4,575.4z"/>
</g>
<g id="g2UQ5F1LwhLybxPRPxCxW" transform="matrix(1 0 0 1 -917.32 -365.77)">
	<path vector-effect="non-scaling-stroke" d="M1002.3,607.8c-2.4,0-4.8-0.2-7.2-0.5c-1.4-0.2-2.8-0.6-4.1-1.1c-2.6-1.2-5-2.8-7-4.7
		c-1.2-1.1-2.2-2.4-2.9-3.8c-2.7-5.3-2.9-11.4-2.4-17.2l0.3-2.8l0.5-2.8l0.1-0.3c1.8-8.4,4.5-16.8,9.1-24.2c0.9-1.4,1.9-2.7,3-4
		c1.2-1.4,2.6-2.5,4.1-3.5l0,0c-2.4,1.4-4.6,3.2-6.3,5.4c-4.5,5.7-7.3,12.5-9.4,19.3c0,0.2-0.1,0.3-0.1,0.4c0.2,0.1,0.3,0.2,0.4,0.4
		c-0.1-0.1-0.3-0.2-0.4-0.3c-1.8,6.3-3.1,12.9-2.7,19.4c0.2,3.4,1,6.8,2.4,9.9c0.3,0.5,0.6,1.2,0.9,1.6c0.7,1,1.5,2,2.5,2.9l1,0.3
		l-0.9-0.1c0.7,0.7,1.5,1.3,2.3,1.9c3.1,2.4,6.9,3.8,10.9,4c3.8,0.2,7.6,0.1,11.3-0.4l0,0C1005.9,607.8,1004.1,607.8,1002.3,607.8z"
		/>
</g>
<g id="_x39_lFDftP-plVRYImMYzZS_x5F_" transform="matrix(1 0 0 1 -901.88 -333.66)">
	<path vector-effect="non-scaling-stroke" d="M992.4,575.5L992.4,575.5h0.3H992.4z"/>
</g>
<g id="VHkaDYutLASpoex5uGAGy" transform="matrix(1 0 0 1 -913.77 -398.46)">
	<path vector-effect="non-scaling-stroke" d="M992.6,575.4l-0.3,0.1l0,0L992.6,575.4z"/>
</g>
<g id="dSzu3QVDBCbvCJTC2ZNGd" transform="matrix(1 0 0 1 -934.46 -356.66)">
	<path vector-effect="non-scaling-stroke" d="M998.2,592.3c-0.9-0.2-1.8-0.4-2.7-0.8c-4-1.8-6.2-5.9-7.6-9.8c-0.5-1.5-1-3-1.4-4.5
		c-0.7-2.5-0.8-5.1-0.5-7.6c0.6-3.8,2.3-8.4,5.8-10.5c1.7-1,3.7-1,5.4-0.1V559c-1.7-1.2-3.9-1.3-5.7-0.4c-1.9,1.1-3.5,2.7-4.5,4.7
		c-2.5,4.6-3,10-1.5,15c0.4,1.3,0.8,2.6,1.3,3.8c0.4,1,0.8,2,1.3,2.9c0.2,0.4,0.6,1,0.8,1.4c1.7,2.7,4.2,5.3,7.6,5.9
		c1.2,0.2,2.6,0.4,3.9,0.6l-0.2-0.1L998.2,592.3z"/>
</g>
<g id="EPWLxd_keRTfXhXSq4iqr" transform="matrix(1 0 0 1 -929.53 -372.99)">
	<path vector-effect="non-scaling-stroke" d="M992.7,575.7c-0.1-0.1-0.3-0.3-0.4-0.4v0.1C992.4,575.5,992.6,575.6,992.7,575.7z"/>
</g>
<g id="z5NWNs0ZkKgoNh56XISHk" transform="matrix(1 0 0 1 -926.19 -339.16)">
	<path vector-effect="non-scaling-stroke" d="M992,575.4l0.1,0.1l0.9,0.1L992,575.4z"/>
</g>
<g id="N8vz0esXZiY-VC5-X_hVq" transform="matrix(1 0 0 1 -713.34 -482.02)">
	<path vector-effect="non-scaling-stroke" d="M992.3,575.9L992.3,575.9c0.2-0.2,0.4-0.5,0.5-0.8
		C992.6,575.4,992.4,575.6,992.3,575.9z"/>
</g>
<g id="i_gtyn5hF3-OvdHkXocff" transform="matrix(1 0 0 1 -844.62 -524.33)">
	<path vector-effect="non-scaling-stroke" d="M986.2,584.7c6.2,0.3,12.4,0.2,18.6-0.5c1.7-0.2,3.8-0.5,5.5-0.8
		c1.3-0.2,4.2-0.8,5.5-1.1c3.6-0.8,7.2-1.9,10.7-3.2l2.2-0.8l1.3-0.6c1.1-0.5,2.3-1,3.4-1.5c0.5-0.3,2-1,2.5-1.2l2.4-1.3l2.4-1.4
		c2.9-1.8,5.6-3.8,8.1-6.2c-1.9,1.6-3.9,3-6,4.3l-2.4,1.4c-0.4,0.2-2.1,1.1-2.4,1.3l-2.5,1.2c-0.5,0.2-2.1,0.9-2.5,1.1
		c-1.5,0.7-3.1,1.3-4.7,1.9c-1.7,0.6-3.9,1.4-5.7,1.8c-2.3,0.7-4.7,1.3-7.1,1.8l-4.5,0.9c-3.6,0.5-7.3,1.1-11,1.2
		c-7.1,0.3-14.1,0.2-21.2-0.4c-14.4-1.2-28.7-3.4-42.9-6.4v0.1c8.6,2.4,17.3,4.3,26.2,5.8C970.2,583.4,978.2,584.3,986.2,584.7z"/>
</g>
<g id="uo9y-1SaL7g4X27dvbOtQ" transform="matrix(1 0 0 1 -901.56 -523.68)">
	<path vector-effect="non-scaling-stroke" d="M992,575.4l1,0.3v-0.1L992,575.4z"/>
</g>
<g id="IW6iqAqk5j1s0sSgNDGi9" transform="matrix(1 0 0 1 -827.91 -460.59)">
	<path vector-effect="non-scaling-stroke" d="M992.6,575.1c-0.1,0.3-0.2,0.6-0.3,0.8h0.1C992.5,575.6,992.6,575.4,992.6,575.1z"/>
</g>
<g id="fBhUYngJwLD2No7edDFN6" transform="matrix(1 0 0 1 -831.53 -496.52)">
	<path vector-effect="non-scaling-stroke" class="st5" d="M987,592.8c11.8-0.4,23.7-3,34.1-8.6c2.2-1.2,4.3-2.5,6.3-4
		c3.2-3.5,4.9-8.5,3.4-13.1c-1.1-3.3-3.5-6-6.6-7.6c-3.1-1.5-6.7-1.8-10-0.6c-0.8,0.3-1.6,0.7-2.3,1.2c-1.6,1.4-3.4,2.7-5.3,3.6
		c-2.8,1.5-5.7,2.7-8.7,3.7c-5.1,2-10.6,2.6-16,1.8c-3.1-0.5-6.2-1.5-8.9-3l-0.1-0.1l0,0c-1.6-0.8-3.3-1.2-5.1-1.2
		c-5.4-0.2-10.4,2.2-12.8,7.1c-1.2,2.3-1.5,4.9-1.1,7.4c0.8,4.3,3.5,8,7.2,10.2C969.4,592.4,978.3,593.1,987,592.8z M1006.1,573.3
		c1.4-2,3.1-3.9,5-5.4c0.6-0.5,1.3-1,2-1.5c0.2-0.1,0.5-0.1,0.7,0.1c0.2,0.2,0.2,0.5,0.1,0.7c-0.8,1.3-1.8,2.4-2.9,3.5h0.2
		c1.4,0,2.4,2.5,2.4,5.6c0,3.1-1.1,5.6-2.4,5.6c-1.4,0-2.4-2.5-2.4-5.6c0-1.5,0.2-2.9,0.8-4.3c-0.9,0.8-1.8,1.5-2.7,2.1
		c-0.2,0.2-0.5,0.2-0.8,0S1005.9,573.6,1006.1,573.3z M977.3,575.8c-0.7-0.1-1.3-0.3-2-0.4c0.9,1.5,1.3,3.2,1.2,4.9
		c0,3.1-1.1,5.6-2.4,5.6s-2.4-2.5-2.4-5.6c0-2.7,0.8-4.8,1.9-5.4c-1.1-0.4-2.2-0.8-3.3-1.3c-0.8-0.3-1.5-0.8-2.2-1.2
		c-0.2-0.2-0.2-0.4-0.2-0.6c0.1-0.2,0.3-0.4,0.6-0.4c1.6,0.3,3.2,0.7,4.8,1.4c1.5,0.6,3,1.3,4.4,2.2c0.2,0.1,0.3,0.4,0.2,0.6
		C977.7,575.7,977.5,575.9,977.3,575.8z"/>
</g>
<g id="yJCzHWBtGZf9Kw5y4Yu67" transform="matrix(1 0 0 1 -831.84 -507.36)">
	<path vector-effect="non-scaling-stroke" d="M973.2,577.1c2.8,1.5,5.8,2.5,8.9,3c5.4,0.8,10.9,0.1,16-1.8c3-1,5.9-2.2,8.7-3.7
		c1.9-1,3.7-2.2,5.3-3.6l0,0l0.2-0.1l0.1-0.1c-1.6,1.1-3.4,2.1-5.2,2.9c-3.8,1.7-7.8,3.2-11.9,4.3c-7.2,2.2-15,1.9-22-1l-0.8-0.3
		C972.8,576.7,973,576.8,973.2,577.1L973.2,577.1z"/>
</g>
<g id="J4lYAxlOtw2JnyuaUhMoJ" transform="matrix(1 0 0 1 -861.31 -495)">
	<path vector-effect="non-scaling-stroke" d="M990.5,588.1l0.3,0.1c-3.7-2.2-6.4-5.9-7.2-10.2c-0.4-2.5,0-5.1,1.1-7.4
		c2.4-4.9,7.4-7.3,12.8-7.1c1.8-0.1,3.5,0.3,5.1,1.1l0,0c-0.3-0.2-0.7-0.4-1.1-0.6c0.2,0,0.3,0.1,0.5,0.2c-0.6-0.4-1.2-0.6-1.8-0.9
		c-1.8-0.5-3.6-0.7-5.4-0.6c-2.8,0.1-5.5,1.2-7.7,2.9c-4.5,3.6-6,9.8-3.6,15.1C984.9,584,987.3,586.6,990.5,588.1z"/>
</g>
<g id="df-zvpUErxFR1W-fmoRDn" transform="matrix(1 0 0 1 -851.74 -506.14)">
	<path vector-effect="non-scaling-stroke" d="M993,575.8c-0.2-0.1-0.4-0.3-0.6-0.4c-0.2-0.1-0.3-0.1-0.5-0.2
		C992.3,575.4,992.7,575.6,993,575.8z"/>
</g>
<g id="r-fKFRqmiBJ6laoDtRb_h" transform="matrix(1 0 0 1 -830.06 -484.73)">
	<path vector-effect="non-scaling-stroke" d="M1025.9,568.4c-2,1.5-4.1,2.8-6.3,4c-10.4,5.7-22.3,8.2-34.1,8.6
		c-8.7,0.3-17.6-0.4-26-3.1l0.2,0.1c-0.2-0.1-0.4-0.1-0.6-0.2h-0.1c5.5,2.4,11.4,3.9,17.4,4.4c14.9,1.4,30.7-1,43.5-9.1
		c1.2-0.8,2.5-1.6,3.6-2.5c-0.3,0.1-0.5,0.3-0.8,0.4C1024,570.2,1025,569.4,1025.9,568.4z"/>
</g>
<g id="YRHGV8CxbeDXbDe2XVioV" transform="matrix(1 0 0 1 -863.07 -482.28)">
	<path vector-effect="non-scaling-stroke" d="M992.5,575.5l-0.3-0.1c0.2,0.1,0.4,0.2,0.6,0.2L992.5,575.5z"/>
</g>
<g id="o8LamZ8Rk47g-NHRQfzZ-" transform="matrix(1 0 0 1 -801.87 -502.18)">
	<path vector-effect="non-scaling-stroke" d="M984.6,564.5c3.3-1.1,6.9-0.9,10,0.6c3.1,1.5,5.5,4.3,6.6,7.6
		c1.5,4.6-0.2,9.6-3.4,13.1c0.4-0.3,0.8-0.6,1.2-0.9c-1.1,1.1-2.2,2.1-3.4,3c2.9-1.7,5.2-4.3,6.4-7.4c1.4-3.5,1.1-7.4-0.7-10.7
		c-3.3-5.9-10.6-8.4-16.8-5.7c-0.7,0.4-1.4,0.8-2.1,1.4l-0.1,0.1C983,565.2,983.8,564.8,984.6,564.5z"/>
</g>
<g id="zAGUaxOFUX8Ysgn-a9_bw" transform="matrix(1 0 0 1 -812.09 -512.05)">
	<path vector-effect="non-scaling-stroke" d="M992.5,575.5l0.1-0.1L992.5,575.5L992.5,575.5z"/>
</g>
<g id="ueimwDRDSaABW2lL_majx" transform="matrix(1 0 0 1 -797.57 -491.02)">
	<path vector-effect="non-scaling-stroke" d="M994.6,573.8c-0.4,0.3-0.8,0.6-1.2,0.9c-0.9,1-1.9,1.8-3,2.5c0.3-0.1,0.5-0.2,0.8-0.4
		C992.4,575.9,993.5,574.9,994.6,573.8z"/>
</g>
<g id="sSU7k9wQIhp4fwVfPdwqQ" transform="matrix(1 0 0 1 -812.88 -495.77)">
	<path vector-effect="non-scaling-stroke" d="M992.5,580.8c1.2,0,2.2-2.4,2.2-5.3s-1-5.4-2.2-5.4s-2.2,2.4-2.2,5.4
		C990.3,578.4,991.3,580.8,992.5,580.8z"/>
</g>
<g id="qNf7jwB3aIVbqE17zGjOV" transform="matrix(1 0 0 1 -812.91 -495.77)">
	<path vector-effect="non-scaling-stroke" d="M992.5,570c1.3,0,2.3,2.4,2.3,5.5s-1,5.5-2.3,5.5s-2.3-2.4-2.3-5.5
		c-0.1-1.6,0.3-3.1,1-4.5l-0.3,0.3c-0.6,1.3-0.9,2.8-0.9,4.3c0,3.1,1.1,5.6,2.4,5.6s2.4-2.5,2.4-5.6s-1.1-5.6-2.4-5.6h-0.2l-0.2,0.2
		C992.3,570,992.4,570,992.5,570z"/>
</g>
<g id="epyKc1gZ5KYq9xYqaNfpU" transform="matrix(1 0 0 1 -812.88 -495.77)">
	<path vector-effect="non-scaling-stroke" d="M992.5,581c1.3,0,2.3-2.4,2.3-5.5s-1-5.5-2.3-5.5c-0.1,0-0.3,0-0.4,0.1l-0.1,0.1
		c-0.3,0.3-0.5,0.5-0.8,0.8c-0.7,1.4-1.1,3-1,4.5C990.2,578.5,991.2,581,992.5,581z M992.5,570.1c1.2,0,2.2,2.4,2.2,5.4
		c0,2.9-1,5.3-2.2,5.3s-2.2-2.4-2.2-5.3S991.3,570.1,992.5,570.1z"/>
</g>
<g id="ZaIDBooMCRHWgfuvuGzPA" transform="matrix(1 0 0 1 -849.96 -491.69)">
	<path vector-effect="non-scaling-stroke" d="M990.3,575.5c0,2.9,1,5.4,2.2,5.4s2.2-2.5,2.2-5.4c0-2.3-0.6-4.2-1.4-5
		c-0.3-0.1-0.7-0.2-1-0.3C991.2,570.4,990.3,572.8,990.3,575.5z"/>
</g>
<g id="Ahs_TLPkvbcCtlplMLY5C" transform="matrix(1 0 0 1 -849.96 -491.64)">
	<path vector-effect="non-scaling-stroke" d="M994.8,575.4c0,3-1,5.5-2.3,5.5s-2.3-2.5-2.3-5.5c0-2.7,0.8-4.9,1.9-5.4l-0.1-0.1
		c-1.1,0.6-1.9,2.8-1.9,5.4c0,3.1,1.1,5.6,2.4,5.6s2.4-2.5,2.4-5.6c0.1-1.7-0.3-3.4-1.2-4.9l-0.2-0.1
		C994.5,571.9,994.9,573.7,994.8,575.4z"/>
</g>
<g id="KaeU6ZqhpJ1g5Es9amtJK" transform="matrix(1 0 0 1 -849.96 -491.68)">
	<path vector-effect="non-scaling-stroke" d="M990.2,575.5c0,3,1,5.5,2.3,5.5s2.3-2.5,2.3-5.5c0.1-1.8-0.4-3.5-1.3-4.9l-0.2-0.1
		c0.8,0.8,1.4,2.8,1.4,5c0,2.9-1,5.3-2.2,5.3s-2.2-2.5-2.2-5.3c0-2.7,0.9-5,2-5.3l-0.2-0.1C991,570.5,990.2,572.8,990.2,575.5z"/>
</g>
<g id="_x2D_uVJLPJBEpMLKHFChK6Ww" transform="matrix(1 0 0 1 -814.13 -501.74)">
	<path vector-effect="non-scaling-stroke" d="M989.4,579.3c1-0.6,1.9-1.3,2.7-2.1c0.2-0.6,0.7-1.1,1.4-1.3c1.1-1.1,2.1-2.2,2.9-3.5
		c0.1-0.2,0.1-0.5-0.1-0.7c-0.2-0.2-0.5-0.2-0.7-0.1c-0.7,0.4-1.4,0.9-2,1.5c-1.9,1.6-3.6,3.4-5,5.4c-0.2,0.2-0.2,0.5,0,0.8
		C988.9,579.5,989.2,579.5,989.4,579.3z"/>
</g>
<g id="Qm45FQuez7w31CDqG5XTD" transform="matrix(1 0 0 1 -813.8 -500.69)">
	<path vector-effect="non-scaling-stroke" d="M991.8,576.1l0.3-0.3c0.2-0.4,0.5-0.7,0.9-0.9l0.2-0.2
		C992.6,575,992.1,575.5,991.8,576.1z"/>
</g>
<g id="qxWCnoIC6L4FnXpNFxUvD" transform="matrix(1 0 0 1 -813.74 -500.74)">
	<path vector-effect="non-scaling-stroke" d="M993,575.1c-0.4,0.2-0.7,0.5-0.9,0.9c0.3-0.2,0.5-0.5,0.8-0.8L993,575.1z"/>
</g>
<g id="_x37_0OBlA_x5F_E9PJrdsaIQuQkN" transform="matrix(1 0 0 1 -851.18 -498.46)">
	<path vector-effect="non-scaling-stroke" d="M997.3,576.8c-1.4-0.9-2.9-1.6-4.4-2.2c-1.5-0.6-3.1-1.1-4.8-1.4
		c-0.2,0-0.5,0.1-0.6,0.4c-0.1,0.2,0,0.5,0.2,0.6c0.7,0.5,1.4,0.9,2.2,1.2c1.1,0.5,2.2,0.9,3.3,1.3c0.2-0.1,0.4-0.2,0.6-0.2
		c0.5,0,0.9,0.3,1.2,0.7c0.7,0.2,1.3,0.3,2,0.4c0.2,0,0.5-0.1,0.6-0.3C997.6,577.2,997.5,577,997.3,576.8z"/>
</g>
<g id="_x32_ZilkYW2xrsrev2N9qlT3" transform="matrix(1 0 0 1 -849.71 -496.91)">
	<path vector-effect="non-scaling-stroke" d="M992,575.4c0.3,0.1,0.7,0.2,1,0.3c-0.2-0.2-0.5-0.3-0.8-0.3
		C992.2,575.3,992.1,575.3,992,575.4z"/>
</g>
<g id="KSYJsZfG3vWdM3BOaIKlU" transform="matrix(1 0 0 1 -849.64 -496.95)">
	<path vector-effect="non-scaling-stroke" d="M992.2,575.1c-0.2,0-0.4,0.1-0.6,0.2l0.1,0.1c0.1-0.1,0.3-0.1,0.4-0.1
		c0.4,0,0.8,0.2,1,0.5l0.2,0.1C993.1,575.4,992.7,575.2,992.2,575.1z"/>
</g>
<g id="ocXNyyoXdVbL-eQmal0UA" transform="matrix(1 0 0 1 -849.69 -496.93)">
	<path vector-effect="non-scaling-stroke" d="M992.2,575.3c0.3,0,0.6,0.1,0.8,0.3l0.2,0.1c-0.2-0.3-0.6-0.5-1-0.5
		c-0.1,0-0.3,0-0.4,0.1l0.2,0.1C992.1,575.4,992.1,575.3,992.2,575.3z"/>
</g>
<g id="zAQh380hGZlh8o2zqDw3s" transform="matrix(1 0 0 1 -845.58 -533.3)">
	<path vector-effect="non-scaling-stroke" d="M1008,582.8c5.2-0.8,10.4-2,15.5-3.7c1.5-0.5,3.5-1.2,5-1.8c3.6-1.4,7-3,10.3-4.9
		c2.7-1.5,5.3-3.3,7.7-5.3c0,0,0.2-0.2,0.2-0.2c-3.8,2.7-7.9,5-12.2,6.8c-10.7,4.6-22.1,7.4-33.7,8.3c-7,0.5-14,0.5-21,0
		c-14-0.9-27.9-2.7-41.7-5.2c12.5,3.2,25.3,5.3,38.1,6.5C986.8,584.2,997.5,584.5,1008,582.8z"/>
</g>
<g id="UOc1mFwEHBlTO-2IhLpu-" transform="matrix(1 0 0 1 -899.59 -531.88)">
	<path vector-effect="non-scaling-stroke" d="M992.2,575.4l0.6,0.2l0,0L992.2,575.4z"/>
</g>
<g id="_x2D_HX_x5F_P3cVEmZa-StAsK4Eb" transform="matrix(1 0 0 1 -791.42 -541.76)">
	<path vector-effect="non-scaling-stroke" d="M992.6,575.4l-0.2,0.2l0,0L992.6,575.4z"/>
</g>
<g id="VqMYADvY4dORV66KPgU5S" transform="matrix(1 0 0 1 -823.25 -462.09)">
	<path vector-effect="non-scaling-stroke" d="M992.6,575.1c0,0.3-0.1,0.5-0.2,0.8h0.1C992.5,575.6,992.5,575.4,992.6,575.1z"/>
</g>
<g id="yyi9gIoGcSJvSVQrurApg" transform="matrix(1 0 0 1 -896.06 -371.22)">
	<path vector-effect="non-scaling-stroke" d="M992.4,574.8c0.1,0.5,0.2,0.9,0.3,1.4C992.5,575.7,992.5,575.3,992.4,574.8z"/>
</g>
<g id="_x34_sPo3aKxBmwd5-u2qVaBo" transform="matrix(1 0 0 1 -895.25 -367.33)">
	<path vector-effect="non-scaling-stroke" d="M992.4,574.9c0.1,0.4,0.2,0.8,0.3,1.2C992.5,575.7,992.5,575.3,992.4,574.9z"/>
</g>
<g id="C_cwWtA1TtVYAopOSFwja" transform="matrix(1 0 0 1 -898.5 -383.91)">
	<path vector-effect="non-scaling-stroke" d="M992.3,574.5c0.1,0.6,0.2,1.3,0.3,1.9C992.5,575.8,992.4,575.2,992.3,574.5z"/>
</g>
<g id="fwNy8QKZWvUIt8m3Fv5XP" transform="matrix(1 0 0 1 -899.17 -387.69)">
	<path vector-effect="non-scaling-stroke" d="M992.3,574.6c0.1,0.6,0.2,1.3,0.3,1.9C992.6,575.8,992.4,575.2,992.3,574.6z"/>
</g>
<g id="_x33_9Ay-qPXI4WFNR4gynwDv" transform="matrix(1 0 0 1 -899.09 -339.22)">
	<path vector-effect="non-scaling-stroke" d="M992.3,575.8L992.3,575.8c0.2-0.2,0.3-0.5,0.5-0.7
		C992.6,575.4,992.4,575.6,992.3,575.8z"/>
</g>
<g id="_x32_92cOO7Nodnxi-b3uLHkc" transform="matrix(1 0 0 1 -897.81 -380.12)">
	<path vector-effect="non-scaling-stroke" d="M992.3,574.6c0.1,0.6,0.2,1.2,0.3,1.8C992.5,575.8,992.4,575.2,992.3,574.6z"/>
</g>
<g id="vwlOlfWOKmLsACl0_kaRo" transform="matrix(1 0 0 1 -896.86 -375.19)">
	<path vector-effect="non-scaling-stroke" d="M992.4,574.9c0.1,0.4,0.1,0.8,0.2,1.1C992.5,575.7,992.5,575.3,992.4,574.9z"/>
</g>
<g id="fUAVNvkVpDGfcqCEhZvJE" transform="matrix(1 0 0 1 -894.77 -367.49)">
	<path vector-effect="non-scaling-stroke" d="M996.4,594.8L996.4,594.8l0.6,1.9c-1.5-5.5-2.8-11.1-4-16.7c-0.3-1.2-0.5-2.5-0.8-3.8
		c-0.1-0.4-0.2-0.8-0.3-1.2l-0.5-2.6c-0.1-0.5-0.2-0.9-0.3-1.4l-0.5-2.7c-0.1-0.4-0.1-0.8-0.2-1.1c-0.2-1.2-0.5-2.3-0.7-3.5
		c-0.1-0.6-0.2-1.2-0.3-1.8c-0.1-0.6-0.2-1.3-0.4-2c-0.1-0.7-0.2-1.3-0.4-1.9l-0.3-1.9c-0.1-0.6-0.2-1.3-0.3-1.9l0,0v5.8
		C990.3,571.7,993.1,583.3,996.4,594.8L996.4,594.8z"/>
</g>
<g id="uc74NIUKmrytXzLVnfWbk" transform="matrix(1 0 0 1 -890.88 -348.22)">
	<path vector-effect="non-scaling-stroke" d="M992.5,575.5"/>
</g>
<g id="xzRIn3D2m3QP-ekCXjsJK" transform="matrix(1 0 0 1 -825.89 -459.91)">
	<path vector-effect="non-scaling-stroke" class="st2" d="M994.3,577.3c0.3-1.2,0.5-2.4,0.8-3.5c-1.5,0.6-3.1,1.1-4.6,1.5
		c-0.1,0.7-0.3,1.4-0.5,2.1H994.3z"/>
</g>
<g id="GsQHhkOUSOGvBAxD4NaZ-" transform="matrix(1 0 0 1 -844.61 -432.15)">
	<path vector-effect="non-scaling-stroke" class="st2" d="M992.2,583.7c4.3-4.2,8.6-8.5,11.9-13.6c4.2-6.3,7.2-13.3,9-20.6h-4.4
		c-0.4,1.6-0.9,3.2-1.4,4.8c-1.8,5.4-4.2,10.5-7.1,15.3l-1.6,2.5l-1.8,2.4c-1.2,1.5-2.6,3.1-4,4.5c-6.4,6.2-13.3,11.8-20.8,16.7
		c0,1.9,0.1,3.8,0.2,5.8c5.2-4.1,10.3-8.5,15.2-13C988.9,586.9,990.6,585.4,992.2,583.7z"/>
</g>
<g id="GD8ddAP672_IpDGLVJCY4" transform="matrix(1 0 0 1 -831.52 -496.12)">
	<path vector-effect="non-scaling-stroke" class="st7" d="M1030.8,563.8c-3.3-5.9-10.6-8.4-16.8-5.7c-0.7,0.4-1.4,0.8-2.1,1.4
		l0.1-0.1c-1.6,1.1-3.4,2.1-5.2,2.9c-3.8,1.7-7.8,3.2-11.9,4.3c-7.2,2.2-15,1.9-22-1l-0.8-0.3c-0.6-0.4-1.2-0.6-1.8-0.9
		c-1.8-0.5-3.6-0.7-5.4-0.6c-2.8,0.1-5.5,1.2-7.7,2.9c-4.5,3.6-6,9.8-3.6,15.1c1.4,3.2,3.9,5.8,7,7.2h-0.1
		c5.5,2.4,11.4,3.9,17.4,4.4c14.9,1.4,30.7-1,43.5-9.1c1.2-0.8,2.5-1.6,3.6-2.5c2.9-1.7,5.2-4.3,6.4-7.4
		C1032.9,571,1032.7,567.1,1030.8,563.8z"/>
</g>
<g id="UxOy_doRUWu5bQokRiKav" transform="matrix(1 0 0 1 -788.13 -533.8)">
	<path vector-effect="non-scaling-stroke" class="st3" d="M992.4,575.6L992.4,575.6l0.2-0.2L992.4,575.6z"/>
</g>
<g id="En8tMSEWSapXll5H5BYsw" transform="matrix(1 0 0 1 -899.33 -388.64)">
	<path vector-effect="non-scaling-stroke" class="st8" d="M992.5,575.5L992.5,575.5L992.5,575.5L992.5,575.5z"/>
</g>
<g id="nTnB_5wmSfrjWhnwywkb5" transform="matrix(1 0 0 1 -900.32 -394.64)">
	<path vector-effect="non-scaling-stroke" class="st3" d="M992.8,577.5c-0.2-1.3-0.4-2.7-0.6-4C992.4,574.8,992.6,576.2,992.8,577.5
		z"/>
</g>
<g id="eAvfmCj3sD22HWhXi7idL" transform="matrix(1 0 0 1 -835.62 -459.17)">
	<path vector-effect="non-scaling-stroke" class="st3" d="M1000.1,574.5c-4.9,1.3-10,2-15.2,2h14.5
		C999.6,575.9,999.9,575.2,1000.1,574.5z"/>
</g>
<g id="xcyI-U0LNBCzEYFIkFbFS" transform="matrix(1 0 0 1 -900.53 -333.47)">
	<path vector-effect="non-scaling-stroke" class="st3" d="M992.4,572.9c-1.8,3.5-1.5,6.1,1.3,7.4v-9.7
		C993.2,571.4,992.8,572.1,992.4,572.9z"/>
</g>
<g id="QMRFxwpzyysbiOHgs9eec" transform="matrix(1 0 0 1 -898.84 -385.8)">
	<path vector-effect="non-scaling-stroke" class="st3" d="M992.3,574.6l0.3,1.9L992.3,574.6z"/>
</g>
<g id="vdGPiDOoQlrDEjlTYEy4q" transform="matrix(1 0 0 1 -895.61 -369.23)">
	<path vector-effect="non-scaling-stroke" class="st3" d="M992.2,574.2l0.5,2.6L992.2,574.2z"/>
</g>
<g id="_x33_tCry42a6iqPFTNm2-9cQ" transform="matrix(1 0 0 1 -896.48 -373.27)">
	<path vector-effect="non-scaling-stroke" class="st3" d="M992.2,574.1l0.5,2.7L992.2,574.1z"/>
</g>
<g id="jX-trXEn7eeNWDbkG_mTl" transform="matrix(1 0 0 1 -899.33 -388.64)">
	<path vector-effect="non-scaling-stroke" class="st8" d="M992.5,575.5L992.5,575.5L992.5,575.5z"/>
</g>
<g id="xJqfqd_SZLu0yqbnW89Ny" transform="matrix(1 0 0 1 -894.71 -364.84)">
	<path vector-effect="non-scaling-stroke" class="st3" d="M992.1,573.6c0.3,1.2,0.5,2.5,0.8,3.8
		C992.6,576.1,992.3,574.9,992.1,573.6z"/>
</g>
<g id="E6Ii5Atis1aTgqFc8oqOg" transform="matrix(1 0 0 1 -897.31 -377.5)">
	<path vector-effect="non-scaling-stroke" class="st3" d="M992.2,573.7c0.2,1.2,0.4,2.3,0.7,3.5
		C992.6,576.1,992.4,574.9,992.2,573.7z"/>
</g>
<g id="k-ZX4f-FDw2Ut6m9mN0Gh" transform="matrix(1 0 0 1 -898.15 -381.97)">
	<path vector-effect="non-scaling-stroke" class="st3" d="M992.3,574.5c0.1,0.7,0.2,1.3,0.4,2C992.6,575.8,992.4,575.2,992.3,574.5z
		"/>
</g>
<g id="_x31_HWV3sKFmiiMWOclRctOy" transform="matrix(1 0 0 1 -846.29 -404.59)">
	<path vector-effect="non-scaling-stroke" class="st2" d="M973.9,578c0.1,1.5,0.1,2.9,0.2,4.4c0.1,2,0.3,4.1,0.4,6.1
		c0.6-0.2,1.3-0.5,1.9-0.8c0.8-0.3,1.6-0.5,2.4-0.8c9.4-3.5,18.2-8.3,26.3-14.2c1.3-1,2.6-2,3.8-3c0.7-2.4,1.5-4.9,2.2-7.4
		c-1.1,1-2.3,1.9-3.5,2.7C997.4,571.8,985.9,576.2,973.9,578z"/>
</g>
<g id="KvaFpnqxLzUZcIrziPnCP" transform="matrix(1 0 0 1 -861.4 -352.3)">
	<path vector-effect="non-scaling-stroke" class="st8" d="M992.5,575.5L992.5,575.5L992.5,575.5L992.5,575.5z"/>
</g>
<g id="avwTkJT2v7fPoeTz5ZTAV" transform="matrix(1 0 0 1 -843.91 -516.56)">
	<path vector-effect="non-scaling-stroke" d="M949.7,614.9c11.3,12,27,18.9,43.5,19c5.1,0,10.2-0.7,15.2-2c0.1-0.3,0.2-0.5,0.3-0.8
		c0,0.3-0.1,0.5-0.2,0.8c1.6-0.4,3.1-0.9,4.6-1.5c0-0.3,0.1-0.6,0.2-0.8c0,0.3,0,0.5-0.1,0.8c2.1-0.8,4.1-1.7,6.1-2.7
		c8.8-4.4,16.3-11,21.8-19.2l-0.5,0.1h-0.5l1.2-0.5c9.3-13.9,12.2-31.1,8-47.3c-4.2-16.2-15.1-29.8-30-37.4
		c-36.8-18.2-77.1,4.8-84.3,40.2l0.7-0.2l-0.7,0.3c-0.7,3.5-1.1,7-1.1,10.5l0.5-0.1l-0.5,0.1c0,1.9,0,3.9,0.2,5.8h0.4l0,0l0,0l0,0
		h0.4c-0.1-1.4-0.2-2.9-0.1-4.4c0-2.4,0.2-4.7,0.5-7.1l-1-0.3l1,0.2c0.4-2.8,0.9-5.5,1.7-8.2l-0.6-0.2l0.6,0.1
		c9.7-33.7,49-52.1,82.8-34.8c10.7,5.5,19.5,14.3,25,25l0.2-0.2l-0.2,0.2c4,7.8,6.1,16.4,6.1,25.2c0.1,21-12.3,40.6-31.1,50.2
		c-30.5,15.7-65.6,2.7-79.3-24.8H940C942.6,606.2,945.8,610.8,949.7,614.9l0.2-0.1L949.7,614.9z"/>
</g>
<g id="lgWzTP9HuIZs9UtldstpW" transform="matrix(1 0 0 1 -902.09 -511.9)">
	<path vector-effect="non-scaling-stroke" d="M992.7,575.3h-0.4v0.4L992.7,575.3z"/>
</g>
<g id="IW_F235WxB1GkX2whdxSk" transform="matrix(1 0 0 1 -899.02 -501.57)">
	<path vector-effect="non-scaling-stroke" d="M995.7,586c-3.3-6.6-5.2-13.8-5.7-21.1h-0.4l-0.4,0.5l0.2-0.2l-0.2,0.2
		c0.3,3,0.8,6,1.5,8.9c0.2-0.1,0.3-0.3,0.4-0.4l-0.4,0.5c0,0.1,0,0.2,0.1,0.2c1,3.9,2.4,7.7,4.2,11.4H995.7z"/>
</g>
<g id="_x37_5rK-YfaIiwRTaPskGnzr" transform="matrix(1 0 0 1 -901.88 -512.14)">
	<path vector-effect="non-scaling-stroke" d="M992.5,575.5L992.5,575.5z"/>
</g>
<g id="pu6NGrFMpjtTfC01qZXZd" transform="matrix(1 0 0 1 -901.88 -512.14)">
	<path vector-effect="non-scaling-stroke" d="M992.5,575.5L992.5,575.5L992.5,575.5z"/>
</g>
<g id="EjBprvHk9FUNloPuQmsW7" transform="matrix(1 0 0 1 -902.08 -511.85)">
	<path vector-effect="non-scaling-stroke" d="M992.3,575.8l0.4-0.5l0,0l-0.4,0.4C992.3,575.7,992.3,575.7,992.3,575.8z"/>
</g>
<g id="_x2D_jTB4eW6-G8Ob-TQgzjZ4" transform="matrix(1 0 0 1 -900.5 -502.88)">
	<path vector-effect="non-scaling-stroke" d="M992.7,575.3c-0.1,0.1-0.3,0.3-0.4,0.4l0,0L992.7,575.3z"/>
</g>
<g id="uYrZSjAHbyLpjGETPTE-3" transform="matrix(1 0 0 1 -860.88 -352.18)">
	<path vector-effect="non-scaling-stroke" d="M992.8,574.5L992.8,574.5L992.8,574.5L992.8,574.5c0,0,0.1-0.1,0.1,0.4
		s-0.7,0.5-0.9,0.4l1.1,1.2l-0.2-1.8v-0.2L992.8,574.5L992.8,574.5z"/>
</g>
<g id="_x32_k2ZUYW9wUmQaEr0B9BBp" transform="matrix(1 0 0 1 -861.45 -352.3)">
	<path vector-effect="non-scaling-stroke" d="M992.5,575.5L992.5,575.5C992.4,575.5,992.5,575.5,992.5,575.5z"/>
</g>
<g id="_7gSvAQM5SF4NtyZdHTTu" transform="matrix(1 0 0 1 -900.69 -333.43)">
	<path vector-effect="non-scaling-stroke" d="M992.6,572.9c0.4-0.8,0.8-1.5,1.3-2.2v-0.6c-0.2,0.2-0.3,0.5-0.5,0.8l-0.1,0.1
		l-0.1,0.2c0,0-0.1,0.1-0.1,0.2c0,0-0.1,0.1-0.1,0.2l-0.1,0.2l-0.1,0.2l-0.1,0.2l-0.1,0.2c0,0.1-0.1,0.1-0.1,0.2
		c0,0.1,0,0.1-0.1,0.1c-0.1,0.1-0.1,0.2-0.2,0.4c0,0,0,0,0,0.1c0,0.1-0.1,0.2-0.1,0.3l-0.1,0.1l-0.1,0.2l-0.1,0.1
		c0,0.1-0.1,0.2-0.1,0.2l-0.1,0.1c0,0.1-0.1,0.2-0.1,0.2l-0.1,0.1l-0.1,0.3c0,0,0,0.1,0,0.1s-0.1,0.3-0.1,0.4h0.3h-0.3
		c-0.3,1.1-0.3,2.2,0.1,3.2c0.5,1.1,1.5,2,2.6,2.4v-0.7C991,578.9,990.8,576.4,992.6,572.9z"/>
</g>
<g id="yNi2t7ngns1DtH0Ren59o" transform="matrix(1 0 0 1 -901.17 -335.84)">
	<path vector-effect="non-scaling-stroke" d="M992.6,575.3c0,0.1-0.1,0.2-0.1,0.3C992.5,575.5,992.5,575.4,992.6,575.3z"/>
</g>
<g id="_x37_t7W9KhgVWQDs7gN9Mf-Y" transform="matrix(1 0 0 1 -899.92 -338.03)">
	<path vector-effect="non-scaling-stroke" d="M992.5,575.4l-0.1,0.1L992.5,575.4z"/>
</g>
<g id="OU5JlsFtIccj7LgK9Tyex" transform="matrix(1 0 0 1 -900.97 -336.23)">
	<path vector-effect="non-scaling-stroke" d="M992.6,575.3c-0.1,0.1-0.1,0.2-0.2,0.4C992.5,575.6,992.5,575.4,992.6,575.3z"/>
</g>
<g id="JZXEXKeRRE6cwKrezz55e" transform="matrix(1 0 0 1 -901.36 -335.44)">
	<path vector-effect="non-scaling-stroke" d="M992.6,575.4l-0.1,0.2L992.6,575.4z"/>
</g>
<g id="GcGRSbLYHdrXfqZ3cvN-K" transform="matrix(1 0 0 1 -900.73 -336.65)">
	<path vector-effect="non-scaling-stroke" d="M992.6,575.4c0,0.1-0.1,0.1-0.1,0.2C992.5,575.5,992.5,575.5,992.6,575.4z"/>
</g>
<g id="V1-A_5981WQPm3mp-NnF2" transform="matrix(1 0 0 1 -900.52 -337.02)">
	<path vector-effect="non-scaling-stroke" d="M992.6,575.4l-0.1,0.2L992.6,575.4z"/>
</g>
<g id="d1GF_LOHzOKbG6m0Qd92F" transform="matrix(1 0 0 1 -900.31 -337.36)">
	<path vector-effect="non-scaling-stroke" d="M992.6,575.4l-0.1,0.2L992.6,575.4z"/>
</g>
<g id="jd7LDO32fBk08d7xdis-r" transform="matrix(1 0 0 1 -900.1 -337.7)">
	<path vector-effect="non-scaling-stroke" d="M992.5,575.4c0,0-0.1,0.1-0.1,0.2C992.5,575.5,992.5,575.5,992.5,575.4z"/>
</g>
<g id="_x37_QlSQngKopevuFwq4wmhP" transform="matrix(1 0 0 1 -901.53 -335.06)">
	<path vector-effect="non-scaling-stroke" d="M992.5,575.4c0,0.1-0.1,0.2-0.1,0.2C992.5,575.5,992.5,575.5,992.5,575.4z"/>
</g>
<g id="PXkGg2vBPlWDbpzEEC50j" transform="matrix(1 0 0 1 -901.68 -334.67)">
	<path vector-effect="non-scaling-stroke" d="M992.5,575.4c0,0.1-0.1,0.2-0.1,0.2C992.5,575.5,992.5,575.4,992.5,575.4z"/>
</g>
<g id="RwIynPTI47c62S_hNFpJF" transform="matrix(1 0 0 1 -901.82 -334.28)">
	<path vector-effect="non-scaling-stroke" d="M992.5,575.4l-0.1,0.3L992.5,575.4z"/>
</g>
<g id="m587HjLfLHKkbnPOhZ6ci" transform="matrix(1 0 0 1 -901.93 -333.84)">
	<path vector-effect="non-scaling-stroke" d="M992.6,575.3c0,0.1-0.1,0.3-0.1,0.4C992.5,575.6,992.5,575.4,992.6,575.3z"/>
</g>
<g id="l-ZI3X6i0lC_-yUsyBGTf" transform="matrix(1 0 0 1 -873.97 -339.97)">
	<path vector-effect="non-scaling-stroke" d="M1006.2,564.4l-1.1-1.2l0,0l1,1.1c1.2,1.3,2.4,2.7,3.7,3.8c2.3,2.7,4.3,5.5,6.1,8.5
		c0.4,0.6,0.7,1.4,0.8,2.2c-0.8,1-2.1,0.9-3.3,0.8c-3.5-0.4-7-1.3-10.3-2.5l-0.3-0.1l-0.2,0.1c-2.1,1.5-4.3,2.9-6.6,4.2
		c-2.4,1.1-4.8,2.1-7.3,2.8c-2.5,0.9-4.9,1.9-7.4,2.7c-3.8,1.1-7.7,1.3-11.6,0.8c-0.9-0.1-1.7-0.4-2.6-0.8v0.7
		c1.4,0.6,2.9,0.9,4.5,0.9c2,0.1,4,0.1,6-0.1c4-0.4,7.7-2,11.4-3.3c2.5-0.8,5-1.7,7.5-2.8c2.3-1.2,4.4-2.6,6.5-4.1l-0.2-0.1l0.5-0.1
		l-0.2,0.1c2.8,1,5.6,1.7,8.5,2.3c1.2,0.2,2.5,0.3,3.7,0.3c0.9-0.1,1.7-0.5,2.3-1.2c0.2-0.2,0.3-0.4,0.3-0.7c0-1-0.4-2-0.9-2.8
		c-0.6-1.1-1.3-2.1-1.9-3c-1.4-2-2.9-3.9-4.4-5.8c-1.6-1.5-3.1-3.2-4.5-4.8v0.2L1006.2,564.4z"/>
</g>
<g id="_x32_Pr7dCjY82Peix-WjuQxF" transform="matrix(1 0 0 1 -895.11 -343.24)">
	<path vector-effect="non-scaling-stroke" d="M996.7,570.5c-2.9,2.6-5.6,5.5-8,8.6c-0.2,0.2-0.3,0.5-0.5,0.7v0.6
		C990.7,576.9,993.6,573.5,996.7,570.5L996.7,570.5z"/>
</g>
<g id="rrDxxUWRadQJQsgbyg9TS" transform="matrix(1 0 0 1 -863.48 -337.47)">
	<path vector-effect="non-scaling-stroke" d="M992.3,575.5l0.2,0.1l0.2-0.1L992.3,575.5z"/>
</g>
<g id="UGqTeVcqrizM4aZ3ItnCu" transform="matrix(1 0 0 1 -861.43 -352.36)">
	<path vector-effect="non-scaling-stroke" d="M992.5,575.5L992.5,575.5L992.5,575.5L992.5,575.5L992.5,575.5L992.5,575.5z"/>
</g>
<g id="AAQczX2F4Y25UqF7xFqNq" transform="matrix(1 0 0 1 -861.16 -353.07)">
	<path vector-effect="non-scaling-stroke" d="M993,575.3L993,575.3l-0.2-0.2c0.4,0-0.7-0.2-0.8,0.4c0,0.1,0,0.2,0,0.2L993,575.3z"/>
</g>
<g id="AFyVM5qBJq1qK6L3QKNJk" transform="matrix(1 0 0 1 -863.15 -397.47)">
	<path vector-effect="non-scaling-stroke" d="M992.8,602.9L992.8,602.9l0.5-0.5c-0.7-7-1.3-13.9-1.9-20.9c-0.2,0-0.3,0-0.5,0.1
		l0.5-0.1c-0.1-2-0.3-4.1-0.4-6.1c-0.1-1.5-0.2-2.9-0.2-4.4l-0.4,0.1l0.4-0.1c-0.1-1.3-0.1-2.7-0.2-4l-0.4,0.3l0.4-0.3
		c-0.1-1.9-0.1-3.8-0.2-5.8l-0.2,0.1l0.2-0.2c-0.2-10.2-0.1-20.4,0.1-30.6c-0.7,15-1.1,30-0.4,45c0.6,11.2,1.6,22.4,2.7,33.6
		c0.4,3.6,0.7,7.3,1.1,10.9c0.2-0.5,1.2-0.4,0.9-0.4l0.1,0.1l0.1,0.1l-1,0.5c0-0.1,0-0.2,0-0.2l0,0c0,0.4,0.1,0.3,0.1,0.4
		c0,0.1,0.1,0.2,0.2,0.2l0,0l0,0l0-0.1l0,0l0,0h0.1l0,0l0,0c0.2,0,0.8,0,0.9-0.5c0.1-0.4-0.1-0.3-0.1-0.4l0,0l0,0l0,0l0.1,0.1
		l0.1,0.1c-0.7-5.8-1.3-11.6-1.8-17.4L992.8,602.9L992.8,602.9z"/>
</g>
<g id="mSjh6dSWMWBKI-MRTHxs_" transform="matrix(1 0 0 1 -823.67 -459.92)">
	<path vector-effect="non-scaling-stroke" d="M992.8,573.7c-0.2,1.2-0.5,2.4-0.8,3.5h0.3C992.6,576.1,992.8,574.9,992.8,573.7
		L992.8,573.7z"/>
</g>
<g id="Y36MhZbLDzNlrI7hnSeAn" transform="matrix(1 0 0 1 -844.38 -432.18)">
	<path vector-effect="non-scaling-stroke" d="M1003.8,570.2c-3.3,5.1-7.6,9.3-11.9,13.6c-1.6,1.6-3.3,3.2-4.9,4.7
		c-4.9,4.5-9.9,8.9-15.2,13l0,0c4.9-3.3,9.7-6.9,14.2-10.8c5.8-4.9,11.3-10.3,16.2-16.2c5.6-7.3,9.4-15.9,11-25h-0.3
		C1011,556.9,1008,563.9,1003.8,570.2z"/>
</g>
<g id="EuBVZq73BRNPTjszjz_Yk" transform="matrix(1 0 0 1 -865.23 -406)">
	<path vector-effect="non-scaling-stroke" d="M992.3,575.6l0.4-0.3l0,0L992.3,575.6z"/>
</g>
<g id="sUFGzG9WTElvKCEOXmMYu" transform="matrix(1 0 0 1 -828.34 -459.16)">
	<path vector-effect="non-scaling-stroke" d="M992.4,576.5c0.2-0.7,0.4-1.4,0.5-2.1h-0.1c-0.2,0.7-0.5,1.4-0.7,2L992.4,576.5z"/>
</g>
<g id="buEdCveXimokdgftaRfZi" transform="matrix(1 0 0 1 -846.85 -435.07)">
	<path vector-effect="non-scaling-stroke" d="M998.9,577.4l1.8-2.4l1.7-2.5c2.9-4.8,5.3-10,7.1-15.3c0.5-1.6,1-3.2,1.4-4.8h-0.3
		c-0.8,2.5-1.8,4.9-2.8,7.3c-1.4,3.3-3.1,6.5-4.9,9.7c-0.3,0.6-1.2,2-1.5,2.5c-0.3,0.5-1.3,1.9-1.6,2.5l-1.2,1.6
		c-2.8,3.6-6,7-9.5,10c-4.8,4.4-9.8,8.5-15,12.6l0,0c7.4-4.9,14.4-10.5,20.8-16.7C996.3,580.6,997.7,578.9,998.9,577.4z"/>
</g>
<g id="_x33_WmYSgm3UVflMgN7zzMsR" transform="matrix(1 0 0 1 -865.32 -411.88)">
	<path vector-effect="non-scaling-stroke" d="M992.4,575.6l0.2-0.1l0,0L992.4,575.6z"/>
</g>
<g id="_x37_VRuAVaAnLbAuyiF3wfyL" transform="matrix(1 0 0 1 -846.26 -409.94)">
	<path vector-effect="non-scaling-stroke" d="M1007.5,570.5c1.2-0.8,2.4-1.7,3.5-2.7l0.1-0.2c-1.3,0.8-2.6,1.6-3.9,2.4
		c-10.4,6-21.8,10-33.3,13.4v0.1C985.9,581.5,997.4,577.1,1007.5,570.5z"/>
</g>
<g id="wWyJpBibOthJFuMA69vqN" transform="matrix(1 0 0 1 -865.09 -402.03)">
	<path vector-effect="non-scaling-stroke" d="M992.7,575.5L992.7,575.5l-0.4,0.1L992.7,575.5z"/>
</g>
<g id="LgEFZW_7t1XwBR6jUfKjp" transform="matrix(1 0 0 1 -829.84 -410.3)">
	<path vector-effect="non-scaling-stroke" d="M992.6,575.4l-0.1,0.1v0.1L992.6,575.4z"/>
</g>
<g id="KWALHuh_SwdO6mmG2nY0N" transform="matrix(1 0 0 1 -839.16 -421.74)">
	<path vector-effect="non-scaling-stroke" d="M1016.5,547.6c0.4-0.8,0.7-1.6,1.1-2.4c-3.3,6.7-6.6,13.4-9.2,20.4
		c-1.2,3.5-2.3,7.1-3.4,10.7c-0.3,1-0.6,2-0.9,3.1l0.5-0.4c-0.2,0.2-0.4,0.4-0.6,0.5c-0.7,2.5-1.5,4.9-2.2,7.3l0.1-0.1l-0.1,0.2
		v-0.1c-1.2,1-2.5,2-3.8,3c-8.1,5.9-16.9,10.7-26.2,14.2c-0.8,0.3-1.6,0.5-2.4,0.8c-0.6,0.3-1.2,0.6-1.9,0.8v0.1
		c0.7-0.1,1.4-0.2,2-0.3c2.4-0.7,4.8-1.5,7.2-2.4c6.3-2.4,12.2-5.6,17.8-9.5c2.8-1.9,5.5-4,8.1-6.2c1-3.6,2.3-8,3.5-12.3l-0.5,0.4
		c0.1-0.1,0.2-0.2,0.3-0.2l0.3-0.2c1-3.3,1.9-6.5,2.8-9.2C1011,559.6,1013.7,553.6,1016.5,547.6l-0.1,0L1016.5,547.6z"/>
</g>
<g id="nTmAV7y1rgMWbxXnJXn43" transform="matrix(1 0 0 1 -864.42 -391.45)">
	<path vector-effect="non-scaling-stroke" d="M992.7,575.5L992.7,575.5l-0.5,0.1C992.4,575.5,992.6,575.5,992.7,575.5z"/>
</g>
<g id="IDwVujpqUGLi7TbhELTdi" transform="matrix(1 0 0 1 -827.39 -417.95)">
	<path vector-effect="non-scaling-stroke" d="M992.8,575.2l-0.5,0.4l-0.1,0.2C992.4,575.6,992.6,575.4,992.8,575.2z"/>
</g>
<g id="VnNtekrIH1DdXZYkuKfXc" transform="matrix(1 0 0 1 -839.5 -384.85)">
	<path vector-effect="non-scaling-stroke" d="M969.7,589.8L969.7,589.8L969.7,589.8c7.2-5.5,14.8-10.7,22.6-15.4
		c6.8-4.1,15.8-9.2,22.9-13.2l0.1-0.1C998.6,568.6,983.1,577.3,969.7,589.8z"/>
</g>
<g id="VHzS90h479n0WJNQE2cOG" transform="matrix(1 0 0 1 -862.55 -370.3)">
	<path vector-effect="non-scaling-stroke" d="M992.2,575.7L992.2,575.7l0.5-0.4l0,0L992.2,575.7z"/>
</g>
<g id="w18wg_hSuToTB5KdxilUU" transform="matrix(1 0 0 1 -862.63 -370.3)">
	<path vector-effect="non-scaling-stroke" d="M992.2,575.7L992.2,575.7l0.5-0.4l0,0L992.2,575.7z"/>
</g>
<g id="bgB_r-swSpHGZcYWn5tlG" transform="matrix(1 0 0 1 -862.57 -370.32)">
	<path vector-effect="non-scaling-stroke" d="M992.8,575.3L992.8,575.3l-0.5,0.4L992.8,575.3z"/>
</g>
<g id="NQ2yJZhmZeHwDcwoCNSbp" transform="matrix(1 0 0 1 -793.7 -402.99)">
	<path vector-effect="non-scaling-stroke" d="M976.6,545.7c5.5-3.6,11.3-6.8,17.4-9.4c3-1.3,6.2-2.2,9.4-2.8
		c2.2-0.4,4.4-0.3,6.6,0.1c2.6,0.6,5,1.6,7.3,2.9c8,4.9,6.4,13.9,3.9,21.5c-1.1,3.1-2.5,6-4,8.9c-5.6,11-11.7,21.7-17.8,32.4
		c-3.5,6.5-7.1,13-10.6,19.4l0,0c3.6-5.6,8.1-13.1,11.6-18.8c6.1-10.7,12.3-21.5,17.9-32.4c1.6-2.9,2.9-6,4.1-9.1
		c2-6.2,3.7-13.8-0.6-19.4c-2.6-3.4-6.8-5.2-10.9-6.3c-2.5-0.6-5.1-0.7-7.6-0.3c-10,1.8-18.8,7-27.2,12.3
		c-5.3,3.6-10.4,7.4-15.2,11.6v0.1C965.7,552.7,971.3,549,976.6,545.7z"/>
</g>
<g id="DgCpIqHOHgrqsJO6XnBC8" transform="matrix(1 0 0 1 -797.6 -359.61)">
	<path vector-effect="non-scaling-stroke" d="M992.5,575.5L992.5,575.5L992.5,575.5z"/>
</g>
<g id="Z6AA_lwJ-256Itg7zMugh" transform="matrix(1 0 0 1 -825.91 -421.82)">
	<path vector-effect="non-scaling-stroke" d="M992.4,575.6l0.3-0.2C992.5,575.4,992.4,575.5,992.4,575.6z"/>
</g>
<g id="YMee7dpM68VI-XLWsr88B" transform="matrix(1 0 0 1 -825.79 -421.89)">
	<path vector-effect="non-scaling-stroke" d="M992.2,575.7l0.5-0.4l0,0L992.2,575.7z"/>
</g>
<g id="_2tdplGunifpCZ3olmmSy" transform="matrix(1 0 0 1 -825.64 -422.05)">
	<path vector-effect="non-scaling-stroke" d="M992.6,575.4l-0.3,0.2C992.5,575.5,992.6,575.4,992.6,575.4z"/>
</g>
<g id="KS5-zwRyOOhfqq7ybEPDt" transform="matrix(1 0 0 1 -825.79 -421.93)">
	<path vector-effect="non-scaling-stroke" d="M992.5,575.5l-0.3,0.2l0.5-0.4v-0.1C992.8,575.3,992.6,575.4,992.5,575.5z"/>
</g>
<g id="VoN4cbYit9CksZ_1-sjVi" transform="matrix(1 0 0 1 -805.44 -372.5)">
	<path vector-effect="non-scaling-stroke" d="M1017.4,600.3c1.5,1.5,2.9,3,4.1,4.7l0.6-0.2l-0.2,0.7l-0.4-0.5
		c-2.2,0.7-4.4,1.2-6.6,1.8c-11,2.6-22.4,3.2-33.6,3c-3.1-0.1-6.3-0.2-9.4-0.5c-1.8-0.2-3.7-0.4-5.6-0.8c-1-0.2-2.1-0.5-3.1-0.8
		c0,0.1,0,0.3-0.1,0.4l-0.3-0.6l0.2,0.1l0.2,0.1c1.7-11.7,4-23.4,8.2-34.5c2-4.9,4.2-9.7,6.3-14.4c0.3-0.6,7.5-17.4,8.1-18.7
		c-1.5,2.9-3,5.8-4.5,8.7l0.7-0.3l0,0h-0.1l-0.6,0.3l0,0c-3.9,7.8-7.6,15.7-10.9,23.8c-3.3,8.5-5.2,17.4-6.9,26.2
		c-0.6,3.1-1.1,6.2-1.5,9.3l0.3,0.2c1.2,0.5,2.5,0.9,3.8,1.1c1.9,0.3,3.8,0.6,5.7,0.8c3.1,0.3,6.4,0.4,9.5,0.5
		c11.3,0.2,22.9-0.4,33.9-3c2.7-0.6,5.3-1.4,7.9-2.5c-0.5-0.6-0.9-1.3-1.5-1.9c-5.5-6.3-13.5-11.7-21.2-15.2l0,0
		C1006.6,591.4,1012.3,595.5,1017.4,600.3z"/>
</g>
<g id="CWyijT1ryZOtX89wb4afA" transform="matrix(1 0 0 1 -798.17 -359.87)">
	<path vector-effect="non-scaling-stroke" d="M993.1,575.8L993.1,575.8l-1.1-0.5L993.1,575.8z"/>
</g>
<g id="_x35_4L49D5muNYFC4mniHY_x5F_d" transform="matrix(1 0 0 1 -797.6 -359.62)">
	<path vector-effect="non-scaling-stroke" d="M992.5,575.5L992.5,575.5L992.5,575.5L992.5,575.5z"/>
</g>
<g id="a_Xt5eK2-Ujn_dsqYODVF" transform="matrix(1 0 0 1 -776.18 -342.88)">
	<path vector-effect="non-scaling-stroke" d="M992.8,575.1l-0.6,0.2l0.4,0.5L992.8,575.1z"/>
</g>
<g id="kU5JAR1EWXTs6rTbTHMRs" transform="matrix(1 0 0 1 -834.91 -340.22)">
	<path vector-effect="non-scaling-stroke" d="M992.3,575.2l0.3,0.6c0-0.2,0-0.3,0.1-0.4l-0.2-0.1L992.3,575.2z"/>
</g>
<g id="_x30_nIjtot0hQWBu6Y3ppwws" transform="matrix(1 0 0 1 -816.34 -399.35)">
	<path vector-effect="non-scaling-stroke" d="M992.9,575.3L992.9,575.3l-0.7,0.3l0,0L992.9,575.3z"/>
</g>
<g id="lvXUZ325jksFz26mgbFPP" transform="matrix(1 0 0 1 -816.37 -399.26)">
	<path vector-effect="non-scaling-stroke" d="M992.8,575.3h0.1l-0.7,0.3l-0.1,0.1l0,0L992.8,575.3z"/>
</g>
<g id="OypYFf2nn82hqNdY_HIRY" transform="matrix(1 0 0 1 -816.04 -399.51)">
	<path vector-effect="non-scaling-stroke" d="M992.5,575.5L992.5,575.5h-0.1H992.5z"/>
</g>
<g id="DGmPN2lZPjytUwU_uaBms" transform="matrix(1 0 0 1 -754.81 -469.89)">
	<path vector-effect="non-scaling-stroke" d="M1028.1,566.4c-9.5,2.1-23.3,5-32.8,7c-6.6,1.3-13.1,2.9-19.6,4.9
		c-8.3,2.6-16.4,5.6-24.5,9h2.2c6.4-2.4,12.9-4.8,19.4-6.9c3-1,6.5-2,9.6-2.8c1.5-0.4,3.4-0.8,4.9-1.2c13.6-3.1,27.4-6.1,40.9-9.7
		c1.8-0.5,4.4-1.3,5.6-2.9h-0.1C1032.4,565.3,1029.9,565.9,1028.1,566.4z"/>
</g>
<g id="t93s81fPiOo3aUS6yshRP" transform="matrix(1 0 0 1 -804.51 -453.9)">
	<path vector-effect="non-scaling-stroke" d="M981.9,579.7c7-2.9,14.1-5.8,21.3-8.5h-2.2C994.5,573.9,988.1,576.8,981.9,579.7z"/>
</g>
<g id="zrC86LKsQtWqbrUYw_hfl" transform="matrix(1 0 0 1 -815.18 -449.63)">
	<path vector-effect="non-scaling-stroke" d="M992.5,575.5L992.5,575.5L992.5,575.5L992.5,575.5z"/>
</g>
<g id="dxvV7a7SL8e-x4Va8hYZv" transform="matrix(1 0 0 1 -715.46 -504.31)">
	<path vector-effect="non-scaling-stroke" d="M994.6,575.4c-0.1-1.1-1-2-2.1-2s-2,0.9-2.1,2c0,0.1,0,0.2,0,0.3
		c0.8-0.1,1.7,0.1,2.4,0.6c0.4,0.3,0.6,0.7,0.6,1.2C994.1,577,994.5,576.2,994.6,575.4z"/>
</g>
<g id="HgrOBy21VYbVUmIZsXwnX" transform="matrix(1 0 0 1 -716 -503.08)">
	<path vector-effect="non-scaling-stroke" d="M993.4,575.1c-0.7-0.5-1.6-0.7-2.4-0.6c0.2,0.9,1.5,1,2,1.8c0.3,0.3,0.7,0.3,1,0
		C994,575.8,993.8,575.4,993.4,575.1z"/>
</g>
<g id="jgpJaR33sd1G4Sg4ZUGTS" transform="matrix(1 0 0 1 -710.61 -504.38)">
	<path vector-effect="non-scaling-stroke" d="M990.4,575.5c0-1.1,0.9-2.1,2.1-2.1s2.1,0.9,2.1,2.1s-0.9,2.1-2.1,2.1
		S990.4,576.6,990.4,575.5z"/>
</g>
<g id="ROqCX8WAjLYgQAH3DIK23" transform="matrix(1 0 0 1 -708 -500.25)">
	<path vector-effect="non-scaling-stroke" d="M990.4,575.5c0-1.1,0.9-2.1,2.1-2.1s2.1,0.9,2.1,2.1s-0.9,2.1-2.1,2.1
		S990.4,576.6,990.4,575.5z"/>
</g>
<g id="_x38_t9_x5F_yXOieeaFJM3RUh_x5F_zM" transform="matrix(1 0 0 1 -710.61 -496.11)">
	<path vector-effect="non-scaling-stroke" d="M990.4,575.5c0-1.1,0.9-2.1,2.1-2.1s2.1,0.9,2.1,2.1s-0.9,2.1-2.1,2.1
		S990.4,576.6,990.4,575.5z"/>
</g>
<g id="_x30_HwLs4oGbxT8H61r4mGwz" transform="matrix(1 0 0 1 -715.45 -496.11)">
	<path vector-effect="non-scaling-stroke" d="M990.4,575.5c0-1.1,0.9-2.1,2.1-2.1s2.1,0.9,2.1,2.1s-0.9,2.1-2.1,2.1
		S990.4,576.6,990.4,575.5z"/>
</g>
<g id="U_11U_J6iTwbiXsUW-wMX" transform="matrix(1 0 0 1 -713.11 -508.47)">
	<path vector-effect="non-scaling-stroke" d="M992.5,576.8c0.7,0,1.3-0.6,1.3-1.3c0-0.7-0.6-1.3-1.3-1.3c-0.7,0-1.3,0.6-1.3,1.3
		c0,0.3,0.1,0.7,0.4,0.9C991.8,576.6,992.2,576.8,992.5,576.8z"/>
</g>
<g id="_x38_ZnYIvZkE1wcMrYxDdSvX" transform="matrix(1 0 0 1 -705.59 -504.36)">
	<path vector-effect="non-scaling-stroke" d="M991.2,575.5c0,0.5,0.3,1,0.8,1.2c0.5,0.2,1,0.1,1.4-0.3c0.4-0.4,0.5-0.9,0.3-1.4
		c-0.2-0.5-0.7-0.8-1.2-0.8C991.8,574.2,991.2,574.8,991.2,575.5z"/>
</g>
<g id="Z4uDKAl1qEsgN_aJlqHJi" transform="matrix(1 0 0 1 -705.62 -496.11)">
	<path vector-effect="non-scaling-stroke" d="M992.5,574.2c-0.7,0-1.3,0.6-1.3,1.3c0,0.7,0.6,1.3,1.3,1.3s1.3-0.6,1.3-1.3
		c0-0.3-0.1-0.7-0.4-0.9C993.2,574.3,992.8,574.2,992.5,574.2z"/>
</g>
<g id="p-EAZMNxhSmjEHbP2VfBj" transform="matrix(1 0 0 1 -720.39 -504.52)">
	<path vector-effect="non-scaling-stroke" d="M992.5,574.4c-0.3,0-0.7,0.1-0.9,0.4c-0.2,0.2-0.4,0.6-0.4,0.9c0,0.4,0.2,0.8,0.5,1
		c0.7-0.2,1.3-0.3,2-0.5c0.1-0.2,0.1-0.3,0.1-0.5c0-0.3-0.1-0.7-0.4-0.9C993.2,574.5,992.8,574.3,992.5,574.4z"/>
</g>
<g id="XNIh9zzQO8S-FzPgcZLy0" transform="matrix(1 0 0 1 -720.23 -503.47)">
	<path vector-effect="non-scaling-stroke" d="M992.3,575.9c0.5,0,1-0.3,1.2-0.8c-0.7,0.1-1.3,0.3-2,0.5
		C991.7,575.8,992,575.9,992.3,575.9z"/>
</g>
<g id="eIOy8WIbVo-1KepJ2cchz" transform="matrix(1 0 0 1 -712.69 -491.93)">
	<path vector-effect="non-scaling-stroke" d="M992.5,574.2c-0.7,0-1.3,0.6-1.3,1.3s0.6,1.3,1.3,1.3c0.7,0,1.3-0.6,1.3-1.3
		c0-0.3-0.1-0.7-0.4-0.9C993.2,574.3,992.8,574.2,992.5,574.2z"/>
</g>
<g id="OeAwB0vCbiGd8LBTygHcQ" transform="matrix(1 0 0 1 -707.36 -491.07)">
	<path vector-effect="non-scaling-stroke" d="M991.3,575.5c0-0.6,0.5-1.2,1.2-1.2s1.2,0.5,1.2,1.2s-0.5,1.2-1.2,1.2
		S991.3,576.1,991.3,575.5z"/>
</g>
<g id="piy_8BuLr6CWa9lB6tXIz" transform="matrix(1 0 0 1 -701.99 -500.22)">
	<path vector-effect="non-scaling-stroke" d="M991.3,575.5c0-0.6,0.5-1.2,1.2-1.2s1.2,0.5,1.2,1.2s-0.5,1.2-1.2,1.2
		S991.3,576.1,991.3,575.5z"/>
</g>
<g id="FB9CXZoW97LYYHn2v2d6v" transform="matrix(1 0 0 1 -707.65 -509.41)">
	<path vector-effect="non-scaling-stroke" d="M991.3,575.5c0-0.6,0.5-1.2,1.2-1.2s1.2,0.5,1.2,1.2s-0.5,1.2-1.2,1.2
		S991.3,576.1,991.3,575.5z"/>
</g>
<g id="_x2D_5NyS9kfuO0zzhleRy1Lf" transform="matrix(1 0 0 1 -718.5 -509.41)">
	<path vector-effect="non-scaling-stroke" d="M991.3,575.5c0-0.6,0.5-1.2,1.2-1.2s1.2,0.5,1.2,1.2s-0.5,1.2-1.2,1.2
		S991.3,576.1,991.3,575.5z"/>
</g>
<g id="HnVb-u9MJ_9oiI6tS31ub" transform="matrix(1 0 0 1 -718.5 -491.07)">
	<path vector-effect="non-scaling-stroke" d="M991.3,575.5c0-0.6,0.5-1.2,1.2-1.2s1.2,0.5,1.2,1.2s-0.5,1.2-1.2,1.2
		S991.3,576.1,991.3,575.5z"/>
</g>
<g id="JnX-_2QhAVhZUExo_W4iI" transform="matrix(1 0 0 1 -705.64 -512.62)">
	<path vector-effect="non-scaling-stroke" d="M992.5,576.4c0.5,0,0.9-0.4,0.9-0.9c0-0.5-0.4-0.9-0.9-0.9s-0.9,0.4-0.9,0.9
		c0,0.2,0.1,0.5,0.3,0.6C992.1,576.3,992.3,576.4,992.5,576.4z"/>
</g>
<g id="_O9t7Xgk_4lwoZv6EDvJc" transform="matrix(1 0 0 1 -713.11 -513.16)">
	<path vector-effect="non-scaling-stroke" d="M992.5,576.4c0.5,0,0.9-0.4,0.9-0.9s-0.4-0.9-0.9-0.9c-0.5,0-0.9,0.4-0.9,0.9
		C991.6,576,992,576.4,992.5,576.4z"/>
</g>
<g id="_x39_UQXBvMvS9dJ_x5F_hf9l9he_x5F_" transform="matrix(1 0 0 1 -720.41 -512.62)">
	<path vector-effect="non-scaling-stroke" d="M992.5,576.4c0.5,0,0.9-0.4,0.9-0.9c0-0.5-0.4-0.9-0.9-0.9c-0.5,0-0.9,0.4-0.9,0.9
		C991.6,576,992,576.4,992.5,576.4z"/>
</g>
<g id="t8Yd6mmxoCTeu6PbZPQHJ" transform="matrix(1 0 0 1 -724.62 -506.53)">
	<path vector-effect="non-scaling-stroke" d="M993.4,575.5c0-0.5-0.4-0.9-0.9-0.9s-0.9,0.4-0.9,0.9c0,0.5,0.4,0.9,0.9,0.9
		S993.4,576,993.4,575.5z"/>
</g>
<g id="GaeKazdMTEpxeiEGUVfxH" transform="matrix(1 0 0 1 -701.37 -506.75)">
	<path vector-effect="non-scaling-stroke" d="M992.5,576.4c0.5,0,0.9-0.4,0.9-0.9c0-0.5-0.4-0.9-0.9-0.9s-0.9,0.4-0.9,0.9
		c0,0.2,0.1,0.5,0.3,0.6C992.1,576.3,992.3,576.4,992.5,576.4z"/>
</g>
<g id="pXtIQUwDhMLr_5M4Z0EIX" transform="matrix(1 0 0 1 -698.02 -500.24)">
	<path vector-effect="non-scaling-stroke" d="M992.5,576.4c0.5,0,0.9-0.4,0.9-0.9c0-0.5-0.4-0.9-0.9-0.9s-0.9,0.4-0.9,0.9
		C991.6,576,992,576.4,992.5,576.4z"/>
</g>
<g id="LAVchwcik22eZ-Ks6uiAT" transform="matrix(1 0 0 1 -701.35 -493.67)">
	<path vector-effect="non-scaling-stroke" d="M992.5,574.6c-0.5,0-0.9,0.4-0.9,0.9s0.4,0.9,0.9,0.9c0.5,0,0.9-0.4,0.9-0.9
		C993.4,575,993,574.6,992.5,574.6z"/>
</g>
<g id="rRElDDW2Yr2mtj31sJXWr" transform="matrix(1 0 0 1 -705.62 -487.61)">
	<path vector-effect="non-scaling-stroke" d="M992.5,574.6c-0.5,0-0.9,0.4-0.9,0.9c0,0.5,0.4,0.9,0.9,0.9s0.9-0.4,0.9-0.9
		c0-0.2-0.1-0.5-0.3-0.6C992.9,574.7,992.7,574.6,992.5,574.6z"/>
</g>
<g id="mY3S5z8S2vdTJxwm0046e" transform="matrix(1 0 0 1 -713.09 -487.04)">
	<path vector-effect="non-scaling-stroke" d="M992.5,574.6c-0.5,0-0.9,0.4-0.9,0.9s0.4,0.9,0.9,0.9c0.5,0,0.9-0.4,0.9-0.9
		c0-0.2-0.1-0.5-0.3-0.6C992.9,574.7,992.7,574.6,992.5,574.6z"/>
</g>
<g id="oc1weLL5Qjd0uLxDPHaK5" transform="matrix(1 0 0 1 -720.39 -487.61)">
	<path vector-effect="non-scaling-stroke" d="M992.5,574.6c-0.5,0-0.9,0.4-0.9,0.9c0,0.5,0.4,0.9,0.9,0.9s0.9-0.4,0.9-0.9
		c0-0.2-0.1-0.5-0.3-0.6C992.9,574.7,992.7,574.6,992.5,574.6z"/>
</g>
</svg>
