<?xml version="1.0" encoding="UTF-8" standalone="no" ?>
<!DOCTYPE svg PUBLIC "-//W3C//DTD SVG 1.1//EN" "http://www.w3.org/Graphics/SVG/1.1/DTD/svg11.dtd">
<svg xmlns="http://www.w3.org/2000/svg" xmlns:xlink="http://www.w3.org/1999/xlink" version="1.1" width="46" height="46" viewBox="176 -131 46 46" xml:space="preserve">
<desc>Created with Fabric.js 4.6.0</desc>
<defs>
</defs>
<g transform="matrix(0 0 0 0 199 -108)" id="K9hLk9CazFG7c4JNq0IYd"  >
<path style="stroke: none; stroke-width: 1; stroke-dasharray: none; stroke-linecap: butt; stroke-dashoffset: 0; stroke-linejoin: miter; stroke-miterlimit: 4; fill: rgb(255,255,255); fill-rule: nonzero; opacity: 1;" vector-effect="non-scaling-stroke"  transform=" translate(0, 0)" d="M 0.00005 0.00006 C 0.00004 0.00006 0.00004 0.00007000000000000001 0.00004 0.00007000000000000001 L 0.00004 0.00004000000000000001 C 0.00004 0.00004000000000000001 0.00006000000000000001 0.00005000000000000001 0.00008 0.00003000000000000001 C 0.00009 0.000020000000000000012 0.00009 1.0164395367051604e-20 0.00009 1.0164395367051604e-20 C 0.00009 1.0164395367051604e-20 0.00006000000000000001 1.0164395367051604e-20 0.00005 0.000010000000000000011 C 0.00003 0.000020000000000000012 0.00004 0.00003000000000000001 0.00004 0.00003000000000000001 L 0.00004 0.00004000000000000001 C 0.00004 0.00004000000000000001 0.00004 0.00003000000000000001 0.000030000000000000004 0.00003000000000000001 C 0.000020000000000000005 0.000020000000000000012 3.3881317890172014e-21 0.00003000000000000001 3.3881317890172014e-21 0.00003000000000000001 C 3.3881317890172014e-21 0.00003000000000000001 3.3881317890172014e-21 0.00004000000000000001 0.000020000000000000005 0.00005000000000000001 C 0.00004000000000000001 0.00006000000000000001 0.00005000000000000001 0.00005000000000000001 0.00005000000000000001 0.00005000000000000001 L 0.00005000000000000001 0.00005000000000000001 L 0.00005000000000000001 0.00010000000000000002 L 0.00005000000000000001 0.00010000000000000002 L 0.00005000000000000001 0.00007000000000000002 L 0.00005000000000000001 0.00007000000000000002 C 0.00005000000000000001 0.00007000000000000002 0.00006000000000000001 0.00008000000000000002 0.00008 0.00007000000000000002 C 0.00009 0.00007000000000000002 0.00009 0.00005000000000000002 0.00009 0.00005000000000000002 C 0.00009 0.00005000000000000002 0.00007000000000000001 0.00005000000000000002 0.00006000000000000001 0.00005000000000000002" stroke-linecap="round" />
</g>
<g transform="matrix(0.17 0 0 0.17 199 -109)" id="isXrtAUVO110S5JaZvYKt"  >
<path style="stroke: none; stroke-width: 1; stroke-dasharray: none; stroke-linecap: butt; stroke-dashoffset: 0; stroke-linejoin: miter; stroke-miterlimit: 4; fill: rgb(255,255,255); fill-rule: nonzero; opacity: 1;" vector-effect="non-scaling-stroke"  transform=" translate(-111.58, -322.49)" d="M 90.7 383.9 L 95.5 410.29999999999995 C 95.5 410.29999999999995 69 407.49999999999994 45.7 383.09999999999997 C 28.6 365.59999999999997 24.300000000000004 343.09999999999997 24.300000000000004 343.09999999999997 C 24.300000000000004 343.09999999999997 10.6 294.5 51 257.5 C 77.5 232.7 111.6 234.2 111.6 234.2 C 111.6 234.2 150.89999999999998 232.1 179.1 264.8 C 205.79999999999998 295 200.7 330.20000000000005 200.7 330.20000000000005 C 200.7 330.20000000000005 200.7 356.20000000000005 179.1 381.1 C 154.7 408.20000000000005 124.3 410.8 124.3 410.8 L 129.4 383.8 L 147.6 364.3 C 147.6 364.3 164.1 349.8 165.7 330.1 C 169.29999999999998 300.1 149.5 283.40000000000003 149.5 283.40000000000003 C 149.5 283.40000000000003 133.5 266.50000000000006 109 267.50000000000006 C 85.8 267.6000000000001 71.2 283.50000000000006 71.2 283.50000000000006 C 71.2 283.50000000000006 55.1 297.50000000000006 54.7 322.30000000000007 C 54.300000000000004 342.20000000000005 68.8 359.30000000000007 68.8 359.30000000000007 L 90.7 383.9 z" stroke-linecap="round" />
</g>
<g transform="matrix(0.17 0 0 0.17 198.5 -105)" id="keWc5HVlYxJ-akVfCikVG"  >
<path style="stroke: none; stroke-width: 1; stroke-dasharray: none; stroke-linecap: butt; stroke-dashoffset: 0; stroke-linejoin: miter; stroke-miterlimit: 4; fill: rgb(255,255,255); fill-rule: nonzero; opacity: 1;" vector-effect="non-scaling-stroke"  transform=" translate(-110.44, -338.05)" d="M 118 347.1 C 113.1 350.6 111.7 353.8 111.4 356.1 L 111.4 324.1 C 111.4 324.1 121.2 329.3 131.20000000000002 315.1 C 137.70000000000002 305.90000000000003 136.10000000000002 292 136.10000000000002 292 C 136.10000000000002 292 122.00000000000003 294 115.00000000000003 302.8 C 106.50000000000003 314.6 109.50000000000003 320.90000000000003 109.50000000000003 320.90000000000003 L 109.50000000000003 334.70000000000005 C 108.90000000000003 332.30000000000007 107.10000000000002 329.1 102.30000000000003 325.70000000000005 C 94.70000000000003 320.00000000000006 84.60000000000002 321.50000000000006 84.60000000000002 321.50000000000006 C 84.60000000000002 321.50000000000006 86.60000000000002 332.1000000000001 92.70000000000002 337.1000000000001 C 103.70000000000002 345.30000000000007 109.10000000000002 339.6000000000001 109.10000000000002 339.6000000000001 C 109.10000000000002 339.6000000000001 109.30000000000003 339.2000000000001 109.50000000000003 338.50000000000006 L 109.50000000000003 384.1000000000001 L 111.40000000000003 384.1000000000001 L 111.40000000000003 357.80000000000007 C 111.50000000000003 359.00000000000006 111.90000000000003 359.6000000000001 111.90000000000003 359.6000000000001 C 111.90000000000003 359.6000000000001 116.70000000000003 364.7000000000001 126.60000000000004 357.4000000000001 C 132.00000000000003 353.0000000000001 133.80000000000004 343.4000000000001 133.80000000000004 343.4000000000001 C 133.80000000000004 343.4000000000001 124.8 342 118 347.1" stroke-linecap="round" />
</g>
<g transform="matrix(0.79 0 0 0.79 199 -108)" id="lwzuIRNXsjXxHwhmViTBA"  >
<path style="stroke: rgb(255,255,255); stroke-width: 4; stroke-dasharray: none; stroke-linecap: butt; stroke-dashoffset: 0; stroke-linejoin: miter; stroke-miterlimit: 4; fill: none; fill-rule: nonzero; opacity: 1;" vector-effect="non-scaling-stroke"  transform=" translate(0, 0)" d="M -26.5 -15.257 C -26.5 -21.46634 -21.46634 -26.5 -15.257 -26.5 L 15.257 -26.5 L 15.257 -26.5 C 21.46634 -26.5 26.5 -21.46634 26.5 -15.257 L 26.5 15.257 L 26.5 15.257 C 26.5 21.46634 21.46634 26.5 15.257 26.5 L -15.257 26.5 L -15.257 26.5 C -21.46634 26.5 -26.5 21.46634 -26.5 15.257 z" stroke-linecap="round" />
</g>
</svg>