<?xml version="1.0" encoding="UTF-8" standalone="no" ?>
<!DOCTYPE svg PUBLIC "-//W3C//DTD SVG 1.1//EN" "http://www.w3.org/Graphics/SVG/1.1/DTD/svg11.dtd">
<svg xmlns="http://www.w3.org/2000/svg" xmlns:xlink="http://www.w3.org/1999/xlink" version="1.1" width="85.10963428012508" height="85.10923302594995" viewBox="109.99625341911383 164.89076697405005 85.10963428012508 85.10923302594995" xml:space="preserve">
<desc>Created with Fabric.js 4.6.0</desc>
<defs>
</defs>
<g transform="matrix(0.67 0 0 0.67 152.62 188.15)" id="yleO7HhOW0XlAZhc6ZXli"  >
<path style="stroke: none; stroke-width: 1; stroke-dasharray: none; stroke-linecap: butt; stroke-dashoffset: 0; stroke-linejoin: miter; stroke-miterlimit: 4; fill: rgb(255,255,255); fill-rule: nonzero; opacity: 1;" vector-effect="non-scaling-stroke"  transform=" translate(-125.05, -96.3)" d="M 132.6 90.4 C 130.7 88.9 128.1 88.2 125 88.2 C 121.9 88.2 119.4 88.9 117.5 90.4 C 115.5 91.9 114.6 93.80000000000001 114.6 96.2 C 114.6 98.5 115.6 100.4 117.5 102 C 119.5 103.6 122 104.4 125 104.4 C 128.1 104.4 130.6 103.60000000000001 132.6 102.10000000000001 C 134.5 100.60000000000001 135.5 98.60000000000001 135.5 96.2 C 135.5 93.9 134.5 91.9 132.6 90.4 z" stroke-linecap="round" />
</g>
<g transform="matrix(0.67 0 0 0.67 152.62 215.02)" id="FUE-Od-Zz5Shbv29jPIvW"  >
<path style="stroke: none; stroke-width: 1; stroke-dasharray: none; stroke-linecap: butt; stroke-dashoffset: 0; stroke-linejoin: miter; stroke-miterlimit: 4; fill: rgb(255,255,255); fill-rule: nonzero; opacity: 1;" vector-effect="non-scaling-stroke"  transform=" translate(-125.05, -136.2)" d="M 128.6 110.5 L 121.5 110.5 C 119.1 110.5 117.1 112.5 117.1 114.9 L 117.1 157.5 C 117.1 159.9 119.1 161.9 121.5 161.9 L 128.6 161.9 C 131 161.9 133 159.9 133 157.5 L 133 114.9 C 132.9 112.5 131 110.5 128.6 110.5 z" stroke-linecap="round" />
</g>
<g transform="matrix(0.67 0 0 0.67 152.55 207.45)" id="uzx-0Tvz9bdPDeIEfsDQi"  >
<path style="stroke: none; stroke-width: 1; stroke-dasharray: none; stroke-linecap: butt; stroke-dashoffset: 0; stroke-linejoin: miter; stroke-miterlimit: 4; fill: rgb(255,255,255); fill-rule: nonzero; opacity: 1;" vector-effect="non-scaling-stroke"  transform=" translate(-124.95, -124.95)" d="M 159.7 62.5 L 90.3 62.5 C 75 62.5 62.5 75 62.5 90.3 L 62.5 159.6 C 62.5 175 75 187.4 90.3 187.4 L 159.6 187.4 C 175 187.4 187.4 174.9 187.4 159.6 L 187.4 90.3 C 187.5 75 175 62.5 159.7 62.5 z M 177.3 159.7 C 177.3 169.39999999999998 169.4 177.29999999999998 159.70000000000002 177.29999999999998 L 90.3 177.29999999999998 C 80.6 177.29999999999998 72.69999999999999 169.39999999999998 72.69999999999999 159.7 L 72.69999999999999 90.3 C 72.69999999999999 80.6 80.6 72.69999999999999 90.29999999999998 72.69999999999999 L 159.59999999999997 72.69999999999999 C 169.29999999999995 72.69999999999999 177.19999999999996 80.6 177.19999999999996 90.29999999999998 L 177.19999999999996 159.7 z" stroke-linecap="round" />
</g>
</svg>