<?xml version="1.0" encoding="UTF-8" standalone="no" ?>
<!DOCTYPE svg PUBLIC "-//W3C//DTD SVG 1.1//EN" "http://www.w3.org/Graphics/SVG/1.1/DTD/svg11.dtd">
<svg xmlns="http://www.w3.org/2000/svg" xmlns:xlink="http://www.w3.org/1999/xlink" version="1.1" width="1112.1599999999999" height="325.4060768057187" viewBox="-323.175744680851 125.8063055276449 1112.1599999999999 325.4060768057187" xml:space="preserve">
<desc>Created with Fabric.js 4.6.0</desc>
<defs>
</defs>
<g transform="matrix(0.35 0 0 0.35 250 234.92)" id="TlGF42_EV5bHxPEUCoS3b"  >
<path style="stroke: none; stroke-width: 1; stroke-dasharray: none; stroke-linecap: butt; stroke-dashoffset: 0; stroke-linejoin: miter; stroke-miterlimit: 4; fill: rgb(1,0,0); fill-rule: evenodd; opacity: 0.93;" vector-effect="non-scaling-stroke"  transform=" translate(-351.5, -306)" d="M 280.5 -0.5 C 297.5 -0.5 314.5 -0.5 331.5 -0.5 C 455.57 15.018 542.904 79.8513 593.5 194 C 624.894 206.397 651.061 199.564 672 173.5 C 678.212 164.777 683.379 155.444 687.5 145.5 C 694.725 165.07 700.058 185.07 703.5 205.5 C 703.5 212.5 703.5 219.5 703.5 226.5 C 696.496 255 678.496 272.167 649.5 278 C 637.291 280.554 624.957 282.054 612.5 282.5 C 612.515 290.196 613.015 297.862 614 305.5 C 629.818 312.348 644.318 321.182 657.5 332 C 672.086 347.842 680.42 366.509 682.5 388 C 682.024 397.787 678.858 406.621 673 414.5 C 661.5 431.333 647.333 445.5 630.5 457 C 619.592 463.038 608.092 467.538 596 470.5 C 595.167 470.167 594.333 469.833 593.5 469.5 C 605.41 451.457 605.41 433.457 593.5 415.5 C 558.888 500.612 498.888 560.112 413.5 594 C 386.761 603.444 359.428 609.611 331.5 612.5 C 314.5 612.5 297.5 612.5 280.5 612.5 C 172.849 600.123 91.6827 547.457 37 454.5 C 15.871 415.292 3.37104 373.625 -0.5 329.5 C -0.5 313.833 -0.5 298.167 -0.5 282.5 C 11.2967 174.009 63.9634 92.1757 157.5 37 C 196.113 16.2695 237.113 3.7695 280.5 -0.5 Z" stroke-linecap="round" />
</g>
<g transform="matrix(0.35 0 0 0.35 198.44 149.86)" id="vSrstqoSP9aTuhFi75asN"  >
<path style="stroke: none; stroke-width: 1; stroke-dasharray: none; stroke-linecap: butt; stroke-dashoffset: 0; stroke-linejoin: miter; stroke-miterlimit: 4; fill: rgb(191,191,191); fill-rule: evenodd; opacity: 1;" vector-effect="non-scaling-stroke"  transform=" translate(-206, -65.97)" d="M 321.5 9.5 C 323.631 10.3138 325.964 10.8138 328.5 11 C 270.43 18.7102 217.764 39.7102 170.5 74 C 152.328 86.8303 135.328 101.164 119.5 117 C 116.935 119.08 114.268 120.913 111.5 122.5 C 105.09 120.363 98.7564 118.03 92.5 115.5 C 90.847 115.34 89.5137 114.674 88.5 113.5 C 88.0269 112.094 87.0269 111.427 85.5 111.5 C 84.5084 111.672 83.8417 111.338 83.5 110.5 C 135.579 51.9565 200.912 18.4565 279.5 10 C 293.496 9.50009 307.496 9.33343 321.5 9.5 Z" stroke-linecap="round" />
</g>
<g transform="matrix(0.35 0 0 0.35 237.95 155.06)" id="oAMxkR7WvBYefI1G92pmQ"  >
<path style="stroke: none; stroke-width: 1; stroke-dasharray: none; stroke-linecap: butt; stroke-dashoffset: 0; stroke-linejoin: miter; stroke-miterlimit: 4; fill: rgb(52,52,52); fill-rule: evenodd; opacity: 1;" vector-effect="non-scaling-stroke"  transform=" translate(-317.5, -80.63)" d="M 321.5 9.5 C 391.718 14.277 453.052 39.777 505.5 86 C 512.096 92.0899 518.096 98.5899 523.5 105.5 C 522.395 106.6 521.062 107.267 519.5 107.5 C 474.013 128.29 426.346 141.457 376.5 147 C 301.826 155.96 227.826 152.293 154.5 136 C 139.72 132.562 125.387 128.062 111.5 122.5 C 114.268 120.913 116.935 119.08 119.5 117 C 135.328 101.164 152.328 86.8303 170.5 74 C 217.764 39.7102 270.43 18.7102 328.5 11 C 325.964 10.8138 323.631 10.3138 321.5 9.5 Z" stroke-linecap="round" />
</g>
<g transform="matrix(0.35 0 0 0.35 236 185.93)" id="qJemuHvcdTjKwiQbDN6nk"  >
<path style="stroke: none; stroke-width: 1; stroke-dasharray: none; stroke-linecap: butt; stroke-dashoffset: 0; stroke-linejoin: miter; stroke-miterlimit: 4; fill: rgb(128,21,24); fill-rule: evenodd; opacity: 1;" vector-effect="non-scaling-stroke"  transform=" translate(-312, -167.76)" d="M 523.5 105.5 C 535.9 117.416 546.734 130.75 556 145.5 C 557.122 147.407 557.955 149.407 558.5 151.5 C 555.883 152.786 553.55 154.453 551.5 156.5 C 458.608 213.664 357.608 237.497 248.5 228 C 184.158 222.169 123.158 205.002 65.5 176.5 C 69.168 171.993 72.668 167.327 76 162.5 C 87.3974 149.942 98.5641 137.276 109.5 124.5 C 141.457 138.657 174.79 148.157 209.5 153 C 287.309 164.381 364.309 160.381 440.5 141 C 468.591 133.611 494.925 122.444 519.5 107.5 C 521.062 107.267 522.395 106.6 523.5 105.5 Z" stroke-linecap="round" />
</g>
<g transform="matrix(0.35 0 0 0.35 152.73 177.33)" id="BQD7fjJlDr5L4PiYMWLw2"  >
<path style="stroke: none; stroke-width: 1; stroke-dasharray: none; stroke-linecap: butt; stroke-dashoffset: 0; stroke-linejoin: miter; stroke-miterlimit: 4; fill: rgb(175,20,50); fill-rule: evenodd; opacity: 1;" vector-effect="non-scaling-stroke"  transform=" translate(-77, -143.5)" d="M 83.5 110.5 C 83.8417 111.338 84.5084 111.672 85.5 111.5 C 85.9731 112.906 86.9731 113.573 88.5 113.5 C 89.5137 114.674 90.847 115.34 92.5 115.5 C 97.6883 119.263 103.355 122.263 109.5 124.5 C 98.5641 137.276 87.3974 149.942 76 162.5 C 72.668 167.327 69.168 171.993 65.5 176.5 C 62.1667 175.167 58.8333 173.833 55.5 172.5 C 54.3406 170.75 52.674 169.75 50.5 169.5 C 48.5 168.5 46.5 167.5 44.5 166.5 C 55.0386 146.079 68.0386 127.412 83.5 110.5 Z" stroke-linecap="round" />
</g>
<g transform="matrix(0.35 0 0 0.35 156.27 166.35)" id="Dt-QaGS9bgyWBZIMAxLjU"  >
<path style="stroke: none; stroke-width: 1; stroke-dasharray: none; stroke-linecap: butt; stroke-dashoffset: 0; stroke-linejoin: miter; stroke-miterlimit: 4; fill: rgb(68,50,51); fill-rule: evenodd; opacity: 1;" vector-effect="non-scaling-stroke"  transform=" translate(-87, -112.5)" d="M 85.5 111.5 C 87.0269 111.427 88.0269 112.094 88.5 113.5 C 86.9731 113.573 85.9731 112.906 85.5 111.5 Z" stroke-linecap="round" />
</g>
<g transform="matrix(0.35 0 0 0.35 233.88 173.76)" id="DzlqagHKYdmHo3n13aWTk"  >
<path style="stroke: none; stroke-width: 1; stroke-dasharray: none; stroke-linecap: butt; stroke-dashoffset: 0; stroke-linejoin: miter; stroke-miterlimit: 4; fill: rgb(7,2,2); fill-rule: evenodd; opacity: 1;" vector-effect="non-scaling-stroke"  transform=" translate(-306, -133.41)" d="M 519.5 107.5 C 494.925 122.444 468.591 133.611 440.5 141 C 364.309 160.381 287.309 164.381 209.5 153 C 174.79 148.157 141.457 138.657 109.5 124.5 C 103.355 122.263 97.6883 119.263 92.5 115.5 C 98.7564 118.03 105.09 120.363 111.5 122.5 C 125.387 128.062 139.72 132.562 154.5 136 C 227.826 152.293 301.826 155.96 376.5 147 C 426.346 141.457 474.013 128.29 519.5 107.5 Z" stroke-linecap="round" />
</g>
<g transform="matrix(0.35 0 0 0.35 234 258.86)" id="VPg3ckg6E-RRG10gfoJFD"  >
<path style="stroke: none; stroke-width: 1; stroke-dasharray: none; stroke-linecap: butt; stroke-dashoffset: 0; stroke-linejoin: miter; stroke-miterlimit: 4; fill: rgb(51,51,51); fill-rule: evenodd; opacity: 1;" vector-effect="non-scaling-stroke"  transform=" translate(-306.35, -373.56)" d="M 558.5 151.5 C 583.84 191.019 598.34 234.353 602 281.5 C 605.053 315.58 601.886 348.913 592.5 381.5 C 556.596 430.91 514.596 474.743 466.5 513 C 421.269 548.614 370.603 573.614 314.5 588 C 290.837 593.733 266.837 596.233 242.5 595.5 C 145.482 571.976 75.9817 514.976 34 424.5 C 9.6933 366.915 3.52663 307.582 15.5 246.5 C 24.0505 234.563 32.5505 221.897 41 208.5 C 48.332 198.34 55.832 188.34 63.5 178.5 C 188.589 244.769 318.255 255.269 452.5 210 C 488.244 196.802 521.244 178.969 551.5 156.5 C 553.55 154.453 555.883 152.786 558.5 151.5 Z" stroke-linecap="round" />
</g>
<g transform="matrix(0.35 0 0 0.35 232.99 196.3)" id="kk3ZSOVvogdwpIWU_TPjk"  >
<path style="stroke: none; stroke-width: 1; stroke-dasharray: none; stroke-linecap: butt; stroke-dashoffset: 0; stroke-linejoin: miter; stroke-miterlimit: 4; fill: rgb(5,2,2); fill-rule: evenodd; opacity: 1;" vector-effect="non-scaling-stroke"  transform=" translate(-303.5, -197.03)" d="M 551.5 156.5 C 521.244 178.969 488.244 196.802 452.5 210 C 318.255 255.269 188.589 244.769 63.5 178.5 C 60.8333 176.5 58.1667 174.5 55.5 172.5 C 58.8333 173.833 62.1667 175.167 65.5 176.5 C 123.158 205.002 184.158 222.169 248.5 228 C 357.608 237.497 458.608 213.664 551.5 156.5 Z" stroke-linecap="round" />
</g>
<g transform="matrix(0.35 0 0 0.35 352.94 198.01)" id="xq-OnVx0fnUfQgVs-OT2p"  >
<path style="stroke: none; stroke-width: 1; stroke-dasharray: none; stroke-linecap: butt; stroke-dashoffset: 0; stroke-linejoin: miter; stroke-miterlimit: 4; fill: rgb(176,20,50); fill-rule: evenodd; opacity: 1;" vector-effect="non-scaling-stroke"  transform=" translate(-642, -201.86)" d="M 691.5 184.5 C 687.814 203.377 678.148 218.544 662.5 230 C 643.924 239.488 624.59 241.655 604.5 236.5 C 601.822 222.961 597.822 209.794 592.5 197 C 632.791 213.788 663.957 202.955 686 164.5 C 688.146 171.052 689.979 177.719 691.5 184.5 Z" stroke-linecap="round" />
</g>
<g transform="matrix(0.35 0 0 0.35 139.44 199.66)" id="qXcFbwJmgmDfzKiJpNpHh"  >
<path style="stroke: none; stroke-width: 1; stroke-dasharray: none; stroke-linecap: butt; stroke-dashoffset: 0; stroke-linejoin: miter; stroke-miterlimit: 4; fill: rgb(189,189,189); fill-rule: evenodd; opacity: 1;" vector-effect="non-scaling-stroke"  transform=" translate(-39.5, -206.5)" d="M 44.5 166.5 C 46.5 167.5 48.5 168.5 50.5 169.5 C 51.6594 171.25 53.326 172.25 55.5 172.5 C 58.1667 174.5 60.8333 176.5 63.5 178.5 C 55.832 188.34 48.332 198.34 41 208.5 C 32.5505 221.897 24.0505 234.563 15.5 246.5 C 20.8311 218.166 30.4978 191.499 44.5 166.5 Z" stroke-linecap="round" />
</g>
<g transform="matrix(0.35 0 0 0.35 144.22 187.08)" id="Tie0RJ00j94lFf0aGm2tx"  >
<path style="stroke: none; stroke-width: 1; stroke-dasharray: none; stroke-linecap: butt; stroke-dashoffset: 0; stroke-linejoin: miter; stroke-miterlimit: 4; fill: rgb(55,28,29); fill-rule: evenodd; opacity: 1;" vector-effect="non-scaling-stroke"  transform=" translate(-53, -171)" d="M 50.5 169.5 C 52.674 169.75 54.3406 170.75 55.5 172.5 C 53.326 172.25 51.6594 171.25 50.5 169.5 Z" stroke-linecap="round" />
</g>
<g transform="matrix(0.35 0 0 0.35 355.91 208.87)" id="RRL8sspf7qGBorfdLpes7"  >
<path style="stroke: none; stroke-width: 1; stroke-dasharray: none; stroke-linecap: butt; stroke-dashoffset: 0; stroke-linejoin: miter; stroke-miterlimit: 4; fill: rgb(128,21,24); fill-rule: evenodd; opacity: 1;" vector-effect="non-scaling-stroke"  transform=" translate(-650.37, -232.5)" d="M 691.5 184.5 C 706.081 235.816 687.081 266.65 634.5 277 C 626.918 278.774 619.251 279.94 611.5 280.5 C 610.464 265.616 608.13 250.949 604.5 236.5 C 624.59 241.655 643.924 239.488 662.5 230 C 678.148 218.544 687.814 203.377 691.5 184.5 Z" stroke-linecap="round" />
</g>
<g transform="matrix(0.35 0 0 0.35 294.68 231.68)" id="CUPH9h8NDUDtOvJ53L8Lv"  >
<path style="stroke: none; stroke-width: 1; stroke-dasharray: none; stroke-linecap: butt; stroke-dashoffset: 0; stroke-linejoin: miter; stroke-miterlimit: 4; fill: rgb(6,6,6); fill-rule: evenodd; opacity: 1;" vector-effect="non-scaling-stroke"  transform=" translate(-477.59, -296.88)" d="M 528.5 361.5 C 542.357 327.963 538.524 296.63 517 267.5 C 497.519 245.336 473.019 235.503 443.5 238 C 433.227 239.087 423.227 241.254 413.5 244.5 C 433.38 233.252 454.713 229.752 477.5 234 C 513 244.504 534.167 268.004 541 304.5 C 542.762 319.574 541.095 334.24 536 348.5 C 533.978 353.223 531.478 357.557 528.5 361.5 Z" stroke-linecap="round" />
</g>
<g transform="matrix(0.35 0 0 0.35 166.57 235.94)" id="80FJM_UquQOdGKZAZNoWe"  >
<path style="stroke: none; stroke-width: 1; stroke-dasharray: none; stroke-linecap: butt; stroke-dashoffset: 0; stroke-linejoin: miter; stroke-miterlimit: 4; fill: rgb(6,6,6); fill-rule: evenodd; opacity: 1;" vector-effect="non-scaling-stroke"  transform=" translate(-116.06, -308.89)" d="M 169.5 243.5 C 119.405 235.956 85.9045 255.956 69 303.5 C 64.3653 318.514 64.3653 333.514 69 348.5 C 72.348 359.523 76.5147 370.189 81.5 380.5 C 55.0978 346.907 52.5978 311.574 74 274.5 C 98.9817 239.952 131.815 229.452 172.5 243 C 171.552 243.483 170.552 243.649 169.5 243.5 Z" stroke-linecap="round" />
</g>
<g transform="matrix(0.35 0 0 0.35 232.13 248.93)" id="aBw4kwxPQt9wuRtr-iUZ7"  >
<path style="stroke: none; stroke-width: 1; stroke-dasharray: none; stroke-linecap: butt; stroke-dashoffset: 0; stroke-linejoin: miter; stroke-miterlimit: 4; fill: rgb(254,254,254); fill-rule: evenodd; opacity: 1;" vector-effect="non-scaling-stroke"  transform=" translate(-301.08, -345.55)" d="M 528.5 361.5 C 526.478 363.531 524.811 365.865 523.5 368.5 C 482.695 408.408 434.029 433.908 377.5 445 C 316.093 456.63 254.76 456.297 193.5 444 C 157.63 436.561 125.63 421.394 97.5 398.5 C 91.7666 392.772 86.4333 386.772 81.5 380.5 C 76.5147 370.189 72.348 359.523 69 348.5 C 64.3653 333.514 64.3653 318.514 69 303.5 C 85.9045 255.956 119.405 235.956 169.5 243.5 C 172.743 244.49 176.076 245.49 179.5 246.5 C 209.453 261.207 240.786 272.04 273.5 279 C 298.969 283.176 323.969 281.176 348.5 273 C 368.667 266.748 388 258.582 406.5 248.5 C 408.738 246.884 411.071 245.551 413.5 244.5 C 423.227 241.254 433.227 239.087 443.5 238 C 473.019 235.503 497.519 245.336 517 267.5 C 538.524 296.63 542.357 327.963 528.5 361.5 Z" stroke-linecap="round" />
</g>
<g transform="matrix(0.35 0 0 0.35 229.27 219.79)" id="1PL1HqTAYB5dphqFcooNI"  >
<path style="stroke: none; stroke-width: 1; stroke-dasharray: none; stroke-linecap: butt; stroke-dashoffset: 0; stroke-linejoin: miter; stroke-miterlimit: 4; fill: rgb(10,10,10); fill-rule: evenodd; opacity: 1;" vector-effect="non-scaling-stroke"  transform=" translate(-293, -263.31)" d="M 179.5 246.5 C 179.56 245.957 179.893 245.624 180.5 245.5 C 212.706 257.291 245.706 266.124 279.5 272 C 300.727 274.568 321.727 273.235 342.5 268 C 363.931 262.467 384.931 255.634 405.5 247.5 C 406.107 247.624 406.44 247.957 406.5 248.5 C 388 258.582 368.667 266.748 348.5 273 C 323.969 281.176 298.969 283.176 273.5 279 C 240.786 272.04 209.453 261.207 179.5 246.5 Z" stroke-linecap="round" />
</g>
<g transform="matrix(0.35 0 0 0.35 268.72 241.98)" id="VLXImPe3CnS-FTlVMZiKS"  >
<path style="stroke: none; stroke-width: 1; stroke-dasharray: none; stroke-linecap: butt; stroke-dashoffset: 0; stroke-linejoin: miter; stroke-miterlimit: 4; fill: rgb(3,3,3); fill-rule: evenodd; opacity: 1;" vector-effect="non-scaling-stroke"  transform=" translate(-404.32, -325.92)" d="M 432.5 278.5 C 435.167 278.5 437.833 278.5 440.5 278.5 C 440.509 280.308 440.009 281.975 439 283.5 C 433.771 288.402 428.271 292.902 422.5 297 C 431.019 310.589 434.186 325.423 432 341.5 C 430.78 350.279 428.113 358.612 424 366.5 C 416.943 375.277 409.609 375.61 402 367.5 C 395.626 356.171 392.793 344.005 393.5 331 C 393.241 323.597 394.075 316.431 396 309.5 C 387.256 313.972 378.09 316.805 368.5 318 C 367.633 315.684 368.299 313.684 370.5 312 C 389.324 297.422 409.99 286.255 432.5 278.5 Z" stroke-linecap="round" />
</g>
<g transform="matrix(0.35 0 0 0.35 191.86 242.89)" id="c9LYd4QbSP5GKE9rBAtrE"  >
<path style="stroke: none; stroke-width: 1; stroke-dasharray: none; stroke-linecap: butt; stroke-dashoffset: 0; stroke-linejoin: miter; stroke-miterlimit: 4; fill: rgb(3,3,3); fill-rule: evenodd; opacity: 1;" vector-effect="non-scaling-stroke"  transform=" translate(-187.42, -328.49)" d="M 151.5 280.5 C 154.64 279.359 157.973 279.192 161.5 280 C 184.486 288.57 204.986 301.07 223 317.5 C 223.942 320.23 222.942 321.563 220 321.5 C 213.011 319.615 206.345 316.949 200 313.5 C 200.011 317.225 200.677 320.892 202 324.5 C 204.507 342.123 201.173 358.457 192 373.5 C 185.307 379.119 178.974 378.786 173 372.5 C 168.771 366.482 166.104 359.816 165 352.5 C 160.696 333.859 163.529 316.526 173.5 300.5 C 168.999 296.839 164.332 293.339 159.5 290 C 156.217 287.228 153.55 284.061 151.5 280.5 Z" stroke-linecap="round" />
</g>
<g transform="matrix(0.35 0 0 0.35 350.11 262.73)" id="zPyTZyahKrXexvgRku4Ko"  >
<path style="stroke: none; stroke-width: 1; stroke-dasharray: none; stroke-linecap: butt; stroke-dashoffset: 0; stroke-linejoin: miter; stroke-miterlimit: 4; fill: rgb(128,21,24); fill-rule: evenodd; opacity: 1;" vector-effect="non-scaling-stroke"  transform=" translate(-634, -384.5)" d="M 612.5 307.5 C 628.807 315.584 643.307 326.251 656 339.5 C 666.316 353.137 672.483 368.47 674.5 385.5 C 674.568 391.896 673.068 397.896 670 403.5 C 654.274 429.564 632.607 448.897 605 461.5 C 606.703 453.629 607.369 445.629 607 437.5 C 603.421 428.509 598.921 420.009 593.5 412 C 605.938 378.308 612.271 343.475 612.5 307.5 Z" stroke-linecap="round" />
</g>
<g transform="matrix(0.35 0 0 0.35 235.29 273.59)" id="JOHoJewGFis03wkUHN8Zz"  >
<path style="stroke: none; stroke-width: 1; stroke-dasharray: none; stroke-linecap: butt; stroke-dashoffset: 0; stroke-linejoin: miter; stroke-miterlimit: 4; fill: rgb(7,7,7); fill-rule: evenodd; opacity: 1;" vector-effect="non-scaling-stroke"  transform=" translate(-310, -415.14)" d="M 523.5 368.5 C 500.621 396.183 472.621 417.35 439.5 432 C 379.561 456.706 317.227 466.04 252.5 460 C 210.503 457.252 170.837 446.252 133.5 427 C 119.911 419.367 107.578 410.034 96.5 399 C 96.7284 398.601 97.0618 398.435 97.5 398.5 C 125.63 421.394 157.63 436.561 193.5 444 C 254.76 456.297 316.093 456.63 377.5 445 C 434.029 433.908 482.695 408.408 523.5 368.5 Z" stroke-linecap="round" />
</g>
<g transform="matrix(0.35 0 0 0.35 273.39 300.86)" id="_-QPIXysH9qW0FITSVqAL"  >
<path style="stroke: none; stroke-width: 1; stroke-dasharray: none; stroke-linecap: butt; stroke-dashoffset: 0; stroke-linejoin: miter; stroke-miterlimit: 4; fill: rgb(38,36,36); fill-rule: evenodd; opacity: 1;" vector-effect="non-scaling-stroke"  transform=" translate(-417.5, -492.08)" d="M 592.5 381.5 C 567.653 471.017 513.32 535.851 429.5 576 C 369.175 602.994 306.841 609.494 242.5 595.5 C 266.837 596.233 290.837 593.733 314.5 588 C 370.603 573.614 421.269 548.614 466.5 513 C 514.596 474.743 556.596 430.91 592.5 381.5 Z" stroke-linecap="round" />
</g>
<g transform="matrix(1 0 0 1 586.13 407.78)" id="R-00PvydU01r4QHIP7VBM"  >
<path style="stroke: none; stroke-width: 1; stroke-dasharray: none; stroke-linecap: butt; stroke-dashoffset: 0; stroke-linejoin: miter; stroke-miterlimit: 4; fill: rgb(178,21,51); fill-rule: nonzero; opacity: 1;" vector-effect="non-scaling-stroke"  transform=" translate(-493.39, -209.3)" d="M 493.48 193.23 L 505.36 173.76 C 508 169.48999999999998 511.07 166.95 516.5 166.95 L 535.97 166.95 C 539.49 166.95 536.14 170.75 534.24 173.76 L 510.93 209.22 L 535.85 244.84 C 537.85 247.69 539.85 251.65 536.38 251.65 L 518.38 251.65 C 512.96 251.65 510.03 248.95000000000002 507.24 244.84 L 493.46000000000004 224.73000000000002 L 479.68000000000006 244.84000000000003 C 476.89000000000004 248.95000000000005 473.96000000000004 251.65000000000003 468.5400000000001 251.65000000000003 L 450.37000000000006 251.65000000000003 C 446.8500000000001 251.65000000000003 449.06000000000006 247.65000000000003 451.11000000000007 244.84000000000003 L 476.0300000000001 209.22000000000003 L 452.7200000000001 173.76000000000002 C 450.8200000000001 170.76000000000002 447.31000000000006 166.95000000000002 450.8300000000001 166.95000000000002 L 470.4600000000001 166.95000000000002 C 475.8900000000001 166.95000000000002 478.9700000000001 169.49 481.61000000000007 173.76000000000002 z" stroke-linecap="round" />
</g>
<g transform="matrix(1 0 0 1 -179.21 407.9)" id="SXaJVwbAaLBOUFcT6hRoJ"  >
<path style="stroke: rgb(178,21,51); stroke-width: 1; stroke-dasharray: none; stroke-linecap: butt; stroke-dashoffset: 0; stroke-linejoin: miter; stroke-miterlimit: 10; fill: rgb(178,21,51); fill-rule: nonzero; opacity: 1;" vector-effect="non-scaling-stroke"  transform=" translate(271.95, -209.42)" d="M -313.34 210.43 C -313.34 182.72 -293.34 166.79000000000002 -268.01 166.79000000000002 C -257.028610271257 166.94205212399748 -246.26306657235733 169.86216285893863 -236.71 175.28000000000003 C -232.26999999999998 177.87000000000003 -230.55999999999997 180.99000000000004 -230.55999999999997 186.71000000000004 L -230.55999999999997 245.71000000000004 C -230.55999999999997 248.48000000000005 -232.26999999999998 250.21000000000004 -234.82999999999998 250.21000000000004 L -249.02999999999997 250.21000000000004 C -250.23705628002057 250.27223700471203 -251.4132999522284 249.81637442355884 -252.2631635819085 248.9569617643318 C -253.11302721158856 248.09754910510478 -253.5557193614387 246.9162855740645 -253.47999999999996 245.71000000000004 L -253.47999999999996 240.09000000000003 C -257.40999999999997 246.85000000000002 -266.29999999999995 252.04000000000002 -277.24999999999994 252.04000000000002 C -295.03999999999996 251.99 -313.3399999999999 237.45000000000002 -313.3399999999999 210.43 z M -254.33999999999997 193.81 C -258.8670376772063 190.8790245266751 -264.1680813714242 189.37090894218343 -269.56 189.48 C -279.14 189.48 -288.21 197.62 -288.21 210.78 C -288.21 222.73 -280 230 -271.27 230 C -257.40999999999997 230 -251.24999999999997 215.09 -254.32999999999998 193.81 z" stroke-linecap="round" />
</g>
<g transform="matrix(1 0 0 1 232.9 391.69)" id="f3aqfnhokuzP3qG1RW25M"  >
<path style="stroke: none; stroke-width: 1; stroke-dasharray: none; stroke-linecap: butt; stroke-dashoffset: 0; stroke-linejoin: miter; stroke-miterlimit: 4; fill: rgb(178,21,51); fill-rule: nonzero; opacity: 1;" vector-effect="non-scaling-stroke"  transform=" translate(-140.16, -193.21)" d="M -143.52 238.14 L -143.52 243.61999999999998 C -143.48926446193198 245.75253646862015 -144.34439919918887 247.8023005766115 -145.8815795244164 249.28072308422858 C -147.41875984964392 250.75914559184568 -149.50027943524634 251.53378391521105 -151.63 251.42 C -165.97 250.42 -180.94 244.80999999999997 -186.73 230.07 C -187.3414652768886 228.52006341781566 -188.78802616873395 227.4584743762195 -190.45 227.34 L -191.04999999999998 227.29 C -192.2775582691672 227.20344181788172 -193.4854485710562 227.63373933194939 -194.38179897405638 228.47691640595804 C -195.2781493770566 229.32009347996672 -195.78141940305943 230.49944678281426 -195.76999999999998 231.73 L -195.76999999999998 248.26 C -195.67179650278692 249.13605478811854 -195.96387416292436 250.010963871489 -196.5686523031333 250.6523368673157 C -197.17343044334226 251.29370986314242 -198.0296921158949 251.6366256134847 -198.90999999999997 251.59 L -212.09999999999997 251.59 C -212.980307884105 251.6366256134847 -213.83656955665768 251.29370986314242 -214.44134769686661 250.6523368673157 C -215.04612583707558 250.010963871489 -215.33820349721302 249.13605478811854 -215.23999999999995 248.26 L -215.23999999999995 174.74 C -215.25865112109588 172.72963352004749 -214.47787903343564 170.79420632787608 -213.06946241982223 169.35953427805683 C -211.66104580620885 167.92486222823757 -209.74036806324773 167.10847967283866 -207.72999999999996 167.09 L -174.54999999999995 167.09 C -152.18999999999994 167.09 -140.62999999999994 181.68 -140.62999999999994 196.79 C -140.62999999999994 210 -146.77999999999994 219.79 -160.03999999999994 224.44 C -161.75879499296468 225.0566598619643 -162.93291615401628 226.65283971669933 -163.00975824759888 228.477290567189 C -163.08660034118148 230.3017414176786 -162.05085489024037 231.99099628013894 -160.38999999999993 232.75 C -156.93999999999994 234.26 -152.29999999999993 234.94 -146.78999999999994 234.94 C -145.9268426760702 234.91271459988357 -145.08991525925916 235.23876278141375 -144.47269539813053 235.8427699849647 C -143.85547553700192 236.44677718851563 -143.51139608455443 237.27645438362987 -143.51999999999992 238.14 z M -195.77 205.45 C -195.78628449447473 207.78819244938404 -193.98252109103373 209.73643204776081 -191.65 209.89999999999998 C -189.17576990350915 210.03912337185454 -186.6981382450492 210.10915064618524 -184.22 210.11000000000004 C -166.51 210.10999999999999 -159.85 205.74999999999997 -159.85 196.79 C -159.85 190.9 -164.62 185.01 -174.54999999999998 185.01 L -191.39999999999998 185.01 C -192.56961990541504 185.02056068092813 -193.68713448230764 185.49534330674678 -194.5066787912216 186.3298907151374 C -195.32622310013556 187.16443812352804 -195.78065690581144 188.29038096737298 -195.76999999999998 189.45999999999998 z M -48.84 210.42 C -48.84 182.51999999999998 -29.320000000000004 166.48999999999998 -4.640000000000001 166.48999999999998 C 6.1039928418811655 166.6483055428829 16.623207065009844 169.59079127709578 25.890000000000025 175.02999999999997 C 30.22 177.64 31.89 180.77999999999997 31.89 186.52999999999997 L 31.89 245.97999999999996 C 31.89 248.76999999999995 30.22 250.50999999999996 27.72 250.50999999999996 L 13.86 250.50999999999996 C 12.663310073796328 250.5504898582286 11.505992885209661 250.07950161336768 10.677647269929155 249.21489201953804 C 9.849301654648649 248.35028242570837 9.428303356392874 247.17385842278213 9.52 245.97999999999996 L 9.52 240.22999999999996 C 5.68 247.01999999999995 -2.99 252.22999999999996 -13.66 252.22999999999996 C -31.01 252.24999999999997 -48.84 237.60999999999996 -48.84 210.41999999999996 z M 8.709999999999994 193.67999999999998 C 4.321992670564289 190.74299900957985 -0.860715033904329 189.22134206739244 -6.140000000000006 189.31999999999996 C -15.480000000000006 189.31999999999996 -24.320000000000007 197.51999999999995 -24.320000000000007 210.75999999999996 C -24.320000000000007 222.75999999999996 -16.320000000000007 230.10999999999996 -7.810000000000006 230.10999999999996 C 5.679999999999994 230.08999999999995 11.689999999999994 215.08999999999995 8.689999999999994 193.67999999999995 z M 47.169999999999995 247.08999999999997 L 47.169999999999995 187.16999999999996 C 47.169999999999995 181.32999999999996 48.839999999999996 178.16999999999996 53.00999999999999 175.49999999999997 C 62.23128309587084 169.76509732731392 72.84193306206438 166.65346977124543 83.69999999999993 166.49999999999997 C 107.38999999999999 166.49999999999997 126.22999999999999 182.75999999999996 126.22999999999999 211.03999999999996 L 126.22999999999999 247.08999999999997 C 126.22999999999999 249.90999999999997 124.55999999999999 251.67999999999998 122.05999999999999 251.67999999999998 L 105.82999999999998 251.67999999999998 C 103.16999999999999 251.67999999999998 101.49999999999999 249.90999999999997 101.49999999999999 247.08999999999997 L 101.49999999999999 212.43999999999997 C 101.49999999999999 199.00999999999996 93.98999999999998 189.63999999999996 85.49999999999999 189.63999999999996 C 80.55545859217739 189.80204404117794 75.7547252719686 191.34340502782504 71.63999999999999 194.08999999999995 L 71.63999999999999 247.08999999999995 C 71.63999999999999 249.90999999999994 69.96999999999998 251.67999999999995 67.46999999999998 251.67999999999995 L 51.29 251.67999999999995 C 48.79 251.67999999999995 47.17 249.90999999999994 47.17 247.08999999999995 z M 133.75 209.16999999999996 C 133.75 182.50999999999996 151.1 166.47999999999996 173.61 166.47999999999996 C 195.8 166.47999999999996 214.48000000000002 182.47999999999996 214.48000000000002 209.16999999999996 C 214.48000000000002 235.85999999999996 195.8 252.16999999999996 173.61 252.16999999999996 C 151.10000000000002 252.21999999999997 133.75 235.83999999999997 133.75 209.16999999999996 z M 189.75 210.04999999999995 C 189.75 196.62999999999997 182.58 189.30999999999995 174.57 189.30999999999995 C 166.4 189.30999999999995 158.23 196.62999999999994 158.23 210.04999999999995 C 158.23 223.28999999999996 165.57 230.04999999999995 173.73999999999998 230.04999999999995 C 181.79 230.07999999999996 189.79 223.28999999999996 189.79 210.07999999999996 z M 411.27 246.23999999999995 L 410.83 176.73999999999995 C 420.66999999999996 183.22999999999996 431.08 183.37999999999994 440.9 176.73999999999995 L 440.9 246.23999999999995 C 440.9 249.57999999999996 438.9 251.65999999999994 435.96 251.65999999999994 L 416.16999999999996 251.65999999999994 C 413.24999999999994 251.65999999999994 411.27 249.57999999999993 411.27 246.23999999999995 z M 609.63 240.69999999999996 C 610.14 241.90999999999997 610.14 244.17999999999995 608.4399999999999 245.04999999999995 C 599.7908837631027 249.57894978833994 590.2018252666985 252.02073504117428 580.4399999999999 252.17999999999995 C 553.63 252.17999999999995 537.5699999999999 235.17999999999995 537.5699999999999 210.77999999999994 C 537.5699999999999 185.72999999999993 552.5699999999999 166.41999999999996 580.4399999999999 166.41999999999996 C 600.76 166.41999999999996 613.5699999999999 179.28999999999996 613.5699999999999 193.89999999999995 C 613.5699999999999 213.20999999999995 599.2199999999999 221.55999999999995 580.9499999999999 221.55999999999995 C 574.1208258777198 221.4310749883344 567.4082577513504 219.766604174922 561.31 216.68999999999994 C 564.04 224.68999999999994 571.9 230.95999999999995 582.66 230.95999999999995 C 589.49 230.95999999999995 593.25 229.90999999999994 600.5899999999999 226.95999999999995 C 602.5899999999999 226.09999999999994 604.0099999999999 226.95999999999995 604.8599999999999 229.22999999999996 z M 561.63 202.42999999999995 C 566.9174620544923 204.68973228676592 572.6205138754267 205.81398981419025 578.37 205.72999999999996 C 586.74 205.72999999999996 592.2 201.90999999999997 592.2 196.72999999999996 C 592.2 192.72999999999996 588.7900000000001 187.72999999999996 581.2700000000001 187.72999999999996 C 572.1605202869324 187.64299661714034 564.1200015358924 193.6641695993252 561.6400000000001 202.42999999999995 z M -132.83000000000004 237.31999999999994 L -133.03000000000003 179.31999999999994 C -133.03000000000003 167.06999999999994 -123.32000000000002 167.06999999999994 -118.03000000000003 167.06999999999994 L -101.62000000000003 167.06999999999994 C -71.86000000000003 167.06999999999994 -56.53000000000003 187.29999999999993 -56.53000000000003 208.16999999999993 C -56.53000000000003 229.03999999999994 -70.98000000000003 251.56999999999994 -101.62000000000003 251.56999999999994 L -119.12000000000003 251.56999999999994 C -125.13000000000004 251.58999999999995 -133.05000000000004 250.08999999999995 -132.83000000000004 237.31999999999994 z M -101.64000000000004 233.31999999999994 C -84.06000000000004 233.31999999999994 -75.77000000000004 220.25999999999993 -75.77000000000004 208.22999999999993 C -75.77000000000004 196.44999999999993 -84.69000000000004 185.04999999999993 -101.64000000000004 185.04999999999993 L -104.99000000000004 185.04999999999993 C -109.77447482487514 185.09946242245962 -113.6144054294528 189.01547556815362 -113.57000000000004 193.79999999999993 L -113.57000000000004 224.56999999999994 C -113.61440542945279 229.35452443184624 -109.77447482487514 233.27053757754024 -104.99000000000004 233.31999999999994 z M 408.03 152.85999999999996 C 408.03 142.91899999999995 416.089 134.85999999999996 426.03 134.85999999999996 C 435.97099999999995 134.85999999999996 444.03 142.91899999999995 444.03 152.85999999999996 C 444.03 162.80099999999996 435.97099999999995 170.85999999999996 426.03 170.85999999999996 C 416.089 170.85999999999996 408.03 162.80099999999996 408.03 152.85999999999996 z M 692.8499999999999 238.16999999999996 L 692.8499999999999 243.66999999999996 C 692.8831834937789 245.80324954526264 692.0309257008352 247.85488361831958 690.4960119008424 249.3367386696706 C 688.9610981008497 250.81859372102167 686.8807632756257 251.5981786941463 684.7499999999999 251.48999999999995 C 670.4099999999999 250.48999999999995 655.4299999999998 244.85999999999996 649.6499999999999 230.06999999999994 C 649.0320800762803 228.51919134875112 647.5846255522692 227.45591376274834 645.9199999999998 227.32999999999993 L 645.3199999999998 227.32999999999993 C 644.0906888185185 227.24328894582712 642.881175170922 227.67491397664503 641.9844919782522 228.52030385109006 C 641.0878087855824 229.36569372553512 640.5857677376323 230.54771665979823 640.5999999999998 231.77999999999992 L 640.5999999999998 248.3599999999999 C 640.7013859405507 249.23767551102173 640.4107374390048 250.11541618286697 639.8055703173892 250.75912898101865 C 639.2004031957736 251.40284177917033 638.3422573926365 251.74706702377122 637.4599999999998 251.6999999999999 L 624.2799999999999 251.6999999999999 C 623.3977426073632 251.74706702377122 622.5395968042261 251.40284177917033 621.9344296826105 250.75912898101865 C 621.3292625609948 250.11541618286697 621.038614059449 249.23767551102173 621.1399999999999 248.3599999999999 L 621.1399999999999 174.56999999999988 C 621.0955631110704 170.37640359834216 624.4564594608665 166.93942836978897 628.6499999999999 166.88999999999987 L 661.8299999999998 166.88999999999987 C 684.1899999999998 166.88999999999987 695.7399999999998 181.52999999999986 695.7399999999998 196.68999999999988 C 695.7399999999998 209.94999999999987 689.5999999999998 219.68999999999988 676.3299999999998 224.4299999999999 C 674.6091468505192 225.05429142288517 673.4363645200582 226.65684966757476 673.3617979154764 228.4859246152591 C 673.2872313108945 230.31499956294346 674.3256744080412 232.00770368837487 675.9899999999998 232.7699999999999 C 679.4299999999998 234.2799999999999 684.0799999999998 234.9599999999999 689.5899999999998 234.9599999999999 C 690.4532053951614 234.9354094077547 691.2890819246853 235.26404195056506 691.9044084648768 235.86993096713408 C 692.5197350050685 236.47581998370308 692.8612467920847 237.30651765441843 692.8499999999998 238.1699999999999 z M 640.5999999999999 205.36999999999995 C 640.5784153083405 207.7175478746222 642.3880751077334 209.67618693110794 644.7299999999999 209.83999999999995 C 647.2042186407174 209.97939441469023 649.681857883267 210.049421903376 652.1599999999999 210.04999999999993 C 669.8699999999999 210.04999999999995 676.5299999999999 205.67999999999995 676.5299999999999 196.68999999999994 C 676.5299999999999 190.77999999999994 671.7499999999999 184.86999999999995 661.8299999999998 184.86999999999995 L 644.9699999999998 184.86999999999995 C 643.7977192739307 184.88318607845315 642.678698967909 185.361557414906 641.8591489181817 186.19986147034783 C 641.0395988684545 187.03816552578965 640.5866639092769 188.1677209709022 640.5999999999998 189.33999999999995 z M -415.4200000000001 192.41999999999996 C -415.4200000000001 160.30999999999995 -391.8300000000001 134.17999999999995 -358.81000000000006 134.17999999999995 C -346.3580758665444 134.30475447114705 -334.11442519553054 137.38966085522108 -323.09000000000003 143.17999999999992 C -322.11808600199254 143.70788685072648 -321.4160178570281 144.62361852634749 -321.15855181759486 145.69925442442423 C -320.9010857781616 146.77489032250097 -321.1124381978293 147.90925989923076 -321.74 148.81999999999994 L -328.65000000000003 161.96999999999994 C -329.99 164.52999999999994 -332.52000000000004 164.52999999999994 -334.71000000000004 163.33999999999995 C -341.51468860361865 159.92859091998355 -349.0084466730982 158.11586076168865 -356.6200000000001 158.03999999999994 C -373.30000000000007 158.03999999999994 -389.31000000000006 171.03999999999994 -389.31000000000006 192.36999999999995 C -389.31000000000006 215.58999999999995 -373.31000000000006 228.05999999999995 -354.43000000000006 228.05999999999995 C -348.87000000000006 228.05999999999995 -341.96000000000004 226.34999999999994 -334.71000000000004 222.41999999999996 C -332.52000000000004 221.56999999999996 -329.99 221.56999999999996 -328.65000000000003 224.29999999999995 L -321.74 236.76999999999995 C -320.8826677262594 238.7945227934261 -321.4278661623223 241.14089532196363 -323.09000000000003 242.57999999999996 C -333.03000000000003 248.57999999999996 -347.18 252.13999999999996 -358.81000000000006 252.13999999999996 C -391.83000000000004 252.18999999999997 -415.4200000000001 224.68999999999997 -415.4200000000001 192.41999999999996 z M 260.03999999999996 247.08999999999997 L 260.03999999999996 139.23 C 259.95290599677867 138.05166711823247 260.37466507238145 136.89245826608075 261.19859631922566 136.04558693811796 C 262.0225275660698 135.19871561015518 263.16972014833425 134.7452896956359 264.34999999999997 134.79999999999998 L 293.51 134.79999999999998 C 296.09 134.79999999999998 297.82 136.04 299.51 138.7 C 301.76 141.89 317.96999999999997 171.81 328.15 198.37 C 337.81 171.81 354.03 141.89000000000001 356.27 138.7 C 358 136.04 359.89 134.79999999999998 362.47999999999996 134.79999999999998 L 391.47999999999996 134.79999999999998 C 392.67842344116815 134.73726455746822 393.84792803385506 135.18172797564105 394.7021902532743 136.02457466428854 C 395.55645247269354 136.867421352936 396.01660820680706 138.03084106343266 395.96999999999997 139.23 L 395.96999999999997 247.08999999999997 C 396.0537714207433 248.31441261583242 395.6115867378231 249.51647029645616 394.7543366394404 250.39472206762773 C 393.8970865410578 251.27297383879926 392.7060812383902 251.7441174797131 391.47999999999996 251.68999999999997 L 373.54999999999995 251.68999999999997 C 370.78999999999996 251.68999999999997 369.06999999999994 249.91999999999996 369.06999999999994 247.08999999999997 L 369.06999999999994 167.20999999999998 C 358.53999999999996 182.07999999999998 345.7799999999999 210.58999999999997 340.06999999999994 233.59999999999997 C 339.5423132571791 235.4001412274014 337.9424255693093 236.6760516584776 336.06999999999994 236.78999999999996 L 317.16999999999996 236.78999999999996 C 315.2975744306906 236.6760516584776 313.6976867428208 235.4001412274014 313.16999999999996 233.59999999999997 C 306.61999999999995 207.03999999999996 293.84999999999997 182.59999999999997 284.16999999999996 168.59999999999997 L 284.16999999999996 247.08999999999997 C 284.16999999999996 249.92 282.44999999999993 251.68999999999997 279.68999999999994 251.68999999999997 L 264.34999999999997 251.68999999999997 C 261.76 251.65999999999997 260.03999999999996 249.88999999999996 260.03999999999996 247.08999999999997 z" stroke-linecap="round" />
</g>
</svg>