<?xml version="1.0" encoding="utf-8"?>
<!-- Generator: Adobe Illustrator 26.0.2, SVG Export Plug-In . SVG Version: 6.00 Build 0)  -->
<svg version="1.1" id="Слой_1" xmlns="http://www.w3.org/2000/svg" xmlns:xlink="http://www.w3.org/1999/xlink" x="0px" y="0px"
	 viewBox="0 0 359.6 258.7" style="enable-background:new 0 0 359.6 258.7;" xml:space="preserve">
<style type="text/css">
	.st0{fill:#B21533;}
	.st1{fill:#FFFFFF;}
	.st2{fill:#811619;}
	.st3{fill:#343434;}
	.st4{fill:#C2C2C2;}
</style>
<desc>Created with Fabric.js 4.6.0</desc>
<g id="UsAO6aWNuNY6dzcz9yljF" transform="matrix(1 0 0 1 -19.18 1326.73)">
	<g>
		<g vector-effect="non-scaling-stroke">
			<path class="st0" d="M49.7-1070.5c-16.5,0-30-13.5-30-30V-1289c0-16.5,13.5-30,30-30h298.6c16.5,0,30,13.5,30,30v188.5
				c0,16.5-13.5,30-30,30H49.7z"/>
		</g>
	</g>
</g>
<g id="_x34_O8B4-KcqcfUbXGR9hS1F" transform="matrix(1 0 0 1 -59.99 1294.09)">
	<path vector-effect="non-scaling-stroke" class="st1" d="M204.9-1208.6c-1.6,0.7-3.3,1.2-5,1.4c-3.4,0.2-6.8-0.1-10.2-0.9
		c-1.8-0.4-3.5-0.8-5.2-1.3l0.2,0.1l-0.4-0.2c-0.9-0.2-1.7-0.5-2.6-0.8c-4.3-1-8.8-0.5-12.7,1.5c-12.6,6.7-12.1,24-0.8,31
		c0.7,0.4,1.4,0.8,2.1,1.1c0.4,0.2,0.7,0.3,1.1,0.5l-0.2-0.1c1.6,0.7,3.2,1.3,4.9,1.8c9.8,3,20.2,2.7,30.1,0.5s19.7-6.2,26.6-13.7
		c1.5-1.7,2.9-3.5,4-5.4c1.2-2.9,1.8-6.1,1.6-9.3c-0.7-11.3-10.5-17.9-20.8-13.7c-1.9,1.4-3.8,2.8-5.9,4
		C209.5-1210.7,207.2-1209.6,204.9-1208.6z M187.5-1186.3c-0.3,1.2-0.8,1.9-1.5,2h-0.1c-1.3,0-2.5-2.5-2.8-5.8
		c-0.2-1.4-0.1-2.9,0.2-4.3c0.3-1.2,0.8-1.9,1.5-2c1.3-0.1,2.6,2.4,2.9,5.8C187.8-1189.1,187.8-1187.7,187.5-1186.3z M217.6-1200.8
		c0.3-1.2,0.8-1.9,1.5-2c1.3-0.1,2.6,2.4,2.9,5.8c0.2,1.4,0.1,2.9-0.2,4.3c-0.3,1.2-0.8,1.9-1.5,2h-0.1c-0.6,0-1.2-0.6-1.8-1.6
		C217.3-1195,217-1198,217.6-1200.8z"/>
</g>
<g id="poJGbDajVLksuy3mZuBJ4" transform="matrix(1 0 0 1 -71.45 1393.91)">
	<path vector-effect="non-scaling-stroke" class="st2" d="M202.7-1182.5c7.1-8.9,13.1-18.6,18-28.8c3.9-8,7.3-16.3,10.1-24.7
		c-0.7,0-1.5,0.1-2.2,0.1c-1.8,0-3.6-0.5-5.2-1.5c-5.4,15.3-11.8,30.2-20.6,43.8c-1.1,1.6-2.4,3.4-3.7,4.9
		c-5.9,7-12.5,13.5-19.7,19.3c-3.8,3.1-7.6,6.1-11.7,8.8c-0.2,2.9-0.5,5.7-0.7,8.6c7.8-4.3,15-9.6,21.6-15.6
		C193.7-1172.3,198.4-1177.2,202.7-1182.5z"/>
</g>
<g id="zUdMnslGQztHTkw71jmOb" transform="matrix(1 0 0 1 -91.48 1395.93)">
	<path vector-effect="non-scaling-stroke" class="st3" d="M204.6-1177.2c3.6-3.4,7.3-7.2,10.6-10.9c1.6-1.9,3.3-3.9,4.8-5.9
		c1.3-1.8,2.6-3.8,3.8-5.6c7.8-12.7,13.9-26.2,19.7-39.9c-3.1-2.1-4.5-6.1-4.5-10.2c-13.6,5.3-28.7,5-42.1-0.7
		c0.7,2.5,0.7,5.2,0.2,7.7c-1.1,5.4-5.4,8.8-10.5,10.2c-0.9,0.3-2.7,0.6-3.6,0.9c-3.4,0.8-6.6,2-9.7,3.6
		c-17.1,9-18.6,30.5-18.6,47.7c-0.2,13.7-0.3,27.5,0.1,41.2c7.8,0,22.2,0.1,29.8,0.1c1.3-13.6,2.9-27.3,3.7-41
		c0.4-8.3,0.3-16.7,0.2-25c0.3,5.6,0.5,11.1,0.5,16.7c0.1,8.6-0.4,17.2-1.1,25.7c3-2.4,5.9-4.9,8.8-7.4
		C199.4-1172.4,202.1-1174.8,204.6-1177.2z"/>
</g>
<g id="_x38_3Pxd6QDYnO_x5F_xTJQEw_x5F_aY" transform="matrix(1 0 0 1 84.17 1412.51)">
	<path vector-effect="non-scaling-stroke" class="st2" d="M201.3-1197.4l-0.2,0.2c-3.5,0.6-7.1,1.1-10.6,1.7
		c-6.8,1.1-22.9,3.5-30.5,4.6c0.5,2.1,1,4.3,1.5,6.4c0.1,0.4,0.3,1.3,0.5,1.7c2,6.3,4.4,12.4,6.8,18.6c3.7-0.4,7.4-0.9,11.1-1.4
		c10.8-1.4,22.8-3.2,33.5-4.7c1-1,1.9-2,2.9-3.1c6.8-7.1,14.7-15.2,21.7-22.2v-1.6c-0.1-2.9-0.6-5.7-1.4-8.5c-0.2-1-0.5-2-0.7-3l0,0
		c-4.2,1.6-12.5,4.5-16.6,3.1c-1.1-0.3-1.8-1.2-2-2.3c-0.3-3.4,5.4-7.2,7.9-8.9c2.2-1.4,4.5-2.7,6.9-3.9l0.5-0.2
		c-1-1.3-2.5-3.3-3.4-4.4C220-1216.1,210.4-1206.5,201.3-1197.4z M193.4-1187.9c-8.7,1.9-17.6,3-26.5,3.5
		C175.6-1186.3,184.5-1187.5,193.4-1187.9z M195.6-1180.5c-9,1.8-18.2,2.9-27.4,3.3C177.2-1179.1,186.4-1180.1,195.6-1180.5z
		 M171.7-1169.3c8.6-2,17.4-3.3,26.2-3.8C189.3-1171.1,180.5-1169.8,171.7-1169.3z M206.8-1184.3c-1.6-3.4-2.9-7-4.1-10.5
		c1.9,3.3,3.5,6.7,5.1,10.1s2.9,7,4.1,10.5C210-1177.4,208.3-1180.8,206.8-1184.3L206.8-1184.3z M225.3-1189c-2.9,2.4-5.9,4.7-9,6.7
		c5.3-5.3,11.1-10.1,17.3-14.3C231-1193.9,228.2-1191.4,225.3-1189L225.3-1189z M228.7-1202.9c-2.8,2.4-5.8,4.6-8.8,6.7
		s-6.2,4.1-9.4,5.9C216.2-1195,222.3-1199.3,228.7-1202.9z M220.3-1204.9c-1.4,1.5-2.9,2.8-4.6,4c-1.6,1.2-3.4,2.3-5.2,3.2
		c1.4-1.5,2.9-2.8,4.6-4C216.7-1203,218.5-1204,220.3-1204.9L220.3-1204.9z"/>
</g>
<g id="IAF_q6fsG85OuSrk6Yr0E" transform="matrix(1 0 0 1 65.93 1354.86)">
	<path vector-effect="non-scaling-stroke" class="st4" d="M196.9-1174.7c8.8,0.8,17.1-4.1,20.7-12.1c4.2-9.3,0.8-21-8.3-25.9
		c-8.8-4.9-20.7-1.8-26.6,6.2c-2.2,3-3.7,6.5-4.1,10.3c-0.1,0.8-0.2,1.6-0.2,2.4c1.2-0.9,2.7-1.3,4.2-1.1c0.1-0.3,0.3-0.6,0.6-0.7
		s0.7,0,0.9,0.2s0.3,0.6,0.2,0.9c0,0.1-0.1,0.2-0.2,0.3c0.3,0.2,0.5,0.4,0.7,0.7c2.2,2.9-0.3,7.4-2.9,10.7
		C185.7-1178.1,191.1-1175.2,196.9-1174.7z M214.7-1195.4c0.5-0.1,1,0.2,1.1,0.6c0.1,0.5-0.2,1-0.6,1.1c-0.5,0.1-1-0.2-1.1-0.6
		c-0.1-0.2,0-0.5,0.1-0.7S214.5-1195.4,214.7-1195.4z M211.6-1186.3c-0.6,0-1-0.4-1-1s0.4-1,1-1s1,0.4,1,1
		C212.6-1186.8,212.2-1186.3,211.6-1186.3z M211.6-1202.8c0.6,0,1,0.4,1,1s-0.4,1-1,1s-1-0.4-1-1S211.1-1202.8,211.6-1202.8z
		 M210.8-1195.8c0.5,0,0.9,0.3,1.1,0.8c0.2,0.5,0.1,1-0.3,1.3s-0.9,0.5-1.3,0.3c-0.5-0.2-0.8-0.6-0.8-1.1
		C209.6-1195.3,210.2-1195.8,210.8-1195.8L210.8-1195.8z M192.3-1180.8c-0.1,0.5-0.6,0.8-1.1,0.6c-0.5-0.1-0.8-0.6-0.6-1.1
		c0.1-0.5,0.6-0.8,1.1-0.6c0.2,0.1,0.4,0.2,0.5,0.4S192.3-1181.1,192.3-1180.8z M193.5-1183.4c-0.5,0-0.9-0.3-1.1-0.8
		c-0.2-0.5-0.1-1,0.3-1.3c0.3-0.3,0.9-0.5,1.3-0.3c0.5,0.2,0.8,0.6,0.8,1.1c0,0.3-0.1,0.6-0.4,0.9
		C194.2-1183.6,193.9-1183.4,193.5-1183.4z M196.5-1188c-1,0-1.8-0.6-2.2-1.4c-0.4-0.9-0.2-1.9,0.5-2.6s1.7-0.9,2.6-0.5
		c0.9,0.4,1.5,1.2,1.5,2.2c0,0.6-0.2,1.2-0.7,1.7C197.7-1188.2,197.1-1187.9,196.5-1188L196.5-1188z M191.8-1194.6
		c0-1,0.6-1.8,1.4-2.2s1.9-0.2,2.6,0.5c0.7,0.7,0.9,1.7,0.5,2.6s-1.2,1.5-2.2,1.4c-0.6,0-1.2-0.2-1.7-0.7
		C192.1-1193.4,191.8-1194,191.8-1194.6L191.8-1194.6z M199.2-1179.3c-0.6,0-1-0.4-1-1s0.4-1,1-1s1,0.4,1,1c0,0.3-0.1,0.5-0.3,0.7
		C199.8-1179.4,199.5-1179.3,199.2-1179.3L199.2-1179.3z M199.1-1184.3c-0.8,0-1.5-0.7-1.5-1.5s0.7-1.5,1.5-1.5s1.5,0.7,1.5,1.5
		c0,0.4-0.2,0.8-0.4,1.1C199.8-1184.5,199.5-1184.3,199.1-1184.3L199.1-1184.3z M202-1187.9c-1,0-1.8-0.6-2.2-1.4
		c-0.4-0.9-0.2-1.9,0.5-2.6s1.7-0.9,2.6-0.5c0.9,0.4,1.5,1.2,1.5,2.2C204.3-1188.9,203.2-1187.9,202-1187.9L202-1187.9z M202-1194.6
		c0-1.3,1-2.3,2.3-2.3s2.3,1,2.3,2.3s-1,2.3-2.3,2.3c-0.6,0-1.2-0.2-1.7-0.7S202-1193.9,202-1194.6L202-1194.6z M205-1183.4
		c-0.5,0-0.9-0.3-1.1-0.8s-0.1-1,0.3-1.3c0.3-0.3,0.9-0.5,1.3-0.3c0.5,0.2,0.8,0.6,0.8,1.1c0,0.3-0.1,0.7-0.4,0.9
		C205.6-1183.5,205.3-1183.4,205-1183.4L205-1183.4z M207.3-1180.1c-0.5,0.1-1-0.2-1.1-0.7s0.2-1,0.7-1.1c0.2-0.1,0.5,0,0.7,0.1
		s0.3,0.3,0.4,0.5c0.1,0.2,0,0.5-0.1,0.7C207.7-1180.3,207.5-1180.1,207.3-1180.1L207.3-1180.1z M207.1-1188.7
		c-0.8,0-1.5-0.7-1.5-1.5s0.7-1.5,1.5-1.5s1.5,0.7,1.5,1.5c0,0.4-0.2,0.8-0.5,1.1S207.5-1188.7,207.1-1188.7L207.1-1188.7z
		 M208.6-1198.9c0,0.8-0.7,1.5-1.5,1.5s-1.5-0.7-1.5-1.5s0.7-1.5,1.5-1.5C207.9-1200.4,208.6-1199.7,208.6-1198.9L208.6-1198.9z
		 M206.9-1209.2c0.2-0.1,0.5,0,0.7,0.1s0.3,0.3,0.4,0.5c0.1,0.3,0,0.7-0.3,0.9c-0.3,0.2-0.7,0.2-1,0.1c-0.3-0.2-0.5-0.5-0.4-0.9
		S206.5-1209.1,206.9-1209.2z M205-1206c0.5,0,0.9,0.3,1.1,0.8s0.1,1-0.3,1.3c-0.3,0.3-0.9,0.5-1.3,0.3c-0.5-0.2-0.8-0.6-0.8-1.1
		C203.8-1205.4,204.3-1205.9,205-1206L205-1206z M204.3-1199.3c0,1-0.6,1.8-1.5,2.2c-0.9,0.4-1.9,0.2-2.6-0.5
		c-0.7-0.7-0.9-1.7-0.5-2.6s1.2-1.4,2.2-1.4C203.3-1201.6,204.3-1200.5,204.3-1199.3L204.3-1199.3z M199.3-1210c0.6,0,1,0.4,1,1
		s-0.4,1-1,1s-1-0.4-1-1C198.3-1209.5,198.7-1209.9,199.3-1210L199.3-1210z M199.1-1205.1c0.6,0,1.2,0.4,1.4,0.9
		c0.2,0.6,0.1,1.2-0.3,1.7s-1.1,0.6-1.7,0.3c-0.6-0.2-0.9-0.8-0.9-1.4C197.6-1204.4,198.3-1205.1,199.1-1205.1L199.1-1205.1z
		 M196.6-1201.7c1.3,0,2.3,1.1,2.3,2.3s-1.1,2.3-2.3,2.3c-1.3,0-2.3-1-2.3-2.3C194.2-1200.6,195.2-1201.7,196.6-1201.7L196.6-1201.7
		z M193.6-1206.1c0.5,0,0.9,0.3,1.1,0.8c0.2,0.5,0.1,1-0.3,1.3s-0.9,0.5-1.3,0.3c-0.5-0.2-0.8-0.6-0.8-1.1
		C192.3-1205.5,192.9-1206,193.6-1206.1L193.6-1206.1z M190.6-1208.6c0.1-0.3,0.4-0.6,0.7-0.7s0.7,0.1,0.9,0.4s0.2,0.7-0.1,1
		c-0.2,0.3-0.6,0.4-0.9,0.3c-0.2-0.1-0.4-0.2-0.6-0.4C190.5-1208.2,190.5-1208.4,190.6-1208.6L190.6-1208.6z M191.4-1200.5
		c0.8,0,1.5,0.7,1.5,1.5s-0.7,1.5-1.5,1.5s-1.5-0.7-1.5-1.5S190.6-1200.5,191.4-1200.5L191.4-1200.5z M191.4-1191.8
		c0.6,0,1.2,0.4,1.4,0.9s0.1,1.2-0.3,1.6c-0.4,0.4-1.1,0.6-1.6,0.3c-0.6-0.2-0.9-0.8-0.9-1.4
		C189.9-1191.1,190.6-1191.8,191.4-1191.8L191.4-1191.8z M188.9-1194.6c0,0.5-0.3,0.9-0.8,1.1s-1,0.1-1.3-0.3
		c-0.3-0.3-0.5-0.9-0.3-1.3c0.2-0.5,0.6-0.8,1.1-0.8C188.3-1195.9,188.9-1195.3,188.9-1194.6L188.9-1194.6z M185.8-1201.9
		c0-0.6,0.5-1,1-1c0.6,0,1,0.5,1,1c0,0.6-0.5,1-1,1C186.3-1200.8,185.8-1201.3,185.8-1201.9z M186.8-1188.5c0.6,0,1,0.5,1,1
		s-0.5,1-1,1s-1-0.5-1-1S186.2-1188.5,186.8-1188.5z"/>
</g>
<g id="EhcFucZavfRdw-vVeHZm9" transform="matrix(1 0 0 1 -140.35 1281.09)">
	<path vector-effect="non-scaling-stroke" class="st2" d="M185.3-1199.4c0.3,1.1,0.6,2.3,1,3.4c1.9,5.6,5.6,11.9,12.4,10.8
		c3.1-0.3,6.1-1.2,8.9-2.6c1.1-0.5,2.1-1.3,2.9-2.2c0.1-4.9,0.9-9.7,2.2-14.4c-3.1,2.8-6.8,4.8-10.9,5.9
		C196.8-1197.4,190.3-1198.2,185.3-1199.4z"/>
</g>
<g id="dTPE54MVkA0onGt6adrkE" transform="matrix(1 0 0 1 -137.34 1306.24)">
	<path vector-effect="non-scaling-stroke" class="st2" d="M195.1-1197.1c-2.1,0.7-4.3,1.2-6.5,1.7c-0.8,0.2-1.7,0.4-2.5,0.5
		c0.4,1.2,0.8,2.4,1.3,3.5c1.2,2.7,2.8,5.4,5.2,7.2c2.7,2,5.5,1.2,8.3,0.1c4.2-1.8,7.9-4.5,10.9-7.9c-1.3-3.2-2.4-6.4-3.1-9.8
		c-0.4-1.6-0.7-3.3-0.9-5C204.5-1202.6,200-1198.8,195.1-1197.1z"/>
</g>
<g id="EX2KjVyyJ0VR_a-Flx8PO" transform="matrix(1 0 0 1 -71.81 1298.59)">
	<path vector-effect="non-scaling-stroke" class="st3" d="M221.1-1230.2c-12.2,3.7-24.9,5.8-37.7,6.3c-12.2,0.5-24.5-0.1-36.6-1.7
		c-4,10.2-5,21.4-2.7,32.1c7.7,35.4,46.3,53.1,78.7,37.8c19.3-9.1,32.3-28.5,32.2-50.1c0-12.2-4.1-24.1-11.7-33.6
		c-0.5,0.4-1,0.7-1.5,1C235.4-1234.6,228.2-1232.3,221.1-1230.2z M251.3-1206.9c0,2.9-0.7,5.8-2.1,8.3c-2.5,6.1-7.5,11-13,14.5
		c-8.4,5.3-18.4,7.8-28.3,8.5c-8.9,0.5-18.9-0.9-26.7-5.7c-8.4-3.2-13.1-12.2-11-20.9c2.1-8.7,10.2-14.6,19.2-13.8
		c1.6,0.1,3.1,0.5,4.5,1c3.4,0.6,6.8,1.2,10.2,1.6c3.2,0.3,6.6,0.7,9.7-0.2c5.1-1.6,9.8-4.1,14.5-6.6c3-2.1,6.6-2.9,10.2-2.5
		C246.3-1221.7,251.4-1214.4,251.3-1206.9z"/>
</g>
<g id="zivA8JMsa5dEF-StbtpI6" transform="matrix(1 0 0 1 -18.74 1402.04)">
	<path vector-effect="non-scaling-stroke" class="st3" d="M273.9-1222.6c-3-1.7-5.6-4.1-7.4-7.1c-0.8,1-1.6,1.9-2.3,2.6
		c0,1.7-0.5,3.4-1.4,4.8c-1,1.5-2.6,2.4-4.3,2.6c0.8-0.2,1.6-0.6,2.2-1.1c2-1.6,2.6-4,2.4-6.5v-0.2l0.2-0.2c2.2-2.6,4.4-5.4,5.4-8.6
		c0.6-1.7,0.4-3.7-1.6-4.3c-3.6-0.7-9.3,5.7-12.1,8.8h0.1H255l-0.5,0.6l0.3-0.5c-5.6,2.2-11.4,4.3-17.1,6.3
		c-5.8,1.9-11.5,4.4-16.9,7.4c-1.6,0.8-3,1.8-4.4,2.9c1.2-1.3,2.5-2.5,4-3.5c0.6-0.4,1.3-0.9,1.9-1.3c-5.1-5-10.1-10.2-15.1-15.4
		c-3.5-3.4-7.4-6.6-12.1-8.3c-5.5-2.1-11.3-1-17-0.7c-0.5,2-1.1,4-1.7,6c-0.7,2.2-1.4,4.3-2.2,6.5c-5.3,14.4-12.3,28.2-21.8,40.3
		c-1.2,1.4-2.4,2.9-3.6,4.3c-1.2,1.4-3.3,3.7-4.7,5.1c-2.3,2.4-5,5-7.5,7.1c-1.2,1.1-2.7,2.3-4,3.3c-0.8,0.6-1.9,1.5-2.7,2.1
		s-1.9,1.4-2.8,2c-0.3,0.2-1.1,0.8-1.4,1c-3.6,2.5-7.4,4.6-11.4,6.5c-0.5,5.2-1,10.3-1.4,15.5c11.9-0.3,23.8-0.4,35.7-0.5
		c11.7-0.1,23.9-0.2,35.6-0.2c0.7-9.6,1.1-19.3,1.4-28.9c0.5-16.5,0.1-33-1.4-49.4c1,6.9,1.7,13.9,2.1,20.9c2.9,3.8,6.6,6.9,10.9,9
		c5,2.4,10.5,3.8,16.1,3.9h1.8l1.2-0.1c13.8-1,29.1-10.5,39.6-19.2l0.2-0.1h0.2c2.7-0.1,5.4-0.4,8.1-0.8c3.4-0.4,6.7-1.3,9.8-2.6
		c3.9-1.8,7.5-4.3,10.5-7.4C281.1-1219.9,277.3-1220.8,273.9-1222.6z"/>
</g>
<g id="_x30_HoFcZqXq6AV_x5F_b_x5F_7MNzNH" transform="matrix(1 0 0 1 129.64 1392.48)">
	<path vector-effect="non-scaling-stroke" class="st3" d="M193.1-1178.5c0,0.3,0.1,1,0.1,1.3l0.1,1.7v0.2c-0.5,0.6-1.1,1.2-1.6,1.8
		c8.9,0.1,24.7-1.1,32-5.3c0.5-0.3,1.1-0.7,1.5-1.1c-0.1-11.3-0.2-24.6-0.2-36.1c-0.7,0.8-1.5,1.6-2.2,2.5
		c-6.9,7.1-13.3,10.5-23.1,11.9c-2.6,0.4-5.2,0.7-7.8,0.9c-0.4,0-1.5,0.1-1.9,0.2c-0.2,0-0.3,0.1-0.5,0.1c-0.8,0.3-1.6,0.7-2.3,1
		c-2.3,1.2-4.6,2.4-6.8,3.8c-2.2,1.3-4.2,2.9-6,4.7c-3.4,3.8-0.6,5.1,3.4,4.8c4.3-0.5,8.5-1.6,12.5-3.2l0.2-0.1
		c0.2,0.1,0.5,0.3,0.7,0.4c5.4,2.2,12.8,1.2,18.2-0.5c0.9-0.3,1.7-0.6,2.6-1c-1.6,0.9-3.4,1.5-5.2,2c-5.1,1.3-10.9,2-15.9,0.2
		l-0.2-0.1c0.7,2,1.3,4,1.8,6.1C192.7-1181.1,192.9-1179.8,193.1-1178.5z"/>
</g>
<g id="OMkeWE0MmHAwmU1hx46t7" transform="matrix(1 0 0 1 78.88 1399.27)">
	<path vector-effect="non-scaling-stroke" class="st2" d="M216.1-1204.1c-5,1.8-10.3,4.2-15.2,6.4c-4.4,2.1-11.5,5.8-15.8,8
		c-1.2,0.6-3,1.6-4.2,2.2c-4.9,2.7-9.9,5.7-14.8,8.4c12-2,28-4.6,39.6-6.3c8-7.8,16.7-16.1,24.8-23.8l1.3-1.2
		c-4.1,1.8-8.2,3.5-12.3,5.1C218.4-1204.9,217.2-1204.5,216.1-1204.1z M202-1195.4c0.3,1.2,0.7,2.5,1.2,3.7c0.6,1.2,1,2.4,1.2,3.7
		C202.6-1189.9,201.1-1192.7,202-1195.4z"/>
</g>
<g id="JbG_QF1x728qOnXEhZkb8" transform="matrix(1 0 0 1 -75.68 1257.04)">
	<path vector-effect="non-scaling-stroke" class="st2" d="M184.1-1183.6c9-0.3,17.9-1.3,26.7-2.9c3.6-0.7,7.2-1.6,10.8-2.5
		c5.1-1.3,10.3-2.7,15.2-4.4c3.3-1.1,6.4-2.4,9.5-4l0.9-0.5c-2.4-3-5.1-5.8-8-8.3c-1.4,1.2-2.9,2.3-4.6,3.2
		c-7.1,3.9-15,6.5-22.8,8.7c-17.7,5.1-39,5-57.3,2.2c-1.5,2.5-2.7,5.2-3.8,7.9C161.9-1183.3,173-1183.2,184.1-1183.6z"/>
</g>
<g id="QZu4oNzI7IkmIzsYcL5XQ" transform="matrix(1 0 0 1 -77.77 1246.39)">
	<path vector-effect="non-scaling-stroke" class="st3" d="M189.1-1181c9.2-0.5,18.3-2,27.2-4.6c6.2-1.7,12.4-3.8,18.3-6.2
		c1.7-0.7,3.3-1.6,4.9-2.5c0.6-0.3,1.2-0.7,1.7-1.2c-3.9-3.3-8.2-6-12.8-8.1c-20.8-9.8-46.7-5.4-62.9,10.9
		c-3.4,3.4-6.4,7.2-8.8,11.3C167.5-1180.5,178.3-1180.4,189.1-1181z"/>
</g>
<g id="HUzboRdQfuHyghpnhoFyt" transform="matrix(1 0 0 1 -72.27 1287.51)">
	<path vector-effect="non-scaling-stroke" d="M177.7-1142c13.4,5.7,28.5,6,42.1,0.7c0-0.3,0-0.6,0-0.9c0,0.3,0,0.6,0.1,0.8
		c7.4-2.9,14.1-7.3,19.6-13.1c18.6-19.5,21.5-49.1,6.9-71.8c-0.6-0.9-1.2-1.8-1.9-2.7c-0.2,0.2-0.5,0.4-0.8,0.6
		c7.5,9.6,11.7,21.4,11.7,33.6c0.1,21.6-12.9,40.9-32.2,50.1c-32.4,15.3-71-2.4-78.7-37.8c-2.3-10.7-1.4-21.9,2.7-32.1l-1.5-0.2
		l1.5,0.1c1.1-2.7,2.4-5.4,3.9-7.9l-0.9-0.1l0.9,0.1c2.4-4.1,5.4-7.9,8.8-11.3c16.3-16.4,42.1-20.8,62.9-10.9
		c4.6,2.1,8.9,4.9,12.8,8.1c0.2-0.1,0.3-0.3,0.5-0.5l-0.5,0.5c2.9,2.5,5.6,5.3,8,8.3c0.3-0.2,0.5-0.4,0.8-0.6
		c-12.8-17.4-34.3-26-55.6-22.2c-21.2,3.8-38.5,19.4-44.4,40.1l0.9-0.6c-0.3,0.3-0.6,0.6-0.9,0.8c-1.4,4.7-2.1,9.5-2.2,14.4
		c0.2-0.3,0.4-0.5,0.6-0.8c-0.2,0.3-0.4,0.7-0.6,1c-0.1,2.8,0.1,5.6,0.5,8.3l0.4-0.4l-0.4,0.5c0.2,1.7,0.5,3.3,0.9,5
		c0.7,3.3,1.8,6.6,3.1,9.8c0.1-0.1,0.1-0.2,0.2-0.2l-0.2,0.3c5.8,13.9,16.8,25,30.7,31L177.7-1142c-0.1-0.2-0.2-0.4-0.2-0.6
		C177.6-1142.4,177.6-1142.2,177.7-1142z"/>
</g>
<g id="h_q_FOx3VH-StSXX0Kb7o" transform="matrix(1 0 0 1 -77.75 1253.65)">
	<path vector-effect="non-scaling-stroke" d="M213.9-1190.9c7.8-2.2,15.6-4.8,22.8-8.7c1.6-0.9,3.2-2,4.6-3.2l0,0
		c-0.5,0.4-1.1,0.8-1.7,1.2c-1.6,0.9-3.2,1.8-4.9,2.5c-6,2.5-12.1,4.6-18.3,6.2c-8.9,2.5-18,4.1-27.2,4.6
		c-10.8,0.6-21.6,0.5-32.4-0.4v0.1C174.8-1185.9,196.2-1185.7,213.9-1190.9z"/>
</g>
<g id="h6LbNFEaLMWjZagNxknZ4" transform="matrix(1 0 0 1 -120.51 1259.69)">
	<path vector-effect="non-scaling-stroke" d="M198.5-1194.8l0.9,0.1v-0.1H198.5z"/>
</g>
<g id="wS4_F5jTDXvlByP-x1472" transform="matrix(1 0 0 1 -35.25 1245.36)">
	<path vector-effect="non-scaling-stroke" d="M199.2-1195c-0.2,0.2-0.3,0.3-0.5,0.5l0,0L199.2-1195z"/>
</g>
<g id="qBr-PM1ehczllcU1QKiRU" transform="matrix(1 0 0 1 -26.53 1253.21)">
	<path vector-effect="non-scaling-stroke" d="M199.1-1194.9l-0.3,0.2l0,0C198.9-1194.7,199-1194.8,199.1-1194.9z"/>
</g>
<g id="Vr2iixyMULACKZ2w2jDQA" transform="matrix(1 0 0 1 -75.61 1261.79)">
	<path vector-effect="non-scaling-stroke" d="M246.2-1202.1c-3,1.6-6.2,2.9-9.5,4c-5,1.7-10.1,3.2-15.2,4.4
		c-3.6,0.9-7.2,1.8-10.8,2.5c-8.8,1.6-17.7,2.6-26.7,2.9c-11.1,0.4-22.2,0.3-33.3-0.5v0.1c12.1,1.6,24.4,2.2,36.7,1.7
		c12.8-0.5,25.4-2.6,37.7-6.3c7.1-2.1,14.3-4.4,20.7-8.2c0.5-0.3,1-0.7,1.5-1v-0.1L246.2-1202.1z"/>
</g>
<g id="_x31_BP3j-H8WfWplcHjLR2Oo" transform="matrix(1 0 0 1 -27.07 1253.66)">
	<path vector-effect="non-scaling-stroke" d="M198.6-1194.5c0.3-0.2,0.5-0.4,0.8-0.6l0,0C199.1-1194.9,198.9-1194.7,198.6-1194.5
		L198.6-1194.5z"/>
</g>
<g id="fN79yepcA25GU-710nU9q" transform="matrix(1 0 0 1 -124.68 1267.69)">
	<path vector-effect="non-scaling-stroke" d="M198.3-1194.9l1.5,0.2v-0.1L198.3-1194.9z"/>
</g>
<g id="prILGAG0gpiLpwnFVyH72" transform="matrix(1 0 0 1 -88.19 1312.4)">
	<path vector-effect="non-scaling-stroke" d="M198.4-1195l0.9,0.4l0.2,0.1C199.2-1194.7,198.8-1194.8,198.4-1195z"/>
</g>
<g id="Qze5nC1EbPZCnmLyGH1Wu" transform="matrix(1 0 0 1 -88.91 1294.67)">
	<path vector-effect="non-scaling-stroke" d="M197.1-1178.4c-11.3-7-11.8-24.2,0.8-31c3.9-2,8.4-2.6,12.7-1.5
		c-0.5-0.2-1.1-0.4-1.6-0.6l2.1,0.4c-1.5-0.5-3-0.9-4.5-1c-8.9-0.8-17.1,5.1-19.2,13.8c-2.1,8.7,2.6,17.7,11,20.9
		c-0.9-0.6-1.8-1.2-2.7-1.9C196.1-1178.9,196.6-1178.6,197.1-1178.4z"/>
</g>
<g id="_x30_NpF4YCgNUfpi9RhsJomh" transform="matrix(1 0 0 1 -74.53 1279.49)">
	<path vector-effect="non-scaling-stroke" d="M199-1194.8l-0.2-0.1l0.4,0.2L199-1194.8z"/>
</g>
<g id="_x34_cyy8Ny-IBnspz9sTEjgV" transform="matrix(1 0 0 1 -30.91 1283.15)">
	<path vector-effect="non-scaling-stroke" d="M187.5-1204.7l1.3-0.7l-0.4,0.3c10.3-4.2,20.1,2.4,20.8,13.7c0.1,3.2-0.4,6.3-1.6,9.3
		c0.6-1,1-2,1.4-3.1c-0.2,0.7-0.4,1.4-0.7,2.1c1.4-2.6,2.1-5.4,2.1-8.3c0.1-7.5-5-14.8-12.7-15.7
		C194.1-1207.7,190.5-1206.8,187.5-1204.7z"/>
</g>
<g id="XH-h7BCtiE8LiyOgvx03Q" transform="matrix(1 0 0 1 -59.1 1277.26)">
	<path vector-effect="non-scaling-stroke" d="M188.8-1191.2c3.3,0.8,6.8,1.1,10.2,0.9c1.7-0.2,3.4-0.7,5-1.4c2.3-1,4.6-2.1,6.8-3.5
		c2-1.2,4-2.6,5.9-4c-0.3,0.1-0.7,0.3-1,0.4l0.1-0.1c-4.7,2.5-9.4,5-14.5,6.6c-3.1,0.9-6.5,0.6-9.7,0.2c-3.4-0.4-6.8-1-10.2-1.6
		c0.8,0.3,1.6,0.7,2.3,1.1C185.3-1192,187.1-1191.6,188.8-1191.2z"/>
</g>
<g id="qEvrMoxzPHrXciKdBPSUS" transform="matrix(1 0 0 1 -76.04 1278.98)">
	<path vector-effect="non-scaling-stroke" d="M197.7-1195.2c0.9,0.3,1.7,0.6,2.6,0.8C199.4-1194.7,198.6-1195,197.7-1195.2z"/>
</g>
<g id="xyAJmAv3vRUNOZMKbjENk" transform="matrix(1 0 0 1 -76.73 1278.74)">
	<path vector-effect="non-scaling-stroke" d="M198.4-1194.9c0.9,0.2,1.7,0.5,2.6,0.8l0.2,0.1c-0.7-0.4-1.5-0.8-2.3-1.1l-2.1-0.4
		C197.3-1195.3,197.8-1195.1,198.4-1194.9z"/>
</g>
<g id="hEo_D16S5FcE9EufxvunJ" transform="matrix(1 0 0 1 -41.75 1272.87)">
	<path vector-effect="non-scaling-stroke" d="M199.3-1194.8l0.4-0.3l-1.3,0.7l-0.1,0.1C198.6-1194.6,199-1194.7,199.3-1194.8z"/>
</g>
<g id="efJmkonm8hSO3VaOYZP8_" transform="matrix(1 0 0 1 -55.49 1306.28)">
	<path vector-effect="non-scaling-stroke" d="M232.2-1205.3c-1.1,2-2.5,3.8-4,5.4c-6.9,7.5-16.7,11.6-26.6,13.7
		c-9.8,2.1-20.4,2.5-30.1-0.5c-1.7-0.5-3.3-1.1-4.9-1.8c-0.6-0.1-1.1-0.3-1.6-0.5c7.8,4.8,17.8,6.2,26.7,5.7
		c9.9-0.7,19.8-3.2,28.3-8.5c5.5-3.5,10.5-8.4,13-14.5c-0.3,0.6-0.7,1.3-1,1.9L232.2-1205.3z"/>
</g>
<g id="CgEBLQWwZgP3sDhy5qRK5" transform="matrix(1 0 0 1 -89.77 1311.63)">
	<path vector-effect="non-scaling-stroke" d="M200-1194.2c-0.7-0.3-1.4-0.7-2.1-1.1C198.6-1194.9,199.3-1194.5,200-1194.2z"/>
</g>
<g id="x9siQiD69MDHNHvOa5659" transform="matrix(1 0 0 1 -90.04 1311.38)">
	<path vector-effect="non-scaling-stroke" d="M200.3-1194c-0.7-0.3-1.4-0.7-2.1-1.1c-0.5-0.3-1-0.6-1.4-0.9c0.9,0.7,1.8,1.3,2.7,1.9
		c0.5,0.2,1.1,0.4,1.6,0.5L200.3-1194z"/>
</g>
<g id="rqusUXUMnaJ5UDh0RYOb4" transform="matrix(1 0 0 1 -21.71 1294.61)">
	<path vector-effect="non-scaling-stroke" d="M198.4-1193.7l-0.3,0.9c0.4-0.6,0.7-1.2,1-1.9c0.3-0.6,0.5-1.4,0.7-2.1
		C199.5-1195.7,199-1194.7,198.4-1193.7z"/>
</g>
<g id="q4kmquFCYPAvsLPzsDvwR" transform="matrix(1 0 0 1 -73.61 1298.57)">
	<path vector-effect="non-scaling-stroke" d="M198.4-1200.6L198.4-1200.6c-0.6,0.1-1.1,0.7-1.4,1.8c-0.3,1.4-0.4,2.8-0.2,4.2
		c0.3,3.1,1.6,5.7,2.7,5.6c0.5,0,1-0.7,1.3-1.8c0.3-1.4,0.4-2.8,0.2-4.2C200.8-1198.1,199.6-1200.6,198.4-1200.6z"/>
</g>
<g id="W8M_tYKIMINZiFMCXHhgy" transform="matrix(1 0 0 1 -73.61 1298.6)">
	<path vector-effect="non-scaling-stroke" d="M198.3-1200.8c-0.6,0.1-1.2,0.8-1.5,2c-0.3,1.4-0.4,2.8-0.2,4.3
		c0.3,3.3,1.6,5.8,2.8,5.8h0.1c0.6-0.1,1.2-0.8,1.5-2c0.3-1.4,0.4-2.8,0.2-4.3C200.9-1198.4,199.6-1200.9,198.3-1200.8z
		 M199.6-1188.9c-1.2,0.1-2.5-2.4-2.8-5.7c-0.3-3.2,0.4-6,1.6-6.1c1.2-0.1,2.5,2.4,2.8,5.7S200.8-1189,199.6-1188.9z"/>
</g>
<g id="nqWJEMhDaoKzn_SFpyEWh" transform="matrix(1 0 0 1 -73.61 1298.59)">
	<path vector-effect="non-scaling-stroke" d="M198.4-1200.7c-1.2,0.1-1.9,2.9-1.6,6.1c0.3,3.2,1.6,5.8,2.8,5.7
		c1.2-0.1,1.9-2.9,1.6-6.1S199.6-1200.8,198.4-1200.7z M200.9-1190.8c-0.3,1.1-0.8,1.8-1.3,1.8c-1.1,0.1-2.4-2.4-2.7-5.6
		c-0.2-1.4-0.1-2.8,0.2-4.2c0.3-1.1,0.8-1.8,1.3-1.8h0.1c1.1,0,2.3,2.5,2.6,5.6C201.3-1193.6,201.2-1192.2,200.9-1190.8
		L200.9-1190.8z"/>
</g>
<g id="TtxFjnmOWyPGtALjHDab5" transform="matrix(1 0 0 1 -39.28 1292.1)">
	<path vector-effect="non-scaling-stroke" d="M197.9-1190.5c0.5,1,1.1,1.6,1.6,1.5s1-0.7,1.3-1.8c0.3-1.4,0.4-2.8,0.2-4.2
		c-0.3-3.1-1.5-5.6-2.6-5.6l0,0c-0.5,0.1-1,0.7-1.3,1.8C196.5-1196,196.8-1193.1,197.9-1190.5L197.9-1190.5z"/>
</g>
<g id="wyBBLiGdfC79GASsJbfw4" transform="matrix(1 0 0 1 -39.3 1292.08)">
	<path vector-effect="non-scaling-stroke" d="M197.8-1190.4c0.5,1.1,1.2,1.6,1.8,1.6h0.1c0.6-0.1,1.2-0.8,1.5-2
		c0.3-1.4,0.4-2.8,0.2-4.3c-0.3-3.4-1.6-5.9-2.9-5.8c-0.6,0.1-1.2,0.8-1.5,2C196.3-1196,196.6-1193,197.8-1190.4z M198.3-1200.6
		c1.2-0.1,2.5,2.4,2.8,5.6s-0.4,6-1.6,6.1c-1.2,0.1-2.5-2.4-2.8-5.7S197.1-1200.5,198.3-1200.6L198.3-1200.6z"/>
</g>
<g id="xjsRsl5juztmR5Hx8wZv_" transform="matrix(1 0 0 1 -39.31 1292.1)">
	<path vector-effect="non-scaling-stroke" d="M199.6-1188.9c1.2-0.1,1.9-2.9,1.6-6.1c-0.3-3.2-1.6-5.8-2.8-5.6
		c-1.2,0.1-1.9,2.9-1.6,6.1S198.4-1188.8,199.6-1188.9z M197.1-1198.7c0.3-1.1,0.8-1.8,1.3-1.8h0.1c1.1,0,2.3,2.5,2.6,5.6
		c0.2,1.4,0.1,2.8-0.2,4.2c-0.3,1.1-0.8,1.8-1.3,1.8c-0.5,0.1-1.1-0.5-1.6-1.5C196.8-1193.1,196.5-1196,197.1-1198.7z"/>
</g>
<g id="oEMh0y_1dF7BPGaCSxZbC" transform="matrix(1 0 0 1 -141.3 1281.56)">
	<path vector-effect="non-scaling-stroke" d="M208.5-1188.3c-2.8,1.4-5.8,2.2-8.9,2.6c-6.8,1.2-10.5-5.2-12.4-10.8
		c-0.4-1.1-0.7-2.2-1-3.4l-1.1-0.3l0.9-0.8c0.1,0.4,0.1,0.7,0.2,1.1c5.1,1.2,11.5,2,16.5,1c4-1.1,7.8-3.1,10.9-5.9l0.1-0.2
		c-3.5,2.7-7.7,4.5-12.1,5.3c-2.2,0.2-4.4,0.2-6.7-0.1c-3.2-0.3-6.3-0.9-9.4-1.8l-1.1-0.3c0.2,1.2,0.4,2.3,0.7,3.5
		c1.6,5.9,5.1,13.5,12.1,13.9c0.8,0,1.7-0.1,2.5-0.2c1.6-0.3,3.1-0.7,4.6-1.2c2.4-0.8,5.4-2.2,7-4.4v-0.2
		C210.5-1189.6,209.5-1188.9,208.5-1188.3z"/>
</g>
<g id="apFcHNR1wolzyYWwG96jW" transform="matrix(1 0 0 1 -154.61 1275.86)">
	<path vector-effect="non-scaling-stroke" d="M198.4-1194.5l1.1,0.3c-0.1-0.4-0.2-0.7-0.2-1.1L198.4-1194.5z"/>
</g>
<g id="De2cKMwIg4FQK4UiNk7fm" transform="matrix(1 0 0 1 -128.58 1285.5)">
	<path vector-effect="non-scaling-stroke" d="M198.7-1194.4v0.2c0.2-0.3,0.4-0.7,0.6-1C199.1-1195,198.9-1194.7,198.7-1194.4z"/>
</g>
<g id="Hj5gtboSSIF4mmNZWIOTx" transform="matrix(1 0 0 1 -126.23 1271.05)">
	<path vector-effect="non-scaling-stroke" d="M199.4-1195.2l-0.9,0.6l-0.1,0.2C198.8-1194.6,199.1-1194.9,199.4-1195.2z"/>
</g>
<g id="S7hC63kCQC0-9nzERBwoV" transform="matrix(1 0 0 1 -150.67 1305.89)">
	<path vector-effect="non-scaling-stroke" d="M198.5-1194.3h0.1c0.3,0,0.5,0,0.8-0.1l-0.2-0.8L198.5-1194.3z"/>
</g>
<g id="PYh5zAbJKrSd5TLehFLN4" transform="matrix(1 0 0 1 -138.11 1306.85)">
	<path vector-effect="non-scaling-stroke" d="M201.7-1184.6c-2.8,1.1-5.7,1.9-8.3-0.1c-2.4-1.8-4-4.5-5.2-7.2
		c-0.5-1.1-1-2.3-1.4-3.5c-0.3,0.1-0.5,0.1-0.8,0.1l0,0l0.7-0.9l0.2,0.8c0.8-0.1,1.7-0.4,2.5-0.5c2.1-0.5,4.4-1.1,6.5-1.7
		c5-1.7,9.5-5.5,12.8-9.5v-0.1c-3.8,3.6-8.1,7-13.1,8.5c-0.9,0.3-2.3,0.6-3.2,0.8c-2.1,0.5-4.3,1-6.3,1.3l-0.7,0.9
		c0.2,0.8,0.5,1.5,0.7,2.3c1.4,3.7,3.3,7.6,6.6,9.9c2.1,1.5,4.8,1.8,7.2,0.8c2.3-0.7,4.4-1.9,6.3-3.3c2.4-1.8,4.6-3.9,6.4-6.4l0,0
		C209.6-1189.1,205.9-1186.4,201.7-1184.6z"/>
</g>
<g id="hlXwI_0wJpvj7IgGY-6jm" transform="matrix(1 0 0 1 -128.23 1294.15)">
	<path vector-effect="non-scaling-stroke" d="M199.2-1195l-0.4,0.4v0.1L199.2-1195z"/>
</g>
<g id="EiPGzW5mBQ66fgxBzG0tI" transform="matrix(1 0 0 1 -124.34 1308.99)">
	<path vector-effect="non-scaling-stroke" d="M198.9-1194.6L198.9-1194.6l0.2-0.3C199-1194.8,198.9-1194.7,198.9-1194.6z"/>
</g>
<g id="qRWoYU8QYrsakiHDw7O0I" transform="matrix(1 0 0 1 -115.27 1396.59)">
	<path vector-effect="non-scaling-stroke" d="M209.6-1139.1c0.4-5.2,0.9-10.3,1.4-15.5l-0.6,0.2c0.2-0.1,0.4-0.2,0.6-0.3
		c0.3-2.8,0.5-5.7,0.7-8.6l-0.5,0.4l0.5-0.4c0.7-8.6,1.2-17.1,1.1-25.7c0-5.6-0.2-11.1-0.5-16.7c0.1,8.3,0.2,16.7-0.2,25
		c-0.8,13.7-2.4,27.3-3.7,41h0.6l-0.6,0.6c0-0.2,0-0.4,0-0.6c-7.7,0-22.1-0.1-29.8-0.1c0,0.2,0,0.4,0,0.7l-0.7-0.7h0.7
		c-0.4-13.7-0.3-27.5-0.1-41.2c0-17.2,1.6-38.7,18.6-47.7c3.1-1.6,6.4-2.8,9.7-3.6c0.9-0.2,2.7-0.6,3.6-0.9
		c5.1-1.4,9.4-4.8,10.5-10.2c0.5-2.6,0.4-5.2-0.2-7.7l0,0c0.6,2.5,0.6,5.1,0,7.7c-1.3,5.5-5.7,8.6-10.9,9.8
		c-12.6,2.2-21.8,7.4-27.3,19.4c-4.7,10.4-5.2,21.9-5.4,33.1c-0.2,14-0.4,28,0.1,42v0.7h0.7c7.7,0,23.3-0.1,31.1-0.1h0.6
		L209.6-1139.1L209.6-1139.1l-0.6,0L209.6-1139.1z"/>
</g>
<g id="vIul8TR9q4-DQxspIMVyX" transform="matrix(1 0 0 1 -105.58 1451.88)">
	<path vector-effect="non-scaling-stroke" d="M199.3-1195h-0.6c0,0.2,0,0.4,0,0.6L199.3-1195z"/>
</g>
<g id="VEhhPcpyW1ajXeSNUL64T" transform="matrix(1 0 0 1 -136.01 1451.85)">
	<path vector-effect="non-scaling-stroke" d="M199.3-1194.4c0-0.2,0-0.4,0-0.7h-0.7L199.3-1194.4z"/>
</g>
<g id="GTbKB7CnAoCGDJinFjW1E" transform="matrix(1 0 0 1 -93.66 1339.93)">
	<path vector-effect="non-scaling-stroke" d="M198.9-1195.1c0,0.2,0.1,0.4,0.1,0.6l0,0C199-1194.7,199-1194.9,198.9-1195.1z"/>
</g>
<g id="QjY9qD344UifKQHAhFftU" transform="matrix(1 0 0 1 -23.36 1358.89)">
	<path vector-effect="non-scaling-stroke" d="M175.5-1202.5l0.2-0.4C175.6-1202.7,175.5-1202.6,175.5-1202.5c1.6,1,3.4,1.5,5.2,1.5
		c0.7,0,1.5-0.1,2.2-0.1c0.1-0.2,0.1-0.4,0.2-0.6l-0.2,0.6c5.7-0.4,11.5-1.4,17,0.7c4.7,1.6,8.6,4.8,12.1,8.3
		c5,5.1,9.9,10.4,15.1,15.4l0,0c-3.9-4.6-7.8-9.1-11.9-13.6c-5.1-5.9-11.5-11.5-19.5-12.4c-4.9-0.6-9.7,0.4-14.6,0.8
		c-0.3,0-0.8,0-1.1,0c-6-0.1-8.5-5.4-9.1-10.6h-0.1C170.9-1208.6,172.3-1204.6,175.5-1202.5z"/>
</g>
<g id="SXiPha_aLGiuSeo1RH_4Y" transform="matrix(1 0 0 1 -51.43 1340.56)">
	<path vector-effect="non-scaling-stroke" d="M198.9-1194.4L198.9-1194.4c0.1-0.3,0-0.6,0-0.8
		C198.9-1194.9,198.9-1194.6,198.9-1194.4z"/>
</g>
<g id="UnmZ5pL6Rreby0wE8qYcw" transform="matrix(1 0 0 1 -33.02 1451.82)">
	<path vector-effect="non-scaling-stroke" d="M199.3-1195.1h-0.7c0,0.2,0,0.4,0,0.7L199.3-1195.1z"/>
</g>
<g id="_x32_sm0IdHxqz5uus4iq31TA" transform="matrix(1 0 0 1 -67.7 1413.05)">
	<path vector-effect="non-scaling-stroke" d="M235.4-1213.8c-0.4-7-1.1-14-2.1-20.9c1.4,16.4,1.9,32.9,1.4,49.4
		c-0.2,9.6-0.7,19.3-1.4,28.9h0.7l-0.7,0.7c0-0.2,0-0.4,0-0.7c-11.7,0-23.9,0.1-35.6,0.2c-11.9,0.1-23.8,0.3-35.7,0.5l0,0
		c5.8,0.1,11.7,0.2,17.5,0.3c18.1,0.3,36.4,0.4,54.5,0.4h0.7l0.1-0.7c1.1-14,1.5-28,1.3-42.1C235.9-1203,235.7-1208.4,235.4-1213.8
		l-0.4-0.6C235.1-1214.1,235.3-1214,235.4-1213.8z"/>
</g>
<g id="LJFDdKyYsipwKJH8Akz_t" transform="matrix(1 0 0 1 -104.98 1452.22)">
	<path vector-effect="non-scaling-stroke" d="M198.7-1194.8h0.6l0,0H198.7z"/>
</g>
<g id="Yixhnp7bpaJxOfIU4d2hB" transform="matrix(1 0 0 1 37.44 1364.99)">
	<path vector-effect="non-scaling-stroke" d="M198.9-1194.8L198.9-1194.8h0.1H198.9z"/>
</g>
<g id="fP1Wpd3WuLsq34IUJbi5x" transform="matrix(1 0 0 1 17.98 1373.32)">
	<path vector-effect="non-scaling-stroke" d="M185.7-1191.2c-0.6,0.4-1.3,0.8-1.9,1.3c-1.5,1-2.8,2.2-4,3.5c1.4-1.1,2.9-2.1,4.4-2.9
		c5.4-3,11-5.4,16.9-7.4c5.7-2,11.4-4.1,17.1-6.3v-0.1c-5.1,1.1-10.1,2.6-15.1,4.2C197-1197.1,191.2-1194.6,185.7-1191.2
		c0.1,0.1,0.2,0.2,0.3,0.3L185.7-1191.2z"/>
</g>
<g id="oF_q5Jlv_2VnJE904aSCK" transform="matrix(1 0 0 1 4.91 1376.99)">
	<path vector-effect="non-scaling-stroke" d="M199.1-1194.6c-0.1-0.1-0.2-0.2-0.3-0.4l0,0L199.1-1194.6z"/>
</g>
<g id="Bgu2cQP9slm8vS0T8xeLO" transform="matrix(1 0 0 1 18.08 1392.49)">
	<path vector-effect="non-scaling-stroke" d="M236-1201.6c2.6-1,5-2.4,7.2-4.1c1.8-1.4,3.5-3,5.1-4.8h-0.1c-3,3.1-6.6,5.6-10.6,7.4
		c-3.1,1.3-6.4,2.1-9.8,2.6c-2.7,0.4-5.4,0.7-8.1,0.8h-0.2l-0.2,0.1c-10.5,8.7-25.8,18.2-39.6,19.2l-1.2,0.1h-1.8
		c-5.6-0.1-11.1-1.5-16.1-3.9c-4.3-2.1-8-5.2-10.8-9v0.1c5.3,8.4,15.3,13,25,13.9l1.9,0.1c0.3,0,1.6,0,1.9,0c0.8,0,1.8-0.1,2.6-0.1
		c13.9-1.3,28.4-10.4,39-19.3H220l0.4-0.1l-0.2,0.1c1.3-0.1,2.6-0.2,3.9-0.4C228.1-1199.4,232.1-1200.3,236-1201.6z"/>
</g>
<g id="XUJlZJOtQNkaSWLxZgXYH" transform="matrix(1 0 0 1 39.05 1388.64)">
	<path vector-effect="non-scaling-stroke" d="M198.8-1194.7h0.2l0.2-0.1L198.8-1194.7z"/>
</g>
<g id="SallBodjSWK76tGA7aCfe" transform="matrix(1 0 0 1 -31.47 1393.79)">
	<path vector-effect="non-scaling-stroke" d="M198.8-1195.1l0.4,0.7v-0.1C199-1194.7,198.9-1194.9,198.8-1195.1z"/>
</g>
<g id="V2NKpcDJSDUemXo12UCYW" transform="matrix(1 0 0 1 66.32 1355.12)">
	<path vector-effect="non-scaling-stroke" d="M178.3-1196.4c0.5-3.7,1.9-7.3,4.1-10.3c5.9-8,17.8-11.1,26.6-6.2
		c9.1,4.9,12.5,16.6,8.3,25.9c-3.6,8-12,12.8-20.7,12.1c-5.9-0.5-11.3-3.5-14.9-8.1l-0.2,0.3c1.8,3,4.4,5.4,7.4,7.1
		c3.4,1.8,7.2,2.7,11,2.6c0.3-0.3,0.6-0.6,0.9-1l-0.8,1c2.8-0.1,5.5-0.8,8-1.9c16.2-7.7,16.5-29.5,1.2-38.4
		c-6.8-4.1-15.8-4.2-22.4,0.3c-6.4,4.2-9.9,11.7-9.1,19.3l0.4-0.2C178.1-1194.8,178.2-1195.6,178.3-1196.4z"/>
</g>
<g id="BktdbJBtkyswdvNCfPJ6E" transform="matrix(1 0 0 1 67.72 1376.3)">
	<path vector-effect="non-scaling-stroke" d="M198.5-1194.3h0.1l0.8-1C199.1-1194.9,198.8-1194.6,198.5-1194.3z"/>
</g>
<g id="TAcCjnU3CqFlYyrnwAUUo" transform="matrix(1 0 0 1 44.96 1365.96)">
	<path vector-effect="non-scaling-stroke" d="M203.5-1204.6c2,0.6,2.2,2.6,1.6,4.3c-1.1,3.2-3.3,6.1-5.5,8.6l-0.2,0.2v0.2
		c0.1,2.5-0.4,4.9-2.4,6.5c-0.6,0.6-1.4,1-2.2,1.1c1.8-0.2,3.3-1.2,4.3-2.6c0.9-1.5,1.4-3.1,1.4-4.8l-0.1,0.1l0.2-0.4
		c0,0.1,0,0.2,0,0.3c0.7-0.7,1.5-1.6,2.3-2.6c-0.2-0.4-0.5-0.8-0.7-1.2l0.2-0.1c0.2,0.3,0.5,0.7,0.7,1c2.6-3.3,5.1-7.8,2.9-10.7
		c-0.2-0.2-0.5-0.5-0.7-0.7c-0.2,0.3-0.6,0.4-0.9,0.3c-0.5-0.1-0.7-0.6-0.7-1c-1.5-0.2-3,0.2-4.2,1.1c0,0.4,0,0.9,0,1.4h-0.2
		c-0.1-0.4-0.1-0.8-0.2-1.2c-3.2,2.2-6.4,6.5-7.9,8.9h0.2C194.1-1198.9,199.9-1205.3,203.5-1204.6z"/>
</g>
<g id="_x35_oFtPeIGn4XCPfPupovh2" transform="matrix(1 0 0 1 46.45 1369.65)">
	<path vector-effect="non-scaling-stroke" d="M198.9-1194.6l0.1-0.1c0-0.1,0-0.2,0-0.3L198.9-1194.6z"/>
</g>
<g id="rDlYgPRW61aQ0uEW1ZeYC" transform="matrix(1 0 0 1 37.08 1365.32)">
	<path vector-effect="non-scaling-stroke" d="M199.3-1195.1l-0.2,0.1l-0.3,0.5L199.3-1195.1z"/>
</g>
<g id="A9ajrBXfMEWJsLGA_dDIy" transform="matrix(1 0 0 1 37.25 1365.05)">
	<path vector-effect="non-scaling-stroke" d="M199.1-1194.8L199.1-1194.8h-0.2v0.1L199.1-1194.8z"/>
</g>
<g id="_x33_KZCJ5LjXsuWpmOjw3lrH" transform="matrix(1 0 0 1 45.28 1356.59)">
	<path vector-effect="non-scaling-stroke" d="M199.2-1194.1c0-0.5,0-0.9,0-1.4l-0.4,0.2c0,0.4,0.1,0.8,0.2,1.2L199.2-1194.1z"/>
</g>
<g id="uqalwSk5HVN9gumqQ8HAO" transform="matrix(1 0 0 1 48.6 1366.46)">
	<path vector-effect="non-scaling-stroke" d="M198.7-1195.4l-0.2,0.1c0.2,0.4,0.4,0.8,0.7,1.2l0.2-0.3
		C199.2-1194.7,198.9-1195.1,198.7-1195.4z"/>
</g>
<g id="do8Q8s58WNoSGXPpOdp5h" transform="matrix(1 0 0 1 -74.71 1389.65)">
	<path vector-effect="non-scaling-stroke" d="M202.5-1184.5c1.3-1.5,2.6-3.3,3.7-4.9c8.9-13.6,15.3-28.6,20.6-43.8l0,0
		c-5.8,13.6-12,27.2-19.7,39.9c-1.2,1.9-2.5,3.9-3.8,5.6c-1.5,2-3.2,4-4.8,5.9c-3.3,3.7-7,7.5-10.6,10.9c-2.5,2.4-5.2,4.9-7.9,7.2
		c-2.9,2.5-5.8,5-8.8,7.4v0.1c4-2.8,7.9-5.8,11.7-8.8C190-1171,196.5-1177.4,202.5-1184.5z"/>
</g>
<g id="de3WeR6yj0MoAPeB1KBLq" transform="matrix(1 0 0 1 -102.83 1428.24)">
	<path vector-effect="non-scaling-stroke" d="M198.7-1194.5l0.5-0.4v-0.1L198.7-1194.5z"/>
</g>
<g id="mbDzwK0_coLGUp52qyVUF" transform="matrix(1 0 0 1 -46.85 1350.96)">
	<path vector-effect="non-scaling-stroke" d="M199.1-1195l-0.2,0.4l0,0C198.9-1194.7,199-1194.8,199.1-1195z"/>
</g>
<g id="jwzT6jSOI_zADlT0Q2FVz" transform="matrix(1 0 0 1 -71.3 1394.64)">
	<path vector-effect="non-scaling-stroke" d="M179.8-1160.2c0.9-0.6,2-1.4,2.8-2s2-1.4,2.7-2.1c1.2-1,2.8-2.2,4-3.3
		c2.5-2.1,5.2-4.7,7.5-7.1c1.4-1.4,3.4-3.6,4.7-5.1s2.4-2.9,3.6-4.3c9.5-12.1,16.6-25.9,21.8-40.3c0.8-2.2,1.5-4.3,2.2-6.5
		c0.6-2,1.2-4,1.7-6l0,0c-2.8,8.5-6.2,16.7-10.1,24.7c-4.9,10.3-10.9,20-18,28.8c-4.3,5.3-9,10.3-14,14.9
		c-6.5,6.1-13.8,11.3-21.6,15.6v0.1c4-1.8,7.8-4,11.4-6.5C178.7-1159.4,179.5-1160,179.8-1160.2z"/>
</g>
<g id="JZ3Q7Mgb9eq1Ruc1aWnDE" transform="matrix(1 0 0 1 -103.6 1436.8)">
	<path vector-effect="non-scaling-stroke" d="M198.7-1194.6l0.6-0.2v-0.1C199.1-1194.9,198.9-1194.7,198.7-1194.6z"/>
</g>
<g id="_x33_K1o3r8u1cajp8jC7NdyD" transform="matrix(1 0 0 1 -39.41 1352.24)">
	<path vector-effect="non-scaling-stroke" d="M199.1-1195.1c-0.1,0.2-0.1,0.4-0.2,0.6h0.1L199.1-1195.1z"/>
</g>
<g id="AzxX8vu5HBg9HeH13x74_" transform="matrix(1 0 0 1 63.45 1350.28)">
	<path vector-effect="non-scaling-stroke" d="M196.6-1194.8c0-1.3,1-2.3,2.3-2.3s2.3,1,2.3,2.3s-1,2.3-2.3,2.3
		S196.6-1193.5,196.6-1194.8z"/>
</g>
<g id="Hzbr4W02dIHtMeKR9Zdvu" transform="matrix(1 0 0 1 61.11 1354.97)">
	<path vector-effect="non-scaling-stroke" d="M196.6-1194.8c0-1.3,1-2.3,2.3-2.3s2.3,1,2.3,2.3s-1,2.3-2.3,2.3
		S196.6-1193.5,196.6-1194.8z"/>
</g>
<g id="prkiMEIXV9SqjlGQ6E21Z" transform="matrix(1 0 0 1 63.46 1359.32)">
	<path vector-effect="non-scaling-stroke" d="M196.6-1194.8c0-1.3,1-2.3,2.3-2.3s2.3,1,2.3,2.3s-1,2.3-2.3,2.3
		S196.6-1193.5,196.6-1194.8z"/>
</g>
<g id="MowEK8BtJR_WSWiUIsc2o" transform="matrix(1 0 0 1 58.36 1359.32)">
	<path vector-effect="non-scaling-stroke" d="M199-1193.3c0.8,0,1.5-0.7,1.5-1.5s-0.7-1.5-1.5-1.5s-1.5,0.7-1.5,1.5
		c0,0.4,0.2,0.8,0.4,1.1S198.6-1193.3,199-1193.3z"/>
</g>
<g id="_WdcwlRYmLXHQkQnTpoEp" transform="matrix(1 0 0 1 58.19 1350.63)">
	<path vector-effect="non-scaling-stroke" d="M199.2-1193.3c0.8-0.1,1.3-0.7,1.3-1.5s-0.6-1.4-1.3-1.5c-0.6-0.1-1.1,0.2-1.5,0.7
		c-0.3,0.5-0.3,1.1,0,1.6C198-1193.5,198.6-1193.2,199.2-1193.3z"/>
</g>
<g id="paGG15ZWgheVJCDL_aopW" transform="matrix(1 0 0 1 60.48 1344.78)">
	<path vector-effect="non-scaling-stroke" d="M197.8-1194.8c0-0.7,0.5-1.2,1.2-1.2s1.2,0.5,1.2,1.2s-0.5,1.2-1.2,1.2
		C198.3-1193.5,197.8-1194.1,197.8-1194.8z"/>
</g>
<g id="OBQX2kbLstBDbp4o1VijO" transform="matrix(1 0 0 1 54.6 1354.97)">
	<path vector-effect="non-scaling-stroke" d="M197.8-1194.8c0-0.7,0.5-1.2,1.2-1.2s1.2,0.5,1.2,1.2s-0.5,1.2-1.2,1.2
		C198.3-1193.5,197.8-1194.1,197.8-1194.8z"/>
</g>
<g id="NGVE41dA1tuOGKu0Y-OVo" transform="matrix(1 0 0 1 60.48 1364.95)">
	<path vector-effect="non-scaling-stroke" d="M197.8-1194.8c0-0.7,0.5-1.2,1.2-1.2s1.2,0.5,1.2,1.2s-0.5,1.2-1.2,1.2
		C198.3-1193.5,197.8-1194.1,197.8-1194.8z"/>
</g>
<g id="LdWzwxyDkHayLSmrHr2vA" transform="matrix(1 0 0 1 53.79 1347.76)">
	<path vector-effect="non-scaling-stroke" d="M199-1193.7c0.6,0,1-0.5,1-1c0-0.6-0.5-1-1-1c-0.6,0-1,0.5-1,1
		C197.9-1194.2,198.4-1193.7,199-1193.7z"/>
</g>
<g id="GeDTprl3L_tUT1so2p9FB" transform="matrix(1 0 0 1 53.79 1362.22)">
	<path vector-effect="non-scaling-stroke" d="M199-1193.8c0.6,0,1-0.4,1-1s-0.4-1-1-1s-1,0.4-1,1S198.4-1193.8,199-1193.8z"/>
</g>
<g id="Y9uL64MWI-7tPDyXDYvWr" transform="matrix(1 0 0 1 58.36 1368.57)">
	<path vector-effect="non-scaling-stroke" d="M199.2-1195.6c-0.5-0.1-1,0.2-1.1,0.6c-0.1,0.5,0.2,1,0.6,1.1c0.5,0.1,1-0.2,1.1-0.6
		c0.1-0.2,0-0.5-0.1-0.7S199.4-1195.6,199.2-1195.6z"/>
</g>
<g id="U14xd6Sm96RnLSHzalyWn" transform="matrix(1 0 0 1 58.34 1341.2)">
	<path vector-effect="non-scaling-stroke" d="M198.8-1193.9c0.3,0.1,0.7,0,0.9-0.3s0.2-0.7,0.1-1c-0.2-0.3-0.5-0.5-0.9-0.4
		s-0.6,0.3-0.7,0.7C198-1194.5,198.3-1194,198.8-1193.9z"/>
</g>
<g id="cj2XQ3yAExdstyGba_EPa" transform="matrix(1 0 0 1 50.51 1354.78)">
	<path vector-effect="non-scaling-stroke" d="M199.2-1195.4c-0.5-0.1-0.9,0.2-1.1,0.7c0.6,0.1,1.1,0.4,1.6,0.7
		c0.1-0.1,0.1-0.2,0.2-0.3C199.9-1194.9,199.6-1195.3,199.2-1195.4z"/>
</g>
<g id="Dt_OWmKqQZCvSN-V5mJyH" transform="matrix(1 0 0 1 50.41 1355.32)">
	<path vector-effect="non-scaling-stroke" d="M198.8-1194.3c0.3,0.1,0.7,0,0.9-0.3c-0.5-0.4-1-0.6-1.6-0.7
		C198.1-1194.8,198.4-1194.4,198.8-1194.3z"/>
</g>
<g id="QoIWTjcgoLOYiflrHDjP8" transform="matrix(1 0 0 1 68.81 1350.01)">
	<path vector-effect="non-scaling-stroke" d="M196.6-1194.8c0-1.3,1-2.3,2.3-2.3s2.3,1,2.3,2.3s-1,2.3-2.3,2.3
		S196.6-1193.5,196.6-1194.8z"/>
</g>
<g id="GL2q0WgrTeZg4Hiw1T4UW" transform="matrix(1 0 0 1 71.25 1355.05)">
	<path vector-effect="non-scaling-stroke" d="M196.6-1194.8c0-1.3,1-2.3,2.3-2.3s2.3,1,2.3,2.3s-1,2.3-2.3,2.3
		S196.6-1193.5,196.6-1194.8z"/>
</g>
<g id="Atyh2_LUVeRkk9vKf_lEX" transform="matrix(1 0 0 1 68.91 1359.39)">
	<path vector-effect="non-scaling-stroke" d="M196.6-1194.8c0-1.3,1-2.3,2.3-2.3s2.3,1,2.3,2.3s-1,2.3-2.3,2.3
		S196.6-1193.5,196.6-1194.8z"/>
</g>
<g id="a6WIxgY4J__5B1tiGR8kR" transform="matrix(1 0 0 1 74.17 1359.4)">
	<path vector-effect="non-scaling-stroke" d="M198.8-1196.3c-0.8,0.1-1.3,0.7-1.3,1.5s0.6,1.4,1.3,1.5c0.6,0.1,1.1-0.2,1.5-0.7
		c0.3-0.5,0.3-1.1,0-1.6S199.4-1196.3,198.8-1196.3z"/>
</g>
<g id="iyl_sajESSpPEB1MntqYR" transform="matrix(1 0 0 1 74 1350.53)">
	<path vector-effect="non-scaling-stroke" d="M197.5-1194.6c0.1,0.8,0.7,1.3,1.5,1.3s1.4-0.6,1.5-1.3c0.1-0.6-0.2-1.1-0.7-1.5
		c-0.5-0.3-1.1-0.3-1.6,0C197.7-1195.7,197.4-1195.2,197.5-1194.6z"/>
</g>
<g id="vOMwE6pUg66sI4aHC0ggQ" transform="matrix(1 0 0 1 71.88 1344.86)">
	<path vector-effect="non-scaling-stroke" d="M197.8-1194.8c0-0.7,0.5-1.2,1.2-1.2s1.2,0.5,1.2,1.2s-0.5,1.2-1.2,1.2
		C198.3-1193.5,197.8-1194.1,197.8-1194.8z"/>
</g>
<g id="BMln4buXvLbWqqCp3mmDU" transform="matrix(1 0 0 1 77.76 1355.04)">
	<path vector-effect="non-scaling-stroke" d="M199-1193.5c0.5,0,0.9-0.3,1.1-0.8c0.2-0.5,0.1-1-0.3-1.3c-0.4-0.3-0.9-0.5-1.3-0.3
		c-0.5,0.2-0.8,0.6-0.7,1.1C197.8-1194.1,198.3-1193.5,199-1193.5z"/>
</g>
<g id="jyYutDiapnZ0gMpbcvZFD" transform="matrix(1 0 0 1 71.88 1365.03)">
	<path vector-effect="non-scaling-stroke" d="M197.8-1194.8c0-0.7,0.5-1.2,1.2-1.2s1.2,0.5,1.2,1.2s-0.5,1.2-1.2,1.2
		C198.3-1193.5,197.8-1194.1,197.8-1194.8z"/>
</g>
<g id="UTjhVzOZkrjOvZxVudhi-" transform="matrix(1 0 0 1 78.57 1347.88)">
	<path vector-effect="non-scaling-stroke" d="M199-1193.8c0.6,0,1-0.4,1-1s-0.4-1-1-1s-1,0.4-1,1S198.4-1193.8,199-1193.8z"/>
</g>
<g id="zYS8tprNo6VZG_8AdkO6y" transform="matrix(1 0 0 1 78.57 1362.22)">
	<path vector-effect="non-scaling-stroke" d="M199-1195.8c-0.6,0-1,0.4-1,1s0.4,1,1,1s1-0.4,1-1S199.5-1195.8,199-1195.8z"/>
</g>
<g id="yBnbPxwiU6Fe00t0ajIAW" transform="matrix(1 0 0 1 74 1368.66)">
	<path vector-effect="non-scaling-stroke" d="M198.8-1195.6c-0.4,0.1-0.6,0.4-0.7,0.7s0.1,0.7,0.4,0.9c0.3,0.2,0.7,0.2,1,0
		s0.4-0.6,0.3-0.9c-0.1-0.2-0.2-0.4-0.4-0.5C199.2-1195.6,199-1195.7,198.8-1195.6z"/>
</g>
<g id="_x34_RNDBzYQlFxri0u7rns28" transform="matrix(1 0 0 1 74 1341.28)">
	<path vector-effect="non-scaling-stroke" d="M199.2-1193.9c0.5-0.1,0.8-0.6,0.6-1.1c-0.1-0.3-0.4-0.6-0.7-0.7s-0.7,0.1-0.9,0.4
		s-0.2,0.7,0.1,1C198.5-1193.9,198.9-1193.8,199.2-1193.9z"/>
</g>
<g id="DqUq-x7FCZnulXVXe_l2G" transform="matrix(1 0 0 1 81.9 1355.05)">
	<path vector-effect="non-scaling-stroke" d="M199.2-1193.9c0.5-0.1,0.8-0.6,0.6-1.1c-0.1-0.5-0.6-0.8-1.1-0.6
		c-0.5,0.1-0.8,0.6-0.6,1.1c0.1,0.2,0.2,0.4,0.4,0.5C198.7-1193.9,199-1193.8,199.2-1193.9z"/>
</g>
<g id="RCWSv-yTtfiKpDTR6aqOR" transform="matrix(1 0 0 1 66.01 1363.82)">
	<path vector-effect="non-scaling-stroke" d="M197.5-1194.8c0-0.8,0.7-1.5,1.5-1.5s1.5,0.7,1.5,1.5s-0.7,1.5-1.5,1.5
		S197.5-1193.9,197.5-1194.8z"/>
</g>
<g id="PzwmJpccNcDGEaXU6x0ux" transform="matrix(1 0 0 1 66.01 1345.99)">
	<path vector-effect="non-scaling-stroke" d="M197.5-1194.8c0-0.8,0.7-1.5,1.5-1.5s1.5,0.7,1.5,1.5s-0.7,1.5-1.5,1.5
		S197.5-1193.9,197.5-1194.8z"/>
</g>
<g id="qxAxM4mgFkwRQDDGnskZv" transform="matrix(1 0 0 1 66.18 1369.24)">
	<path vector-effect="non-scaling-stroke" d="M199-1195.8c-0.6,0-1,0.4-1,1s0.4,1,1,1s1-0.4,1-1S199.5-1195.8,199-1195.8z"/>
</g>
<g id="BJsl6TY6RWmhWvMnjbgnL" transform="matrix(1 0 0 1 66.18 1340.7)">
	<path vector-effect="non-scaling-stroke" d="M199-1193.8c0.6,0,1-0.4,1-1s-0.4-1-1-1s-1,0.4-1,1S198.4-1193.8,199-1193.8z"/>
</g>
<g id="V3KsScFrCsoSSRZ6GXIr2" transform="matrix(1 0 0 1 53.9 1443.15)">
	<path vector-effect="non-scaling-stroke" d="M199.1-1194.7l-0.1-0.2h-0.2L199.1-1194.7z"/>
</g>
<g id="JO0tISaMkOv-N_TcNCE_8" transform="matrix(1 0 0 1 98.56 1437.01)">
	<path vector-effect="non-scaling-stroke" d="M199.2-1194.8H199l-0.2,0.2L199.2-1194.8z"/>
</g>
<g id="yelnIl3gdX2J-cmIM7KrA" transform="matrix(1 0 0 1 44.87 1416.03)">
	<path vector-effect="non-scaling-stroke" d="M198.6-1194.4l0.7-0.1c0-0.2-0.1-0.5-0.2-0.7L198.6-1194.4z"/>
</g>
<g id="jlIAVk320z7XTuZmqmxro" transform="matrix(1 0 0 1 123.21 1411.68)">
	<path vector-effect="non-scaling-stroke" d="M199-1194.9l-0.1,0.1v0.2L199-1194.9z"/>
</g>
<g id="dGN3b0caOzPm9Kru01b17" transform="matrix(1 0 0 1 114.22 1381.86)">
	<path vector-effect="non-scaling-stroke" d="M198.8-1194.9l0.2,0.2l0.2-0.2H198.8z"/>
</g>
<g id="PPdnCbgeIMD4uoo2u7NKP" transform="matrix(1 0 0 1 85.63 1408.64)">
	<path vector-effect="non-scaling-stroke" d="M199.2-1194.8H199l-0.2,0.2L199.2-1194.8z"/>
</g>
<g id="zi3oYsPfiIkkqLTP7qDIm" transform="matrix(1 0 0 1 83.79 1412.52)">
	<path vector-effect="non-scaling-stroke" d="M237.5-1193.6c0.5-0.6,1.1-1.2,1.6-1.8v-0.2l-0.1-1.7c0-0.3-0.1-1-0.1-1.3
		c-0.2-1.3-0.4-2.6-0.8-3.9c-0.5-2.1-1.1-4.1-1.8-6.1l-0.2-0.1c0.3,1,0.5,2,0.7,3c0.8,2.8,1.2,5.6,1.4,8.5v1.6l0.1-0.1l-0.1,0.3
		v-0.1c-7,7-14.9,15.1-21.7,22.2c-1,1-2,2-2.9,3.1h0.2l-0.4,0.2l0.2-0.2c-10.8,1.5-22.8,3.3-33.5,4.7c-3.7,0.5-7.4,0.9-11.1,1.4
		l0.1,0.2l-0.3-0.2h0.2c-2.4-6.1-4.8-12.3-6.8-18.6c-0.1-0.4-0.4-1.3-0.5-1.7c-0.5-2.1-0.9-4.3-1.5-6.4l-0.7,0.1l0.5-0.8
		c0,0.2,0.1,0.4,0.2,0.7c7.6-1.1,23.6-3.6,30.5-4.6c3.5-0.5,7.1-1.1,10.6-1.7l0.2-0.2c9.1-9,18.7-18.7,27.7-27.9l-0.2-0.2h0.3
		l-0.2,0.2c0.9,1.2,2.4,3.1,3.4,4.4l0.2-0.1l-3.4-4.8l-0.2-0.2l-0.2,0.2l-2.2,2.1l0.6-0.2l-0.8,0.4l-1.3,1.2
		c-8.1,7.7-16.8,16-24.8,23.8h0.2l-0.4,0.2l0.2-0.2c-11.6,1.7-27.5,4.4-39.6,6.3l-1.6,0.9l1.2-0.8l-1.3,0.2l-0.7,0.1l0.2,0.7
		c0.7,2.6,1.3,5.3,2,7.9c0.6,2,1.4,4.1,2.2,6c1.8,4.6,3.7,9.1,5.6,13.7c7.6-1,15.1-2,22.7-2.9c6.7-0.8,16.2-1.7,22.8-2.6
		c1.1-1.1,2.2-2.2,3.3-3.4c6.4-6.6,13.5-14.2,19.9-21.1h-0.6L237.5-1193.6z"/>
</g>
<g id="kN8JiOtA4gtePOz5v8G-o" transform="matrix(1 0 0 1 78.76 1399.26)">
	<path vector-effect="non-scaling-stroke" d="M181.1-1187.6c1.1-0.6,3-1.6,4.2-2.2c4.3-2.2,11.4-5.9,15.8-8
		c4.9-2.1,10.2-4.5,15.2-6.4c1.1-0.4,2.3-0.8,3.4-1.2c4.2-1.6,8.3-3.3,12.3-5.1l0.1-0.1l-8.3,2.8c-3,1-6,1.9-9,2.9
		c-4.9,1.7-9.6,3.7-14.3,5.7c-0.3,0.1-0.8,0.3-1.1,0.5c-5.5,2.8-11.3,5.8-16.7,8.9c-5.7,3.3-11.2,7-16.7,10.7l0.4-0.1
		C171.2-1181.9,176.2-1184.8,181.1-1187.6z"/>
</g>
<g id="lhuHs8D2wZJXVncuMxtnC" transform="matrix(1 0 0 1 112.11 1383.47)">
	<path vector-effect="non-scaling-stroke" d="M199.4-1194.9l-0.6,0.2l-0.1,0.1L199.4-1194.9z"/>
</g>
<g id="kalQavDdXppfXXCyCfX9G" transform="matrix(1 0 0 1 45.23 1415.36)">
	<path vector-effect="non-scaling-stroke" d="M199.8-1195.2l-0.4,0.1l-1.2,0.8L199.8-1195.2z"/>
</g>
<g id="_x39_ozG_x5F_2g2NFH6aMZNTDTvX" transform="matrix(1 0 0 1 82.96 1402.34)">
	<path vector-effect="non-scaling-stroke" d="M197.9-1198.5c-0.9,2.7,0.7,5.5,2.5,7.4c-0.3-1.3-0.7-2.6-1.2-3.7
		C198.6-1196,198.2-1197.2,197.9-1198.5z"/>
</g>
<g id="zLx0vSOji6xVVvqEs4llv" transform="matrix(1 0 0 1 92.47 1422.8)">
	<path vector-effect="non-scaling-stroke" d="M194.4-1205.1c2.4,7.2,5.5,14.1,9.2,20.6c-1.2-3.6-2.6-7.1-4.1-10.5
		C197.9-1198.4,196.2-1201.8,194.4-1205.1z"/>
</g>
<g id="HF6BLMuKOKNyvd9OpTo7k" transform="matrix(1 0 0 1 100.61 1405.98)">
	<path vector-effect="non-scaling-stroke" d="M194.1-1191.2c1.8-0.9,3.6-2,5.2-3.2c1.7-1.2,3.2-2.5,4.6-4c-1.8,0.9-3.6,2-5.2,3.2
		C197-1194,195.5-1192.6,194.1-1191.2z"/>
</g>
<g id="_x38_ocBsugS-zVZGJqaLXvck" transform="matrix(1 0 0 1 104.83 1410.7)">
	<path vector-effect="non-scaling-stroke" d="M189.9-1188.5c3.2-1.8,6.4-3.7,9.4-5.9c3.1-2.1,6-4.3,8.8-6.7
		C201.6-1197.4,195.5-1193.2,189.9-1188.5z"/>
</g>
<g id="aZYpYVB2vRlRlTA45anOp" transform="matrix(1 0 0 1 110.15 1417.84)">
	<path vector-effect="non-scaling-stroke" d="M190.3-1187.6c3.1-2.1,6.1-4.3,9-6.7c2.9-2.4,5.7-4.9,8.3-7.6
		C201.5-1197.7,195.7-1192.9,190.3-1187.6L190.3-1187.6z"/>
</g>
<g id="bFfN77JlA3fOvfvUxXkQT" transform="matrix(1 0 0 1 65.31 1421.08)">
	<path vector-effect="non-scaling-stroke" d="M185.7-1193c8.9-0.4,17.8-1.6,26.5-3.5C203.3-1196.1,194.5-1194.9,185.7-1193z"/>
</g>
<g id="GrSA6CVniax3P_3zNGfuw" transform="matrix(1 0 0 1 67.08 1428.38)">
	<path vector-effect="non-scaling-stroke" d="M185.3-1193.1c9.2-0.4,18.4-1.5,27.4-3.3C203.5-1196,194.3-1194.9,185.3-1193.1z"/>
</g>
<g id="ezh4kUNKuvz-Y0rHL8UY_" transform="matrix(1 0 0 1 70 1436.09)">
	<path vector-effect="non-scaling-stroke" d="M212.1-1196.7c-8.8,0.6-17.6,1.9-26.2,3.8C194.7-1193.4,203.5-1194.7,212.1-1196.7z"/>
</g>
<g id="_x38_-7k7U4iOKikbwdNoANN_x5F_" transform="matrix(1 0 0 1 129.67 1390.5)">
	<path vector-effect="non-scaling-stroke" d="M211.6-1204.7c-6.5,3.4-14.1,4-21.3,4.7c-0.5,0-1,0.1-1.5,0.3
		c-0.6,0.2-1.2,0.5-1.8,0.8l0.4,0.5l-0.1,0.1l-0.4-0.6l-0.5,0.2c-2.4,1.2-4.6,2.5-6.9,3.9c-2.5,1.7-8.2,5.5-7.9,8.9
		c0.2,1.1,0.9,2,2,2.3c4.1,1.4,12.5-1.5,16.6-3.1l-0.2-0.1h0.2c0-0.1,0-0.2-0.1-0.3h0.1l0.2,0.5l0.2,0.1c5,1.9,10.8,1.1,15.9-0.2
		c1.8-0.5,3.5-1.1,5.2-2c-0.8,0.4-1.7,0.7-2.6,1c-5.4,1.7-12.8,2.7-18.2,0.5c-0.2-0.1-0.5-0.2-0.7-0.4l-0.2,0.1
		c-4,1.6-8.2,2.6-12.5,3.2c-4,0.4-6.8-1-3.4-4.8c1.8-1.8,3.8-3.4,6-4.7c2.2-1.4,4.5-2.6,6.8-3.8c0.8-0.4,1.5-0.8,2.3-1
		c0.2-0.1,0.3-0.1,0.5-0.1c0.4-0.1,1.5-0.1,1.9-0.2c2.6-0.2,5.2-0.4,7.8-0.9c9.8-1.4,16.3-4.8,23.1-11.9c0.8-0.8,1.5-1.6,2.2-2.5
		c0-0.7,0-1.3,0-2l1.3,0.4c-0.4,0.5-0.8,1-1.3,1.5c0,11.5,0.1,24.8,0.2,36.1l0.1-0.1l-0.1,0.3v-0.2c-0.5,0.4-1,0.8-1.5,1.1
		c-7.3,4.2-23.1,5.4-32,5.3l0,0c9,0.5,24.9-0.3,32.5-4.5c0.8-0.4,1.4-0.9,2-1.6c0-4.9,0.1-14.4,0.1-19.3c0-5.8,0.1-15.5,0.1-21.2
		c-0.9,1.1-1.9,2.5-2.9,3.6C220.1-1210.6,216.1-1207.2,211.6-1204.7z"/>
</g>
<g id="fMi2FVeJlrMTj7o94ALD5" transform="matrix(1 0 0 1 155.88 1407.36)">
	<path vector-effect="non-scaling-stroke" d="M199-1194.9l-0.1,0.1v0.2L199-1194.9z"/>
</g>
<g id="opszdGfmgr1kSO44jNQj-" transform="matrix(1 0 0 1 156.25 1370.28)">
	<path vector-effect="non-scaling-stroke" d="M198.3-1195.8c0,0.6,0,1.3,0,2c0.4-0.5,0.8-1,1.3-1.5L198.3-1195.8z"/>
</g>
<g id="mtjLHPbDsmB1jdOi2rrvV" transform="matrix(1 0 0 1 120.87 1398.63)">
	<path vector-effect="non-scaling-stroke" d="M199.1-1194.8h-0.2H199.1L199.1-1194.8L199.1-1194.8z"/>
</g>
<g id="XTONNvyI5Eo9cQ1L7o_XM" transform="matrix(1 0 0 1 120.98 1398.63)">
	<path vector-effect="non-scaling-stroke" d="M199-1194.8L199-1194.8L199-1194.8z"/>
</g>
<g id="_x37_khcRhDLQmmeVgx-ArA7E" transform="matrix(1 0 0 1 121.06 1398.59)">
	<path vector-effect="non-scaling-stroke" d="M199-1194.8h-0.1l0,0H199z"/>
</g>
<g id="Dpor9xbvxSZg9VfW1dVR8" transform="matrix(1 0 0 1 122.02 1413.7)">
	<path vector-effect="non-scaling-stroke" d="M198.7-1194.8h0.6l0,0H198.7z"/>
</g>
<g id="PT2Tq9uF3tEmAzytrxbo0" transform="matrix(1 0 0 1 121.04 1398.47)">
	<path vector-effect="non-scaling-stroke" d="M198.9-1194.6L198.9-1194.6l0.2,0.1l-0.2-0.5h-0.1
		C198.8-1194.9,198.8-1194.8,198.9-1194.6l0.1-0.1L198.9-1194.6z"/>
</g>
<g id="LXIu-H2Fh3xfLHH7Gg7qM" transform="matrix(1 0 0 1 117.9 1386.64)">
	<path vector-effect="non-scaling-stroke" d="M199.1-1194.4l0.1-0.1l-0.4-0.5l-0.2,0.1L199.1-1194.4z"/>
</g>
<g id="Rzrl8zYrtjmNQfwpXITbr" transform="matrix(1 0 0 1 116.15 1214.23)">
	<path vector-effect="non-scaling-stroke" d="M229.8-1213.7c-19.6,14.1-40.2,26.8-61.6,37.9C187.8-1189.9,208.4-1202.6,229.8-1213.7
		z"/>
</g>
</svg>
